<svg width="210" height="43" viewBox="0 0 210 43" fill="none" xmlns="http://www.w3.org/2000/svg">
<path d="M72.0299 42.7129C72.2286 42.7129 72.3989 42.6419 72.539 42.5018C72.6792 42.3616 72.7537 42.1913 72.7626 41.9927V35.6505C72.7555 35.4518 72.6809 35.2815 72.539 35.1414C72.3971 34.9994 72.2268 34.9303 72.0299 34.9303H71.8809V34.8149H74.3876V34.9303H74.2385C73.9636 34.9303 73.7542 35.0491 73.6088 35.2851C73.5396 35.4004 73.5059 35.521 73.5059 35.6523V42.477H75.1433C75.7074 42.477 76.1403 42.351 76.4366 42.0991C76.7346 41.8472 76.983 41.4729 77.1817 40.9761H77.297L76.6335 42.8318H71.8809V42.7165H72.0299V42.7129Z" fill="#030303"/>
<path d="M80.2581 35.8048C81.0174 35.0385 82.009 34.6553 83.2296 34.6553C84.4501 34.6553 85.4435 35.0385 86.2064 35.8048C86.9692 36.5712 87.3524 37.5789 87.3524 38.8225C87.3524 40.0661 86.971 41.0737 86.2064 41.8401C85.4435 42.6065 84.4501 42.9914 83.2296 42.9914C82.009 42.9914 81.0174 42.6082 80.2581 41.8401C79.4988 41.0737 79.1191 40.0678 79.1191 38.8225C79.1191 37.5771 79.4988 36.573 80.2581 35.8048ZM80.8878 41.5935C81.4786 42.296 82.2609 42.6473 83.2349 42.6473C84.2088 42.6473 84.9894 42.296 85.5819 41.5935C86.1744 40.891 86.4689 39.9685 86.4689 38.8225C86.4689 38.0667 86.3359 37.3997 86.068 36.8196C85.8001 36.2395 85.4205 35.7907 84.9291 35.4731C84.4359 35.1573 83.87 34.9977 83.2278 34.9977C82.2592 34.9977 81.4768 35.3489 80.8861 36.0514C80.2935 36.7539 79.9991 37.6764 79.9991 38.8225C79.9991 39.9685 80.2953 40.891 80.8861 41.5935H80.8878Z" fill="#030303"/>
<path d="M97.5043 34.9344C97.3127 34.9344 97.1494 35.0018 97.0111 35.1348C96.8745 35.2679 96.8017 35.4311 96.7929 35.6209V41.5284C96.7929 41.9719 96.8195 42.3906 96.8727 42.788L96.8958 42.9938H96.7929L90.5536 36.3305V42.0322C90.5607 42.2983 90.6796 42.497 90.9084 42.6283C91.0149 42.6886 91.1302 42.7188 91.2526 42.7188H91.4708V42.8341H89.1113V42.7188H89.3295C89.5211 42.7188 89.6843 42.6514 89.8227 42.5183C89.9611 42.3853 90.0285 42.2185 90.0285 42.0198V36.0768C90.0285 35.612 90.0019 35.1951 89.9487 34.8297L89.9256 34.647H90.0409L96.2819 41.3102V35.6316C96.2748 35.4329 96.2021 35.2679 96.0637 35.1331C95.9254 35 95.7622 34.9326 95.5706 34.9326H95.3524V34.8173H97.71V34.9326H97.5043V34.9344Z" fill="#030303"/>
<path d="M106.572 35.9202C107.331 36.6564 107.711 37.625 107.711 38.8225C107.711 40.0199 107.331 40.9885 106.572 41.7248C105.812 42.461 104.821 42.83 103.6 42.83H99.7186V42.7147H99.8676C100.066 42.7147 100.237 42.6437 100.377 42.5036C100.517 42.3634 100.591 42.1931 100.6 41.9944V35.5831C100.6 35.4004 100.526 35.246 100.377 35.1183C100.228 34.9923 100.057 34.9303 99.8676 34.9303H99.7292L99.7168 34.8149H103.598C104.819 34.8149 105.811 35.1839 106.57 35.9202H106.572ZM101.345 35.1591V42.4876H103.6C104.241 42.4876 104.808 42.335 105.3 42.0299C105.793 41.7248 106.174 41.2955 106.446 40.742C106.717 40.1885 106.852 39.5498 106.852 38.8242C106.852 37.7243 106.552 36.8391 105.952 36.1685C105.353 35.4962 104.569 35.1609 103.6 35.1609H101.345V35.1591Z" fill="#030303"/>
<path d="M111.125 35.8048C111.885 35.0385 112.876 34.6553 114.097 34.6553C115.317 34.6553 116.311 35.0385 117.074 35.8048C117.836 36.5712 118.22 37.5789 118.22 38.8225C118.22 40.0661 117.838 41.0737 117.074 41.8401C116.311 42.6065 115.317 42.9914 114.097 42.9914C112.876 42.9914 111.885 42.6082 111.125 41.8401C110.366 41.0737 109.986 40.0678 109.986 38.8225C109.986 37.5771 110.366 36.573 111.125 35.8048ZM111.755 41.5935C112.346 42.296 113.128 42.6473 114.102 42.6473C115.076 42.6473 115.857 42.296 116.449 41.5935C117.042 40.891 117.336 39.9685 117.336 38.8225C117.336 38.0667 117.203 37.3997 116.935 36.8196C116.667 36.2395 116.288 35.7907 115.796 35.4731C115.303 35.1573 114.737 34.9977 114.095 34.9977C113.126 34.9977 112.344 35.3489 111.753 36.0514C111.161 36.7539 110.866 37.6764 110.866 38.8225C110.866 39.9685 111.163 40.891 111.753 41.5935H111.755Z" fill="#030303"/>
<path d="M128.381 34.9344C128.19 34.9344 128.026 35.0018 127.888 35.1348C127.751 35.2679 127.679 35.4311 127.67 35.6209V41.5284C127.67 41.9719 127.696 42.3906 127.75 42.788L127.773 42.9938H127.67L121.431 36.3305V42.0322C121.438 42.2983 121.557 42.497 121.785 42.6283C121.892 42.6886 122.007 42.7188 122.13 42.7188H122.348V42.8341H119.988V42.7188H120.206C120.398 42.7188 120.561 42.6514 120.7 42.5183C120.838 42.3853 120.905 42.2185 120.905 42.0198V36.0768C120.905 35.612 120.879 35.1951 120.826 34.8297L120.803 34.647H120.918L127.159 41.3102V35.6316C127.152 35.4329 127.079 35.2679 126.941 35.1331C126.802 35 126.639 34.9326 126.448 34.9326H126.229V34.8173H128.587V34.9326H128.381V34.9344Z" fill="#030303"/>
<path d="M10.4916 28.1666C7.3285 28.1666 4.7881 27.2548 2.87215 25.4328C0.957974 23.6109 0 21.1486 0 18.0493C0 14.9501 0.957974 12.4931 2.87215 10.68C4.7881 8.86698 7.3835 7.96045 10.6583 7.96045C12.1397 7.96045 13.5731 8.10237 14.9604 8.38976C16.3477 8.67716 17.4671 9.03196 18.3186 9.45773L18.3754 14.2316H18.1252C17.6445 12.4363 16.8195 11.1377 15.654 10.3323C14.4885 9.52691 13.1012 9.12421 11.4904 9.12421C9.25154 9.12421 7.53074 9.9243 6.32795 11.5262C5.12516 13.1264 4.52199 15.3191 4.52199 18.1043C4.52199 20.8896 5.07371 23.0681 6.17361 24.6398C7.27351 26.2134 8.83465 26.9993 10.8517 26.9993C12.3135 26.9993 13.534 26.5824 14.5151 25.7504C14.9958 25.3246 15.3471 24.8261 15.5706 24.2513V20.0043C15.5706 19.5981 15.4447 19.2858 15.1963 19.0747C14.9462 18.8618 14.5896 18.7554 14.1283 18.7554H13.6848V18.4769H21.4852V18.7554H21.0683C20.6248 18.7554 20.2807 18.8601 20.0412 19.0747C19.8017 19.2876 19.681 19.5981 19.681 20.0043V24.5831C18.959 25.5269 17.7651 26.3606 16.0993 27.0827C14.4335 27.8047 12.5654 28.1648 10.4916 28.1648V28.1666Z" fill="#E2C675"/>
<path d="M28.4925 10.68C30.4634 8.86698 33.1173 7.96045 36.4596 7.96045C39.8019 7.96045 42.4558 8.86698 44.4268 10.68C46.3977 12.4949 47.3841 14.9554 47.3841 18.0635C47.3841 21.1716 46.3977 23.634 44.4268 25.447C42.4558 27.2619 39.8001 28.1666 36.4596 28.1666C33.1191 28.1666 30.4634 27.2601 28.4925 25.447C26.5215 23.634 25.5352 21.1734 25.5352 18.0635C25.5352 14.9537 26.5215 12.4949 28.4925 10.68ZM31.7957 24.6008C32.9346 26.201 34.4833 27.0011 36.4454 27.0011C38.4075 27.0011 39.9615 26.2028 41.1076 24.6008C42.2554 23.0006 42.8284 20.8204 42.8284 18.0635C42.8284 15.3067 42.2554 13.1282 41.1076 11.528C39.9598 9.92784 38.4057 9.12598 36.4454 9.12598C34.4851 9.12598 32.9346 9.92607 31.7957 11.528C30.6568 13.1282 30.0873 15.3085 30.0873 18.0635C30.0873 20.8186 30.6568 23.0006 31.7957 24.6008Z" fill="#E2C675"/>
<path d="M51.7369 27.5079C52.2177 27.5079 52.6292 27.3375 52.9716 26.9934C53.314 26.651 53.495 26.2394 53.5127 25.7587V10.3814C53.4932 9.90064 53.314 9.48907 52.9716 9.14668C52.6292 8.8043 52.2177 8.63222 51.7369 8.63222H51.3768V8.35547H59.814L59.7874 8.63222H59.4539C58.9732 8.63222 58.5563 8.80252 58.205 9.14668C57.852 9.48907 57.6763 9.90064 57.6763 10.3814V26.5907H61.3131C62.6631 26.5907 63.7967 26.2022 64.7121 25.4251C65.6293 24.6481 66.3088 23.5465 66.754 22.1219H67.0308L65.7535 27.7846H51.375V27.5079H51.7351H51.7369Z" fill="#E2C675"/>
<path d="M88.3758 10.9615C90.2811 12.7018 91.2356 15.0702 91.2356 18.0683C91.2356 21.0664 90.2811 23.4365 88.3758 25.175C86.4687 26.9153 83.8804 27.7846 80.6038 27.7846H70.5273V27.5079H70.8875C71.3682 27.5079 71.7798 27.3375 72.1222 26.9934C72.4646 26.651 72.6455 26.2394 72.6633 25.7587V10.2146C72.6633 9.77114 72.4823 9.39505 72.1222 9.08992C71.7621 8.78478 71.3505 8.63222 70.8875 8.63222H70.5273V8.35547H80.6038C83.8787 8.35547 86.4687 9.22474 88.3758 10.9633V10.9615ZM80.2419 26.5889C81.5742 26.5889 82.7255 26.2465 83.6995 25.5635C84.6717 24.8787 85.415 23.8924 85.933 22.6062C86.451 21.32 86.71 19.9186 86.71 18.4C86.71 16.8814 86.5574 15.5935 86.2523 14.5273C85.9472 13.4629 85.5161 12.5599 84.9608 11.8201C83.813 10.2838 82.2412 9.51746 80.2419 9.51746H76.8269V26.5871H80.2419V26.5889Z" fill="#E2C675"/>
<path d="M120.025 27.7828H111.254V27.5061H111.614C112.281 27.5061 112.79 27.2187 113.141 26.6457C113.289 26.3867 113.372 26.0993 113.392 25.7853V10.353C113.372 9.87226 113.193 9.46424 112.851 9.13072C112.508 8.79898 112.097 8.63222 111.616 8.63222H111.256V8.35547H119.304C121.451 8.35547 123.158 8.74398 124.426 9.521C125.693 10.298 126.335 11.4919 126.354 13.101C126.335 13.917 126.161 14.6284 125.828 15.2387C125.217 16.3865 124.254 17.0446 122.941 17.2096C124.364 17.3409 125.54 17.8731 126.466 18.8063C127.39 19.7394 127.853 20.9298 127.853 22.372C127.853 24.1124 127.155 25.4482 125.757 26.3831C124.36 27.318 122.45 27.7846 120.025 27.7846V27.7828ZM121.912 13.4593C121.893 10.8497 120.709 9.54407 118.359 9.54407H117.553V26.5038H118.886C120.163 26.5038 121.181 26.1348 121.939 25.3932C122.696 24.6534 123.078 23.5234 123.078 22.0066C123.078 20.4898 122.65 19.3598 121.8 18.6182C120.947 17.8784 119.847 17.5077 118.497 17.5077V17.2575C119.459 17.2575 120.264 16.9489 120.912 16.3279C121.559 15.7088 121.893 14.7508 121.91 13.4558L121.912 13.4593Z" fill="#030303"/>
<path d="M151.501 27.5067H151.751V27.7834H142.895V27.5067H143.145C143.551 27.5067 143.853 27.3807 144.046 27.1323C144.24 26.8822 144.337 26.6463 144.337 26.4245C144.337 26.2027 144.291 25.981 144.199 25.7575L142.84 22.3425H136.343L134.901 25.7575C134.807 25.9987 134.763 26.2258 134.763 26.4387C134.763 26.6516 134.864 26.8822 135.066 27.1323C135.27 27.3825 135.575 27.5067 135.983 27.5067H136.205V27.7834H130.266V27.5067H130.516C130.942 27.5067 131.366 27.3772 131.793 27.1181C132.217 26.8591 132.57 26.4689 132.847 25.9526L139.258 11.4358C140.127 9.60319 140.59 8.39331 140.645 7.80078H140.896L149.139 25.8976C149.416 26.4351 149.769 26.8361 150.195 27.1057C150.621 27.3754 151.055 27.5084 151.501 27.5084V27.5067ZM136.817 21.1787H142.368L139.675 14.3505L136.815 21.1787H136.817Z" fill="#030303"/>
<path d="M175.791 8.63097C175.143 8.63097 174.652 8.90771 174.32 9.46298C174.173 9.70248 174.088 9.981 174.07 10.295V24.6185C174.07 25.8585 174.153 26.9034 174.32 27.755L174.403 28.1719H174.153L160.137 14.8205V25.8408C160.137 26.3038 160.302 26.6959 160.635 27.0205C160.969 27.3452 161.366 27.5066 161.829 27.5066H162.356V27.7833H153.945V27.5066H154.446C154.926 27.5066 155.333 27.3452 155.666 27.0205C156 26.6959 156.166 26.2949 156.166 25.8124V11.4055C156.166 10.185 156.083 9.16672 155.916 8.35244L155.861 7.93555H156.111L170.128 21.2869V10.3216C170.108 9.84085 169.935 9.43815 169.601 9.1135C169.268 8.78885 168.87 8.62742 168.407 8.62742H167.909V8.35067H176.319V8.62742H175.791V8.63097Z" fill="#030303"/>
<path d="M180.424 27.5026C180.905 27.5026 181.317 27.3323 181.659 26.9881C182.002 26.6458 182.182 26.2342 182.2 25.7534V10.3496C182.181 9.68252 181.876 9.18402 181.283 8.8505C181.024 8.70326 180.737 8.62875 180.423 8.62875H180.062V8.352H188.5L188.473 8.62875H188.14C187.474 8.62875 186.963 8.91614 186.614 9.48915C186.447 9.74816 186.364 10.0356 186.364 10.3496V25.7534C186.364 26.2342 186.539 26.6475 186.892 26.9881C187.244 27.3305 187.659 27.5026 188.141 27.5026H188.475L188.502 27.7794H180.064V27.5026H180.424ZM200.466 27.7794H198.19C195.378 27.7794 193.387 27.013 192.222 25.4749C188.91 20.9795 187.253 18.6928 187.253 18.6183L193.831 9.9025C193.978 9.71623 194.052 9.55124 194.052 9.40222C194.052 9.25321 194.024 9.12548 193.969 9.01371C193.822 8.73697 193.563 8.59682 193.192 8.59682H192.915V8.34668H199.273V8.59682H199.162C197.922 8.59682 196.914 9.04032 196.137 9.92911L190.724 16.3404L197.636 25.7765C198.488 26.887 199.431 27.46 200.467 27.4973V27.774L200.466 27.7794Z" fill="#030303"/>
<path d="M101.304 7.96045H100.17V28.1666H101.304V7.96045Z" fill="#030303"/>
<path d="M132.541 38.5347L161.087 38.8185L132.541 39.1006V38.5347Z" fill="#030303"/>
<path d="M67.9287 38.5349L39.3828 38.8188L67.9287 39.1008V38.5349Z" fill="#030303"/>
<path d="M205.537 3.81358V2.69763C205.537 2.38757 205.661 2.32606 205.94 2.32606C206.187 2.32606 206.684 2.45033 206.684 3.03907C206.684 3.34912 206.591 3.56629 206.343 3.69057C206.219 3.78346 205.971 3.81358 205.816 3.81358H205.537ZM208.265 5.76682C208.142 5.70531 208.017 5.61117 207.862 5.45676C207.396 4.9308 207.149 4.5881 206.839 3.99937C207.335 3.81358 207.676 3.47214 207.676 2.94492C207.676 2.04613 206.87 1.85909 206.187 1.85909H204.08V2.32481C204.575 2.35619 204.637 2.35619 204.637 2.91479V5.02243C204.637 5.58104 204.575 5.58104 204.048 5.61242V6.10826H206.126V5.61242C205.599 5.58104 205.536 5.58104 205.536 5.02243V4.27804H205.66C205.814 4.27804 205.97 4.30943 206.094 4.49521C206.217 4.71237 206.373 5.11532 206.652 5.48689C207.023 5.98273 207.458 6.13839 208.14 6.13839L208.263 5.76682H208.265ZM205.97 0.713007C207.768 0.713007 209.101 2.1704 209.101 3.99937C209.101 5.82833 207.768 7.25435 205.97 7.25435C204.172 7.25435 202.869 5.85846 202.869 3.99937C202.869 2.14028 204.141 0.713007 205.97 0.713007ZM205.97 0C203.707 0 201.971 1.82896 201.971 3.99937C201.971 6.16977 203.677 7.99873 205.97 7.99873C208.263 7.99873 210.001 6.10826 210.001 3.99937C210.001 1.89047 208.265 0 205.97 0Z" fill="#030303"/>
</svg>
