
<svg width="700" height="156" viewBox="0 0 700 156" fill="none" xmlns="http://www.w3.org/2000/svg">
<g clip-path="url(#clip0_32544_6830)">
<path d="M240.096 154.881C240.759 154.881 241.326 154.645 241.793 154.178C242.261 153.71 242.509 153.143 242.539 152.48V131.34C242.515 130.678 242.267 130.11 241.793 129.643C241.32 129.17 240.753 128.939 240.096 128.939H239.6V128.555H247.955V128.939H247.459C246.542 128.939 245.844 129.335 245.359 130.122C245.129 130.506 245.016 130.908 245.016 131.346V154.095H250.474C252.355 154.095 253.798 153.675 254.785 152.835C255.779 151.996 256.607 150.748 257.269 149.092H257.653L255.442 155.277H239.6V154.893H240.096V154.881Z" fill="#030303"/>
<path d="M267.524 131.851C270.055 129.297 273.361 128.02 277.429 128.02C281.497 128.02 284.809 129.297 287.352 131.851C289.894 134.406 291.172 137.765 291.172 141.91C291.172 146.055 289.9 149.414 287.352 151.969C284.809 154.524 281.497 155.807 277.429 155.807C273.361 155.807 270.055 154.529 267.524 151.969C264.993 149.414 263.728 146.061 263.728 141.91C263.728 137.759 264.993 134.412 267.524 131.851ZM269.623 151.147C271.592 153.489 274.2 154.66 277.447 154.66C280.693 154.66 283.295 153.489 285.27 151.147C287.245 148.805 288.227 145.73 288.227 141.91C288.227 139.391 287.783 137.168 286.89 135.234C285.998 133.3 284.732 131.804 283.094 130.746C281.45 129.693 279.564 129.161 277.423 129.161C274.194 129.161 271.586 130.332 269.617 132.673C267.642 135.015 266.661 138.09 266.661 141.91C266.661 145.73 267.648 148.805 269.617 151.147H269.623Z" fill="#030303"/>
<path d="M325.015 128.954C324.376 128.954 323.832 129.179 323.371 129.622C322.915 130.066 322.673 130.61 322.643 131.243V150.934C322.643 152.413 322.732 153.808 322.909 155.133L322.986 155.819H322.643L301.846 133.608V152.614C301.869 153.501 302.266 154.163 303.028 154.601C303.383 154.802 303.768 154.902 304.176 154.902H304.903V155.287H297.038V154.902H297.765C298.404 154.902 298.948 154.677 299.409 154.234C299.871 153.79 300.095 153.235 300.095 152.572V132.762C300.095 131.213 300.007 129.823 299.829 128.605L299.752 127.996H300.137L320.94 150.207V131.278C320.917 130.616 320.674 130.066 320.213 129.616C319.752 129.173 319.208 128.948 318.569 128.948H317.842V128.564H325.7V128.948H325.015V128.954Z" fill="#030303"/>
<path d="M355.239 132.239C357.77 134.693 359.036 137.922 359.036 141.913C359.036 145.905 357.77 149.133 355.239 151.587C352.708 154.042 349.403 155.272 345.334 155.272H332.396V154.887H332.892C333.555 154.887 334.122 154.651 334.589 154.183C335.057 153.716 335.305 153.149 335.335 152.486V131.115C335.335 130.506 335.086 129.992 334.589 129.566C334.093 129.146 333.525 128.939 332.892 128.939H332.431L332.39 128.555H345.328C349.397 128.555 352.702 129.785 355.233 132.239H355.239ZM337.818 129.702V154.13H345.334C347.469 154.13 349.361 153.622 350.999 152.605C352.643 151.587 353.915 150.156 354.819 148.311C355.724 146.466 356.173 144.338 356.173 141.919C356.173 138.253 355.174 135.302 353.175 133.067C351.177 130.825 348.563 129.708 345.334 129.708H337.818V129.702Z" fill="#030303"/>
<path d="M427.938 128.954C427.299 128.954 426.755 129.179 426.294 129.622C425.839 130.066 425.596 130.61 425.567 131.243V150.934C425.567 152.413 425.655 153.808 425.833 155.133L425.909 155.819H425.567L404.769 133.608V152.614C404.793 153.501 405.189 154.163 405.952 154.601C406.306 154.802 406.691 154.902 407.099 154.902H407.826V155.287H399.961V154.902H400.689C401.327 154.902 401.871 154.677 402.333 154.234C402.794 153.79 403.019 153.235 403.019 152.572V132.762C403.019 131.213 402.93 129.823 402.753 128.605L402.676 127.996H403.06L423.863 150.207V131.278C423.84 130.616 423.597 130.066 423.136 129.616C422.675 129.173 422.131 128.948 421.492 128.948H420.765V128.564H428.624V128.948H427.938V128.954Z" fill="#030303"/>
<path d="M94.9783 48.1004C101.548 42.0569 110.395 39.0352 121.535 39.0352C132.676 39.0352 141.523 42.0569 148.093 48.1004C154.662 54.1499 157.95 62.3518 157.95 72.7121C157.95 83.0724 154.662 91.2803 148.093 97.3238C141.523 103.373 132.67 106.389 121.535 106.389C110.4 106.389 101.548 103.367 94.9783 97.3238C88.4085 91.2803 85.1206 83.0783 85.1206 72.7121C85.1206 62.3459 88.4085 54.1499 94.9783 48.1004ZM105.989 94.5031C109.785 99.837 114.948 102.504 121.488 102.504C128.028 102.504 133.209 99.8429 137.029 94.5031C140.855 89.1692 142.765 81.9016 142.765 72.7121C142.765 63.5226 140.855 56.261 137.029 50.927C133.203 45.5931 128.022 42.9203 121.488 42.9203C114.954 42.9203 109.785 45.5872 105.989 50.927C102.193 56.261 100.294 63.5286 100.294 72.7121C100.294 81.8957 102.193 89.1692 105.989 94.5031Z" fill="url(#paint0_linear_32544_6830)"/>
<path d="M172.453 104.193C174.056 104.193 175.428 103.625 176.569 102.478C177.71 101.337 178.314 99.9648 178.373 98.3622V47.1047C178.308 45.5022 177.71 44.1302 176.569 42.9889C175.428 41.8477 174.056 41.2741 172.453 41.2741H171.253V40.3516H199.377L199.289 41.2741H198.177C196.574 41.2741 195.185 41.8417 194.014 42.9889C192.837 44.1302 192.252 45.5022 192.252 47.1047V101.136H204.374C208.874 101.136 212.653 99.8406 215.704 97.2505C218.761 94.6604 221.026 90.9882 222.511 86.2397H223.433L219.175 105.115H171.247V104.193H172.448H172.453Z" fill="url(#paint1_linear_32544_6830)"/>
<path d="M294.59 49.0384C300.941 54.8395 304.122 62.7339 304.122 72.7276C304.122 82.7212 300.941 90.6216 294.59 96.4167C288.233 102.218 279.605 105.115 268.683 105.115H235.095V104.193H236.295C237.898 104.193 239.27 103.625 240.411 102.478C241.552 101.337 242.155 99.9648 242.214 98.3623V46.5488C242.214 45.0705 241.611 43.8168 240.411 42.7997C239.21 41.7826 237.839 41.2741 236.295 41.2741H235.095V40.3516H268.683C279.599 40.3516 288.233 43.2491 294.59 49.0443V49.0384ZM267.477 101.13C271.918 101.13 275.755 99.9884 279.002 97.7118C282.242 95.4292 284.72 92.1413 286.447 87.8541C288.174 83.5669 289.037 78.8953 289.037 73.8334C289.037 68.7715 288.528 64.4783 287.511 60.9244C286.494 57.3763 285.057 54.3664 283.206 51.9005C279.38 46.7795 274.141 44.2249 267.477 44.2249H256.093V101.124H267.477V101.13Z" fill="url(#paint2_linear_32544_6830)"/>
<path d="M400.086 105.109H370.85V104.187H372.05C374.273 104.187 375.971 103.229 377.142 101.319C377.632 100.456 377.91 99.4976 377.975 98.4509V47.0101C377.91 45.4075 377.313 44.0475 376.172 42.9357C375.03 41.8299 373.658 41.2741 372.056 41.2741H370.856V40.3516H397.685C404.84 40.3516 410.529 41.6466 414.757 44.2367C418.979 46.8268 421.12 50.8065 421.185 56.17C421.12 58.8901 420.54 61.2614 419.428 63.2956C417.394 67.1216 414.183 69.3155 409.807 69.8655C414.55 70.3031 418.47 72.0771 421.557 75.1875C424.638 78.298 426.182 82.2659 426.182 87.0735C426.182 92.8746 423.852 97.3274 419.192 100.444C414.538 103.56 408.169 105.115 400.086 105.115V105.109ZM406.377 57.3645C406.312 48.6658 402.368 44.3136 394.533 44.3136H391.848V100.846H396.289C400.547 100.846 403.941 99.6159 406.466 97.1441C408.991 94.6782 410.263 90.9113 410.263 85.8554C410.263 80.7994 408.837 77.0325 406.005 74.5607C403.161 72.0948 399.494 70.8589 394.994 70.8589V70.0251C398.199 70.0251 400.884 68.9962 403.042 66.9265C405.201 64.8627 406.312 61.6695 406.372 57.3527L406.377 57.3645Z" fill="#030303"/>
<path d="M505.003 104.19H505.837V105.113H476.317V104.19H477.151C478.505 104.19 479.51 103.77 480.155 102.942C480.799 102.109 481.125 101.322 481.125 100.583C481.125 99.8438 480.971 99.1047 480.663 98.3596L476.134 86.9762H454.479L449.671 98.3596C449.358 99.1638 449.21 99.9207 449.21 100.63C449.21 101.34 449.547 102.109 450.221 102.942C450.901 103.776 451.918 104.19 453.278 104.19H454.017V105.113H434.219V104.19H435.053C436.472 104.19 437.886 103.759 439.311 102.895C440.724 102.032 441.901 100.731 442.823 99.01L464.194 50.6205C467.092 44.5119 468.635 40.479 468.819 38.5039H469.652L497.132 98.8267C498.055 100.618 499.231 101.955 500.651 102.854C502.07 103.753 503.519 104.196 505.003 104.196V104.19ZM456.058 83.097H474.561L465.584 60.3363L456.052 83.097H456.058Z" fill="#030303"/>
<path d="M585.973 41.2634C583.814 41.2634 582.176 42.1859 581.07 44.0368C580.58 44.8351 580.296 45.7635 580.237 46.8102V94.5552C580.237 98.6886 580.515 102.172 581.07 105.01L581.348 106.4H580.515L533.793 61.8953V98.6295C533.793 100.173 534.343 101.48 535.454 102.562C536.566 103.644 537.891 104.182 539.434 104.182H541.19V105.105H513.155V104.182H514.822C516.425 104.182 517.779 103.644 518.891 102.562C520.003 101.48 520.558 100.143 520.558 98.5349V50.512C520.558 46.4435 520.28 43.0492 519.725 40.335L519.541 38.9453H520.375L567.097 83.4497V46.8989C567.032 45.2963 566.452 43.954 565.341 42.8718C564.229 41.7897 562.904 41.2515 561.361 41.2515H559.699V40.3291H587.735V41.2515H585.973V41.2634Z" fill="#030303"/>
<path d="M601.412 104.177C603.014 104.177 604.386 103.61 605.528 102.462C606.669 101.321 607.272 99.9493 607.331 98.3467V47.0005C607.266 44.777 606.249 43.1154 604.274 42.0036C603.411 41.5128 602.453 41.2645 601.406 41.2645H600.206V40.342H628.33L628.241 41.2645H627.129C624.912 41.2645 623.209 42.2224 622.044 44.1325C621.488 44.9958 621.21 45.9538 621.21 47.0005V98.3467C621.21 99.9493 621.795 101.327 622.972 102.462C624.143 103.604 625.527 104.177 627.135 104.177H628.247L628.336 105.1H600.211V104.177H601.412ZM668.216 105.1H660.629C651.256 105.1 644.621 102.545 640.736 97.4183C629.696 82.4337 624.173 74.8113 624.173 74.5629L646.1 45.5103C646.59 44.8894 646.839 44.3394 646.839 43.8427C646.839 43.346 646.744 42.9202 646.561 42.5477C646.07 41.6252 645.207 41.158 643.971 41.158H643.048V40.3242H664.242V41.158H663.87C659.736 41.158 656.377 42.6364 653.787 45.599L635.745 66.9701L658.784 98.4236C661.622 102.125 664.768 104.035 668.222 104.16V105.082L668.216 105.1Z" fill="#030303"/>
<path d="M337.679 39.0352H333.9V106.389H337.679V39.0352Z" fill="#030303"/>
<path d="M441.807 140.949L536.96 141.895L441.807 142.836V140.949Z" fill="#030303"/>
<path d="M226.429 140.949L131.276 141.895L226.429 142.836V140.949Z" fill="#030303"/>
<path d="M685.121 25.212V21.4921C685.121 20.4586 685.535 20.2535 686.464 20.2535C687.288 20.2535 688.945 20.6678 688.945 22.6302C688.945 23.6638 688.635 24.3876 687.807 24.8019C687.393 25.1115 686.568 25.212 686.049 25.212H685.121ZM694.213 31.7228C693.803 31.5177 693.389 31.2039 692.87 30.6892C691.317 28.936 690.493 27.7937 689.46 25.8312C691.113 25.212 692.251 24.0738 692.251 22.3164C692.251 19.3204 689.564 18.697 687.288 18.697H680.263V20.2494C681.915 20.354 682.12 20.354 682.12 22.216V29.2415C682.12 31.1035 681.915 31.1035 680.158 31.2081V32.8609H687.083V31.2081C685.326 31.1035 685.116 31.1035 685.116 29.2415V26.7602H685.531C686.045 26.7602 686.564 26.8648 686.978 27.484C687.388 28.2079 687.907 29.5511 688.836 30.7896C690.075 32.4425 691.523 32.9613 693.799 32.9613L694.209 31.7228H694.213ZM686.564 14.8767C692.556 14.8767 697 19.7347 697 25.8312C697 31.9278 692.556 36.6812 686.564 36.6812C680.572 36.6812 676.229 32.0282 676.229 25.8312C676.229 19.6343 680.468 14.8767 686.564 14.8767ZM686.564 12.5C679.02 12.5 673.233 18.5965 673.233 25.8312C673.233 33.0659 678.919 39.1625 686.564 39.1625C694.209 39.1625 700 32.8609 700 25.8312C700 18.8016 694.213 12.5 686.564 12.5Z" fill="#030303"/>
<path d="M370.075 132.437C372.606 129.883 375.911 128.605 379.98 128.605C384.048 128.605 387.36 129.883 389.902 132.437C392.445 134.992 393.723 138.351 393.723 142.496C393.723 146.641 392.451 150 389.902 152.555C387.36 155.109 384.048 156.393 379.98 156.393C375.911 156.393 372.606 155.115 370.075 152.555C367.544 150 366.278 146.647 366.278 142.496C366.278 138.345 367.544 134.998 370.075 132.437ZM372.174 151.733C374.143 154.075 376.751 155.245 379.997 155.245C383.244 155.245 385.846 154.075 387.821 151.733C389.796 149.391 390.778 146.316 390.778 142.496C390.778 139.977 390.334 137.754 389.441 135.82C388.548 133.886 387.283 132.39 385.645 131.332C384.001 130.279 382.114 129.747 379.974 129.747C376.745 129.747 374.137 130.918 372.168 133.259C370.193 135.601 369.211 138.676 369.211 142.496C369.211 146.316 370.199 149.391 372.168 151.733H372.174Z" fill="#030303"/>
<g filter="url(#filter0_f_32544_6830)">
<path fill-rule="evenodd" clip-rule="evenodd" d="M121.544 67.9531C157.975 114.487 85.114 114.487 121.544 67.9531V67.9531Z" fill="url(#paint3_linear_32544_6830)"/>
<path fill-rule="evenodd" clip-rule="evenodd" d="M121.544 74.7188C148.32 112.429 94.7687 112.429 121.544 74.7188V74.7188Z" fill="url(#paint4_linear_32544_6830)"/>
<path fill-rule="evenodd" clip-rule="evenodd" d="M121.545 83.9102C141.369 109.292 101.72 109.292 121.545 83.9102V83.9102Z" fill="url(#paint5_linear_32544_6830)"/>
</g>
<path fill-rule="evenodd" clip-rule="evenodd" d="M121.544 67.9531C157.975 114.487 85.114 114.487 121.544 67.9531V67.9531Z" fill="url(#paint6_linear_32544_6830)"/>
<path fill-rule="evenodd" clip-rule="evenodd" d="M121.544 74.7188C148.32 112.429 94.7687 112.429 121.544 74.7188V74.7188Z" fill="url(#paint7_linear_32544_6830)"/>
<path fill-rule="evenodd" clip-rule="evenodd" d="M121.545 83.9102C141.369 109.292 101.72 109.292 121.545 83.9102V83.9102Z" fill="url(#paint8_linear_32544_6830)"/>
<path fill-rule="evenodd" clip-rule="evenodd" d="M107.179 72.7695L107.37 73.4266L107.476 73.7864L107.836 73.8909L108.493 74.0837L107.836 74.2765L107.476 74.3811L107.37 74.7408L107.179 75.3979L106.986 74.7408L106.88 74.3811L106.522 74.2765L105.865 74.0837L106.522 73.8909L106.88 73.7864L106.986 73.4266L107.179 72.7695Z" fill="#F39E13"/>
<path fill-rule="evenodd" clip-rule="evenodd" d="M114.533 59.6289L115.175 61.8189L115.525 63.0169L116.723 63.3668L118.913 64.0088L116.723 64.6508L115.525 65.0022L115.175 66.1988L114.533 68.3902L113.891 66.1988L113.539 65.0022L112.343 64.6508L110.151 64.0088L112.343 63.3668L113.539 63.0169L113.891 61.8189L114.533 59.6289Z" fill="#F39E13"/>
<path fill-rule="evenodd" clip-rule="evenodd" d="M125.045 57L125.43 58.3146L125.641 59.0328L126.359 59.2439L127.673 59.6292L126.359 60.0145L125.641 60.224L125.43 60.9438L125.045 62.2568L124.66 60.9438L124.45 60.224L123.731 60.0145L122.417 59.6292L123.731 59.2439L124.45 59.0328L124.66 58.3146L125.045 57Z" fill="#F39E13"/>
<path fill-rule="evenodd" clip-rule="evenodd" d="M131.179 66.6367L131.692 68.1703L131.972 69.0087L132.93 69.2541L134.683 69.7039L132.93 70.1536L131.972 70.399L131.692 71.2374L131.179 72.7697L130.665 71.2374L130.385 70.399L129.426 70.1536L127.674 69.7039L129.426 69.2541L130.385 69.0087L130.665 68.1703L131.179 66.6367Z" fill="#F39E13"/>
<path fill-rule="evenodd" clip-rule="evenodd" d="M109.275 78.0273L109.66 79.3419L109.871 80.0604L110.589 80.2709L111.904 80.655L110.589 81.0406L109.871 81.2511L109.66 81.9696L109.275 83.2841L108.891 81.9696L108.68 81.2511L107.962 81.0406L106.647 80.655L107.962 80.2709L108.68 80.0604L108.891 79.3419L109.275 78.0273Z" fill="#F39E13"/>
<path fill-rule="evenodd" clip-rule="evenodd" d="M134.683 78.8984L135.197 80.4317L135.478 81.2698L136.436 81.5155L138.188 81.9649L136.436 82.4143L135.478 82.66L135.197 83.4981L134.683 85.0314L134.17 83.4981L133.889 82.66L132.931 82.4143L131.179 81.9649L132.931 81.5155L133.889 81.2698L134.17 80.4317L134.683 78.8984Z" fill="#F39E13"/>
<path fill-rule="evenodd" clip-rule="evenodd" d="M130.302 73.6484L130.557 74.5246L130.699 75.0043L131.178 75.1437L132.054 75.4007L131.178 75.6578L130.699 75.7971L130.557 76.2768L130.302 77.153L130.045 76.2768L129.904 75.7971L129.426 75.6578L128.55 75.4007L129.426 75.1437L129.904 75.0043L130.045 74.5246L130.302 73.6484Z" fill="#F39E13"/>
<path fill-rule="evenodd" clip-rule="evenodd" d="M124.607 66.6367L124.8 67.2938L124.906 67.6536L125.264 67.7581L125.921 67.9509L125.264 68.1437L124.906 68.2482L124.8 68.608L124.607 69.2651L124.414 68.608L124.31 68.2482L123.95 68.1437L123.293 67.9509L123.95 67.7581L124.31 67.6536L124.414 67.2938L124.607 66.6367Z" fill="#F39E13"/>
<path fill-rule="evenodd" clip-rule="evenodd" d="M114.094 72.7695L114.287 73.4266L114.393 73.7864L114.751 73.8909L115.408 74.0837L114.751 74.2765L114.393 74.3811L114.287 74.7408L114.094 75.3979L113.903 74.7408L113.797 74.3811L113.437 74.2765L112.78 74.0837L113.437 73.8909L113.797 73.7864L113.903 73.4266L114.094 72.7695Z" fill="#F39E13"/>
<path d="M595.607 25.4434C594.926 27.1856 594.038 28.8233 592.974 30.3262C592.233 31.4393 591.555 32.2664 590.942 32.8076C586.771 37.2368 580.86 40.001 574.304 40.001C567.748 40.0009 561.837 37.2356 557.666 32.8076C557.053 32.2675 556.377 31.4392 555.635 30.3262C554.571 28.8222 553.682 27.1845 553 25.4434C559.731 30.8501 568.164 30.6678 574.304 25.4434C580.443 30.6679 588.876 30.85 595.607 25.4434ZM574.231 8.79297C577.548 13.7844 578.605 18.0419 577.401 21.5645C576.013 25.6336 572.402 25.7527 571.187 21.7334C569.856 17.3391 574.639 14.2008 574.231 8.79297ZM583.267 14.1094L583.459 14.7676L584.115 14.96L585.315 15.3125L584.115 15.665L583.459 15.8584L583.267 16.5156L582.915 17.7188L582.562 16.5156L582.37 15.8584L581.714 15.665L580.514 15.3125L581.714 14.96L582.37 14.7676L582.562 14.1094L582.915 12.9062L583.267 14.1094ZM567.177 14.6465L567.334 15.1816L567.867 15.3379L568.844 15.624L567.867 15.9111L567.334 16.0684L567.177 16.6025L566.891 17.5811L566.605 16.6025L566.449 16.0684L565.915 15.9111L564.939 15.624L565.915 15.3379L566.449 15.1816L566.605 14.6465L566.891 13.668L567.177 14.6465ZM580.375 11.9072L580.457 12.1875L580.737 12.2695L581.248 12.4199L580.737 12.5703L580.457 12.6514L580.375 12.9326L580.226 13.4453L580.075 12.9326L579.993 12.6514L579.714 12.5703L579.203 12.4199L579.714 12.2695L579.993 12.1875L580.075 11.9072L580.226 11.3945L580.375 11.9072ZM570.903 10.5908L570.985 10.8711L571.265 10.9531L571.775 11.1035L571.265 11.2539L570.985 11.335L570.903 11.6162L570.753 12.1289L570.604 11.6162L570.521 11.335L570.241 11.2539L569.73 11.1035L570.241 10.9531L570.521 10.8711L570.604 10.5908L570.753 10.0781L570.903 10.5908ZM564.562 9.86426L564.645 10.1445L564.925 10.2266L565.437 10.377L564.925 10.5273L564.645 10.6084L564.562 10.8896L564.413 11.4023L564.264 10.8896L564.181 10.6084L563.902 10.5273L563.391 10.377L563.902 10.2266L564.181 10.1445L564.264 9.86426L564.413 9.35156L564.562 9.86426ZM581.129 6.61133L581.324 7.28027L581.992 7.47656L583.214 7.83496L581.992 8.19434L581.324 8.39062L581.129 9.05957L580.771 10.2832L580.413 9.05957L580.218 8.39062L579.55 8.19434L578.328 7.83496L579.55 7.47656L580.218 7.28027L580.413 6.61133L580.771 5.38672L581.129 6.61133ZM569.842 3.43945L570.091 4.29492L570.944 4.54492L572.506 5.00391L570.944 5.46191L570.091 5.71289L569.842 6.56836L569.384 8.13379L568.927 6.56836L568.676 5.71289L567.823 5.46191L566.262 5.00391L567.823 4.54492L568.676 4.29492L568.927 3.43945L569.384 1.875L569.842 3.43945ZM576.413 5.5166L576.496 5.79688L576.774 5.87891L577.286 6.0293L576.774 6.17969L576.496 6.26074L576.413 6.54199L576.263 7.05469L576.113 6.54199L576.031 6.26074L575.752 6.17969L575.24 6.0293L575.752 5.87891L576.031 5.79688L576.113 5.5166L576.263 5.00391L576.413 5.5166ZM577.351 0.90332L577.495 1.39746L577.987 1.54199L578.889 1.80664L577.987 2.07129L577.495 2.21582L577.351 2.70996L577.086 3.6123L576.822 2.70996L576.678 2.21582L576.185 2.07129L575.283 1.80664L576.185 1.54199L576.678 1.39746L576.822 0.90332L577.086 0L577.351 0.90332Z" fill="url(#paint9_linear_32544_6830)"/>
<path d="M34.972 106.389C24.4284 106.389 15.9603 103.35 9.57383 97.2765C3.19325 91.2034 0 82.9956 0 72.6648C0 62.334 3.19325 54.144 9.57383 48.1004C15.9603 42.0569 24.6117 39.0352 35.5279 39.0352C40.4656 39.0352 45.2436 39.5082 49.8679 40.4662C54.4922 41.4242 58.2236 42.6069 61.062 44.0261L61.2513 59.9391H60.4175C58.8149 53.9547 56.0652 49.6261 52.1801 46.9414C48.2949 44.2567 43.6706 42.9144 38.3012 42.9144C30.8385 42.9144 25.1025 45.5813 21.0932 50.9211C17.0839 56.255 15.0733 63.564 15.0733 72.8481C15.0733 82.1322 16.9124 89.3939 20.5787 94.6332C24.245 99.8784 29.4489 102.498 36.1724 102.498C41.0451 102.498 45.1135 101.108 48.3836 98.335C49.9862 96.9157 51.157 95.2541 51.9021 93.3381V79.1814C51.9021 77.8272 51.4823 76.7865 50.6544 76.0828C49.8206 75.3731 48.632 75.0183 47.0945 75.0183H45.6162V74.0899H71.6175V75.0183H70.2278C68.7495 75.0183 67.6023 75.3672 66.804 76.0828C66.0056 76.7924 65.6035 77.8272 65.6035 79.1814V94.4439C63.1968 97.5899 59.217 100.369 53.6643 102.776C48.1116 105.183 41.8848 106.383 34.972 106.383V106.389Z" fill="url(#paint10_linear_32544_6830)"/>
</g>
<defs>
<filter id="filter0_f_32544_6830" x="94.0278" y="50.9531" width="55.0332" height="69.0469" filterUnits="userSpaceOnUse" color-interpolation-filters="sRGB">
<feFlood flood-opacity="0" result="BackgroundImageFix"/>
<feBlend mode="normal" in="SourceGraphic" in2="BackgroundImageFix" result="shape"/>
<feGaussianBlur stdDeviation="8.5" result="effect1_foregroundBlur_32544_6830"/>
</filter>
<linearGradient id="paint0_linear_32544_6830" x1="121.535" y1="39.0352" x2="121.535" y2="106.175" gradientUnits="userSpaceOnUse">
<stop stop-color="#F7C21C"/>
<stop offset="0.2" stop-color="#F6BD1C"/>
<stop offset="0.3" stop-color="#F3AF1D"/>
<stop offset="0.5" stop-color="#EF981F"/>
<stop offset="0.7" stop-color="#E97822"/>
<stop offset="0.9" stop-color="#E55D25"/>
</linearGradient>
<linearGradient id="paint1_linear_32544_6830" x1="197.34" y1="40.3516" x2="197.34" y2="104.91" gradientUnits="userSpaceOnUse">
<stop stop-color="#F7C21C"/>
<stop offset="0.2" stop-color="#F6BD1C"/>
<stop offset="0.3" stop-color="#F3AF1D"/>
<stop offset="0.5" stop-color="#EF981F"/>
<stop offset="0.7" stop-color="#E97822"/>
<stop offset="0.9" stop-color="#E55D25"/>
</linearGradient>
<linearGradient id="paint2_linear_32544_6830" x1="269.608" y1="40.3516" x2="269.608" y2="104.91" gradientUnits="userSpaceOnUse">
<stop stop-color="#F7C21C"/>
<stop offset="0.2" stop-color="#F6BD1C"/>
<stop offset="0.3" stop-color="#F3AF1D"/>
<stop offset="0.5" stop-color="#EF981F"/>
<stop offset="0.7" stop-color="#E97822"/>
<stop offset="0.9" stop-color="#E55D25"/>
</linearGradient>
<linearGradient id="paint3_linear_32544_6830" x1="121.544" y1="102.883" x2="121.544" y2="67.9531" gradientUnits="userSpaceOnUse">
<stop offset="0.2" stop-color="#E55D25"/>
<stop offset="0.4" stop-color="#EB8021"/>
<stop offset="0.7" stop-color="#F1A41E"/>
<stop offset="0.9" stop-color="#F5BA1C"/>
<stop offset="1" stop-color="#F7C21C"/>
</linearGradient>
<linearGradient id="paint4_linear_32544_6830" x1="121.544" y1="74.7188" x2="121.544" y2="102.881" gradientUnits="userSpaceOnUse">
<stop stop-color="#F7C21C"/>
<stop offset="0.2" stop-color="#F6BD1C"/>
<stop offset="0.3" stop-color="#F3AF1D"/>
<stop offset="0.5" stop-color="#EF981F"/>
<stop offset="0.7" stop-color="#E97822"/>
<stop offset="0.9" stop-color="#E55D25"/>
</linearGradient>
<linearGradient id="paint5_linear_32544_6830" x1="121.545" y1="83.9102" x2="121.545" y2="102.886" gradientUnits="userSpaceOnUse">
<stop stop-color="#F7C21C"/>
<stop offset="0.2" stop-color="#F6BD1C"/>
<stop offset="0.3" stop-color="#F3AF1D"/>
<stop offset="0.5" stop-color="#EF981F"/>
<stop offset="0.7" stop-color="#E97822"/>
<stop offset="0.9" stop-color="#E55D25"/>
</linearGradient>
<linearGradient id="paint6_linear_32544_6830" x1="121.544" y1="102.883" x2="121.544" y2="67.9531" gradientUnits="userSpaceOnUse">
<stop offset="0.2" stop-color="#E55D25"/>
<stop offset="0.4" stop-color="#EB8021"/>
<stop offset="0.7" stop-color="#F1A41E"/>
<stop offset="0.9" stop-color="#F5BA1C"/>
<stop offset="1" stop-color="#F7C21C"/>
</linearGradient>
<linearGradient id="paint7_linear_32544_6830" x1="121.544" y1="74.7188" x2="121.544" y2="102.881" gradientUnits="userSpaceOnUse">
<stop stop-color="#F7C21C"/>
<stop offset="0.2" stop-color="#F6BD1C"/>
<stop offset="0.3" stop-color="#F3AF1D"/>
<stop offset="0.5" stop-color="#EF981F"/>
<stop offset="0.7" stop-color="#E97822"/>
<stop offset="0.9" stop-color="#E55D25"/>
</linearGradient>
<linearGradient id="paint8_linear_32544_6830" x1="121.545" y1="83.9102" x2="121.545" y2="102.886" gradientUnits="userSpaceOnUse">
<stop stop-color="#F7C21C"/>
<stop offset="0.2" stop-color="#F6BD1C"/>
<stop offset="0.3" stop-color="#F3AF1D"/>
<stop offset="0.5" stop-color="#EF981F"/>
<stop offset="0.7" stop-color="#E97822"/>
<stop offset="0.9" stop-color="#E55D25"/>
</linearGradient>
<linearGradient id="paint9_linear_32544_6830" x1="574.304" y1="0" x2="574.304" y2="39.874" gradientUnits="userSpaceOnUse">
<stop stop-color="#F7C21C"/>
<stop offset="0.2" stop-color="#F6BD1C"/>
<stop offset="0.3" stop-color="#F3AF1D"/>
<stop offset="0.5" stop-color="#EF981F"/>
<stop offset="0.7" stop-color="#E97822"/>
<stop offset="0.9" stop-color="#E55D25"/>
</linearGradient>
<linearGradient id="paint10_linear_32544_6830" x1="35.8087" y1="39.0352" x2="35.8087" y2="106.175" gradientUnits="userSpaceOnUse">
<stop stop-color="#F7C21C"/>
<stop offset="0.2" stop-color="#F6BD1C"/>
<stop offset="0.3" stop-color="#F3AF1D"/>
<stop offset="0.5" stop-color="#EF981F"/>
<stop offset="0.7" stop-color="#E97822"/>
<stop offset="0.9" stop-color="#E55D25"/>
</linearGradient>
<clipPath id="clip0_32544_6830">
<rect width="700" height="156" fill="white"/>
</clipPath>
</defs>
</svg>
