<svg width="24" height="24" viewBox="0 0 24 24" fill="none" xmlns="http://www.w3.org/2000/svg">
<g id="Frame" clip-path="url(#clip0_14709_42492)">
<path id="Vector" d="M19.875 12C20.496 12 21 12.512 21 13.143V18.857C21 19.488 20.496 20 19.875 20H4C3.73478 20 3.48043 19.8946 3.29289 19.7071C3.10536 19.5196 3 19.2652 3 19V13.143C3 12.512 3.504 12 4.125 12H19.875Z" stroke="#2E2D31" stroke-width="1.5" stroke-linecap="round" stroke-linejoin="round"/>
<path id="Vector_2" d="M9 12V14" stroke="#2E2D31" stroke-width="1.5" stroke-linecap="round" stroke-linejoin="round"/>
<path id="Vector_3" d="M6 12V15" stroke="#2E2D31" stroke-width="1.5" stroke-linecap="round" stroke-linejoin="round"/>
<path id="Vector_4" d="M12 12V15" stroke="#2E2D31" stroke-width="1.5" stroke-linecap="round" stroke-linejoin="round"/>
<path id="Vector_5" d="M18 12V15" stroke="#2E2D31" stroke-width="1.5" stroke-linecap="round" stroke-linejoin="round"/>
<path id="Vector_6" d="M15 12V14" stroke="#2E2D31" stroke-width="1.5" stroke-linecap="round" stroke-linejoin="round"/>
<path id="Vector_7" d="M3 3V7" stroke="#2E2D31" stroke-width="1.5" stroke-linecap="round" stroke-linejoin="round"/>
<path id="Vector_8" d="M3 5H21" stroke="#2E2D31" stroke-width="1.5" stroke-linecap="round" stroke-linejoin="round"/>
<path id="Vector_9" d="M21 3V7" stroke="#2E2D31" stroke-width="1.5" stroke-linecap="round" stroke-linejoin="round"/>
</g>
<defs>
<clipPath id="clip0_14709_42492">
<rect width="24" height="24" fill="white"/>
</clipPath>
</defs>
</svg>
