<svg width="22" height="18" viewBox="0 0 22 18" fill="none" xmlns="http://www.w3.org/2000/svg">
<g id="Vector">
<mask id="path-1-outside-1_14709_42516" maskUnits="userSpaceOnUse" x="0" y="-0.114502" width="22" height="18" fill="black">
<rect fill="white" y="-0.114502" width="22" height="18"/>
<path d="M17.6194 2.44099V1.404C17.6194 1.26648 17.674 1.1346 17.7713 1.03736C17.8685 0.940125 18.0004 0.885498 18.1379 0.885498C18.2754 0.885498 18.4073 0.940125 18.5045 1.03736C18.6018 1.1346 18.6564 1.26648 18.6564 1.404V2.44099C18.6564 2.57851 18.6018 2.71039 18.5045 2.80763C18.4073 2.90486 18.2754 2.95949 18.1379 2.95949C18.0004 2.95949 17.8685 2.90486 17.7713 2.80763C17.674 2.71039 17.6194 2.57851 17.6194 2.44099ZM16.3439 3.24985C16.4319 3.35574 16.5584 3.42232 16.6955 3.43496C16.8326 3.44761 16.9691 3.40526 17.075 3.31726C17.1809 3.22925 17.2474 3.10278 17.2601 2.96567C17.2727 2.82857 17.2304 2.69206 17.1424 2.58617L16.4787 1.78769C16.3907 1.6818 16.2642 1.61521 16.1271 1.60257C15.99 1.58993 15.8535 1.63227 15.7476 1.72028C15.6417 1.80829 15.5751 1.93476 15.5625 2.07186C15.5499 2.20897 15.5922 2.34548 15.6802 2.45136L16.3439 3.24985ZM14.861 4.51499L15.898 4.69128H15.9913C16.1288 4.70365 16.2656 4.66089 16.3716 4.57241C16.4776 4.48392 16.5441 4.35696 16.5565 4.21944C16.5688 4.08193 16.5261 3.94513 16.4376 3.83914C16.3491 3.73315 16.2222 3.66666 16.0846 3.65428L15.0476 3.47799C14.9796 3.46641 14.9098 3.46836 14.8425 3.48373C14.7752 3.49909 14.7115 3.52756 14.6552 3.56753C14.5989 3.60749 14.5509 3.65815 14.5142 3.71663C14.4774 3.77511 14.4526 3.84025 14.441 3.90834C14.4294 3.97643 14.4314 4.04614 14.4467 4.11347C14.4621 4.18081 14.4906 4.24446 14.5305 4.30079C14.5705 4.35713 14.6212 4.40503 14.6796 4.44179C14.7381 4.47854 14.8033 4.50341 14.8714 4.51499H14.861ZM9.19898 6.94156L3.48513 14.802C3.44505 14.8573 3.39445 14.9041 3.33623 14.9397C3.27801 14.9754 3.21332 14.9992 3.14587 15.0098C3.07843 15.0204 3.00955 15.0176 2.9432 15.0015C2.87685 14.9854 2.81433 14.9564 2.75923 14.9161L1.21411 13.8065C1.15884 13.7664 1.11203 13.7158 1.07636 13.6576C1.0407 13.5994 1.01688 13.5347 1.00629 13.4672C0.995687 13.3998 0.998513 13.3309 1.0146 13.2646C1.03069 13.1982 1.05972 13.1357 1.10004 13.0806L6.82426 5.20977L2.88367 2.34766C2.79501 2.28136 2.7299 2.18843 2.69786 2.08245C2.66583 1.97648 2.66856 1.86304 2.70565 1.75872C2.74274 1.65441 2.81224 1.56471 2.90398 1.50275C2.99573 1.44078 3.10489 1.40981 3.21551 1.41437L4.40806 1.47659C5.82791 1.56757 7.19349 2.05631 8.34864 2.8869L9.59304 1.6114C9.6793 1.52199 9.7948 1.46653 9.91851 1.45511C10.0422 1.4437 10.1659 1.47707 10.2671 1.54918L11.6048 2.51358C11.7066 2.58673 11.7784 2.69426 11.807 2.81627C11.8356 2.93828 11.819 3.06652 11.7604 3.17726L10.9204 4.74313C12.0646 5.5843 12.9487 6.73075 13.4714 8.05115L13.9173 9.20221C13.9596 9.30686 13.9666 9.42245 13.9372 9.53144C13.9078 9.64042 13.8437 9.73684 13.7545 9.80605C13.6654 9.87527 13.5561 9.9135 13.4432 9.91494C13.3303 9.91638 13.2201 9.88096 13.1292 9.81404L9.19898 6.94156ZM9.19898 3.5091L10.0182 4.11056L10.5782 3.07356L10.0182 2.66913L9.19898 3.5091ZM12.2166 7.88523C11.7492 6.9565 11.0666 6.15297 10.2256 5.54161L7.83014 3.75798C6.98647 3.14581 6.00875 2.74406 4.9784 2.58617L12.2166 7.88523ZM8.31753 6.32973L7.68496 5.87345L7.61237 5.8216L2.2511 13.2672L2.95626 13.7754L8.31753 6.32973ZM21 1.404V16.596C21 16.7335 20.9454 16.8654 20.8481 16.9626C20.7509 17.0599 20.619 17.1145 20.4815 17.1145H6.02577C5.88826 17.1145 5.75637 17.0599 5.65914 16.9626C5.5619 16.8654 5.50727 16.7335 5.50727 16.596C5.50727 16.4585 5.5619 16.3266 5.65914 16.2294C5.75637 16.1321 5.88826 16.0775 6.02577 16.0775H9.13676L10.0286 14.522L10.1115 14.4079L11.8433 12.6761L11.9367 12.6036L14.6121 10.9858L15.255 8.59038C15.277 8.50599 15.3198 8.42849 15.3796 8.36505C15.4394 8.30161 15.5143 8.25428 15.5972 8.22743L16.9868 7.7919L17.889 4.94016C17.9103 4.87545 17.9442 4.81559 17.9887 4.76399C18.0332 4.71239 18.0874 4.67006 18.1483 4.63943L19.963 3.74761V1.404C19.963 1.26648 20.0176 1.1346 20.1149 1.03736C20.2121 0.940125 20.344 0.885498 20.4815 0.885498C20.619 0.885498 20.7509 0.940125 20.8481 1.03736C20.9454 1.1346 21 1.26648 21 1.404ZM19.963 4.90905L18.8327 5.47939L17.889 8.38298C17.8637 8.46049 17.8204 8.53094 17.7628 8.58859C17.7051 8.64625 17.6347 8.6895 17.5572 8.71482L16.1883 9.15036L15.5661 11.4629C15.5329 11.592 15.4512 11.7035 15.338 11.774L12.5381 13.4746L10.8997 15.1131L10.3397 16.0879H19.963V4.90905Z"/>
</mask>
<path d="M17.6194 2.44099V1.404C17.6194 1.26648 17.674 1.1346 17.7713 1.03736C17.8685 0.940125 18.0004 0.885498 18.1379 0.885498C18.2754 0.885498 18.4073 0.940125 18.5045 1.03736C18.6018 1.1346 18.6564 1.26648 18.6564 1.404V2.44099C18.6564 2.57851 18.6018 2.71039 18.5045 2.80763C18.4073 2.90486 18.2754 2.95949 18.1379 2.95949C18.0004 2.95949 17.8685 2.90486 17.7713 2.80763C17.674 2.71039 17.6194 2.57851 17.6194 2.44099ZM16.3439 3.24985C16.4319 3.35574 16.5584 3.42232 16.6955 3.43496C16.8326 3.44761 16.9691 3.40526 17.075 3.31726C17.1809 3.22925 17.2474 3.10278 17.2601 2.96567C17.2727 2.82857 17.2304 2.69206 17.1424 2.58617L16.4787 1.78769C16.3907 1.6818 16.2642 1.61521 16.1271 1.60257C15.99 1.58993 15.8535 1.63227 15.7476 1.72028C15.6417 1.80829 15.5751 1.93476 15.5625 2.07186C15.5499 2.20897 15.5922 2.34548 15.6802 2.45136L16.3439 3.24985ZM14.861 4.51499L15.898 4.69128H15.9913C16.1288 4.70365 16.2656 4.66089 16.3716 4.57241C16.4776 4.48392 16.5441 4.35696 16.5565 4.21944C16.5688 4.08193 16.5261 3.94513 16.4376 3.83914C16.3491 3.73315 16.2222 3.66666 16.0846 3.65428L15.0476 3.47799C14.9796 3.46641 14.9098 3.46836 14.8425 3.48373C14.7752 3.49909 14.7115 3.52756 14.6552 3.56753C14.5989 3.60749 14.5509 3.65815 14.5142 3.71663C14.4774 3.77511 14.4526 3.84025 14.441 3.90834C14.4294 3.97643 14.4314 4.04614 14.4467 4.11347C14.4621 4.18081 14.4906 4.24446 14.5305 4.30079C14.5705 4.35713 14.6212 4.40503 14.6796 4.44179C14.7381 4.47854 14.8033 4.50341 14.8714 4.51499H14.861ZM9.19898 6.94156L3.48513 14.802C3.44505 14.8573 3.39445 14.9041 3.33623 14.9397C3.27801 14.9754 3.21332 14.9992 3.14587 15.0098C3.07843 15.0204 3.00955 15.0176 2.9432 15.0015C2.87685 14.9854 2.81433 14.9564 2.75923 14.9161L1.21411 13.8065C1.15884 13.7664 1.11203 13.7158 1.07636 13.6576C1.0407 13.5994 1.01688 13.5347 1.00629 13.4672C0.995687 13.3998 0.998513 13.3309 1.0146 13.2646C1.03069 13.1982 1.05972 13.1357 1.10004 13.0806L6.82426 5.20977L2.88367 2.34766C2.79501 2.28136 2.7299 2.18843 2.69786 2.08245C2.66583 1.97648 2.66856 1.86304 2.70565 1.75872C2.74274 1.65441 2.81224 1.56471 2.90398 1.50275C2.99573 1.44078 3.10489 1.40981 3.21551 1.41437L4.40806 1.47659C5.82791 1.56757 7.19349 2.05631 8.34864 2.8869L9.59304 1.6114C9.6793 1.52199 9.7948 1.46653 9.91851 1.45511C10.0422 1.4437 10.1659 1.47707 10.2671 1.54918L11.6048 2.51358C11.7066 2.58673 11.7784 2.69426 11.807 2.81627C11.8356 2.93828 11.819 3.06652 11.7604 3.17726L10.9204 4.74313C12.0646 5.5843 12.9487 6.73075 13.4714 8.05115L13.9173 9.20221C13.9596 9.30686 13.9666 9.42245 13.9372 9.53144C13.9078 9.64042 13.8437 9.73684 13.7545 9.80605C13.6654 9.87527 13.5561 9.9135 13.4432 9.91494C13.3303 9.91638 13.2201 9.88096 13.1292 9.81404L9.19898 6.94156ZM9.19898 3.5091L10.0182 4.11056L10.5782 3.07356L10.0182 2.66913L9.19898 3.5091ZM12.2166 7.88523C11.7492 6.9565 11.0666 6.15297 10.2256 5.54161L7.83014 3.75798C6.98647 3.14581 6.00875 2.74406 4.9784 2.58617L12.2166 7.88523ZM8.31753 6.32973L7.68496 5.87345L7.61237 5.8216L2.2511 13.2672L2.95626 13.7754L8.31753 6.32973ZM21 1.404V16.596C21 16.7335 20.9454 16.8654 20.8481 16.9626C20.7509 17.0599 20.619 17.1145 20.4815 17.1145H6.02577C5.88826 17.1145 5.75637 17.0599 5.65914 16.9626C5.5619 16.8654 5.50727 16.7335 5.50727 16.596C5.50727 16.4585 5.5619 16.3266 5.65914 16.2294C5.75637 16.1321 5.88826 16.0775 6.02577 16.0775H9.13676L10.0286 14.522L10.1115 14.4079L11.8433 12.6761L11.9367 12.6036L14.6121 10.9858L15.255 8.59038C15.277 8.50599 15.3198 8.42849 15.3796 8.36505C15.4394 8.30161 15.5143 8.25428 15.5972 8.22743L16.9868 7.7919L17.889 4.94016C17.9103 4.87545 17.9442 4.81559 17.9887 4.76399C18.0332 4.71239 18.0874 4.67006 18.1483 4.63943L19.963 3.74761V1.404C19.963 1.26648 20.0176 1.1346 20.1149 1.03736C20.2121 0.940125 20.344 0.885498 20.4815 0.885498C20.619 0.885498 20.7509 0.940125 20.8481 1.03736C20.9454 1.1346 21 1.26648 21 1.404ZM19.963 4.90905L18.8327 5.47939L17.889 8.38298C17.8637 8.46049 17.8204 8.53094 17.7628 8.58859C17.7051 8.64625 17.6347 8.6895 17.5572 8.71482L16.1883 9.15036L15.5661 11.4629C15.5329 11.592 15.4512 11.7035 15.338 11.774L12.5381 13.4746L10.8997 15.1131L10.3397 16.0879H19.963V4.90905Z" fill="#2E2D31"/>
<path d="M17.6194 2.44099V1.404C17.6194 1.26648 17.674 1.1346 17.7713 1.03736C17.8685 0.940125 18.0004 0.885498 18.1379 0.885498C18.2754 0.885498 18.4073 0.940125 18.5045 1.03736C18.6018 1.1346 18.6564 1.26648 18.6564 1.404V2.44099C18.6564 2.57851 18.6018 2.71039 18.5045 2.80763C18.4073 2.90486 18.2754 2.95949 18.1379 2.95949C18.0004 2.95949 17.8685 2.90486 17.7713 2.80763C17.674 2.71039 17.6194 2.57851 17.6194 2.44099ZM16.3439 3.24985C16.4319 3.35574 16.5584 3.42232 16.6955 3.43496C16.8326 3.44761 16.9691 3.40526 17.075 3.31726C17.1809 3.22925 17.2474 3.10278 17.2601 2.96567C17.2727 2.82857 17.2304 2.69206 17.1424 2.58617L16.4787 1.78769C16.3907 1.6818 16.2642 1.61521 16.1271 1.60257C15.99 1.58993 15.8535 1.63227 15.7476 1.72028C15.6417 1.80829 15.5751 1.93476 15.5625 2.07186C15.5499 2.20897 15.5922 2.34548 15.6802 2.45136L16.3439 3.24985ZM14.861 4.51499L15.898 4.69128H15.9913C16.1288 4.70365 16.2656 4.66089 16.3716 4.57241C16.4776 4.48392 16.5441 4.35696 16.5565 4.21944C16.5688 4.08193 16.5261 3.94513 16.4376 3.83914C16.3491 3.73315 16.2222 3.66666 16.0846 3.65428L15.0476 3.47799C14.9796 3.46641 14.9098 3.46836 14.8425 3.48373C14.7752 3.49909 14.7115 3.52756 14.6552 3.56753C14.5989 3.60749 14.5509 3.65815 14.5142 3.71663C14.4774 3.77511 14.4526 3.84025 14.441 3.90834C14.4294 3.97643 14.4314 4.04614 14.4467 4.11347C14.4621 4.18081 14.4906 4.24446 14.5305 4.30079C14.5705 4.35713 14.6212 4.40503 14.6796 4.44179C14.7381 4.47854 14.8033 4.50341 14.8714 4.51499H14.861ZM9.19898 6.94156L3.48513 14.802C3.44505 14.8573 3.39445 14.9041 3.33623 14.9397C3.27801 14.9754 3.21332 14.9992 3.14587 15.0098C3.07843 15.0204 3.00955 15.0176 2.9432 15.0015C2.87685 14.9854 2.81433 14.9564 2.75923 14.9161L1.21411 13.8065C1.15884 13.7664 1.11203 13.7158 1.07636 13.6576C1.0407 13.5994 1.01688 13.5347 1.00629 13.4672C0.995687 13.3998 0.998513 13.3309 1.0146 13.2646C1.03069 13.1982 1.05972 13.1357 1.10004 13.0806L6.82426 5.20977L2.88367 2.34766C2.79501 2.28136 2.7299 2.18843 2.69786 2.08245C2.66583 1.97648 2.66856 1.86304 2.70565 1.75872C2.74274 1.65441 2.81224 1.56471 2.90398 1.50275C2.99573 1.44078 3.10489 1.40981 3.21551 1.41437L4.40806 1.47659C5.82791 1.56757 7.19349 2.05631 8.34864 2.8869L9.59304 1.6114C9.6793 1.52199 9.7948 1.46653 9.91851 1.45511C10.0422 1.4437 10.1659 1.47707 10.2671 1.54918L11.6048 2.51358C11.7066 2.58673 11.7784 2.69426 11.807 2.81627C11.8356 2.93828 11.819 3.06652 11.7604 3.17726L10.9204 4.74313C12.0646 5.5843 12.9487 6.73075 13.4714 8.05115L13.9173 9.20221C13.9596 9.30686 13.9666 9.42245 13.9372 9.53144C13.9078 9.64042 13.8437 9.73684 13.7545 9.80605C13.6654 9.87527 13.5561 9.9135 13.4432 9.91494C13.3303 9.91638 13.2201 9.88096 13.1292 9.81404L9.19898 6.94156ZM9.19898 3.5091L10.0182 4.11056L10.5782 3.07356L10.0182 2.66913L9.19898 3.5091ZM12.2166 7.88523C11.7492 6.9565 11.0666 6.15297 10.2256 5.54161L7.83014 3.75798C6.98647 3.14581 6.00875 2.74406 4.9784 2.58617L12.2166 7.88523ZM8.31753 6.32973L7.68496 5.87345L7.61237 5.8216L2.2511 13.2672L2.95626 13.7754L8.31753 6.32973ZM21 1.404V16.596C21 16.7335 20.9454 16.8654 20.8481 16.9626C20.7509 17.0599 20.619 17.1145 20.4815 17.1145H6.02577C5.88826 17.1145 5.75637 17.0599 5.65914 16.9626C5.5619 16.8654 5.50727 16.7335 5.50727 16.596C5.50727 16.4585 5.5619 16.3266 5.65914 16.2294C5.75637 16.1321 5.88826 16.0775 6.02577 16.0775H9.13676L10.0286 14.522L10.1115 14.4079L11.8433 12.6761L11.9367 12.6036L14.6121 10.9858L15.255 8.59038C15.277 8.50599 15.3198 8.42849 15.3796 8.36505C15.4394 8.30161 15.5143 8.25428 15.5972 8.22743L16.9868 7.7919L17.889 4.94016C17.9103 4.87545 17.9442 4.81559 17.9887 4.76399C18.0332 4.71239 18.0874 4.67006 18.1483 4.63943L19.963 3.74761V1.404C19.963 1.26648 20.0176 1.1346 20.1149 1.03736C20.2121 0.940125 20.344 0.885498 20.4815 0.885498C20.619 0.885498 20.7509 0.940125 20.8481 1.03736C20.9454 1.1346 21 1.26648 21 1.404ZM19.963 4.90905L18.8327 5.47939L17.889 8.38298C17.8637 8.46049 17.8204 8.53094 17.7628 8.58859C17.7051 8.64625 17.6347 8.6895 17.5572 8.71482L16.1883 9.15036L15.5661 11.4629C15.5329 11.592 15.4512 11.7035 15.338 11.774L12.5381 13.4746L10.8997 15.1131L10.3397 16.0879H19.963V4.90905Z" stroke="#2E2D31" stroke-width="0.2" mask="url(#path-1-outside-1_14709_42516)"/>
</g>
</svg>
