<svg width="24" height="24" viewBox="0 0 24 24" fill="none" xmlns="http://www.w3.org/2000/svg">
<g id="Group">
<g id="Group_2">
<g id="Group_3">
<path id="Vector" d="M0.893934 19.0123L0.940124 19.0314L2.6297 14.955C2.82716 14.4787 3.29194 14.1682 3.80745 14.1682H8.67193C9.18744 14.1682 9.65222 14.4787 9.84968 14.955L9.89587 14.9359L9.84968 14.955L11.5396 19.0314C11.7024 19.4249 11.6583 19.8736 11.4217 20.2277L11.4217 20.2277C11.1854 20.5818 10.7874 20.7943 10.3618 20.7943H2.11787C1.69198 20.7943 1.29434 20.5818 1.0577 20.2277L0.893934 19.0123ZM0.893934 19.0123L0.940121 19.0314C0.777005 19.4248 0.82134 19.8735 1.05768 20.2277L0.893934 19.0123ZM20.9469 5.65346L20.9469 5.65348L18.5511 7.19856C18.2265 7.40795 18.133 7.84139 18.3422 8.16609C18.5514 8.49043 18.9848 8.58401 19.3095 8.37491L20.9469 5.65346ZM20.9469 5.65346C21.2713 5.44407 21.705 5.53761 21.9142 5.86227L21.9142 5.86229C22.1234 6.18666 22.03 6.6201 21.7053 6.82951L21.7324 6.87152L21.7053 6.82951L19.3095 8.37489L20.9469 5.65346ZM2.33307 19.3257L2.30441 19.3949H2.37926H10.1004H10.1753L10.1466 19.3257L8.60164 15.5985L8.58885 15.5676H8.55545H3.92426H3.89086L3.87807 15.5985L2.33307 19.3257ZM13.8539 19.3257L13.8253 19.3949H13.9001H21.621H21.6958L21.6671 19.3257L20.1221 15.5985L20.1094 15.5676H20.076H15.4448H15.4114L15.3986 15.5985L13.8539 19.3257ZM23.0601 19.0314L23.1063 19.0123L23.0601 19.0314C23.2232 19.4249 23.1792 19.8736 22.9425 20.2277C22.7059 20.5818 22.3082 20.7943 21.8823 20.7943H13.6387C13.2128 20.7943 12.8152 20.5818 12.5785 20.2277C12.3419 19.8736 12.2978 19.4249 12.461 19.0314L12.4148 19.0123L12.461 19.0314L14.1505 14.955C14.348 14.4787 14.8128 14.1682 15.3283 14.1682H20.1928C20.7083 14.1682 21.1731 14.4787 21.3705 14.955L23.0601 19.0314ZM17.2997 11.9501L17.3459 11.9309L17.2997 11.9501C17.4628 12.3435 17.4188 12.7922 17.1821 13.1463C16.9455 13.5005 16.5478 13.7133 16.1219 13.7133H7.87829C7.45241 13.7133 7.05476 13.5005 6.8181 13.1463C6.58146 12.7922 6.53741 12.3435 6.70054 11.9501L6.65435 11.9309L6.70054 11.9501L8.39012 7.8737C8.58757 7.39737 9.05234 7.08717 9.56787 7.08717H14.4324C14.9479 7.08717 15.4126 7.39737 15.6101 7.8737L17.2997 11.9501ZM8.09349 12.2447L8.06483 12.3138H8.13968H15.8609H15.9357L15.907 12.2447L14.3621 8.51747L14.3493 8.48661H14.3159H9.68467H9.65127L9.63848 8.51747L8.09349 12.2447ZM16.2085 3.40708L16.2085 3.40706C16.4015 3.07258 16.8299 2.95788 17.1643 3.1509C17.4987 3.3439 17.6133 3.77227 17.4203 4.10682L16.6582 5.42655L16.6582 5.42657C16.4653 5.76105 16.0368 5.87576 15.7024 5.68273C15.368 5.48971 15.2531 5.06134 15.4464 4.72684L15.4464 4.72683L16.2085 3.40708ZM8.55381 4.72683L8.55382 4.72684C8.74709 5.06134 8.63218 5.48971 8.29779 5.68273C7.96338 5.87576 7.53495 5.76105 7.34199 5.42657L7.34198 5.42655L6.57991 4.10682C6.38691 3.77228 6.50156 3.34391 6.83592 3.15091C7.17064 2.95787 7.59878 3.07257 7.79206 3.40709L8.55381 4.72683ZM3.0533 5.65346L3.05332 5.65348L5.44939 7.19854C5.4494 7.19855 5.44941 7.19855 5.44941 7.19856C5.77379 7.40798 5.86748 7.84142 5.65801 8.16608L5.658 8.16609C5.44884 8.49044 5.01539 8.58402 4.69068 8.37489L2.29493 6.82951L2.26782 6.87152L2.29492 6.82951C1.97024 6.6201 1.87684 6.18666 2.08601 5.8623C2.29551 5.53759 2.72895 5.44408 3.0533 5.65346ZM11.3005 1.89572C11.3005 1.50969 11.614 1.196 12.0003 1.196C12.3862 1.196 12.7 1.5097 12.7 1.89572V4.74684C12.7 5.13285 12.3862 5.44656 12.0003 5.44656C11.614 5.44656 11.3005 5.13287 11.3005 4.74684V1.89572Z" fill="#2E2D31" stroke="white" stroke-width="0.1"/>
</g>
</g>
</g>
</svg>
