<svg width="24" height="24" viewBox="0 0 24 24" fill="none" xmlns="http://www.w3.org/2000/svg">
<g id="Frame" clip-path="url(#clip0_14709_42487)">
<g id="Group 1171276509">
<path id="Vector" d="M9 6C9 6.79565 9.31607 7.55871 9.87868 8.12132C10.4413 8.68393 11.2044 9 12 9C12.7956 9 13.5587 8.68393 14.1213 8.12132C14.6839 7.55871 15 6.79565 15 6C15 5.20435 14.6839 4.44129 14.1213 3.87868C13.5587 3.31607 12.7956 3 12 3C11.2044 3 10.4413 3.31607 9.87868 3.87868C9.31607 4.44129 9 5.20435 9 6Z" stroke="#2E2D31" stroke-width="1.5" stroke-linecap="round" stroke-linejoin="round"/>
<path id="Vector_2" d="M6.83442 9H17.1644C17.3986 8.99996 17.6254 9.08213 17.8052 9.23216C17.985 9.3822 18.1065 9.59059 18.1484 9.821L19.7854 18.821C19.8116 18.9651 19.8059 19.1133 19.7685 19.2549C19.7312 19.3966 19.6632 19.5283 19.5693 19.6408C19.4754 19.7532 19.358 19.8437 19.2253 19.9058C19.0926 19.9679 18.9479 20 18.8014 20H5.19742C5.05092 20 4.90621 19.9679 4.77352 19.9058C4.64083 19.8437 4.52339 19.7532 4.42952 19.6408C4.33566 19.5283 4.26765 19.3966 4.2303 19.2549C4.19296 19.1133 4.18719 18.9651 4.21342 18.821L5.85042 9.821C5.89234 9.59059 6.0138 9.3822 6.19362 9.23216C6.37344 9.08213 6.60022 8.99996 6.83442 9Z" stroke="#2E2D31" stroke-width="1.5" stroke-linecap="round" stroke-linejoin="round"/>
</g>
</g>
<defs>
<clipPath id="clip0_14709_42487">
<rect width="24" height="24" fill="white"/>
</clipPath>
</defs>
</svg>
