<svg width="30" height="48" viewBox="0 0 30 48" fill="none" xmlns="http://www.w3.org/2000/svg">
<path d="M24.4085 0.00114452C24.3214 0.00114452 24.184 0.175075 24.1027 0.385623C24.0214 0.595026 23.924 0.767812 23.8839 0.767812C23.8438 0.767812 23.8393 0.630498 23.8713 0.461145C23.9045 0.292936 23.8713 0.154478 23.8049 0.154478C23.735 0.154478 23.5942 0.258608 23.4876 0.385623C23.3823 0.510349 23.2093 0.615622 23.1028 0.615622C22.9963 0.615622 22.797 0.787265 22.6584 0.997812C22.5129 1.22095 22.4763 1.38229 22.5725 1.38229C22.6687 1.38229 22.6962 1.45095 22.6435 1.53677C22.5908 1.62259 22.4763 1.65005 22.3904 1.59741C22.3068 1.54478 22.2804 1.32508 22.3354 1.10881C22.4167 0.782688 22.3973 0.747215 22.2186 0.894827C22.0995 0.992091 21.9575 1.02871 21.9025 0.973783C21.8475 0.918857 21.6631 1.0001 21.4936 1.15229C21.3252 1.30448 21.1866 1.51732 21.1866 1.62373C21.1866 1.73015 21.2725 1.85717 21.3791 1.90523C21.4833 1.95329 21.4317 1.9613 21.2634 1.92239C21.016 1.86632 20.7972 2.09975 20.1524 3.1113C19.7114 3.80473 18.8261 5.19732 18.1858 6.20085C17.5456 7.20668 16.8801 8.31091 16.7049 8.65534C16.5308 8.99976 16.1402 9.69549 15.8333 10.2013C15.5275 10.7082 15.2377 11.1567 15.1862 11.1991C15.1346 11.2414 14.6811 11.9657 14.176 12.8102C13.672 13.6524 13.0581 14.7235 12.8084 15.1869C12.561 15.6503 12.3068 16.0531 12.2438 16.0806C12.1808 16.1092 12.1281 16.1813 12.1281 16.2431C12.1281 16.3048 11.6264 17.2832 11.0137 18.4149C10.402 19.5489 9.76523 20.787 9.59916 21.168C9.43423 21.5468 9.23952 21.8992 9.16736 21.9484C9.0975 21.9999 9.0219 22.1372 9.00243 22.2562C8.98181 22.3741 8.4687 23.4783 7.86052 24.7096C7.25463 25.9397 6.7564 27.0004 6.7564 27.0645C6.7564 27.1286 6.44029 27.8209 6.05316 28.6036C5.37283 29.9847 5.33388 30.0293 4.74288 30.1243C4.3821 30.1827 4.09347 30.3269 4.0362 30.4779C3.98123 30.6209 4.01673 30.7617 4.11753 30.796C4.21717 30.8281 4.29963 30.9116 4.29963 30.9791C4.29963 31.0466 4.19999 31.1416 4.07629 31.1885C3.92052 31.248 3.88273 31.1999 3.94916 31.0272C4.01215 30.8589 3.98466 30.8166 3.86211 30.8933C3.76018 30.9551 3.69718 30.9505 3.72123 30.8795C3.74414 30.8109 3.71093 30.7377 3.64793 30.7182C3.58608 30.6987 3.32494 30.7251 3.06953 30.7766C2.81526 30.8281 2.56787 30.9299 2.5232 31.0031C2.47624 31.0775 2.30673 31.137 2.1418 31.137C1.97687 31.137 1.84401 31.1988 1.84401 31.2766C1.84401 31.3544 1.7226 31.3865 1.57485 31.351C1.4271 31.3167 1.02967 31.446 0.69408 31.6393C0.357348 31.8316 0.0584138 32.1131 0.0297801 32.2641C-0.0171791 32.5044 0.014888 32.5124 0.295498 32.3385C0.473027 32.2286 0.617344 32.0433 0.617344 31.9277C0.617344 31.8121 0.71126 31.7549 0.847556 31.8076C0.97469 31.8556 1.08006 31.811 1.08006 31.708C1.08006 31.5901 1.13848 31.605 1.23125 31.7515C1.36411 31.954 1.38129 31.954 1.38244 31.7481C1.38244 31.573 1.56798 31.5135 2.11431 31.5078C2.51633 31.5043 2.9653 31.4483 3.11305 31.3807C3.26882 31.3086 3.38106 31.3201 3.38106 31.4105C3.38106 31.494 3.22644 31.6027 3.03632 31.6519C2.84733 31.7023 2.65721 31.7515 2.61597 31.7618C2.57245 31.7721 2.3995 31.8579 2.23114 31.9529C2.06277 32.0456 1.84974 32.1074 1.75696 32.0902C1.66419 32.0707 1.46719 32.1932 1.316 32.3602C1.16482 32.5273 1.04112 32.8248 1.04112 33.0239C1.04112 33.2814 0.916278 33.4347 0.601307 33.5526C0.298936 33.6659 0.160348 33.8249 0.160348 34.0549C0.160348 34.3158 0.221051 34.365 0.428359 34.2781C0.576109 34.2163 0.869319 34.1339 1.08121 34.0938C1.29195 34.0561 1.6974 33.9188 1.9826 33.7917C2.41554 33.5961 2.52206 33.5926 2.63201 33.7666C2.70531 33.8821 2.76602 33.9199 2.76831 33.8501C2.76831 33.7837 2.84504 33.7734 2.93782 33.8306C3.03288 33.8867 2.6343 34.1385 2.05475 34.3868C1.4775 34.6351 0.83725 34.9051 0.634523 34.9875C0.373384 35.0916 0.311534 35.1843 0.424923 35.2976C0.538312 35.4109 0.687208 35.4052 0.92315 35.2804C1.23239 35.1134 1.24499 35.1248 1.08808 35.42C0.994161 35.5951 0.857863 35.737 0.785707 35.737C0.71355 35.737 0.607035 35.9201 0.552058 36.1455C0.484483 36.4098 0.518844 36.5964 0.649413 36.6788C0.759367 36.7486 1.1442 36.8092 1.50384 36.8092C1.96771 36.8092 2.1544 36.8744 2.1544 37.0323C2.1544 37.1548 2.0937 37.2898 2.02039 37.3367C1.9448 37.3825 1.84859 37.5633 1.80278 37.7361C1.74093 37.9706 1.7856 38.0427 1.97687 38.0107C2.11775 37.9878 2.31704 38.0221 2.42127 38.0862C2.54611 38.1663 2.71677 37.9764 2.93667 37.5061C3.11878 37.1216 3.32609 36.7703 3.40168 36.7234C3.47613 36.6788 3.53798 36.6788 3.53798 36.7234C3.53798 36.768 3.39023 37.1353 3.21041 37.537C3.02944 37.9398 2.78778 38.4535 2.67324 38.6767C2.55756 38.9009 2.46364 39.2236 2.46364 39.3953C2.46364 39.5669 2.58619 39.7351 2.73394 39.7729C2.88169 39.8084 2.82901 39.8187 2.61826 39.7946C2.27695 39.7569 2.18647 39.8656 1.81652 40.7638C1.48551 41.5717 1.43627 41.8257 1.58172 42.0168C1.68137 42.1473 1.70542 42.2079 1.63327 42.1473C1.56111 42.0866 1.37327 42.2022 1.21636 42.4024C1.05601 42.6027 0.886497 42.97 0.836102 43.2195C0.760509 43.5994 0.804034 43.6852 1.10297 43.7641C1.29882 43.8133 1.62296 43.8133 1.82568 43.7641C2.1418 43.6852 2.17845 43.7138 2.09255 43.9873C2.02039 44.2161 2.0685 44.3203 2.26779 44.3683C2.498 44.4232 2.48082 44.4599 2.16127 44.588L1.77987 44.7436L2.12118 44.8512C2.31016 44.9118 2.46479 45.0595 2.46479 45.1808C2.46479 45.302 2.5358 45.4005 2.6217 45.4005C2.7076 45.4005 2.74654 45.5721 2.70875 45.7826C2.66408 46.0321 2.70875 46.1648 2.84161 46.1648C2.95156 46.1648 3.11649 45.976 3.20354 45.7449C3.29287 45.5115 3.4097 45.167 3.46353 44.9782C3.51622 44.7883 3.6422 44.6246 3.74299 44.6143C3.84264 44.6063 4.02819 44.588 4.15303 44.5766C4.28016 44.5663 4.405 44.4015 4.43364 44.2115C4.46571 43.9804 4.40501 43.8671 4.24122 43.8671C4.10951 43.8671 4.0007 43.7985 4.0007 43.7138C4.0007 43.6291 4.10722 43.5593 4.23893 43.5593C4.37065 43.5593 4.6902 43.4495 4.95134 43.3133C5.29151 43.1382 5.37054 43.0329 5.22737 42.946C5.11856 42.8773 5.07045 42.7125 5.12199 42.5764C5.17353 42.4425 5.36595 42.3315 5.54806 42.3315C5.82982 42.3315 5.84929 42.2972 5.68092 42.0935C5.51828 41.8978 5.51943 41.8635 5.68092 41.9012C5.80119 41.931 5.98444 41.6609 6.13448 41.2376C6.27307 40.8462 6.46434 40.4308 6.55711 40.3176C6.64989 40.202 6.87781 39.7843 7.06336 39.3873C7.24891 38.9902 7.35542 38.5908 7.29815 38.5016C7.24203 38.41 7.33595 38.2167 7.50661 38.0725C7.67726 37.9272 8.03118 37.3928 8.29117 36.8882C8.55231 36.3824 8.82719 35.864 8.90279 35.737C8.97838 35.61 9.07459 35.3926 9.11697 35.253C9.16049 35.1145 9.42277 34.9497 9.70224 34.8891C9.98285 34.8296 10.3505 34.7072 10.52 34.6168C10.6884 34.5264 10.9301 34.4371 11.0572 34.4165C11.182 34.3982 11.7696 34.2002 12.3606 33.9771C12.9516 33.7563 13.7636 33.4645 14.1645 33.3283C14.5665 33.1944 14.8941 33.0308 14.8941 32.9679C14.8941 32.9049 15.0178 32.8855 15.169 32.9255C15.3236 32.9656 15.5676 32.8603 15.7291 32.6795C15.9352 32.4529 16.2044 32.3637 16.6774 32.3637C17.1859 32.3637 17.3784 32.2916 17.5066 32.0513C17.5971 31.8819 17.7907 31.7595 17.935 31.7835C18.077 31.8076 18.1778 31.7423 18.156 31.6382C18.1377 31.5341 18.2912 31.4071 18.5031 31.3533C18.7127 31.2995 18.8856 31.1999 18.8856 31.1313C18.8856 31.0626 18.7654 30.9825 18.6176 30.9539C18.4195 30.9162 18.4974 30.8166 18.9143 30.5694C19.3346 30.3223 19.5156 30.2834 19.6209 30.4184C19.6988 30.518 19.7446 31.0581 19.7252 31.6199C19.7046 32.1806 19.6358 32.723 19.574 32.8248C19.4938 32.9576 19.5534 32.9793 19.787 32.9061C19.9657 32.85 20.1112 32.8385 20.1112 32.8832C20.1112 32.9278 20.0321 33.1384 19.9348 33.3535C19.8363 33.5686 19.7057 33.7437 19.645 33.7437C19.5843 33.7437 19.5007 34.0034 19.4617 34.3204C19.4205 34.6362 19.4617 34.9829 19.5442 35.0905C19.6473 35.2232 19.6439 35.4063 19.5305 35.6558C19.4033 35.9315 19.4079 36.0437 19.5454 36.0998C19.6782 36.1547 19.6633 36.2245 19.4984 36.3515C19.3232 36.4854 19.3151 36.5472 19.4606 36.6055C19.5671 36.6479 19.6507 36.9465 19.6507 37.2829C19.6507 37.6194 19.5992 37.8848 19.535 37.8848C19.4709 37.8848 19.4446 38.1949 19.4732 38.5783C19.5041 38.9604 19.4491 39.3678 19.3506 39.4857C19.2121 39.6516 19.2327 39.7351 19.4503 39.8599C19.6015 39.9491 19.6416 40.0212 19.5339 40.0258C19.4102 40.0292 19.3415 40.2706 19.3415 40.7123C19.3415 41.0865 19.4194 41.4401 19.5121 41.4985C19.6324 41.5705 19.6221 41.6392 19.4812 41.7273C19.3403 41.8143 19.2785 42.2663 19.275 43.2423C19.275 44.0674 19.3312 44.6292 19.4205 44.6235C19.5041 44.6201 19.5557 44.429 19.535 44.2012C19.5144 43.9747 19.5614 43.6051 19.637 43.3819C19.7263 43.1245 19.7172 42.9208 19.6198 42.8212C19.5328 42.7354 19.5064 42.5924 19.5614 42.5031C19.6141 42.4139 19.7492 42.3773 19.8546 42.4196C19.9852 42.4688 20.047 42.811 20.0424 43.4472C20.0321 44.334 20.0596 44.4049 20.3941 44.453C20.6644 44.4908 20.7342 44.5766 20.6758 44.7974C20.6346 44.9588 20.6449 45.0892 20.7022 45.0892C20.7571 45.0869 20.898 45.0251 21.0125 44.9519C21.1294 44.8787 21.1809 44.7459 21.1259 44.659C21.071 44.5709 21.0801 44.4667 21.1465 44.4255C21.2118 44.3843 21.3802 44.4358 21.5211 44.5388C21.6597 44.6407 21.7639 44.8569 21.749 45.0183C21.7307 45.2288 21.8521 45.341 22.1842 45.413C22.4362 45.4703 22.584 45.5252 22.5107 45.5332C22.4362 45.5435 22.4637 45.6568 22.5714 45.7849C22.6779 45.9131 22.8852 45.9806 23.0318 45.9337C23.1944 45.8822 23.3353 45.9451 23.3926 46.0927C23.4441 46.2266 23.5518 46.2976 23.632 46.2472C23.711 46.1992 23.7797 45.8319 23.7843 45.4336C23.7946 45.0343 23.8003 44.5342 23.8083 44.3237C23.8186 44.112 23.853 43.7847 23.8897 43.5959C23.9275 43.4048 24.0202 43.2492 24.0993 43.2492C24.1783 43.2492 24.3593 43.4907 24.499 43.7882C24.6948 44.2035 24.7143 44.3752 24.5746 44.5411C24.4532 44.6887 24.4474 44.7883 24.5574 44.8558C24.6444 44.9107 24.7189 45.1178 24.7189 45.3169C24.7189 45.516 24.633 45.7083 24.5265 45.746C24.4222 45.7838 24.3844 45.8673 24.4429 45.9314C24.5024 45.9966 24.6502 46.0104 24.7727 45.9634C24.9422 45.8982 24.9972 45.5332 25.0132 44.4084C25.0236 43.6016 25.1335 41.7159 25.2595 40.2192C25.3832 38.7213 25.5607 36.8069 25.6501 35.9636C25.7394 35.1214 25.9478 33.2917 26.1128 31.9002C26.2754 30.5088 26.5217 28.3335 26.6557 27.0679C26.792 25.8035 26.9283 24.5265 26.9615 24.2313C26.9958 23.9361 27.123 22.9016 27.2455 21.9324C27.3669 20.9609 27.5823 19.3738 27.7208 18.4046C27.8617 17.4354 27.9957 16.4341 28.0232 16.1801C28.0496 15.9284 28.1813 15.0301 28.3187 14.1856C28.455 13.3434 28.5982 12.4452 28.6406 12.1912C28.6795 11.9394 28.8158 10.5228 28.9406 9.04782C29.0655 7.5717 29.1709 5.73399 29.1709 4.96503C29.1709 4.19607 29.1296 3.34816 29.0781 3.08612C29.0254 2.82179 28.9269 2.60781 28.8582 2.60781C28.7895 2.60781 28.707 2.72796 28.6726 2.87558C28.6348 3.03921 28.5627 2.9202 28.4928 2.57806C28.4046 2.15468 28.3176 2.03796 28.1355 2.10662C27.9522 2.17642 27.9156 2.12378 27.9831 1.87204C28.0312 1.68438 27.9728 1.46926 27.856 1.3697C27.7392 1.2713 27.5387 1.23353 27.4116 1.28159C27.2833 1.33194 27.1791 1.30448 27.1791 1.22209C27.1791 1.1397 27.0749 1.07448 26.9489 1.07448C26.8229 1.07448 26.7175 1.00582 26.7175 0.920001C26.7175 0.83418 26.6522 0.766667 26.5698 0.766667C26.4873 0.766667 26.4644 0.88224 26.5194 1.02184C26.5812 1.18319 26.5572 1.2404 26.4495 1.17518C26.359 1.11796 26.2571 1.15115 26.2262 1.24727C26.1838 1.37199 26.0681 1.36284 25.823 1.2095C25.6123 1.07906 25.5034 0.892539 25.547 0.728907C25.5848 0.581295 25.547 0.418807 25.4657 0.368458C25.3832 0.316966 25.2767 0.425673 25.2309 0.606469C25.1736 0.815872 25.0625 0.905125 24.9216 0.852488C24.7979 0.804429 24.6284 0.766667 24.5402 0.766667C24.452 0.766667 24.4234 0.605324 24.4807 0.384478C24.5356 0.157911 24.5093 0 24.4154 0H24.4177L24.4085 0.00114452ZM22.6366 0.155622C22.5038 0.155622 22.4396 0.224279 22.4912 0.3101C22.5439 0.394777 22.6527 0.463434 22.7317 0.463434C22.8107 0.463434 22.876 0.394777 22.876 0.3101C22.876 0.225423 22.7684 0.155622 22.6378 0.155622H22.6366ZM22.0296 0.462289C21.9861 0.462289 21.954 0.496618 21.954 0.5401C21.954 0.583583 21.9861 0.615622 22.0296 0.615622C22.0731 0.615622 22.1075 0.581294 22.1075 0.5401C22.1075 0.498906 22.0731 0.462289 22.0296 0.462289ZM20.8934 0.637364C20.8098 0.665971 20.6529 0.774677 20.4948 0.922289C20.2852 1.12139 20.1123 1.37314 20.1123 1.48642C20.1123 1.5997 20.0516 1.68896 19.9749 1.68896C19.8981 1.68896 19.7962 1.86289 19.7435 2.07115C19.6908 2.28284 19.5786 2.45562 19.4961 2.45562C19.4136 2.45562 19.3449 2.52085 19.3449 2.5998C19.3449 2.67876 19.1388 2.97055 18.8845 3.24632C18.6325 3.52438 18.4241 3.83906 18.4241 3.94662C18.4241 4.05418 18.4997 4.14229 18.5924 4.14229C18.6852 4.14229 18.7974 4.00498 18.8398 3.83563C18.8845 3.66742 18.9738 3.52896 19.0368 3.52896C19.0998 3.52896 19.2361 3.32986 19.338 3.08612C19.44 2.8401 19.6393 2.51284 19.7813 2.35722C19.9233 2.20045 20.2646 1.76677 20.5349 1.39373C20.8064 1.01955 20.9954 0.679703 20.9541 0.638508C20.9438 0.62821 20.9232 0.62821 20.8934 0.637364ZM23.5655 0.767812C23.609 0.767812 23.6411 0.80214 23.6411 0.845623C23.6411 0.889106 23.609 0.923434 23.5655 0.923434C23.522 0.923434 23.4888 0.887961 23.4888 0.845623C23.4888 0.803285 23.5231 0.767812 23.5655 0.767812ZM22.0296 1.6901C22.0731 1.6901 22.1075 1.72443 22.1075 1.76562C22.1075 1.80682 22.072 1.84344 22.0296 1.84344C21.9872 1.84344 21.954 1.80911 21.954 1.76562C21.954 1.72214 21.9861 1.6901 22.0296 1.6901ZM21.7227 2.30229C21.7662 2.30229 21.8005 2.33662 21.8005 2.37896C21.8005 2.4213 21.7662 2.45448 21.7227 2.45448C21.6791 2.45448 21.6471 2.42015 21.6471 2.37896C21.6471 2.33776 21.6814 2.30229 21.7227 2.30229ZM18.2099 4.29677C18.0908 4.29677 17.9522 4.40662 17.9018 4.5405C17.8502 4.67667 17.8525 4.85861 17.9109 4.94672C17.9739 5.04971 18.0873 5.00508 18.2179 4.82886C18.3336 4.6721 18.4263 4.48901 18.4263 4.4215C18.4263 4.35399 18.3301 4.29677 18.2122 4.29677H18.2099ZM17.7552 5.17787C17.6784 5.17443 17.4459 5.44792 17.194 5.84613C16.9053 6.30269 16.6201 6.70891 16.5606 6.7524C16.4999 6.79702 16.1654 7.38175 15.815 8.05573C15.4633 8.72971 14.9067 9.63255 14.5745 10.0617C14.2435 10.4908 13.9721 10.889 13.9721 10.9439C13.9721 10.9988 14.058 11.0434 14.1645 11.0434C14.2699 11.0412 14.6685 10.5514 15.0476 9.9518C15.4278 9.3522 15.8768 8.61185 16.0463 8.30404C16.217 7.99623 16.6889 7.2124 17.0977 6.56016C17.5055 5.90906 17.8124 5.29573 17.7792 5.19618C17.7792 5.18473 17.7678 5.17672 17.7563 5.17672L17.7552 5.17787ZM18.6394 7.23757C18.652 7.23986 18.6634 7.24787 18.6795 7.2616C18.7367 7.31653 18.7367 7.40921 18.6795 7.46528C18.6222 7.52021 18.5764 7.47558 18.5764 7.3623C18.5764 7.27877 18.6039 7.23185 18.6394 7.23757ZM15.8894 9.35907C15.8482 9.35907 15.8138 9.3934 15.8138 9.43459C15.8138 9.47578 15.8482 9.5124 15.8894 9.5124C15.9306 9.5124 15.9673 9.47807 15.9673 9.43459C15.9673 9.39111 15.9329 9.35907 15.8894 9.35907ZM22.8062 10.1246C22.844 10.1246 22.8749 10.1932 22.8749 10.2779C22.8749 10.3626 22.8016 10.4324 22.7122 10.4324C22.6229 10.4324 22.592 10.3637 22.6458 10.2779C22.6973 10.1944 22.7707 10.1246 22.8073 10.1246H22.8062ZM15.2766 10.4313C15.2331 10.4313 15.1999 10.4656 15.1999 10.5091C15.1999 10.5526 15.2343 10.5869 15.2766 10.5869C15.319 10.5869 15.3545 10.5514 15.3545 10.5091C15.3545 10.4667 15.3202 10.4313 15.2766 10.4313ZM22.1693 10.4587C22.1831 10.4587 22.1945 10.4679 22.2083 10.4816C22.2656 10.5377 22.2656 10.6315 22.2083 10.6876C22.1533 10.7425 22.1075 10.6979 22.1075 10.5846C22.1075 10.5011 22.1327 10.4519 22.1693 10.4599V10.4587ZM21.9013 10.9256C21.9826 10.9187 22.0811 10.9565 22.1522 11.0263C22.2781 11.151 22.2724 11.1979 22.1384 11.1979C22.0376 11.1979 21.9529 11.3009 21.9529 11.4279C21.9529 11.5549 22.0227 11.6579 22.1075 11.6579C22.1923 11.6579 22.2621 11.571 22.2633 11.4657C22.2633 11.3375 22.3137 11.349 22.4087 11.5012C22.5152 11.6694 22.466 11.7769 22.222 11.9062C22.0399 12.0046 21.8097 12.0516 21.7089 12.0127C21.607 11.9749 21.4718 12.0275 21.4065 12.1328C21.3264 12.2644 21.3653 12.2919 21.544 12.2255C21.7192 12.1591 21.7994 12.2072 21.7994 12.3788C21.7994 12.5161 21.7215 13.0734 21.6276 13.6181C21.4867 14.4305 21.4936 14.6331 21.6654 14.7463C21.8395 14.8619 21.828 14.9214 21.607 15.0908C21.4592 15.2041 21.339 15.3734 21.339 15.4718C21.339 15.5702 21.4077 15.6457 21.4913 15.6457C21.5749 15.6457 21.6459 15.7499 21.6459 15.8757C21.6459 16.0016 21.5245 16.1126 21.3768 16.1195C21.1637 16.1275 21.1557 16.1481 21.339 16.219C21.4661 16.2671 21.6207 16.3815 21.6826 16.4742C21.7444 16.5669 21.796 16.6939 21.7983 16.758C21.7983 16.8209 21.7284 16.8736 21.6379 16.8736C21.5474 16.8736 21.5142 16.8095 21.5623 16.7305C21.6116 16.6516 21.5875 16.5486 21.5108 16.5028C21.4352 16.4547 21.3206 16.5348 21.2588 16.6825C21.1958 16.8301 21.1282 17.0875 21.1076 17.2569C21.087 17.4251 21.1431 17.6528 21.2313 17.7627C21.3481 17.9103 21.3355 17.9515 21.1843 17.9171C21.0492 17.8862 20.9599 18.0453 20.9289 18.3771C20.9037 18.6586 20.9438 18.844 21.024 18.7959C21.1019 18.7479 21.2038 18.7696 21.2508 18.8474C21.2989 18.923 21.1992 19.0202 21.0309 19.066C20.8625 19.1083 20.7205 19.272 20.7113 19.4276C20.7033 19.5844 20.685 19.9528 20.6701 20.248C20.6552 20.5433 20.5807 20.8831 20.5052 21.001C20.4021 21.1657 20.4319 21.1944 20.6243 21.1211C20.7651 21.0673 20.8797 21.0914 20.8797 21.176C20.8797 21.2607 20.7755 21.3694 20.646 21.4198C20.4857 21.4816 20.4582 21.5674 20.5601 21.6898C20.6483 21.7962 20.6529 21.9576 20.5727 22.088C20.4903 22.2219 20.5006 22.3844 20.6002 22.5034C20.7193 22.6453 20.6953 22.7231 20.5143 22.7929C20.378 22.8444 20.2669 23.0183 20.2669 23.1774C20.2669 23.3365 20.3139 23.4669 20.37 23.4669C20.4261 23.4669 20.5979 23.3536 20.7525 23.2129C20.9072 23.0744 21.0343 23.0309 21.0343 23.1179C21.0343 23.2049 20.9301 23.3616 20.8041 23.4658C20.677 23.5722 20.5739 23.753 20.5739 23.8697C20.5739 23.9864 20.4948 24.0814 20.4021 24.0814C20.3013 24.0814 20.2612 24.2404 20.3036 24.4636C20.3437 24.6741 20.3242 24.848 20.2589 24.848C20.1936 24.848 20.1776 24.9922 20.2245 25.1707C20.2704 25.3481 20.2245 25.5449 20.118 25.6101C19.9737 25.6994 19.9691 25.8069 20.0963 26.0461C20.189 26.22 20.2658 26.537 20.2658 26.7521C20.2658 27.0988 20.2268 27.1263 19.9016 27.0027C19.7011 26.9272 19.4755 26.9226 19.4022 26.9924C19.3289 27.0611 18.991 27.1572 18.6531 27.2053C18.3164 27.2533 17.6761 27.3872 17.2295 27.5062C16.7839 27.6241 16.383 27.6607 16.3384 27.5886C16.2937 27.5165 16.3281 27.4559 16.4186 27.4559C16.509 27.4559 16.5812 27.3941 16.5812 27.3174C16.5812 27.2407 16.1505 27.3094 15.6225 27.4707C15.0934 27.6298 14.5104 27.7625 14.326 27.7625C14.1416 27.7648 13.9446 27.8369 13.8896 27.9273C13.8346 28.0166 13.6411 28.0692 13.459 28.0452C13.2769 28.0234 13.0421 28.0577 12.9356 28.1218C12.8302 28.1871 12.7443 28.2031 12.7443 28.1527C12.7443 28.1024 12.8107 27.9456 12.8943 27.7991C12.9768 27.6538 13.4933 26.6011 14.042 25.4614C14.5894 24.324 15.2045 23.0813 15.4061 22.7025C15.6088 22.3215 15.9043 21.7539 16.0601 21.4358C16.2158 21.12 16.3979 20.8614 16.4632 20.8614C16.5285 20.8614 16.5812 20.755 16.5812 20.6268C16.5812 20.4986 16.6797 20.2389 16.7977 20.0512C16.9179 19.8636 17.1962 19.4013 17.4196 19.0214C17.6418 18.6403 17.864 18.2066 17.9121 18.0533C17.9648 17.8943 18.0953 17.8107 18.2213 17.8599C18.3519 17.9114 18.3977 17.8771 18.337 17.7775C18.2797 17.6871 18.3267 17.4274 18.4412 17.2043C18.5546 16.9811 18.8032 16.5829 18.9956 16.322C19.188 16.0611 19.3438 15.7762 19.3438 15.6881C19.3438 15.6 19.4308 15.3642 19.5362 15.1651C19.6427 14.966 19.7882 14.7086 19.8626 14.5953C19.9749 14.4202 20.0195 14.4202 20.1409 14.5953C20.2429 14.7406 20.2566 14.7017 20.189 14.4648C20.1352 14.2726 20.2039 13.9179 20.3482 13.6375C20.5235 13.2977 20.638 13.2073 20.7205 13.3389C20.8052 13.4762 20.8705 13.4831 20.9438 13.3606C21.0022 13.2679 20.9759 13.1913 20.8866 13.1913C20.7972 13.1913 20.7239 13.1123 20.7239 13.0139C20.7239 12.9155 20.8946 12.6157 21.1007 12.3445C21.3069 12.0756 21.5211 11.6705 21.5783 11.4474C21.6356 11.2242 21.7467 10.9988 21.8292 10.9496C21.8498 10.9359 21.8738 10.929 21.9013 10.9256ZM13.8175 11.3524C13.7339 11.3524 13.6651 11.4211 13.6651 11.5057C13.6651 11.5904 13.7339 11.6579 13.8175 11.6579C13.9011 11.6579 13.9709 11.5893 13.9709 11.5057C13.9709 11.4222 13.9022 11.3524 13.8175 11.3524ZM13.5105 11.8124C13.4269 11.8124 13.357 11.8822 13.357 11.968C13.357 12.0538 13.1841 12.3971 12.9722 12.7324C12.7615 13.0665 12.5897 13.4499 12.5897 13.5837C12.5897 13.7874 12.6206 13.7954 12.7821 13.6181C12.8863 13.5036 13.1291 13.1226 13.3181 12.7725C13.5082 12.4223 13.6651 12.063 13.6651 11.9737C13.6651 11.8845 13.5953 11.8124 13.5105 11.8124ZM15.2847 13.0379C15.3225 13.0379 15.3534 13.1066 15.3534 13.1913C15.3534 13.2759 15.2801 13.3457 15.1896 13.3457C15.0991 13.3457 15.0693 13.2771 15.1209 13.1913C15.1736 13.1066 15.2457 13.0379 15.2835 13.0379H15.2847ZM21.954 13.3537C21.9895 13.3537 22.0273 13.3675 22.056 13.3961C22.1121 13.451 22.0663 13.4979 21.954 13.4979C21.8418 13.4979 21.7948 13.4522 21.8509 13.3961C21.8784 13.3675 21.9162 13.3537 21.954 13.3537ZM22.0296 13.8046C22.0731 13.8046 22.1075 13.8389 22.1075 13.8824C22.1075 13.9259 22.072 13.9579 22.0296 13.9579C21.9872 13.9579 21.954 13.9236 21.954 13.8824C21.954 13.8412 21.9861 13.8046 22.0296 13.8046ZM12.5278 14.0323C12.4316 14.0472 12.1888 14.2978 11.946 14.6411C11.6677 15.0358 11.2828 15.6309 11.0915 15.965C10.9026 16.3003 10.7468 16.6676 10.7468 16.782C10.7468 16.8964 10.6437 17.0738 10.5166 17.1802C10.3906 17.2844 10.2864 17.4823 10.2875 17.6196C10.2875 17.7569 10.4937 17.559 10.7456 17.1802C10.9976 16.7992 11.2061 16.4319 11.2061 16.3609C11.2061 16.29 11.4489 15.87 11.7432 15.426C12.0387 14.9809 12.2816 14.5438 12.2816 14.4534C12.2816 14.363 12.3675 14.2612 12.474 14.2234C12.5782 14.1856 12.6183 14.1033 12.5576 14.0403C12.5484 14.0323 12.5404 14.03 12.5267 14.0323H12.5278ZM22.2701 14.7246C22.3492 14.7246 22.4144 14.7933 22.4144 14.8791C22.4144 14.9649 22.3068 15.0313 22.1739 15.0313C22.0411 15.0313 21.9781 14.9626 22.0296 14.8791C22.0823 14.7933 22.1888 14.7246 22.2701 14.7246ZM22.0296 15.1846C22.0731 15.1846 22.1075 15.2189 22.1075 15.2624C22.1075 15.3059 22.072 15.3391 22.0296 15.3391C21.9872 15.3391 21.954 15.3047 21.954 15.2624C21.954 15.2201 21.9861 15.1846 22.0296 15.1846ZM21.7227 15.3391C21.7662 15.3391 21.8005 15.3734 21.8005 15.4146C21.8005 15.4558 21.7662 15.4924 21.7227 15.4924C21.6791 15.4924 21.6471 15.4581 21.6471 15.4146C21.6471 15.3711 21.6814 15.3391 21.7227 15.3391ZM22.1854 15.4924C22.2266 15.4924 22.261 15.5267 22.261 15.5702C22.261 15.6137 22.2266 15.6457 22.1854 15.6457C22.1419 15.6457 22.1075 15.6114 22.1075 15.5702C22.1075 15.529 22.1419 15.4924 22.1854 15.4924ZM23.1051 15.4924C23.1463 15.4924 23.1807 15.5267 23.1807 15.5702C23.1807 15.6137 23.1486 15.6457 23.1051 15.6457C23.0616 15.6457 23.0284 15.6114 23.0284 15.5702C23.0284 15.529 23.0627 15.4924 23.1051 15.4924ZM13.7407 15.6446C13.7831 15.6446 13.8175 15.6801 13.8175 15.7213C13.8175 15.7647 13.782 15.7991 13.7407 15.7991C13.6995 15.7991 13.6628 15.7647 13.6628 15.7213C13.6628 15.6778 13.6972 15.6446 13.7407 15.6446ZM22.0296 16.5657C22.0731 16.5657 22.1075 16.6001 22.1075 16.6413C22.1075 16.6825 22.072 16.7191 22.0296 16.7191C21.9872 16.7191 21.954 16.6847 21.954 16.6413C21.954 16.5978 21.9861 16.5657 22.0296 16.5657ZM18.9784 16.8724C18.9349 16.8724 18.8593 16.9422 18.8066 17.0269C18.7551 17.1116 18.7459 17.1802 18.7894 17.1802C18.8329 17.1802 18.9097 17.1116 18.9612 17.0269C19.0128 16.9434 19.0208 16.8724 18.9784 16.8724ZM10.1249 17.948C10.0516 17.948 9.91871 18.0796 9.83166 18.2444C9.74461 18.408 9.6736 18.6815 9.6736 18.8566C9.6736 19.0317 9.60947 19.1747 9.52929 19.1747C9.44912 19.1747 9.33344 19.3292 9.27044 19.5191C9.20516 19.7079 9.16507 19.9151 9.18225 19.9791C9.19829 20.0421 9.14445 20.0947 9.06084 20.0947C8.97723 20.0947 8.79283 20.3533 8.64737 20.6691C8.50306 20.985 8.35531 21.3042 8.31981 21.3774C8.28315 21.453 8.34386 21.4827 8.45152 21.4461C8.55918 21.4106 8.66799 21.2539 8.68975 21.0982C8.7138 20.9415 8.7997 20.7721 8.88446 20.7206C8.96693 20.6691 9.24295 20.1782 9.49722 19.629C9.75149 19.082 10.0126 18.5785 10.0779 18.5156C10.1409 18.4504 10.2096 18.2959 10.2268 18.1723C10.2451 18.0487 10.1993 17.9469 10.126 17.9469L10.1249 17.948ZM12.0261 18.0041C12.0697 18.0064 12.0731 18.0659 12.0365 18.1666C11.9861 18.2993 11.9173 18.4046 11.8853 18.4046C11.8509 18.4046 11.8246 18.3394 11.8246 18.2604C11.8246 18.1815 11.8933 18.0728 11.9758 18.0224C11.9964 18.0087 12.0158 18.0041 12.0284 18.0041H12.025H12.0261ZM21.2622 18.2536C21.3058 18.2536 21.3401 18.2879 21.3401 18.3291C21.3401 18.3703 21.3058 18.4069 21.2622 18.4069C21.2187 18.4069 21.1866 18.3726 21.1866 18.3291C21.1866 18.2856 21.2187 18.2536 21.2622 18.2536ZM21.733 18.4057C21.7708 18.4057 21.8005 18.4744 21.8005 18.5579C21.8005 18.6415 21.7284 18.7124 21.639 18.7124C21.5497 18.7124 21.5188 18.6438 21.5703 18.5579C21.6219 18.4744 21.6952 18.4057 21.733 18.4057ZM12.0708 19.0202C12.1121 19.0202 12.1029 19.0889 12.0525 19.1736C11.9998 19.2571 11.9219 19.3269 11.8807 19.3269C11.8395 19.3269 11.8463 19.2582 11.8979 19.1736C11.9506 19.09 12.0284 19.0202 12.0697 19.0202H12.072H12.0708ZM17.5776 19.3257C17.5364 19.3257 17.5021 19.3612 17.5021 19.4024C17.5021 19.4459 17.5364 19.4802 17.5776 19.4802C17.6189 19.4802 17.6555 19.4459 17.6555 19.4024C17.6555 19.3589 17.6212 19.3257 17.5776 19.3257ZM20.9415 19.5077C20.9553 19.5077 20.9667 19.5157 20.9805 19.5317C21.0377 19.5866 21.0377 19.6793 20.9805 19.7365C20.9255 19.7915 20.8797 19.7468 20.8797 19.6336C20.8797 19.5489 20.9049 19.5031 20.9427 19.5077H20.9415ZM11.1316 19.6336C11.1729 19.6336 11.2072 19.6679 11.2072 19.7114C11.2072 19.7526 11.1752 19.7869 11.1316 19.7869C11.0881 19.7869 11.0537 19.7526 11.0537 19.7114C11.0537 19.6679 11.0881 19.6336 11.1316 19.6336ZM11.678 19.6336C11.7673 19.6336 11.7982 19.7022 11.7444 19.7857C11.6929 19.8716 11.6195 19.9402 11.5829 19.9402C11.5451 19.9402 11.5142 19.8716 11.5142 19.7857C11.5142 19.6999 11.5875 19.6336 11.6768 19.6336H11.678ZM21.5692 19.7857C21.6104 19.7857 21.6471 19.8224 21.6471 19.8636C21.6471 19.907 21.6116 19.9414 21.5692 19.9414C21.5268 19.9414 21.4913 19.907 21.4913 19.8636C21.4913 19.8201 21.5257 19.7857 21.5692 19.7857ZM21.032 19.9494C21.0698 19.9494 21.1076 19.9631 21.1351 19.9917C21.1912 20.0466 21.1454 20.0936 21.032 20.0936C20.9186 20.0936 20.874 20.0466 20.9301 19.9917C20.9576 19.9631 20.9942 19.9494 21.032 19.9494ZM11.2851 20.4002C11.3263 20.4002 11.3618 20.4346 11.3618 20.478C11.3618 20.5215 11.3275 20.5536 11.2851 20.5536C11.2427 20.5536 11.2072 20.5192 11.2072 20.478C11.2072 20.4346 11.2427 20.4002 11.2851 20.4002ZM16.9649 20.5524C16.9237 20.5524 16.887 20.5867 16.887 20.6291C16.887 20.6714 16.9214 20.7057 16.9649 20.7057C17.0084 20.7057 17.0405 20.6714 17.0405 20.6291C17.0405 20.5867 17.0061 20.5524 16.9649 20.5524ZM20.9564 20.5524C20.9977 20.5524 21.032 20.5867 21.032 20.6291C21.032 20.6714 20.9977 20.7057 20.9564 20.7057C20.9129 20.7057 20.8785 20.6714 20.8785 20.6291C20.8785 20.5867 20.9129 20.5524 20.9564 20.5524ZM8.39998 21.6647C8.37134 21.6647 8.33355 21.6784 8.29231 21.7036C8.2087 21.7551 8.06668 21.9313 7.97964 22.096C7.87541 22.2906 7.87312 22.3936 7.96933 22.3936C8.05294 22.3936 8.19381 22.2597 8.28201 22.096C8.3702 21.9336 8.44235 21.7562 8.44235 21.7036C8.44235 21.6772 8.42518 21.6658 8.39769 21.6658L8.40112 21.6635L8.39998 21.6647ZM20.4948 21.7802C20.4536 21.7802 20.4193 21.8146 20.4193 21.8569C20.4193 21.8992 20.4536 21.9347 20.4948 21.9347C20.5361 21.9347 20.5727 21.9004 20.5727 21.8569C20.5727 21.8134 20.5384 21.7802 20.4948 21.7802ZM16.0291 22.1144C15.9936 22.1098 15.9673 22.1556 15.9673 22.2391C15.9673 22.3524 16.0142 22.3993 16.0704 22.3421C16.1265 22.286 16.1265 22.1945 16.0704 22.1372C16.0566 22.1235 16.0429 22.1144 16.0314 22.1132H16.0291V22.1144ZM20.6495 22.2391C20.693 22.2391 20.7251 22.2746 20.7251 22.3169C20.7251 22.3592 20.6907 22.3947 20.6495 22.3947C20.6082 22.3947 20.5727 22.3604 20.5727 22.3169C20.5727 22.2734 20.6071 22.2391 20.6495 22.2391ZM10.2463 22.4565C10.2726 22.4817 10.2463 22.6178 10.197 22.7552C10.1443 22.8948 10.0378 23.008 9.96223 23.008C9.88664 23.008 9.90726 22.8742 10.0115 22.7094C10.1146 22.5446 10.2199 22.4313 10.2463 22.4576V22.4565ZM7.84907 22.7014C7.76545 22.7014 7.65321 22.77 7.60052 22.8559C7.54898 22.9394 7.57418 23.008 7.65894 23.008C7.74369 23.008 7.85479 22.9394 7.90748 22.8559C7.95902 22.77 7.93153 22.7014 7.84678 22.7014H7.84907ZM15.5824 23.0069C15.5412 23.0069 15.5069 23.0412 15.5069 23.0836C15.5069 23.1259 15.5412 23.1614 15.5824 23.1614C15.6237 23.1614 15.6603 23.127 15.6603 23.0836C15.6603 23.0401 15.626 23.0069 15.5824 23.0069ZM9.28877 23.3136C9.33 23.3136 9.3655 23.3479 9.3655 23.3902C9.3655 23.4326 9.33115 23.4658 9.28877 23.4658C9.24639 23.4658 9.21317 23.4314 9.21317 23.3902C9.21317 23.349 9.24524 23.3136 9.28877 23.3136ZM7.423 23.3159C7.2993 23.3159 7.24089 23.3845 7.29243 23.468C7.34626 23.5527 7.31533 23.6214 7.226 23.6214C7.13666 23.6214 7.06336 23.745 7.06336 23.8937C7.06336 24.0425 6.96257 24.3102 6.83773 24.4876C6.71403 24.6638 6.65561 24.8492 6.70601 24.9007C6.75755 24.9499 6.85834 24.9556 6.9305 24.911C7.0038 24.8664 7.06336 24.7622 7.06336 24.6775C7.06336 24.5929 7.19622 24.2542 7.35657 23.9212C7.59938 23.4177 7.61083 23.3159 7.423 23.3159ZM9.3655 24.2427C9.40101 24.2427 9.43995 24.2565 9.46744 24.2862C9.52471 24.3434 9.47889 24.3869 9.3655 24.3869C9.25211 24.3869 9.2063 24.3423 9.26242 24.2862C9.29106 24.2565 9.32771 24.2427 9.3655 24.2427ZM20.8018 24.5414C20.843 24.5414 20.8797 24.5757 20.8797 24.6169C20.8797 24.6581 20.8453 24.6936 20.8018 24.6936C20.7583 24.6936 20.7262 24.6592 20.7262 24.6169C20.7262 24.5746 20.7583 24.5414 20.8018 24.5414ZM8.98067 25.0014C9.02419 25.0014 9.05855 25.0357 9.05855 25.078C9.05855 25.1204 9.02419 25.1536 8.98067 25.1536C8.93944 25.1536 8.90508 25.1192 8.90508 25.078C8.90508 25.0368 8.93944 25.0014 8.98067 25.0014ZM20.8877 25.0014C20.977 25.0014 21.008 25.07 20.9564 25.1536C20.9037 25.2382 20.8316 25.308 20.7938 25.308C20.756 25.308 20.7262 25.2382 20.7262 25.1536C20.7262 25.0689 20.7984 25.0014 20.8877 25.0014ZM14.5081 25.1536C14.4646 25.1536 14.4302 25.1879 14.4302 25.2314C14.4302 25.2749 14.4657 25.3092 14.5081 25.3092C14.5505 25.3092 14.5849 25.2749 14.5849 25.2314C14.5849 25.1879 14.5505 25.1536 14.5081 25.1536ZM6.7312 25.2348C6.70257 25.2073 6.55597 25.3515 6.40364 25.5541C6.25245 25.7566 6.19862 25.9225 6.28337 25.9225C6.36813 25.9225 6.51703 25.7783 6.6098 25.6021C6.70486 25.427 6.75984 25.26 6.7312 25.2348ZM8.67486 25.6136C8.71609 25.6136 8.75045 25.649 8.75045 25.6914C8.75045 25.7337 8.71609 25.768 8.67486 25.768C8.63363 25.768 8.59698 25.7337 8.59698 25.6914C8.59698 25.649 8.63134 25.6136 8.67486 25.6136ZM8.52711 25.982C8.542 25.9763 8.55574 25.982 8.56834 25.9923C8.61416 26.0404 8.56834 26.164 8.46412 26.2692C8.31064 26.418 8.29346 26.402 8.37821 26.1834C8.41945 26.0701 8.48015 25.9923 8.52597 25.9832H8.52711V25.982ZM6.06576 26.228C6.02338 26.228 5.98902 26.2635 5.98902 26.3047C5.98902 26.3482 6.02338 26.3825 6.06576 26.3825C6.10814 26.3825 6.14135 26.3482 6.14135 26.3047C6.14135 26.2612 6.10699 26.228 6.06576 26.228ZM20.7262 26.2361C20.7617 26.2361 20.7984 26.2498 20.8281 26.2795C20.8854 26.3345 20.8385 26.3802 20.7262 26.3802C20.614 26.3802 20.567 26.3345 20.6231 26.2795C20.6506 26.2498 20.6884 26.2361 20.7262 26.2361ZM7.68642 26.5347C7.77576 26.5347 7.80669 26.6034 7.75515 26.6869C7.70246 26.7716 7.63031 26.8402 7.59251 26.8402C7.55471 26.8402 7.52379 26.7716 7.52379 26.6869C7.52379 26.6022 7.59709 26.5347 7.68642 26.5347ZM6.04858 26.5862C6.03025 26.5919 6.01078 26.5976 5.98902 26.6125C5.90312 26.664 5.8344 26.775 5.8344 26.8608C5.8344 26.9467 5.90312 26.9707 5.98902 26.9192C6.07263 26.8666 6.14135 26.7544 6.14135 26.6697C6.14135 26.6068 6.10127 26.5748 6.04629 26.5862H6.04858ZM8.22016 26.7189C8.25223 26.7533 8.16518 27.0359 8.0243 27.3472C7.88113 27.6595 7.7185 27.9147 7.65894 27.9147C7.59938 27.9147 7.68757 27.6321 7.85479 27.2865C8.02316 26.9398 8.1858 26.6858 8.22016 26.7189ZM20.4811 27.0222C20.4948 27.0222 20.5063 27.0313 20.5212 27.0451C20.5773 27.1023 20.5773 27.195 20.5212 27.251C20.4662 27.306 20.4193 27.259 20.4193 27.148C20.4193 27.0645 20.4456 27.0153 20.4811 27.0222ZM20.11 27.3002C20.1925 27.3002 20.2475 27.473 20.2303 27.6847C20.2131 27.8953 20.1444 28.0669 20.0779 28.0669C20.0115 28.0669 19.9577 27.9811 19.9554 27.8758C19.9554 27.7454 19.9073 27.7579 19.8111 27.9101C19.7206 28.052 19.7252 28.171 19.8248 28.2328C19.913 28.2866 19.7 28.4434 19.3529 28.5807C19.0082 28.7191 18.6921 28.8324 18.6508 28.8324C18.6096 28.8324 18.5775 28.7214 18.5775 28.5841C18.5775 28.4159 18.6715 28.361 18.8799 28.4159C19.0448 28.4594 19.2613 28.3987 19.3587 28.2797C19.4972 28.1104 19.4801 28.0658 19.275 28.0658C19.1307 28.0658 19.0414 27.9799 19.0769 27.8735C19.1113 27.7682 19.2212 27.6744 19.3197 27.6641C19.4194 27.6527 19.5511 27.6264 19.6152 27.608C19.6771 27.5875 19.7824 27.5794 19.8454 27.5874C19.9073 27.5977 19.9611 27.5382 19.9611 27.4536C19.9611 27.3689 20.0275 27.2991 20.1123 27.2991L20.11 27.3002ZM5.6878 27.3792C5.66374 27.3815 5.63282 27.3895 5.59731 27.4032C5.4759 27.4501 5.37397 27.5485 5.37397 27.6241C5.37397 27.6996 5.43811 27.7614 5.51141 27.7614C5.58471 27.7614 5.68665 27.6618 5.73476 27.5405C5.77828 27.4284 5.76224 27.3758 5.69008 27.3792H5.6878ZM15.7371 27.7625C15.7783 27.7625 15.8127 27.7969 15.8127 27.838C15.8127 27.8792 15.7806 27.9147 15.7371 27.9147C15.6935 27.9147 15.6592 27.8804 15.6592 27.838C15.6592 27.7957 15.6935 27.7625 15.7371 27.7625ZM18.5764 27.9227C18.6142 27.9227 18.6497 27.9365 18.6795 27.9662C18.7367 28.0211 18.6898 28.0669 18.5764 28.0669C18.463 28.0669 18.4183 28.0211 18.4745 27.9662C18.5019 27.9365 18.5386 27.9227 18.5764 27.9227ZM7.60511 28.1287C7.62114 28.1253 7.63603 28.1287 7.64863 28.1401C7.69559 28.1859 7.64863 28.3106 7.5444 28.4148C7.39093 28.5658 7.37374 28.5475 7.45736 28.3289C7.49973 28.2157 7.56044 28.1378 7.60625 28.1287H7.60511ZM14.5081 28.2225C14.5505 28.2225 14.5849 28.2569 14.5849 28.298C14.5849 28.3415 14.5505 28.3759 14.5081 28.3759C14.4657 28.3759 14.4302 28.3415 14.4302 28.298C14.4302 28.2546 14.4657 28.2225 14.5081 28.2225ZM19.8386 28.5269C19.9038 28.5269 19.9588 28.631 19.9588 28.7569C19.9588 28.8828 20.0619 28.9869 20.189 28.9869C20.3162 28.9869 20.4135 29.1082 20.4067 29.2558C20.3963 29.4149 20.3631 29.4469 20.3173 29.3336C20.2738 29.2272 20.1764 29.1414 20.0986 29.1414C20.0207 29.1414 19.9577 29.2547 19.9577 29.392C19.9577 29.5293 19.8363 29.7353 19.6885 29.8485C19.5408 29.9607 19.314 30.0534 19.1846 30.0557C19.0563 30.0591 18.8742 29.8588 18.7791 29.6117C18.6451 29.2581 18.6543 29.1448 18.8135 29.083C18.9246 29.0395 19.0403 29.1219 19.0689 29.265C19.1078 29.4606 19.1937 29.4 19.4194 29.027C19.582 28.7523 19.7698 28.5269 19.8363 28.5269H19.8386ZM6.67967 28.6814C6.7209 28.6814 6.75755 28.7157 6.75755 28.7592C6.75755 28.8027 6.72319 28.8347 6.67967 28.8347C6.63614 28.8347 6.60178 28.8004 6.60178 28.7592C6.60178 28.718 6.63729 28.6814 6.67967 28.6814ZM17.9625 28.6814C18.1308 28.6814 18.2683 28.7088 18.2683 28.7397C18.2683 28.7718 18.1308 28.8359 17.9625 28.8793C17.7918 28.924 17.6555 28.8976 17.6555 28.821C17.6555 28.7443 17.793 28.6814 17.9625 28.6814ZM7.27868 28.7088C7.29128 28.7111 7.30502 28.7191 7.31877 28.7329C7.37604 28.7901 7.37604 28.8805 7.31877 28.9377C7.26265 28.9938 7.21798 28.948 7.21798 28.8347C7.21798 28.7512 7.24318 28.7043 7.27983 28.71L7.27868 28.7088ZM4.97424 28.7352C4.95592 28.7386 4.93416 28.7466 4.91354 28.7592C4.82993 28.813 4.75892 28.924 4.75892 29.0086C4.75892 29.0933 4.82878 29.1208 4.91354 29.067C4.9983 29.0155 5.06702 28.9045 5.06702 28.8198C5.06702 28.7558 5.02922 28.7249 4.97424 28.7363V28.7352ZM16.044 29.2959C16.0853 29.2959 16.1196 29.3302 16.1196 29.3714C16.1196 29.4126 16.0853 29.4492 16.044 29.4492C16.0028 29.4492 15.9661 29.4149 15.9661 29.3714C15.9661 29.3279 16.0005 29.2959 16.044 29.2959ZM4.74403 29.3325C4.72112 29.3119 4.66844 29.3554 4.60659 29.4503C4.52527 29.5762 4.45884 29.749 4.45884 29.8337C4.45884 29.9183 4.52527 29.8829 4.60659 29.7559C4.68905 29.6311 4.75663 29.4572 4.75663 29.3737C4.75663 29.3531 4.75663 29.3393 4.74517 29.3325H4.74403ZM18.1583 29.4023C18.3084 29.4046 18.4504 29.4458 18.5122 29.5133C18.5947 29.6048 18.6405 29.7822 18.6153 29.9126C18.5878 30.0408 18.4355 30.2284 18.2717 30.3291C18.1102 30.4321 17.9487 30.463 17.9144 30.4035C17.88 30.3417 17.8079 30.1083 17.754 29.8875C17.6739 29.551 17.7162 29.4721 18.0094 29.4149C18.0575 29.4046 18.1079 29.4011 18.1572 29.4011L18.1583 29.4023ZM20.1833 29.6723C20.1913 29.678 20.2028 29.6918 20.2119 29.717C20.2555 29.8234 20.2555 29.995 20.2119 30.1014C20.1696 30.2056 20.1341 30.1209 20.1341 29.9092C20.1341 29.7513 20.1524 29.662 20.1822 29.6723H20.1833ZM14.6524 29.7559C14.7853 29.7559 14.8907 29.8245 14.8907 29.908C14.8907 29.9916 14.8254 30.0614 14.7463 30.0614C14.6673 30.0614 14.5585 29.9927 14.5081 29.908C14.4554 29.8245 14.5196 29.7559 14.6524 29.7559ZM6.82169 29.8062C6.90644 29.7868 6.8801 29.8348 6.7587 29.9824C6.65218 30.1106 6.53879 30.2159 6.50557 30.2159C6.47465 30.2159 6.44716 30.1541 6.44716 30.0785C6.44716 30.003 6.56055 29.8989 6.69914 29.8451C6.75182 29.8245 6.79191 29.8108 6.8194 29.8039L6.82169 29.8062ZM18.2099 29.8074C18.1549 29.7982 18.1148 29.8337 18.1148 29.9C18.1148 29.9893 18.1835 30.0614 18.2671 30.0614C18.3508 30.0614 18.4218 30.0328 18.4218 29.995C18.4218 29.9573 18.353 29.8852 18.2671 29.8325C18.2465 29.8199 18.2259 29.8119 18.2087 29.8085L18.2099 29.8074ZM16.643 29.9367C16.6545 29.9389 16.6694 29.947 16.6831 29.9607C16.7393 30.0156 16.7393 30.1083 16.6831 30.1644C16.6259 30.2204 16.58 30.1747 16.58 30.0614C16.58 29.9779 16.6075 29.9309 16.643 29.9355V29.9367ZM5.07618 30.5214C5.16552 30.5214 5.19644 30.5912 5.14376 30.6759C5.09221 30.7594 5.01891 30.828 4.98226 30.828C4.94446 30.828 4.91354 30.7594 4.91354 30.6759C4.91354 30.5923 4.98799 30.5214 5.07618 30.5214ZM16.8881 30.5214C16.9718 30.5214 17.0428 30.5912 17.0428 30.6759C17.0428 30.7605 16.974 30.828 16.8881 30.828C16.8022 30.828 16.7347 30.7594 16.7347 30.6759C16.7347 30.5923 16.8034 30.5214 16.8881 30.5214ZM20.0344 30.6759C20.0779 30.6759 20.1123 30.7102 20.1123 30.7514C20.1123 30.7949 20.0779 30.8292 20.0344 30.8292C19.9909 30.8292 19.9588 30.7949 19.9588 30.7514C19.9588 30.7102 19.9932 30.6759 20.0344 30.6759ZM4.54817 30.7274C4.5665 30.7308 4.58597 30.7388 4.60659 30.7514C4.69134 30.8052 4.76006 30.8773 4.76006 30.915C4.76006 30.9528 4.69134 30.9837 4.60659 30.9837C4.52183 30.9837 4.45311 30.9093 4.45311 30.8212C4.45311 30.7537 4.49091 30.7193 4.54817 30.7308V30.7285V30.7274ZM18.1927 30.828C18.2339 30.828 18.2694 30.8624 18.2694 30.9059C18.2694 30.9493 18.2351 30.9837 18.1927 30.9837C18.1503 30.9837 18.1148 30.9482 18.1148 30.9059C18.1148 30.8635 18.1503 30.828 18.1927 30.828ZM20.0344 31.7481C20.0779 31.7481 20.1123 31.7824 20.1123 31.8259C20.1123 31.8693 20.0779 31.9037 20.0344 31.9037C19.9909 31.9037 19.9588 31.8693 19.9588 31.8259C19.9588 31.7824 19.9932 31.7481 20.0344 31.7481ZM16.2605 32.5365C16.2078 32.533 16.1471 32.5433 16.0921 32.5651C15.9684 32.6131 16.0051 32.6497 16.1849 32.6578C16.3464 32.6646 16.4369 32.6291 16.3853 32.5777C16.3613 32.5513 16.3155 32.5387 16.2616 32.5342H16.2605V32.5365ZM1.68939 32.985C1.72718 32.985 1.76498 32.9987 1.79247 33.0262C1.84974 33.0823 1.80278 33.1292 1.68939 33.1292C1.576 33.1292 1.53133 33.0834 1.5886 33.0262C1.61608 32.9987 1.65388 32.985 1.68939 32.985ZM0.231359 33.1292C0.190126 33.1292 0.155766 33.1635 0.155766 33.207C0.155766 33.2505 0.190126 33.2825 0.231359 33.2825C0.272591 33.2825 0.309245 33.2482 0.309245 33.207C0.309245 33.1658 0.274882 33.1292 0.231359 33.1292ZM3.30203 33.2825C3.34556 33.2825 3.37763 33.3169 3.37763 33.3603C3.37763 33.4038 3.34556 33.4382 3.30203 33.4382C3.25851 33.4382 3.22415 33.4027 3.22415 33.3603C3.22415 33.318 3.25851 33.2825 3.30203 33.2825ZM19.6599 33.2825C19.5706 33.2825 19.4984 33.3512 19.4984 33.4359C19.4984 33.5205 19.5282 33.5903 19.566 33.5903C19.6038 33.5903 19.6759 33.5217 19.7286 33.4359C19.7801 33.3512 19.7515 33.2825 19.6599 33.2825ZM3.37763 33.5984C3.41542 33.5984 3.45322 33.6121 3.48071 33.6395C3.53683 33.6956 3.49102 33.7425 3.37763 33.7425C3.26424 33.7425 3.21957 33.6968 3.27684 33.6395C3.30433 33.6121 3.34212 33.5984 3.37763 33.5984ZM19.7286 34.0492C19.7698 34.0492 19.8042 34.0835 19.8042 34.1247C19.8042 34.1659 19.7698 34.2025 19.7286 34.2025C19.6851 34.2025 19.6519 34.1682 19.6519 34.1247C19.6519 34.0812 19.6862 34.0492 19.7286 34.0492ZM19.7286 34.6625C19.7698 34.6625 19.8042 34.6969 19.8042 34.7403C19.8042 34.7838 19.7698 34.817 19.7286 34.817C19.6851 34.817 19.6519 34.7815 19.6519 34.7403C19.6519 34.6969 19.6862 34.6625 19.7286 34.6625ZM2.55183 36.6582C2.81641 36.6559 2.86222 36.728 2.80267 37.0426C2.76143 37.2532 2.67553 37.4614 2.61025 37.5003C2.54496 37.5404 2.45677 37.4351 2.41325 37.2669C2.36629 37.0941 2.41325 36.9602 2.5106 36.9602C2.60796 36.9602 2.58619 36.8939 2.45791 36.8092C2.27122 36.6879 2.2884 36.6582 2.55298 36.6582H2.55183ZM20.3414 36.8092C20.3849 36.8092 20.4193 36.8458 20.4193 36.887C20.4193 36.9305 20.3849 36.9648 20.3414 36.9648C20.2978 36.9648 20.2658 36.9305 20.2658 36.887C20.2658 36.8435 20.299 36.8092 20.3414 36.8092ZM19.4217 36.9637C19.3804 36.9637 19.3438 36.998 19.3438 37.0415C19.3438 37.085 19.3781 37.117 19.4217 37.117C19.4652 37.117 19.4972 37.0827 19.4972 37.0415C19.4972 37.0003 19.4652 36.9637 19.4217 36.9637ZM24.625 37.1433C24.6387 37.1456 24.6525 37.1536 24.6662 37.1674C24.7212 37.2234 24.7212 37.315 24.6662 37.371C24.6101 37.4283 24.5631 37.3813 24.5631 37.2681C24.5631 37.1845 24.5883 37.1376 24.6261 37.1422H24.6238L24.625 37.1433ZM19.3438 37.2703C19.259 37.2703 19.1903 37.339 19.1903 37.4237C19.1903 37.5084 19.259 37.577 19.3438 37.577C19.4285 37.577 19.4984 37.5084 19.4984 37.4237C19.4984 37.339 19.4297 37.2703 19.3438 37.2703ZM3.60784 38.1903C3.65022 38.1903 3.68458 38.2247 3.68458 38.2659C3.68458 38.3071 3.65022 38.3425 3.60784 38.3425C3.56547 38.3425 3.53225 38.3082 3.53225 38.2659C3.53225 38.2235 3.56661 38.1903 3.60784 38.1903ZM2.364 38.3929C2.34567 38.3986 2.32505 38.4043 2.30444 38.4192C2.21968 38.4707 2.14982 38.5817 2.14982 38.6675C2.14982 38.7533 2.21854 38.7774 2.30444 38.7259C2.38805 38.6721 2.45677 38.5611 2.45677 38.4764C2.45677 38.4135 2.41783 38.3826 2.36285 38.3929H2.364ZM2.0055 38.9559C1.91846 38.9559 1.84401 39.0245 1.84401 39.1092C1.84401 39.1939 1.87264 39.2625 1.91044 39.2625C1.94824 39.2625 2.02268 39.1939 2.07308 39.1092C2.12462 39.0245 2.09599 38.9559 2.00436 38.9559H2.0055ZM1.25874 39.2614C1.14306 39.2614 1.08006 39.3793 1.11328 39.5303C1.14535 39.6779 1.25415 39.7809 1.35609 39.7603C1.45574 39.7397 1.53935 39.8427 1.53935 39.9903C1.53935 40.2066 1.56798 40.2169 1.68023 40.0418C1.76384 39.9079 1.74895 39.718 1.64014 39.544C1.54393 39.3884 1.37213 39.2614 1.25874 39.2614ZM24.4864 39.5703C24.5299 39.5703 24.5643 39.6047 24.5643 39.647C24.5643 39.6894 24.5299 39.7225 24.4864 39.7225C24.4429 39.7225 24.4108 39.6882 24.4108 39.647C24.4108 39.6058 24.4429 39.5703 24.4864 39.5703ZM24.4108 39.8862C24.4463 39.8862 24.4852 39.8999 24.5127 39.9297C24.57 39.9846 24.523 40.0315 24.4108 40.0315C24.2985 40.0315 24.2516 39.9846 24.3077 39.9297C24.3352 39.901 24.373 39.8862 24.4108 39.8862ZM20.0356 40.0303C20.0768 40.0303 20.1112 40.0647 20.1112 40.107C20.1112 40.1494 20.0768 40.1848 20.0356 40.1848C19.9943 40.1848 19.9577 40.1494 19.9577 40.107C19.9577 40.0647 19.992 40.0303 20.0356 40.0303ZM21.5692 40.1848C21.6104 40.1848 21.6471 40.2192 21.6471 40.2603C21.6471 40.3015 21.6116 40.3382 21.5692 40.3382C21.5268 40.3382 21.4936 40.3038 21.4936 40.2603C21.4936 40.2169 21.5268 40.1848 21.5692 40.1848ZM2.31246 40.6448C2.40179 40.6448 2.43272 40.7135 2.38118 40.7982C2.32735 40.8817 2.25519 40.9504 2.21739 40.9504C2.17959 40.9504 2.15096 40.8817 2.15096 40.7982C2.15096 40.7146 2.22312 40.6448 2.31246 40.6448ZM20.1112 40.6528C20.149 40.6528 20.1867 40.6666 20.2142 40.694C20.2692 40.7501 20.2245 40.797 20.1112 40.797C19.9978 40.797 19.9531 40.7501 20.0092 40.694C20.0367 40.6666 20.0734 40.6528 20.1112 40.6528ZM1.01936 40.7066C1.00218 40.6906 0.928876 40.7318 0.786853 40.8199C0.618487 40.9252 0.515405 41.0659 0.556637 41.1346C0.59787 41.2021 0.660866 41.257 0.695227 41.257C0.729587 41.257 0.832666 41.1163 0.925439 40.9423C1.00103 40.8005 1.03769 40.7249 1.01822 40.7078L1.01936 40.7066ZM20.1306 41.0202C20.2028 41.0099 20.228 41.0407 20.1879 41.106C20.1364 41.1884 20.0275 41.257 19.9485 41.257C19.8695 41.257 19.8042 41.2296 19.8042 41.1975C19.8042 41.1655 19.9119 41.0957 20.0436 41.0465C20.0779 41.0327 20.1066 41.0236 20.1306 41.0202ZM24.2562 41.1048C24.3398 41.1048 24.4108 41.3451 24.4108 41.6404C24.4108 41.9356 24.3421 42.177 24.2562 42.177C24.1703 42.177 24.1027 41.9344 24.1027 41.6404C24.1027 41.3463 24.1714 41.1048 24.2562 41.1048ZM3.01913 41.4721C3.04204 41.4756 3.0638 41.4824 3.08213 41.495C3.16116 41.5431 3.22415 41.6129 3.22415 41.6507C3.22415 41.6884 3.11649 41.717 2.98592 41.717C2.85535 41.717 2.79006 41.6472 2.8439 41.5614C2.88398 41.4973 2.95385 41.463 3.01913 41.4721ZM5.60418 41.5648C5.64656 41.5648 5.68092 41.5992 5.68092 41.6404C5.68092 41.6815 5.64656 41.717 5.60418 41.717C5.56181 41.717 5.52859 41.6827 5.52859 41.6404C5.52859 41.598 5.56295 41.5648 5.60418 41.5648ZM19.8958 41.6255C19.913 41.6209 19.9313 41.6232 19.9531 41.6358C20.0333 41.685 20.0608 41.828 20.0127 41.9516C19.9645 42.0752 19.8993 42.177 19.8672 42.177C19.8328 42.177 19.8065 42.0351 19.8065 41.8612C19.8065 41.7308 19.8431 41.6415 19.8958 41.6266V41.6255ZM21.7249 42.0248C21.7662 42.0248 21.8005 42.0592 21.8005 42.1015C21.8005 42.1438 21.7662 42.177 21.7249 42.177C21.6837 42.177 21.6471 42.1427 21.6471 42.1015C21.6471 42.0603 21.6814 42.0248 21.7249 42.0248ZM2.61139 42.1862C2.6469 42.1862 2.68469 42.201 2.71218 42.2285C2.7683 42.2857 2.72249 42.3315 2.61139 42.3315C2.50029 42.3315 2.45219 42.2846 2.50831 42.2285C2.5358 42.201 2.57359 42.1862 2.61139 42.1862ZM1.64014 42.3315C1.73864 42.3315 1.84859 42.415 1.88295 42.5203C1.91731 42.6256 1.8589 42.7984 1.75238 42.9048C1.64586 43.0112 1.5382 43.0993 1.50957 43.0993C1.48093 43.0993 1.46032 42.9254 1.46032 42.7148C1.46032 42.5043 1.54049 42.3326 1.63899 42.3326H1.64128L1.64014 42.3315ZM22.2701 42.3315C22.3595 42.3315 22.3893 42.4002 22.3366 42.4837C22.285 42.5684 22.2117 42.637 22.1751 42.637C22.1373 42.637 22.1063 42.5684 22.1063 42.4837C22.1063 42.399 22.1785 42.3315 22.269 42.3315H22.2701ZM2.49457 42.4997C2.51518 42.4997 2.53465 42.5077 2.54725 42.5237C2.60795 42.5821 2.57703 42.724 2.48082 42.8396C2.38461 42.9551 2.35254 43.0947 2.40867 43.1497C2.46364 43.2046 2.42928 43.2515 2.32964 43.2515C2.22999 43.2515 2.15096 43.1657 2.15325 43.0593C2.15325 42.9551 2.21968 42.7663 2.29871 42.6427C2.35713 42.5501 2.43501 42.4974 2.49457 42.5009V42.4997ZM24.2482 42.5695C24.3673 42.5695 24.4108 42.6416 24.4108 42.8041C24.4108 42.9666 24.318 43.0959 24.2046 43.0959C24.0912 43.0959 23.9538 43.0513 23.8988 42.9952C23.8415 42.9391 23.7957 42.8418 23.7957 42.7823C23.7957 42.7228 23.9332 42.637 24.1027 42.5924C24.1588 42.5787 24.2069 42.5695 24.247 42.5695H24.2482ZM21.1649 43.0181C21.2611 43.0204 21.3183 43.0593 21.3653 43.1348C21.434 43.2412 21.489 43.4151 21.4913 43.5193C21.4913 43.6257 21.3378 43.7115 21.1477 43.7069C20.9587 43.7035 20.6792 43.6085 20.5292 43.4941C20.2749 43.3018 20.291 43.2721 20.7491 43.113C20.9404 43.0467 21.071 43.0146 21.1649 43.0181ZM1.45917 43.2515C1.50269 43.2515 1.53706 43.2858 1.53706 43.327C1.53706 43.3705 1.50269 43.4048 1.45917 43.4048C1.41565 43.4048 1.38358 43.3705 1.38358 43.327C1.38358 43.2858 1.41794 43.2515 1.45917 43.2515ZM22.5794 43.327C22.6618 43.319 22.7203 43.3476 22.7203 43.4094C22.7203 43.4918 22.6172 43.557 22.49 43.557C22.3629 43.557 22.2598 43.5307 22.2598 43.4964C22.2598 43.4643 22.364 43.3968 22.49 43.3488C22.5221 43.3373 22.5519 43.3305 22.5794 43.3259V43.327ZM2.99508 43.557C3.03632 43.557 3.07297 43.5925 3.07297 43.6348C3.07297 43.6772 3.03861 43.7115 2.99508 43.7115C2.95156 43.7115 2.91949 43.6772 2.91949 43.6348C2.91949 43.5925 2.95385 43.557 2.99508 43.557ZM3.61013 43.557C3.65137 43.557 3.68573 43.5925 3.68573 43.6348C3.68573 43.6772 3.65137 43.7115 3.61013 43.7115C3.5689 43.7115 3.5334 43.6772 3.5334 43.6348C3.5334 43.5925 3.56776 43.557 3.61013 43.557ZM21.7249 43.557C21.7662 43.557 21.8005 43.5925 21.8005 43.6348C21.8005 43.6772 21.7662 43.7115 21.7249 43.7115C21.6837 43.7115 21.6471 43.6772 21.6471 43.6348C21.6471 43.5925 21.6814 43.557 21.7249 43.557ZM22.6458 44.0182C22.687 44.0182 22.7214 44.0525 22.7214 44.0937C22.7214 44.1349 22.6893 44.1704 22.6458 44.1704C22.6023 44.1704 22.5679 44.136 22.5679 44.0937C22.5679 44.0513 22.6023 44.0182 22.6458 44.0182ZM0.691791 44.0182C0.566948 44.0182 0.461575 44.08 0.461575 44.1589C0.461575 44.2379 0.416906 44.4244 0.36422 44.5789C0.279464 44.8134 0.319552 44.8043 0.594436 44.5228C0.774255 44.3351 0.924296 44.1475 0.924296 44.1006C0.924296 44.0536 0.820067 44.0182 0.692934 44.0182H0.691791ZM3.1646 44.2219C3.18292 44.2253 3.20468 44.2344 3.22415 44.2459C3.30891 44.2985 3.37763 44.3706 3.37763 44.4084C3.37763 44.4461 3.30891 44.477 3.22415 44.477C3.1394 44.477 3.07182 44.4038 3.07182 44.3134C3.07182 44.247 3.10962 44.2127 3.1646 44.223V44.2207V44.2219ZM0.998743 44.4988C0.971255 44.4942 0.972401 44.564 0.981564 44.7082C0.995308 44.8764 1.10526 45.1693 1.2301 45.3604C1.3538 45.5492 1.54622 45.7048 1.65846 45.7048C1.77071 45.7048 1.81423 45.7861 1.75353 45.8959C1.67221 46.0401 1.69855 46.0378 1.85775 45.8891C2.03757 45.7231 2.03757 45.6716 1.85775 45.5618C1.74093 45.492 1.69511 45.3558 1.75353 45.262C1.81194 45.167 1.76154 45.0915 1.63785 45.0915C1.51415 45.0915 1.31371 44.937 1.18772 44.7471C1.08006 44.5857 1.0228 44.5045 0.995307 44.4999H0.998743V44.4988ZM21.9975 44.6899C22.0124 44.6727 22.0353 44.6956 22.0594 44.7562C22.1041 44.8661 22.0972 44.9988 22.0456 45.0492C21.9964 45.0995 21.9597 45.0091 21.9666 44.8466C21.9666 44.7574 21.9804 44.7047 21.9975 44.6887V44.6899ZM22.7122 44.7436C22.7397 44.7505 22.7672 44.7677 22.7924 44.7928C22.8989 44.8993 22.8749 44.9954 22.7203 45.0938C22.5954 45.1739 22.4385 45.2414 22.3755 45.2414C22.3102 45.2437 22.3446 45.1075 22.4477 44.9405C22.5439 44.786 22.6298 44.7208 22.7122 44.7436ZM20.228 44.8661C20.1925 44.8443 20.1558 44.8661 20.1134 44.9347C20.0482 45.0389 20.031 45.2551 20.0699 45.4153C20.1134 45.5755 20.2818 45.7048 20.4445 45.7048C20.6071 45.7048 20.6999 45.7735 20.6472 45.8582C20.5956 45.9428 20.6609 46.0115 20.7926 46.0115C20.9243 46.0115 21.032 45.9463 21.032 45.8639C21.032 45.7815 20.898 45.6442 20.7342 45.5584C20.5716 45.4703 20.3906 45.2506 20.3345 45.072C20.299 44.9553 20.2623 44.889 20.228 44.8661ZM2.9172 44.9462C2.955 44.9462 2.99279 44.9599 3.02028 44.9897C3.07755 45.0446 3.03059 45.0904 2.9172 45.0904C2.80381 45.0904 2.75914 45.0446 2.81641 44.9897C2.8439 44.9599 2.88169 44.9462 2.9172 44.9462ZM0.0778828 45.0904C0.0355049 45.0904 0 45.1247 0 45.1682C0 45.2117 0.0343596 45.246 0.0778828 45.246C0.121406 45.246 0.153476 45.2105 0.153476 45.1682C0.153476 45.1258 0.121406 45.0904 0.0778828 45.0904ZM19.4824 45.246C19.4068 45.246 19.3438 45.3833 19.3438 45.5515C19.3438 45.7197 19.369 45.8582 19.4033 45.8582C19.4343 45.8582 19.4984 45.7209 19.5431 45.5515C19.5854 45.3833 19.5602 45.246 19.4824 45.246ZM21.489 45.286C21.3321 45.2517 21.2428 45.3616 21.2221 45.6121C21.1947 45.9406 21.245 45.9829 21.6104 45.9348C21.8406 45.9039 22.0983 45.873 22.1842 45.8662C22.2678 45.8593 22.2369 45.7895 22.1132 45.7117C21.9918 45.6339 21.8338 45.6053 21.765 45.6488C21.694 45.6911 21.6562 45.6396 21.6791 45.5332C21.7032 45.4268 21.6173 45.3158 21.4867 45.286H21.489ZM2.30444 45.5504C2.21968 45.5504 2.14982 45.6213 2.14982 45.7048C2.14982 45.7884 2.21854 45.8582 2.30444 45.8582C2.39034 45.8582 2.45677 45.7895 2.45677 45.7048C2.45677 45.6202 2.38805 45.5504 2.30444 45.5504ZM20.323 45.9268C20.3059 45.92 20.2875 45.9222 20.2646 45.936C20.181 45.9875 20.1123 46.1637 20.1123 46.3285C20.1123 46.4932 20.165 46.626 20.2326 46.626C20.3001 46.626 20.3666 46.4498 20.386 46.2346C20.3975 46.063 20.3746 45.9509 20.3242 45.9268H20.323ZM22.9528 46.1648C22.9092 46.1648 22.8749 46.1992 22.8749 46.2404C22.8749 46.2816 22.9092 46.3182 22.9528 46.3182C22.9963 46.3182 23.0284 46.2838 23.0284 46.2404C23.0284 46.1969 22.994 46.1648 22.9528 46.1648ZM22.8806 46.4726C22.7924 46.4726 22.7225 46.5974 22.7225 46.7541C22.7225 46.9109 22.7695 47.0814 22.8279 47.1386C22.884 47.197 22.9974 47.1787 23.0787 47.0997C23.1578 47.0196 23.1818 46.8457 23.1314 46.7129C23.0799 46.5814 22.9665 46.4726 22.8806 46.4726ZM2.53465 46.6248C2.49228 46.6248 2.45906 46.6592 2.45906 46.7026C2.45906 46.7461 2.49342 46.7782 2.53465 46.7782C2.57589 46.7782 2.61254 46.7438 2.61254 46.7026C2.61254 46.6615 2.57818 46.6248 2.53465 46.6248ZM20.3093 46.8365C20.2921 46.8537 20.2818 46.9063 20.2784 46.9956C20.2681 47.1569 20.3059 47.2473 20.3574 47.1958C20.4089 47.1466 20.4135 47.0116 20.3711 46.9029C20.3471 46.8411 20.3242 46.8205 20.3093 46.8365ZM2.38232 46.9315C2.3388 46.9315 2.30444 46.9658 2.30444 47.007C2.30444 47.0505 2.3388 47.0848 2.38232 47.0848C2.42584 47.0848 2.45791 47.0505 2.45791 47.007C2.45791 46.9635 2.42584 46.9315 2.38232 46.9315ZM21.954 46.9315C21.8704 46.9315 21.7994 47.0002 21.7994 47.0848C21.7994 47.1695 21.8681 47.2382 21.954 47.2382C22.0399 47.2382 22.1075 47.1695 22.1075 47.0848C22.1075 47.0002 22.0388 46.9315 21.954 46.9315ZM21.4168 47.0848C21.3756 47.0848 21.339 47.1192 21.339 47.1626C21.339 47.2061 21.3745 47.2382 21.4168 47.2382C21.4592 47.2382 21.4936 47.2038 21.4936 47.1626C21.4936 47.1215 21.4592 47.0848 21.4168 47.0848Z" fill="white"/>
</svg>
