<svg width="40" height="44" viewBox="0 0 40 44" fill="none" xmlns="http://www.w3.org/2000/svg">
<path d="M5.42363 43.0696C3.61627 43.1302 3.0562 43.097 2.47665 42.8842C2.08036 42.7423 1.73791 42.6061 1.715 42.5855C1.6898 42.5638 1.715 42.4322 1.76883 42.2937C1.82266 42.1564 1.96698 42.082 2.09182 42.1301C2.22353 42.1816 2.31631 42.1175 2.31631 41.9768C2.31631 41.8475 2.21094 41.6976 2.08037 41.6472C1.94178 41.5934 1.77456 41.6861 1.67606 41.8703C1.58443 42.0408 1.44814 42.1816 1.3714 42.1816C1.29466 42.1816 1.24426 42.0019 1.25915 41.7822C1.27175 41.5351 1.3565 41.4115 1.4802 41.4584C1.59015 41.5007 1.6795 41.4321 1.6795 41.3051C1.6795 41.1781 1.49967 41.0293 1.27976 40.9744C1.06215 40.9194 0.875458 40.757 0.866295 40.6128C0.855987 40.4697 0.834224 40.0658 0.814753 39.7145C0.795282 39.3632 0.721981 38.4604 0.650969 37.7075C0.558196 36.7314 0.571939 36.3057 0.700218 36.2256C0.799863 36.165 0.882331 35.9647 0.882331 35.7839C0.882331 35.6031 0.757489 35.3594 0.604013 35.2461C0.379525 35.0825 0.363488 35.0001 0.523837 34.8387C0.684186 34.6763 0.724273 34.6888 0.724273 34.904C0.724273 35.1191 0.784975 35.1431 1.10911 34.9967C1.43553 34.8468 1.4802 34.7403 1.4069 34.2861C1.34047 33.8856 1.38399 33.7265 1.57756 33.6521C1.75967 33.5823 1.80777 33.4404 1.73905 33.1715C1.68751 32.9621 1.70469 32.7905 1.78143 32.7905C1.85816 32.7905 2.01279 32.4861 2.12962 32.1131C2.2453 31.7423 2.43428 31.2228 2.54881 30.9608C2.66335 30.6976 2.84431 30.2319 2.95198 29.9252C3.05849 29.6185 3.21769 29.1883 3.30703 28.9686C3.39637 28.7489 3.53381 28.4468 3.6117 28.2935C3.72738 28.0635 3.68156 28.0143 3.34941 28.0143C3.01726 28.0143 2.92678 28.1127 2.85004 28.4949C2.79621 28.7603 2.68052 29.0201 2.59004 29.0773C2.48467 29.1414 2.45833 28.9537 2.51331 28.5406C2.59348 27.933 2.58088 27.9078 2.20063 27.9811C1.98187 28.0234 1.74936 27.9685 1.68293 27.8621C1.61764 27.7557 1.64055 27.5028 1.73447 27.3014C1.83068 27.0988 2.10785 26.8013 2.34952 26.6388C2.59348 26.4752 2.79163 26.2898 2.79392 26.2235C2.79392 26.1582 2.72634 26.1045 2.64273 26.1045C2.55912 26.1045 2.43198 26.2097 2.36097 26.3379C2.27736 26.4844 2.09869 26.5381 1.87535 26.4786C1.68064 26.4271 1.56496 26.3184 1.6165 26.2349C1.66575 26.1514 1.80319 26.1193 1.92002 26.1628C2.0357 26.2052 2.1697 26.1365 2.21895 26.0061C2.27049 25.8756 2.70573 25.5941 3.18906 25.3813C3.6724 25.1673 4.06869 24.9258 4.06869 24.8412C4.06869 24.7565 3.98508 24.6386 3.882 24.5746C3.7583 24.4979 3.72852 24.5459 3.7938 24.7164C3.86023 24.8892 3.82244 24.9464 3.67812 24.8915C3.56015 24.8457 3.41813 24.8824 3.36315 24.9716C3.30817 25.0609 3.15699 25.0952 3.02986 25.046C2.90158 24.9968 2.83629 24.8915 2.88325 24.8126C2.93135 24.7348 2.90501 24.6707 2.82026 24.6707C2.7355 24.6707 2.63357 24.8149 2.58661 24.9899C2.54194 25.165 2.40221 25.3092 2.27966 25.3092C2.1571 25.3092 1.92116 25.2096 1.75509 25.0906C1.46989 24.8801 1.47906 24.848 1.98301 24.3892C2.28424 24.1134 2.46291 23.8296 2.39877 23.7244C2.31287 23.5893 2.22926 23.5893 2.06204 23.7289C1.88451 23.8754 1.83755 23.8617 1.83755 23.6557C1.83755 23.5138 1.92002 23.3971 2.02081 23.3971C2.1216 23.3971 2.42511 23.23 2.69885 23.0252C2.96915 22.8181 3.47769 22.5171 3.82931 22.3558C4.17864 22.1922 4.55546 21.9473 4.66541 21.8123C4.84179 21.5971 4.85325 21.6006 4.76849 21.8466C4.71466 21.9999 4.72382 22.1247 4.78796 22.1247C4.8521 22.1247 5.07659 21.9427 5.2839 21.7184C5.49006 21.4953 5.65958 21.2859 5.65958 21.2516C5.65958 21.2195 5.43852 21.2573 5.16707 21.334C4.89448 21.4106 4.58982 21.5422 4.49018 21.6257C4.38824 21.7093 4.05495 21.8454 3.74799 21.929C3.44104 22.0114 3.20739 22.1601 3.22915 22.262C3.25205 22.3615 3.19708 22.4439 3.11003 22.4439C3.02299 22.4439 2.94968 22.3547 2.94968 22.2448C2.94968 22.1075 2.91074 22.1006 2.83057 22.2219C2.76643 22.318 2.55569 22.4782 2.36556 22.5801C2.17314 22.6796 1.97728 22.7632 1.92689 22.7632C1.87649 22.7632 1.83641 22.6693 1.83641 22.5526C1.83641 22.4359 2.12389 22.1819 2.47551 21.9862C2.82484 21.7882 3.11118 21.6784 3.11118 21.7425C3.11118 21.8065 3.23716 21.7493 3.39064 21.6177C3.54411 21.4861 3.7709 21.3202 3.89574 21.247C4.06296 21.1509 4.09503 21.1863 4.02058 21.382C3.9656 21.5273 3.98851 21.6475 4.07212 21.6475C4.15573 21.6475 4.23362 21.5582 4.24507 21.4484C4.25652 21.3397 4.25652 21.1955 4.24507 21.1314C4.23476 21.0662 4.31837 21.0124 4.43291 21.0124C4.54744 21.0124 4.91166 20.8717 5.24725 20.7C5.58398 20.5295 5.99287 20.2675 6.1578 20.1176C6.32159 19.9688 6.45674 19.7434 6.45674 19.6164C6.45674 19.4894 6.55867 19.1976 6.68123 18.9642C6.80492 18.733 7.22297 17.8977 7.6101 17.1104C7.99723 16.3209 8.61801 15.0862 8.98796 14.363C9.35905 13.6421 9.73014 13.0505 9.81146 13.0505C9.89278 13.0505 9.96265 12.9258 9.96723 12.7702C9.96723 12.6168 10.0772 12.3536 10.2055 12.1843C10.3979 11.9303 10.4391 11.9188 10.4391 12.1305C10.4391 12.2713 10.1803 12.8754 9.863 13.4739C9.54574 14.0724 9.06927 14.9557 8.80584 15.4363C8.54127 15.9192 8.23317 16.4925 8.11978 16.7099C8.00754 16.9285 7.75213 17.4663 7.55398 17.9045C7.35698 18.3428 7.15311 18.7364 7.10157 18.7788C7.05003 18.8234 6.91946 19.058 6.81065 19.304C6.70413 19.5477 6.61479 19.8086 6.61479 19.8796C6.61479 19.9505 6.79003 19.9757 7.00078 19.9345C7.23443 19.8899 7.45892 19.6828 7.5746 19.4058C7.67882 19.1541 7.86323 18.8657 7.98463 18.765C8.10718 18.6655 8.20683 18.4172 8.20683 18.2169C8.20683 18.0167 8.26066 17.8279 8.32594 17.7981C8.39123 17.7695 8.74972 17.1367 9.12311 16.393C9.49535 15.648 10.0932 14.5015 10.4517 13.8458C10.8079 13.1878 11.3107 12.2747 11.5673 11.8158C11.8238 11.3558 11.9647 10.9805 11.8834 10.9805C11.8021 10.9805 11.6852 11.0537 11.6314 11.143C11.5741 11.2323 11.4676 11.2654 11.3909 11.2197C11.3153 11.1716 11.0965 11.2963 10.9041 11.4954C10.6831 11.7254 10.5319 11.7872 10.4872 11.6682C10.438 11.5332 10.2925 11.5263 9.95463 11.643C9.69807 11.7323 9.39799 11.7746 9.28575 11.7369C9.17579 11.6991 9.01201 11.7529 8.92382 11.8536C8.83677 11.9554 7.69715 12.3788 6.3926 12.7976C4.86127 13.2874 3.98622 13.4956 3.91865 13.3892C3.84878 13.2748 3.62773 13.2862 3.22113 13.4247C2.89471 13.5368 2.2075 13.6158 1.6898 13.5975C1.17439 13.5803 0.671588 13.5151 0.575379 13.4567C0.47917 13.3984 0.401284 13.2359 0.401284 13.1009C0.401284 12.9349 0.500933 12.88 0.70595 12.9338C0.933875 12.9922 1.03809 12.9086 1.11483 12.61C1.16981 12.3891 1.14003 12.1328 1.04726 12.0401C0.954489 11.9474 0.878892 11.8135 0.878892 11.7426C0.878892 11.6717 1.40003 11.3741 2.03455 11.0824C2.66907 10.7906 3.32192 10.5056 3.48227 10.4484C3.64262 10.3912 3.74455 10.2539 3.70676 10.1452C3.67125 10.0353 3.52121 9.9232 3.37461 9.89459C3.22915 9.86598 2.92219 9.99071 2.69198 10.1704C2.46405 10.3523 2.22124 10.4644 2.15366 10.4232C2.08609 10.3821 1.80662 10.4267 1.53174 10.5217C1.15607 10.6532 0.97396 10.6475 0.797577 10.5022C0.606304 10.3431 0.560489 10.3523 0.560489 10.5468C0.560489 10.6807 0.448244 10.8318 0.308511 10.8855C0.169924 10.9393 0.0359166 10.9817 0.0130096 10.9817C-0.012188 10.9817 0.000409663 10.8123 0.0404968 10.604C0.0920375 10.3351 0.278735 10.1784 0.697932 10.0514C1.02092 9.95523 1.42523 9.76986 1.59932 9.63827C1.88108 9.42429 1.88451 9.40026 1.63483 9.39454C1.48135 9.3911 1.35651 9.45175 1.35651 9.52842C1.35651 9.60509 1.19501 9.64742 0.998013 9.62797C0.799868 9.60623 0.609737 9.58106 0.573086 9.56961C0.53758 9.55817 0.640663 9.40369 0.803302 9.22633C0.963651 9.04782 1.19043 8.93797 1.30611 8.9826C1.42065 9.02722 1.51457 9.00548 1.51457 8.93454C1.51457 8.86359 1.79975 8.66906 2.14909 8.502C2.49956 8.33494 2.78475 8.10837 2.78705 7.99966C2.78705 7.88981 2.71259 7.80056 2.61982 7.80056C2.52705 7.80056 2.48467 7.85434 2.5259 7.91956C2.56484 7.98479 2.38502 8.05459 2.12503 8.0729C1.86275 8.09235 1.41377 8.25255 1.12514 8.43105C0.836517 8.60842 0.480314 8.75489 0.330273 8.75489C0.157326 8.75489 0.0771544 8.65304 0.111515 8.47683C0.141294 8.32349 0.236355 8.21021 0.323401 8.22394C0.409302 8.23767 1.13087 7.90812 1.92574 7.49046C2.72176 7.07394 3.72509 6.60364 4.15574 6.44458C4.58753 6.28439 5.00787 6.09558 5.09148 6.02235C5.17509 5.94911 5.44425 5.88846 5.68821 5.88846C5.93217 5.88846 6.13604 5.81637 6.13604 5.72941C6.13604 5.64244 6.27348 5.57035 6.4407 5.57035C6.60792 5.57035 7.08095 5.42618 7.49099 5.2511C7.90102 5.07488 8.29502 4.96846 8.36947 5.01423C8.44277 5.06001 8.54814 5.02453 8.60312 4.93528C8.65809 4.84603 8.87915 4.77279 9.09333 4.77279C9.30751 4.77279 9.63737 4.68239 9.82291 4.57369C10.0944 4.41463 10.1745 4.41463 10.233 4.57369C10.2845 4.71558 10.3818 4.68926 10.5708 4.47757C10.7163 4.31508 11.124 4.10339 11.4745 4.00727C11.8238 3.91115 12.3553 3.78985 12.6542 3.73836C12.9531 3.68687 13.2658 3.60105 13.3494 3.5507C13.4365 3.49578 13.4525 3.60448 13.3849 3.81617C13.3082 4.05991 13.3277 4.14 13.4468 4.06448C13.543 4.00384 13.6232 3.85966 13.6232 3.74408C13.6232 3.62851 13.8213 3.47518 14.0618 3.40767C14.3024 3.34015 14.536 3.27264 14.5795 3.25776C14.6242 3.24174 14.7788 3.17767 14.9243 3.11359C15.0686 3.04951 15.3916 2.9797 15.6413 2.95911C15.891 2.93966 16.2506 2.83553 16.4442 2.73254C16.6354 2.62727 16.9046 2.54145 17.042 2.54145C17.1795 2.54145 17.2917 2.62727 17.2917 2.73025C17.2917 2.83324 17.3811 2.79548 17.4933 2.64443C17.6239 2.46707 17.9457 2.35722 18.4084 2.33662C18.8024 2.31831 19.1609 2.25538 19.2033 2.19816C19.248 2.14095 19.7508 2.05856 20.3189 2.01622C20.887 1.97503 21.8571 1.8297 22.4721 1.69353C23.0895 1.55851 24.0023 1.42463 24.504 1.39602C25.0056 1.36856 25.4145 1.29418 25.4145 1.22896C25.4145 1.16373 25.6482 1.1111 25.9334 1.11338C26.2186 1.11338 26.6664 1.08478 26.9298 1.04587C27.1921 1.00811 27.4074 0.960051 27.4074 0.942887C27.4074 0.925722 27.7121 0.891394 28.0855 0.868508C28.4577 0.845623 28.7612 0.886817 28.7612 0.958907C28.7612 1.031 28.6959 1.13169 28.6135 1.18204C28.5333 1.23353 28.4211 1.20378 28.3672 1.11682C28.3065 1.01726 28.1691 1.01154 27.9984 1.10537C27.8484 1.18547 27.4406 1.30333 27.089 1.36741C26.7386 1.43035 26.3972 1.47154 26.332 1.45552C26.2678 1.44179 26.2128 1.54135 26.2128 1.67751C26.2128 1.81368 26.2758 1.88806 26.3503 1.84C26.427 1.79309 26.7317 1.71642 27.0272 1.67065C27.325 1.62259 28.0064 1.51503 28.5425 1.43149C29.0796 1.34796 29.831 1.24612 30.2147 1.20493C30.5995 1.16373 31.3073 1.06075 31.7907 0.974927C32.2717 0.887961 32.7734 0.811294 32.9051 0.805573C33.0368 0.798707 33.4159 0.758658 33.7469 0.718608C34.1112 0.673981 34.3139 0.706021 34.2566 0.796419C34.2028 0.88224 34.2761 0.949752 34.4193 0.949752C34.5624 0.949752 34.6334 0.878807 34.5796 0.791842C34.5246 0.703732 34.5567 0.631643 34.6495 0.631643C34.7422 0.631643 34.819 0.704876 34.819 0.791842C34.819 0.878807 34.9438 0.945175 35.0973 0.937165C35.2645 0.9303 35.2977 0.892538 35.1775 0.844479C35.0675 0.799852 34.977 0.699155 34.977 0.617911C34.977 0.536667 35.1614 0.471443 35.3859 0.471443C35.6104 0.471443 35.7513 0.541244 35.694 0.631643C35.6402 0.718608 35.7433 0.790697 35.9242 0.790697C36.1167 0.790697 36.2518 0.686568 36.2518 0.538956C36.2518 0.315821 36.2793 0.315821 36.513 0.549254C36.655 0.692289 36.8691 0.7701 36.9894 0.725473C37.1062 0.679702 37.5644 0.593881 38.003 0.534379C38.5402 0.464578 38.8014 0.486319 38.8014 0.60418C38.8014 0.700299 38.6559 0.857066 38.4749 0.953185C38.2562 1.06876 38.1794 1.22438 38.2413 1.4212C38.3031 1.61572 38.2195 1.79766 37.9985 1.95214C37.7889 2.09975 37.7259 2.22791 37.8324 2.29428C37.9263 2.3515 38.003 2.46592 38.003 2.54373C38.003 2.62155 37.8965 2.64901 37.766 2.59866C37.6354 2.54946 37.4533 2.22791 37.3616 1.88692C37.2712 1.54707 37.1257 1.26786 37.041 1.26786C36.9562 1.26786 36.8875 1.37085 36.8875 1.49672C36.8875 1.62259 36.9528 1.76562 37.0318 1.81597C37.112 1.86403 37.1394 2.04941 37.0925 2.22562C37.0467 2.40184 36.9528 2.58035 36.884 2.62269C36.8165 2.66503 36.7947 2.53916 36.8382 2.3412C36.9024 2.05398 36.8829 2.0311 36.7466 2.22219C36.6527 2.35378 36.5736 2.59408 36.5736 2.75657C36.5736 2.99229 36.49 3.03234 36.1774 2.95453C35.8876 2.8813 35.7421 2.93622 35.6161 3.17309C35.4489 3.48662 35.4455 3.48662 35.111 3.15135L34.7743 2.81722L34.5739 3.29438C34.4433 3.59876 34.2268 3.79787 33.968 3.84821C33.724 3.89398 33.4549 3.82533 33.2911 3.66971C33.0414 3.43627 33.0277 3.43856 33.1158 3.69488C33.1823 3.88025 33.1342 3.97294 32.9692 3.97294C32.8352 3.97294 32.7665 4.03931 32.8158 4.11941C32.8707 4.20637 33.1135 4.20866 33.4239 4.12513C33.7091 4.04503 34.157 3.98438 34.4193 3.98667C34.6815 3.98667 35.1809 3.95234 35.528 3.90657C35.8761 3.86194 36.2484 3.791 36.3595 3.74752C36.4694 3.70518 36.5977 3.7315 36.6447 3.80816C36.6905 3.88254 36.8909 3.90657 37.0879 3.85622C37.2884 3.80816 37.3891 3.83219 37.3181 3.90772C37.2471 3.98438 36.9241 4.0519 36.6011 4.05876C36.0926 4.07135 36.0056 4.12971 35.9632 4.481C35.9277 4.7808 36.001 4.91011 36.2438 4.97533C36.4213 5.0211 36.608 4.99821 36.6538 4.92384C36.7008 4.84946 36.9333 4.81399 37.1727 4.84603C37.4109 4.87807 37.7304 4.95359 37.8839 5.01538C38.0386 5.07603 38.1623 5.27971 38.1623 5.46623C38.1623 5.73284 38.1267 5.75573 38.0145 5.57836C37.9057 5.40558 37.8163 5.39299 37.6526 5.5303C37.5128 5.64473 37.3525 5.65732 37.2024 5.56234C37.0742 5.47996 36.9173 5.41244 36.8531 5.41244C36.789 5.41244 36.7787 5.50971 36.8256 5.63443C36.8749 5.76603 36.7684 5.93881 36.5714 6.04409C36.3835 6.14593 35.9884 6.19513 35.6963 6.15623C35.402 6.11503 35.1007 6.14364 35.0263 6.21916C34.9518 6.29354 34.3185 6.43314 33.6198 6.52583C32.9211 6.61966 32.0976 6.76384 31.7907 6.84394C31.4837 6.92633 30.0142 7.17692 28.5242 7.4012C27.0341 7.62548 24.8476 7.98936 23.6644 8.20792C22.4824 8.42762 20.9259 8.72399 20.2101 8.86931L18.9055 9.13135L18.6444 9.81334C18.5001 10.1887 18.4233 10.6212 18.4714 10.7768C18.5195 10.9336 18.4909 11.167 18.4061 11.2986C18.271 11.5103 18.2527 11.5103 18.2492 11.2986C18.2492 11.167 18.0637 11.373 17.8449 11.7575C17.6113 12.166 17.4796 12.5962 17.5254 12.793C17.5723 12.9784 17.5609 13.0208 17.5002 12.8915C17.4292 12.7278 17.2574 12.9544 16.9607 13.6078C16.7213 14.133 16.5873 14.5861 16.6618 14.6125C16.7362 14.6411 16.7202 14.8322 16.6274 15.0381C16.5335 15.2452 16.3674 15.378 16.2563 15.3368C16.1475 15.2944 16.0101 15.3837 15.9528 15.5347C15.8944 15.6858 15.9299 15.862 16.033 15.9249C16.1681 16.0085 16.1418 16.1446 15.9391 16.4147C15.7031 16.7317 15.6745 16.7408 15.7604 16.4719C15.844 16.2144 15.8051 16.2282 15.5451 16.552C15.3698 16.7717 15.2278 17.012 15.2244 17.0887C15.2244 17.1631 15.4351 17.1939 15.6951 17.1562C16.0685 17.1013 16.1338 17.131 15.9998 17.2901C15.9093 17.4022 15.8807 17.5727 15.9391 17.6677C16.0158 17.7936 16.1052 17.7936 16.2563 17.6677C16.4098 17.5407 16.4831 17.5498 16.5346 17.6997C16.5862 17.8565 16.6595 17.8611 16.829 17.7249C16.9539 17.6265 17.2871 17.4949 17.5723 17.4342C17.8575 17.3736 18.0912 17.2397 18.0923 17.1367C18.0923 17.0029 18.1301 17.0063 18.2194 17.1482C18.3122 17.2924 18.4703 17.3038 18.815 17.1894C19.0739 17.1024 19.6088 16.9308 20.0028 16.806C20.6442 16.6046 20.7518 16.6081 21.0221 16.8449C21.3108 17.0967 21.3222 17.0921 21.2363 16.7523C21.171 16.4811 21.2168 16.3941 21.4322 16.3941C21.5868 16.3941 21.7941 16.4879 21.8926 16.6046C21.9957 16.7305 22.2637 16.7877 22.55 16.7465C22.8157 16.7076 23.0711 16.6149 23.117 16.5406C23.1639 16.4662 23.4136 16.4456 23.6736 16.4971C23.9325 16.5486 24.2337 16.5257 24.3436 16.4422C24.4524 16.3598 24.8121 16.2751 25.1408 16.2511C25.521 16.2236 25.7375 16.2774 25.7375 16.3987C25.7375 16.52 25.5863 16.5589 25.347 16.5142C25.1007 16.4662 24.9243 16.5234 24.8693 16.6676C24.8212 16.7935 24.7823 16.9262 24.7823 16.9639C24.7823 17.0017 24.8819 17.0292 25.0045 17.0292C25.1271 17.0292 25.2679 17.1436 25.3218 17.2809C25.3756 17.4205 25.418 17.5681 25.418 17.6105C25.418 17.6528 25.2725 17.6402 25.0915 17.5853C24.914 17.5281 24.6804 17.5498 24.5738 17.6311C24.4685 17.7146 24.2245 17.7684 24.0298 17.7501C23.8374 17.734 23.645 17.8084 23.6037 17.916C23.5614 18.0247 23.6667 18.1471 23.8351 18.1929C24.0046 18.2375 24.142 18.352 24.142 18.4469C24.142 18.5419 24 18.622 23.8248 18.622C23.6495 18.622 23.5052 18.7216 23.5052 18.8429C23.5052 18.9642 23.4067 19.1026 23.2853 19.1495C23.1639 19.1953 22.9841 19.153 22.8856 19.0546C22.7539 18.923 22.7069 18.9481 22.7069 19.1472C22.7069 19.3109 22.8318 19.4173 23.0265 19.4173C23.2017 19.4173 23.346 19.4905 23.346 19.5798C23.346 19.669 23.1662 19.8109 22.9463 19.8945C22.7264 19.978 22.5489 20.0695 22.5489 20.0981C22.5489 20.1267 22.818 20.1176 23.1456 20.0798C23.4732 20.0421 23.8763 19.9196 24.0401 19.8052C24.2028 19.6931 24.4364 19.6381 24.5578 19.6839C24.6769 19.7308 24.7376 19.8315 24.6884 19.9105C24.6403 19.9894 24.4708 20.0535 24.3104 20.0535C24.1501 20.0535 23.9393 20.1531 23.8397 20.2721C23.6954 20.4448 23.7251 20.5112 23.9794 20.5764C24.1569 20.6234 24.3024 20.7687 24.3024 20.9026C24.3024 21.0364 24.0561 21.2252 23.748 21.3271C23.4434 21.4266 23.1204 21.4644 23.0311 21.4095C22.9394 21.3534 22.8673 21.4518 22.8673 21.6269C22.8673 21.802 22.7356 21.9851 22.5718 22.0365C22.4091 22.088 22.1468 22.0812 21.9888 22.0205C21.8032 21.9507 21.7391 21.9713 21.8055 22.0812C21.8662 22.1773 21.7219 22.302 21.4734 22.3718C21.2329 22.4393 20.9042 22.4771 20.7449 22.4553C20.5823 22.4359 20.3326 22.5171 20.1872 22.6384C20.0406 22.7609 19.2056 23.087 18.3283 23.3651C17.4532 23.6408 16.2689 24.0253 15.7008 24.2164C15.1304 24.4075 14.5211 24.6169 14.3459 24.6833C14.1718 24.7496 13.3277 25.0643 12.4744 25.3847C11.4058 25.7852 10.9121 26.053 10.895 26.2349C10.8824 26.3825 10.8755 26.5965 10.8789 26.7121C10.8789 26.8265 10.8503 26.8814 10.7999 26.8311C10.7495 26.783 10.6143 26.8219 10.4964 26.9203C10.3784 27.0187 10.2822 27.1927 10.2822 27.3071C10.2822 27.4215 9.98326 28.1493 9.61675 28.9205C9.25139 29.6918 8.93985 30.3577 8.92496 30.4024C8.91236 30.4447 8.80928 30.6965 8.69475 30.9585C8.58251 31.2217 8.48629 31.6268 8.48286 31.8602C8.48286 32.1451 8.40612 32.255 8.26295 32.2C8.11864 32.1451 8.05106 32.255 8.05106 32.5433C8.05106 32.8317 8.11406 32.9278 8.23546 32.8534C8.35114 32.7825 8.37634 32.8111 8.30304 32.9267C8.24004 33.0308 8.12665 33.0754 8.05106 33.0285C7.97661 32.9816 7.86895 33.0891 7.81283 33.2642C7.75785 33.4404 7.75785 33.6578 7.81512 33.7482C7.87009 33.8386 7.82314 33.8924 7.70402 33.8695C7.55971 33.8386 7.4887 34.0194 7.47724 34.4371C7.46579 34.7735 7.36843 35.1065 7.25619 35.1763C7.14051 35.2473 7.03513 35.6775 7.01337 36.1753C6.97787 36.982 6.99963 37.0415 7.29857 36.9625C7.51733 36.9053 7.58605 36.9374 7.50931 37.0621C7.44632 37.1639 7.25619 37.2475 7.08438 37.2475C6.91258 37.2475 6.77629 37.3241 6.77629 37.4168C6.77629 37.5095 6.90113 37.5518 7.05461 37.5106C7.20809 37.4683 7.72807 37.347 8.21026 37.2394C8.69131 37.133 9.17236 36.9763 9.28002 36.8927C9.38539 36.8103 9.5423 36.784 9.62591 36.8367C9.71067 36.8904 9.82177 36.8676 9.87216 36.7863C9.92141 36.7062 10.3211 36.5552 10.7598 36.4499C11.1985 36.3446 11.557 36.2027 11.557 36.1341C11.557 36.0654 11.7173 35.9579 11.9155 35.8972C12.1136 35.8343 12.4183 35.7622 12.5935 35.7313C12.7676 35.7004 13.3426 35.4795 13.8683 35.2392C14.394 35.0012 14.9575 34.7781 15.1213 34.7472C15.2828 34.7175 15.6436 34.5767 15.9184 34.4337C16.1922 34.2906 16.5427 34.1133 16.6939 34.0366C16.845 33.9622 17.0466 33.9016 17.1394 33.9016C17.2322 33.9016 17.6044 33.7585 17.9663 33.5846C18.326 33.4095 18.6581 33.3008 18.7005 33.3455C18.7452 33.3878 18.7509 33.4439 18.7131 33.469C18.6776 33.4919 18.0282 33.8112 17.2723 34.1762C16.5163 34.5412 15.7111 34.8891 15.4809 34.9463C15.2507 35.0035 15.0617 35.1065 15.0617 35.1763C15.0617 35.2461 14.7651 35.4178 14.4032 35.5631C14.0435 35.7073 13.7812 35.8606 13.8236 35.9029C13.866 35.9453 14.1088 35.8961 14.3619 35.7908C14.615 35.6855 14.8579 35.5871 14.9025 35.5734C14.9472 35.5596 15.0892 35.5024 15.2198 35.4475C15.3515 35.3926 15.8898 35.1912 16.4155 35.0001C16.9424 34.8078 17.5128 34.555 17.6857 34.4371C17.8587 34.3181 18.1633 34.2208 18.3626 34.2208C18.5619 34.2208 18.7268 34.1568 18.7268 34.0789C18.7268 34.0011 18.9227 33.8787 19.1632 33.8078C19.406 33.7379 19.6889 33.6762 19.7966 33.6704C19.902 33.6636 20.0784 33.5709 20.1872 33.4622C20.2948 33.3535 20.556 33.2642 20.769 33.2642C21.108 33.2642 21.1447 33.3226 21.0805 33.7528C21.0313 34.095 21.0931 34.2975 21.289 34.4348C21.5135 34.5916 21.5421 34.7392 21.439 35.1809C21.368 35.483 21.3027 35.6031 21.2936 35.4441C21.2833 35.285 21.2042 35.2003 21.1172 35.2553C21.0278 35.3102 20.9259 35.2598 20.8904 35.1443C20.8549 35.0298 20.7816 34.7381 20.7301 34.4978C20.6762 34.2575 20.5617 34.0595 20.4769 34.0595C20.3922 34.0595 20.32 34.27 20.32 34.5275C20.32 34.785 20.391 35.0401 20.4804 35.0939C20.5674 35.1477 20.6384 35.2473 20.6384 35.3148C20.6384 35.3823 20.4426 35.539 20.1998 35.6638C19.9592 35.7885 19.6672 35.9796 19.5526 36.0894C19.3774 36.2531 19.382 36.2874 19.5721 36.2874C19.6981 36.2874 19.8894 36.1844 19.9947 36.0563C20.1608 35.8583 20.2387 35.8858 20.5422 36.2382C20.8457 36.5884 20.9488 36.6227 21.2363 36.4693C21.4219 36.3698 21.7414 36.2908 21.9441 36.2931C22.3026 36.2988 22.3038 36.3057 22.0025 36.5311C21.8319 36.6593 21.5547 36.7669 21.3875 36.7669C21.1401 36.7669 21.1 36.8435 21.1825 37.1674C21.2558 37.4614 21.2111 37.5965 21.0118 37.6731C20.8572 37.7315 20.7106 37.696 20.6751 37.5896C20.6407 37.4866 20.493 37.4042 20.3475 37.4042C20.1814 37.4042 20.1471 37.4511 20.257 37.5232C20.3532 37.5896 20.4311 37.7658 20.43 37.9169C20.43 38.124 20.3762 38.1503 20.2227 38.0233C20.0749 37.8997 19.9444 37.9134 19.76 38.0645C19.6191 38.1823 19.3511 38.4387 19.1644 38.6378C18.8952 38.9238 18.72 38.9765 18.2996 38.8975C17.8415 38.8117 17.7716 38.8426 17.7716 39.1252C17.7716 39.3049 17.7063 39.4925 17.6262 39.5417C17.546 39.5921 17.4509 39.5417 17.4154 39.433C17.3616 39.2763 17.2608 39.2763 16.9275 39.4273C16.6469 39.5532 16.5347 39.7019 16.5976 39.8633C16.6561 40.0143 16.5976 40.1059 16.4476 40.1059C16.3136 40.1059 16.08 40.1539 15.9265 40.2134C15.7375 40.2867 15.6837 40.2615 15.765 40.1345C15.828 40.0315 15.8005 39.948 15.7066 39.948C15.6126 39.948 15.4855 40.0727 15.4282 40.226C15.3698 40.3793 15.2198 40.5819 15.0927 40.678C14.9667 40.7718 14.7044 40.821 14.512 40.7833C14.3069 40.7444 13.9095 40.8886 13.551 41.13C13.1822 41.3795 12.8249 41.5076 12.6473 41.4504C12.4629 41.392 12.3186 41.4504 12.2579 41.6072C12.2041 41.7445 12.0495 41.8566 11.912 41.8566C11.7746 41.8566 11.4046 41.939 11.092 42.0386C10.7781 42.1381 10.3784 42.2754 10.2043 42.3418C10.0291 42.4093 9.38425 42.5821 8.77149 42.7263C8.15643 42.8704 6.65373 43.0226 5.42478 43.065L5.42363 43.0696ZM2.55454 42.6588C2.5992 42.6588 2.63471 42.6244 2.63471 42.5798C2.63471 42.5352 2.5992 42.4997 2.55454 42.4997C2.50987 42.4997 2.47665 42.5363 2.47665 42.5798C2.47665 42.6233 2.50987 42.6588 2.55454 42.6588ZM5.60918 40.749C5.6676 40.749 5.66989 40.702 5.60918 40.6437C5.55192 40.5865 5.58283 40.4469 5.67446 40.3324C5.77067 40.2203 5.8016 40.0509 5.74433 39.9594C5.68707 39.869 5.57826 39.7935 5.50152 39.7935C5.42478 39.7935 5.38927 39.9892 5.4202 40.2317C5.45227 40.472 5.48204 40.686 5.49006 40.7089C5.49923 40.7306 5.54848 40.7478 5.60804 40.7478H5.61032L5.60918 40.749ZM1.5157 40.3542C1.58328 40.3141 1.60161 40.1001 1.56038 39.8782C1.518 39.6573 1.4195 39.4754 1.34276 39.4754C1.26603 39.4754 1.20188 39.5291 1.20417 39.5944C1.20417 39.6607 1.24884 39.8747 1.30153 40.0704C1.35307 40.2661 1.45157 40.3942 1.51685 40.353H1.51457L1.5157 40.3542ZM7.00307 40.2592C7.17029 40.2661 7.26536 40.2295 7.21267 40.1757C7.15884 40.1219 7.02254 40.1173 6.90686 40.1631C6.77972 40.2134 6.81752 40.2523 7.00307 40.2592ZM6.28952 40.1139C6.38229 40.1139 6.45903 40.0406 6.45903 39.9537C6.45903 39.8667 6.42696 39.7946 6.38802 39.7946C6.34908 39.7946 6.27348 39.8656 6.22079 39.9537C6.16582 40.0406 6.19789 40.1139 6.29066 40.1139H6.28952ZM2.71603 39.9537C2.75841 39.9537 2.79506 39.9182 2.79506 39.8736C2.79506 39.8289 2.75956 39.7958 2.71603 39.7958C2.67251 39.7958 2.63586 39.8312 2.63586 39.8736C2.63586 39.9159 2.67137 39.9537 2.71603 39.9537ZM10.3635 39.7946C10.4059 39.7946 10.4425 39.7592 10.4425 39.7145C10.4425 39.6699 10.407 39.6344 10.3635 39.6344C10.32 39.6344 10.2833 39.6699 10.2833 39.7145C10.2833 39.7592 10.3188 39.7946 10.3635 39.7946ZM14.9827 38.6801C15.0274 38.6801 15.0629 38.6446 15.0629 38.6C15.0629 38.5554 15.0274 38.521 14.9827 38.521C14.938 38.521 14.9037 38.5565 14.9037 38.6C14.9037 38.6435 14.9369 38.6801 14.9827 38.6801ZM1.59932 38.3608C1.64399 38.3608 1.6795 38.3254 1.6795 38.2819C1.6795 38.2384 1.64399 38.2018 1.59932 38.2018C1.55465 38.2018 1.51914 38.2373 1.51914 38.2819C1.51914 38.3265 1.55465 38.3608 1.59932 38.3608ZM16.2575 38.2029C16.3022 38.2029 16.3377 38.1675 16.3377 38.1228C16.3377 38.0782 16.3022 38.0439 16.2575 38.0439C16.2128 38.0439 16.1784 38.0793 16.1784 38.1228C16.1784 38.1663 16.2128 38.2029 16.2575 38.2029ZM16.2575 37.8837C16.3022 37.8837 16.3377 37.8482 16.3377 37.8059C16.3377 37.7612 16.3022 37.7258 16.2575 37.7258C16.2128 37.7258 16.1784 37.7612 16.1784 37.8059C16.1784 37.8482 16.2128 37.8837 16.2575 37.8837ZM13.7079 37.7246C13.7526 37.7246 13.7881 37.6891 13.7881 37.6445C13.7881 37.5999 13.7526 37.5656 13.7079 37.5656C13.6633 37.5656 13.6289 37.601 13.6289 37.6445C13.6289 37.688 13.6633 37.7246 13.7079 37.7246ZM13.2303 37.5667C13.275 37.5667 13.3105 37.5312 13.3105 37.4866C13.3105 37.442 13.275 37.4065 13.2303 37.4065C13.1857 37.4065 13.1513 37.442 13.1513 37.4866C13.1513 37.5312 13.1857 37.5667 13.2303 37.5667ZM17.6124 37.5667C17.7292 37.5667 17.7762 37.5187 17.7189 37.4603C17.6605 37.4019 17.5643 37.4019 17.5048 37.4603C17.4475 37.5187 17.4945 37.5667 17.6124 37.5667ZM14.5853 37.4065C14.6723 37.4065 14.7433 37.3344 14.7433 37.2475C14.7433 37.1605 14.6723 37.0873 14.5853 37.0873C14.4982 37.0873 14.4261 37.1605 14.4261 37.2475C14.4261 37.3344 14.4971 37.4065 14.5853 37.4065ZM19.524 37.0644C19.5687 37.0644 19.7416 37.0129 19.9088 36.9465C20.0761 36.8801 20.2318 36.7062 20.2524 36.5597C20.2753 36.4121 20.2078 36.2931 20.1024 36.2931C19.997 36.2931 19.7634 36.3961 19.5801 36.5243C19.3969 36.6524 19.2022 36.7131 19.1472 36.6581C19.0922 36.6032 19.0453 36.6353 19.0453 36.7291C19.0453 36.8229 19.1357 36.9374 19.2457 36.982C19.3545 37.0266 19.4805 37.0644 19.524 37.0644ZM19.9501 36.7165C19.8917 36.7749 19.8424 36.7268 19.8424 36.6089C19.8424 36.4911 19.8905 36.4453 19.9501 36.5037C20.0085 36.5609 20.0085 36.657 19.9501 36.7154V36.7165ZM1.13087 36.9293C1.16981 36.9293 1.20303 36.8573 1.20303 36.7703C1.20303 36.6833 1.12629 36.6101 1.03352 36.6101C0.940745 36.6101 0.908677 36.6833 0.963654 36.7703C1.01748 36.8573 1.09193 36.9293 1.13087 36.9293ZM17.9068 36.8412C17.9377 36.8126 17.9205 36.7234 17.869 36.6398C17.8197 36.5575 17.6319 36.451 17.4555 36.4041C17.2791 36.3595 17.1348 36.3881 17.1348 36.4705C17.1348 36.5529 17.2952 36.681 17.4933 36.7554C17.6914 36.8298 17.877 36.8676 17.9068 36.8412ZM12.7069 36.5208C12.8993 36.4602 13.1501 36.316 13.2647 36.2016C13.4353 36.0288 13.4159 35.9968 13.1524 36.0162C12.9772 36.0299 12.834 36.0975 12.834 36.1661C12.834 36.2348 12.7252 36.292 12.5958 36.292C12.4664 36.292 12.3564 36.3686 12.3564 36.4613C12.3564 36.5643 12.4962 36.5883 12.708 36.5197L12.7069 36.5208ZM15.3023 36.6101C15.3469 36.6101 15.3824 36.5746 15.3824 36.5323C15.3824 36.4877 15.3469 36.4522 15.3023 36.4522C15.2576 36.4522 15.2221 36.4877 15.2221 36.5323C15.2221 36.5746 15.2576 36.6101 15.3023 36.6101ZM16.6824 36.3572C16.7912 36.2897 16.7878 36.2004 16.671 36.086C16.5782 35.991 16.4568 35.9601 16.4018 36.0128C16.348 36.0666 16.3525 36.189 16.4132 36.284C16.4717 36.3778 16.5931 36.4121 16.6824 36.3572ZM2.42283 35.602C2.48124 35.5448 2.48124 35.4486 2.42283 35.3903C2.36441 35.3319 2.31631 35.3788 2.31631 35.4967C2.31631 35.6146 2.36441 35.6603 2.42283 35.602ZM18.0362 35.602C18.0946 35.5448 18.0946 35.4486 18.0362 35.3903C17.9789 35.3319 17.9308 35.3788 17.9308 35.4967C17.9308 35.6146 17.9789 35.6603 18.0362 35.602ZM18.8253 35.6123C18.8769 35.5585 18.8826 35.4212 18.8379 35.3079C18.7864 35.1797 18.7486 35.2186 18.7417 35.404C18.7314 35.5711 18.7727 35.6661 18.8253 35.6123ZM19.7073 35.3342C19.7634 35.3342 19.8504 35.2289 19.902 35.0974C19.9524 34.9669 19.9283 34.8582 19.8527 34.8582C19.7771 34.8582 19.5927 34.904 19.4461 34.96C19.2342 35.0424 19.2228 35.0905 19.3923 35.1969C19.508 35.2713 19.6511 35.3319 19.7073 35.3342ZM20.2421 35.3377C20.2845 35.3377 20.3212 35.3022 20.3212 35.2598C20.3212 35.2152 20.2857 35.1797 20.2421 35.1797C20.1986 35.1797 20.162 35.2152 20.162 35.2598C20.162 35.3045 20.1975 35.3377 20.2421 35.3377ZM3.03215 32.4735C3.07682 32.4735 3.11232 32.438 3.11232 32.3934C3.11232 32.3488 3.07682 32.3133 3.03215 32.3133C2.98977 32.3133 2.95426 32.3488 2.95426 32.3934C2.95426 32.438 2.99092 32.4735 3.03215 32.4735ZM3.3517 29.7673C3.39637 29.7673 3.43188 29.7318 3.43188 29.6895C3.43188 29.6471 3.39637 29.6094 3.3517 29.6094C3.30703 29.6094 3.27267 29.6449 3.27267 29.6895C3.27267 29.7341 3.30589 29.7673 3.3517 29.7673ZM4.45696 29.289C4.4982 29.289 4.57264 29.218 4.62647 29.1299C4.68145 29.043 4.64938 28.9697 4.55661 28.9697C4.46384 28.9697 4.38709 29.043 4.38709 29.1299C4.38709 29.2169 4.41688 29.289 4.45696 29.289ZM3.27152 25.9465C3.3895 25.9465 3.4376 25.8996 3.37804 25.8413C3.31963 25.7829 3.22457 25.7829 3.16615 25.8413C3.10774 25.8996 3.15584 25.9465 3.27152 25.9465ZM4.80171 24.673C4.83263 24.673 4.8166 24.5654 4.76392 24.4338C4.71467 24.3045 4.60013 24.1958 4.51079 24.1958C4.42145 24.1958 4.43405 24.2976 4.5463 24.4338C4.65625 24.5654 4.77079 24.673 4.80057 24.673H4.80171ZM6.44529 21.2584C6.71673 21.1177 6.93778 20.9804 6.93778 20.9518C6.93778 20.9232 6.74193 20.9071 6.50141 20.9163C6.21392 20.9266 6.0467 21.0319 6.00891 21.2218C5.95737 21.4942 5.98256 21.4987 6.44529 21.2584ZM5.42363 21.0124C5.4683 21.0124 5.50381 20.9769 5.50381 20.9323C5.50381 20.8877 5.4683 20.8522 5.42363 20.8522C5.37896 20.8522 5.34346 20.8877 5.34346 20.9323C5.34346 20.9769 5.37896 21.0124 5.42363 21.0124ZM20.2227 21.0124C20.2651 21.0124 20.3475 20.9415 20.4013 20.8522C20.4552 20.7641 20.4643 20.6932 20.4208 20.6932C20.3773 20.6932 20.296 20.7641 20.2421 20.8522C20.1872 20.9415 20.1803 21.0124 20.2227 21.0124ZM21.5421 20.4815C21.6005 20.4231 21.6005 20.3281 21.5421 20.2698C21.4848 20.2114 21.4367 20.2583 21.4367 20.375C21.4367 20.4918 21.4848 20.541 21.5421 20.4815ZM21.9143 20.375C22.0323 20.375 22.0781 20.3281 22.022 20.2698C21.9636 20.2114 21.8662 20.2114 21.8078 20.2698C21.7506 20.3281 21.7987 20.375 21.9143 20.375ZM21.2775 19.8967C21.3646 19.8967 21.4367 19.8647 21.4367 19.8269C21.4367 19.7892 21.3646 19.7125 21.2775 19.6576C21.1882 19.6038 21.1172 19.6347 21.1172 19.7285C21.1172 19.8224 21.1893 19.8956 21.2775 19.8956V19.8967ZM21.8525 19.8544C21.9063 19.8006 21.9098 19.6633 21.8651 19.55C21.8158 19.4219 21.7758 19.4596 21.7689 19.6461C21.7586 19.8144 21.7987 19.9082 21.8525 19.8544ZM21.754 18.6243C21.8433 18.6243 21.9143 18.5923 21.9143 18.5545C21.9143 18.5156 21.8433 18.4389 21.754 18.3851C21.6658 18.3314 21.5948 18.3623 21.5948 18.4549C21.5948 18.5476 21.6658 18.6243 21.754 18.6243ZM22.6313 18.4652C22.676 18.4652 22.7115 18.4286 22.7115 18.3851C22.7115 18.3417 22.676 18.305 22.6313 18.305C22.5867 18.305 22.5512 18.3405 22.5512 18.3851C22.5512 18.4298 22.5867 18.4652 22.6313 18.4652ZM14.8246 18.305C14.8693 18.305 14.9037 18.2696 14.9037 18.2272C14.9037 18.1849 14.8682 18.1471 14.8246 18.1471C14.7811 18.1471 14.7445 18.1826 14.7445 18.2272C14.7445 18.2719 14.78 18.305 14.8246 18.305ZM15.623 18.043C15.7535 17.9927 15.86 17.9309 15.86 17.9034C15.86 17.8748 15.8154 17.7398 15.7638 17.6002C15.71 17.4629 15.5302 17.3484 15.3641 17.3484C15.198 17.3484 15.0629 17.3896 15.0629 17.4388C15.0629 17.488 15.1362 17.6654 15.2244 17.8313C15.3172 18.0064 15.4844 18.0945 15.6218 18.0419L15.623 18.043ZM18.4886 17.6688C18.5333 17.6688 18.5688 17.6334 18.5688 17.5887C18.5688 17.5441 18.5333 17.5086 18.4886 17.5086C18.4439 17.5086 18.4107 17.5441 18.4107 17.5887C18.4107 17.6334 18.4439 17.6688 18.4886 17.6688ZM20.7198 17.1917C20.7621 17.1917 20.7988 17.155 20.7988 17.1116C20.7988 17.0681 20.7633 17.0315 20.7198 17.0315C20.6762 17.0315 20.6396 17.0669 20.6396 17.1116C20.6396 17.1562 20.6762 17.1917 20.7198 17.1917ZM24.0642 17.0315C24.1088 17.0315 24.1443 16.996 24.1443 16.9525C24.1443 16.909 24.1088 16.8724 24.0642 16.8724C24.0195 16.8724 23.9851 16.9079 23.9851 16.9525C23.9851 16.9971 24.0206 17.0315 24.0642 17.0315ZM21.5421 16.8198C21.6005 16.7614 21.6005 16.6664 21.5421 16.6081C21.4848 16.5497 21.4367 16.5978 21.4367 16.7156C21.4367 16.8335 21.4848 16.8793 21.5421 16.8209V16.8198ZM10.3624 15.5988C10.407 15.5988 10.4425 15.5634 10.4425 15.5187C10.4425 15.4741 10.407 15.4398 10.3624 15.4398C10.3177 15.4398 10.2833 15.4752 10.2833 15.5187C10.2833 15.5622 10.3166 15.5988 10.3624 15.5988ZM11.0003 15.4409C11.0427 15.4409 11.0794 15.4054 11.0794 15.3608C11.0794 15.3162 11.045 15.2807 11.0003 15.2807C10.9557 15.2807 10.9202 15.3162 10.9202 15.3608C10.9202 15.4054 10.9557 15.4409 11.0003 15.4409ZM11.3978 14.6445C11.5157 14.6445 11.5638 14.5964 11.5054 14.5369C11.447 14.4786 11.3497 14.4786 11.2935 14.5369C11.2351 14.5953 11.2832 14.6445 11.3989 14.6445H11.3978ZM11.0003 14.4843C11.0427 14.4843 11.0794 14.4488 11.0794 14.4053C11.0794 14.3619 11.045 14.3252 11.0003 14.3252C10.9557 14.3252 10.9202 14.3619 10.9202 14.4053C10.9202 14.4488 10.9557 14.4843 11.0003 14.4843ZM12.0964 13.2107C12.1388 13.2107 12.219 13.1398 12.274 13.0517C12.3278 12.9647 12.337 12.8937 12.2934 12.8937C12.2499 12.8937 12.1686 12.9647 12.1159 13.0517C12.0609 13.1398 12.0529 13.2107 12.0964 13.2107ZM2.06776 12.4166C2.20291 12.4166 2.31516 12.3845 2.31516 12.3456C2.31516 12.3067 2.24873 12.2346 2.16741 12.1831C2.08494 12.1339 1.9727 12.1648 1.91772 12.2541C1.86275 12.3433 1.93032 12.4166 2.06776 12.4166ZM1.84557 11.7529C2.11243 11.6602 2.31058 11.5618 2.28424 11.5366C2.25904 11.5103 2.04028 11.5275 1.79861 11.5721C1.5558 11.619 1.35994 11.7163 1.35994 11.7895C1.35994 11.8628 1.57755 11.8444 1.84557 11.7518V11.7529ZM12.7527 11.9371C12.7974 11.9371 12.8329 11.9017 12.8329 11.8593C12.8329 11.817 12.7974 11.7792 12.7527 11.7792C12.708 11.7792 12.6725 11.8147 12.6725 11.8593C12.6725 11.9039 12.7092 11.9371 12.7527 11.9371ZM2.55454 11.46C2.59691 11.46 2.63471 11.4245 2.63471 11.381C2.63471 11.3375 2.5992 11.3009 2.55454 11.3009C2.50987 11.3009 2.47436 11.3364 2.47436 11.381C2.47436 11.4256 2.50987 11.46 2.55454 11.46ZM13.1501 11.3021C13.2681 11.3021 13.3162 11.254 13.2578 11.1945C13.1994 11.1373 13.1043 11.1373 13.0459 11.1945C12.9875 11.2528 13.0345 11.3021 13.1513 11.3021H13.1501ZM2.23613 9.5513C2.2808 9.5513 2.31631 9.51583 2.31631 9.4712C2.31631 9.42658 2.2808 9.39111 2.23613 9.39111C2.19146 9.39111 2.1571 9.42658 2.1571 9.4712C2.1571 9.51583 2.19146 9.5513 2.23613 9.5513ZM0.324548 8.59583C0.366926 8.59583 0.403577 8.56036 0.403577 8.51573C0.403577 8.4711 0.369216 8.43563 0.324548 8.43563C0.279879 8.43563 0.244372 8.47225 0.244372 8.51573C0.244372 8.55921 0.279879 8.59583 0.324548 8.59583ZM3.22342 7.91155C3.27496 7.71359 3.39064 7.65638 3.60482 7.72503C3.80297 7.78797 3.94499 7.73419 4.0057 7.5717C4.05953 7.43439 4.20728 7.32225 4.33441 7.32225C4.46154 7.32225 4.51767 7.24329 4.45696 7.14603C4.38595 7.03046 4.45696 7.00414 4.65511 7.06707C4.82576 7.12085 5.24496 7.02817 5.59085 6.85881C5.93446 6.69175 6.27119 6.58876 6.33762 6.62881C6.40291 6.67001 6.45903 6.63225 6.45903 6.54528C6.45903 6.45832 6.28264 6.40568 6.07075 6.42971C5.85657 6.45259 5.56909 6.56359 5.43165 6.67687C5.22892 6.84623 5.13615 6.84279 4.91396 6.66429C4.68374 6.47662 4.66313 6.47891 4.77881 6.66886C4.88418 6.84165 4.83607 6.87255 4.57035 6.80274C4.38137 6.7524 4.22675 6.77757 4.22675 6.85767C4.22675 6.93777 4.1523 7.00185 4.05952 7.00185C3.96675 7.00185 3.9427 6.91832 4.00455 6.81648C4.07556 6.70205 4.04693 6.67573 3.93125 6.74896C3.82931 6.8119 3.78349 6.92518 3.82931 7.00185C3.87627 7.07623 3.84191 7.18379 3.75257 7.23871C3.66323 7.29364 3.59107 7.2616 3.59107 7.16891C3.59107 7.07623 3.52121 7.00185 3.43531 7.00185C3.34941 7.00185 3.32307 7.10827 3.37232 7.23986C3.42386 7.36916 3.38492 7.47901 3.28871 7.47901C3.1925 7.47901 3.12149 7.63921 3.1295 7.83717C3.14325 8.11638 3.16501 8.1324 3.22228 7.91041L3.22342 7.91155ZM3.67125 7.63921C3.62658 7.63921 3.59107 7.60374 3.59107 7.56026C3.59107 7.51677 3.62658 7.48016 3.67125 7.48016C3.71592 7.48016 3.74913 7.51563 3.74913 7.56026C3.74913 7.60488 3.71477 7.63921 3.67125 7.63921ZM2.47551 7.63921C2.59233 7.63921 2.64158 7.59344 2.58202 7.53394C2.52361 7.47558 2.42855 7.47558 2.37014 7.53394C2.31172 7.5923 2.35983 7.63921 2.47551 7.63921ZM7.10615 6.18026C7.3627 6.08986 7.57345 5.98802 7.57345 5.95369C7.57345 5.91936 7.39707 5.90677 7.17945 5.92508C6.96183 5.94339 6.75224 6.04409 6.71101 6.14936C6.65603 6.29583 6.74994 6.30269 7.10615 6.17911V6.18026ZM7.83917 5.99603C7.89758 5.93767 7.89758 5.8404 7.83917 5.78433C7.7819 5.72598 7.7338 5.77404 7.7338 5.88961C7.7338 6.00518 7.7819 6.05553 7.83917 5.99603ZM8.13123 5.88846C8.17361 5.88846 8.21141 5.85299 8.21141 5.81065C8.21141 5.76603 8.1759 5.73055 8.13123 5.73055C8.08657 5.73055 8.0522 5.76603 8.0522 5.81065C8.0522 5.85299 8.08657 5.88846 8.13123 5.88846ZM8.45079 5.88846C8.49546 5.88846 8.52982 5.85299 8.52982 5.81065C8.52982 5.76603 8.49546 5.73055 8.45079 5.73055C8.40612 5.73055 8.37061 5.76603 8.37061 5.81065C8.37061 5.85299 8.40612 5.88846 8.45079 5.88846ZM8.9284 5.73055C8.96276 5.73055 9.03377 5.65961 9.0876 5.5715C9.14258 5.48224 9.06928 5.4113 8.9284 5.4113C8.78752 5.4113 8.71422 5.48224 8.77034 5.5715C8.82417 5.65961 8.89518 5.73055 8.9284 5.73055ZM36.5187 5.67677C36.5771 5.61841 36.5771 5.52344 36.5187 5.46508C36.4614 5.40672 36.4133 5.45364 36.4133 5.5715C36.4133 5.68936 36.4614 5.73628 36.5187 5.67677ZM10.3624 5.25339C10.407 5.25339 10.4425 5.21792 10.4425 5.17329C10.4425 5.12866 10.407 5.09319 10.3624 5.09319C10.3177 5.09319 10.2833 5.12981 10.2833 5.17329C10.2833 5.21677 10.3166 5.25339 10.3624 5.25339ZM10.6808 5.25339C10.7254 5.25339 10.761 5.21792 10.761 5.17329C10.761 5.12866 10.7254 5.09319 10.6808 5.09319C10.6361 5.09319 10.6006 5.12981 10.6006 5.17329C10.6006 5.21677 10.6361 5.25339 10.6808 5.25339ZM33.3873 5.25339C33.503 5.25339 33.5511 5.20533 33.4927 5.14697C33.4354 5.08861 33.3392 5.08861 33.2808 5.14697C33.2224 5.20533 33.2693 5.25339 33.3873 5.25339ZM11.6371 4.99135C11.7689 4.941 11.8754 4.87234 11.8754 4.83802C11.8754 4.80369 11.7689 4.77508 11.6371 4.77508C11.5054 4.77508 11.3978 4.84488 11.3978 4.92841C11.3978 5.01195 11.5066 5.04284 11.6371 4.99135ZM27.8885 5.09205C27.9331 5.09205 27.9687 5.05657 27.9687 5.01423C27.9687 4.96961 27.9331 4.93413 27.8885 4.93413C27.8438 4.93413 27.8095 4.96961 27.8095 5.01423C27.8095 5.05886 27.8438 5.09205 27.8885 5.09205ZM34.9129 5.03025C35.0526 4.97876 35.2279 4.93413 35.3069 4.93413C35.3859 4.93413 35.4123 4.84145 35.3699 4.72931C35.3252 4.61488 35.1488 4.51418 34.9759 4.49931C34.7583 4.48329 34.6621 4.57598 34.6621 4.80254C34.6621 5.02911 34.7331 5.10006 34.914 5.03025H34.9129ZM12.6634 4.61488C12.7561 4.61488 12.8329 4.54279 12.8329 4.45583C12.8329 4.36886 12.8008 4.29677 12.7619 4.29677C12.7229 4.29677 12.6473 4.36772 12.5924 4.45583C12.5385 4.54279 12.5695 4.61488 12.6634 4.61488ZM30.359 4.61488C30.4472 4.61488 30.5182 4.58399 30.5182 4.54508C30.5182 4.50617 30.4472 4.43065 30.359 4.37573C30.272 4.32195 30.1986 4.35399 30.1986 4.44667C30.1986 4.53936 30.2697 4.61488 30.359 4.61488ZM12.0964 4.45697C12.1388 4.45697 12.219 4.38602 12.274 4.29792C12.3278 4.20866 12.337 4.13772 12.2934 4.13772C12.2499 4.13772 12.1686 4.20866 12.1159 4.29792C12.0609 4.38602 12.0529 4.45697 12.0964 4.45697ZM31.9132 4.28533C32.0805 4.27617 32.1125 4.23841 31.9923 4.1915C31.8812 4.14687 31.8319 4.04503 31.8812 3.96493C31.9316 3.88483 31.8961 3.81846 31.8021 3.81846C31.7082 3.81846 31.6349 3.92717 31.6349 4.05876C31.6349 4.19035 31.7598 4.28991 31.9132 4.28533ZM12.9921 4.13772C13.1078 4.13772 13.1559 4.08966 13.0986 4.03244C13.0413 3.97523 12.944 3.97408 12.8844 4.03244C12.8272 4.08966 12.8753 4.13772 12.9921 4.13772ZM14.9827 3.97981C15.0274 3.97981 15.0629 3.94433 15.0629 3.89971C15.0629 3.85508 15.0274 3.81961 14.9827 3.81961C14.938 3.81961 14.9037 3.85622 14.9037 3.89971C14.9037 3.94319 14.9369 3.97981 14.9827 3.97981ZM16.088 3.66055C16.1292 3.66055 16.2037 3.58961 16.2575 3.5015C16.3125 3.41453 16.2804 3.3413 16.1876 3.3413C16.0948 3.3413 16.0181 3.41453 16.0181 3.5015C16.0181 3.58846 16.049 3.66055 16.088 3.66055ZM16.6034 3.60677C16.6606 3.54841 16.6606 3.45344 16.6034 3.39508C16.545 3.33672 16.4957 3.38364 16.4957 3.5015C16.4957 3.61936 16.5438 3.66513 16.6034 3.60677ZM33.8557 3.66055C33.9474 3.66055 34.0241 3.58961 34.0241 3.5015C34.0241 3.41339 33.9932 3.3413 33.9542 3.3413C33.9153 3.3413 33.8386 3.41453 33.7847 3.5015C33.7309 3.58961 33.7618 3.66055 33.8557 3.66055ZM17.7716 3.34359C17.8598 3.34359 17.9308 3.23488 17.9308 3.10329C17.9308 2.97169 17.8598 2.86528 17.7716 2.86528C17.6834 2.86528 17.6136 2.97398 17.6136 3.10329C17.6136 3.23259 17.6846 3.34359 17.7716 3.34359ZM20.4013 2.86413C20.4437 2.86413 20.4792 2.82866 20.4792 2.78632C20.4792 2.74398 20.446 2.70622 20.4013 2.70622C20.3567 2.70622 20.3212 2.74169 20.3212 2.78632C20.3212 2.83095 20.3567 2.86413 20.4013 2.86413ZM21.1974 2.70622C21.2294 2.70622 21.3027 2.63528 21.3566 2.54717C21.4104 2.45791 21.3382 2.38697 21.1974 2.38697C21.0565 2.38697 20.9832 2.45791 21.037 2.54717C21.092 2.63528 21.163 2.70622 21.1974 2.70622ZM21.6761 2.54717C21.7185 2.54717 21.7551 2.51169 21.7551 2.46707C21.7551 2.42244 21.7219 2.38697 21.6761 2.38697C21.6303 2.38697 21.5959 2.42244 21.5959 2.46707C21.5959 2.51169 21.6314 2.54717 21.6761 2.54717ZM22.2786 2.53458C22.3862 2.52886 22.6141 2.46936 22.7871 2.4007C23.07 2.29085 23.0597 2.27025 22.6749 2.19816C22.4023 2.14438 22.2202 2.19244 22.1663 2.33204C22.1217 2.4499 22.1663 2.54259 22.2786 2.53458ZM23.6862 2.30115C23.8717 2.24279 24.1214 2.17985 24.2394 2.16269C24.3574 2.14667 24.5108 2.07115 24.5784 1.99906C24.6483 1.92582 24.4879 1.9201 24.2257 1.98647C23.9622 2.05398 23.6576 2.1112 23.5488 2.11692C23.4377 2.12035 23.3495 2.18672 23.3495 2.26682C23.3495 2.34692 23.5029 2.36065 23.6885 2.30229L23.6862 2.30115ZM25.0217 2.06886C25.064 2.06886 25.0996 2.03339 25.0996 1.9899C25.0996 1.94528 25.064 1.9098 25.0217 1.9098C24.9793 1.9098 24.9415 1.94528 24.9415 1.9899C24.9415 2.03453 24.977 2.06886 25.0217 2.06886ZM25.5783 1.9098C25.6963 1.9098 25.7444 1.86174 25.6848 1.80453C25.6264 1.74617 25.5314 1.74617 25.4729 1.80453C25.4145 1.86174 25.4626 1.9098 25.5783 1.9098ZM35.9357 1.75075C36.0227 1.75075 36.0949 1.67751 36.0949 1.59055C36.0949 1.50358 36.0227 1.43149 35.9357 1.43149C35.8486 1.43149 35.7753 1.50244 35.7753 1.59055C35.7753 1.67866 35.8464 1.75075 35.9357 1.75075ZM37.6972 1.59055C37.7797 1.59055 37.8473 1.51846 37.8473 1.43149C37.8473 1.34453 37.735 1.27244 37.5999 1.27244C37.4647 1.27244 37.3949 1.34453 37.4498 1.43149C37.5037 1.51846 37.6159 1.59055 37.6972 1.59055ZM31.8731 1.43264C31.9155 1.43264 31.951 1.39717 31.951 1.35254C31.951 1.30791 31.9155 1.27358 31.8731 1.27358C31.8285 1.27358 31.793 1.30906 31.793 1.35254C31.793 1.39717 31.8285 1.43264 31.8731 1.43264ZM33.9428 1.11338C33.9874 1.11338 34.023 1.07791 34.023 1.03443C34.023 0.990946 33.9874 0.954329 33.9428 0.954329C33.8981 0.954329 33.8638 0.989802 33.8638 1.03443C33.8638 1.07906 33.8993 1.11338 33.9428 1.11338ZM22.0655 37.2246C21.9602 37.26 21.904 37.2028 21.9373 37.0987C21.9728 36.9934 22.0529 36.9133 22.1171 36.919C22.1789 36.9259 22.2385 36.9831 22.2431 37.0472C22.2534 37.1113 22.1698 37.1914 22.0644 37.2246H22.0655ZM7.98234 37.0884C7.9434 37.0884 7.86781 37.0175 7.81283 36.9305C7.759 36.8424 7.78992 36.7714 7.88384 36.7714C7.97776 36.7714 8.05335 36.8424 8.05335 36.9305C8.05335 37.0186 8.02128 37.0884 7.98234 37.0884ZM8.45079 36.9305C8.40841 36.9305 8.37061 36.895 8.37061 36.8504C8.37061 36.8058 8.40612 36.7714 8.45079 36.7714C8.49546 36.7714 8.52982 36.8069 8.52982 36.8504C8.52982 36.8939 8.49546 36.9305 8.45079 36.9305ZM8.24234 36.6101C8.01098 36.6101 8.00525 36.5872 8.21256 36.4533C8.34427 36.3675 8.51035 36.2977 8.58021 36.2966C8.65123 36.2966 8.66611 36.3664 8.60999 36.4533C8.55616 36.5403 8.39123 36.6112 8.24234 36.6101ZM9.40601 36.2943C9.36134 36.2943 9.32583 36.2588 9.32583 36.2142C9.32583 36.1695 9.36134 36.1341 9.40601 36.1341C9.45067 36.1341 9.48618 36.1695 9.48618 36.2142C9.48618 36.2588 9.45067 36.2943 9.40601 36.2943ZM22.9509 35.9762C22.9062 35.9762 22.8707 35.9407 22.8707 35.8961C22.8707 35.8514 22.9062 35.816 22.9509 35.816C22.9956 35.816 23.0299 35.8514 23.0299 35.8961C23.0299 35.9407 22.9956 35.9762 22.9509 35.9762ZM22.0495 34.7792C22.0037 34.8239 21.9189 34.8124 21.8605 34.7564C21.8021 34.698 21.754 34.5744 21.754 34.4852C21.754 34.3856 21.8284 34.3948 21.943 34.508C22.0461 34.6122 22.0942 34.7346 22.0495 34.7792ZM0.738017 34.3032C0.565069 34.5847 0.552467 34.5573 0.634932 34.0767C0.685328 33.7757 0.765502 33.4919 0.813606 33.4439C0.860566 33.3958 0.963653 33.4599 1.04154 33.5869C1.12057 33.7128 1.12858 33.8558 1.05986 33.9016C0.989993 33.9485 0.84568 34.1281 0.739163 34.3021L0.738017 34.3032ZM21.7529 33.5537C21.5055 33.5606 21.2661 33.469 21.2203 33.3512C21.1756 33.2322 21.2203 33.0685 21.3268 32.9862C21.4299 32.9049 21.7494 32.7939 22.0346 32.7401C22.3198 32.6852 22.5523 32.6726 22.5523 32.7104C22.5523 32.7481 22.4733 32.9484 22.3794 33.1589C22.258 33.4244 22.0667 33.5457 21.754 33.5549L21.7529 33.5537ZM7.97317 33.429C7.92851 33.429 7.89301 33.3935 7.89301 33.3489C7.89301 33.3043 7.92851 33.2711 7.97317 33.2711C8.01784 33.2711 8.05106 33.3043 8.05106 33.3489C8.05106 33.3935 8.0167 33.429 7.97317 33.429ZM19.1266 33.2699C19.0819 33.2699 19.0464 33.2345 19.0464 33.1898C19.0464 33.1452 19.0819 33.1097 19.1266 33.1097C19.1712 33.1097 19.2056 33.1452 19.2056 33.1898C19.2056 33.2345 19.1724 33.2699 19.1266 33.2699ZM23.2693 32.7916C23.2246 32.7916 23.1891 32.755 23.1891 32.7138C23.1891 32.6692 23.2246 32.6337 23.2693 32.6337C23.314 32.6337 23.3483 32.6692 23.3483 32.7138C23.3483 32.7562 23.3128 32.7916 23.2693 32.7916ZM1.30726 32.5136C1.26259 32.6223 1.22479 32.533 1.22479 32.3145C1.22479 32.0959 1.26259 32.0067 1.30726 32.1165C1.35078 32.2252 1.35078 32.4049 1.30726 32.5136ZM23.5866 32.6326C23.5419 32.6326 23.5087 32.5971 23.5087 32.5525C23.5087 32.5079 23.543 32.4735 23.5866 32.4735C23.6301 32.4735 23.6667 32.509 23.6667 32.5525C23.6667 32.596 23.6312 32.6326 23.5866 32.6326ZM1.38972 31.8007C1.27404 31.8384 1.23854 31.7664 1.29924 31.6119C1.35078 31.4723 1.46532 31.359 1.55007 31.359C1.63483 31.359 1.6772 31.4437 1.64284 31.5478C1.60734 31.6531 1.49509 31.7652 1.38972 31.8007ZM1.67262 31.0409C1.58901 31.0409 1.51914 30.9837 1.51914 30.9127C1.51914 30.8418 1.62108 30.6461 1.74592 30.4745C1.87076 30.3051 2.01852 30.2147 2.07807 30.2719C2.13649 30.3303 2.10442 30.5271 2.00477 30.7102C1.90742 30.8921 1.75852 31.042 1.67376 31.042L1.67262 31.0409ZM2.1571 29.9264C2.04028 29.9264 1.99103 29.8783 2.05059 29.8199C2.109 29.7616 2.20406 29.7616 2.26247 29.8199C2.32089 29.8783 2.27278 29.9264 2.1571 29.9264ZM9.56521 29.7673C9.52169 29.7673 9.48618 29.7318 9.48618 29.6895C9.48618 29.6471 9.52169 29.6094 9.56521 29.6094C9.60873 29.6094 9.64539 29.6449 9.64539 29.6895C9.64539 29.7341 9.60988 29.7673 9.56521 29.7673ZM10.344 28.0154C10.2994 28.0154 10.3085 27.9445 10.3624 27.8563C10.4174 27.7694 10.4975 27.6961 10.541 27.6961C10.5846 27.6961 10.5766 27.7694 10.5227 27.8563C10.4677 27.9445 10.3876 28.0154 10.3452 28.0154H10.344ZM11.1584 26.2647C11.116 26.2647 11.0794 26.2292 11.0794 26.1846C11.0794 26.1399 11.1126 26.1056 11.1584 26.1056C11.2042 26.1056 11.2386 26.1411 11.2386 26.1846C11.2386 26.228 11.2031 26.2647 11.1584 26.2647ZM1.43897 24.1958C1.39659 24.1958 1.36109 24.1603 1.36109 24.118C1.36109 24.0756 1.39659 24.0379 1.43897 24.0379C1.48135 24.0379 1.51914 24.0734 1.51914 24.118C1.51914 24.1626 1.48364 24.1958 1.43897 24.1958ZM1.52945 23.1556C1.44927 23.2049 1.34276 23.182 1.29237 23.1019C1.24197 23.0229 1.31069 22.8707 1.44012 22.7609C1.63482 22.6007 1.6772 22.611 1.6772 22.8124C1.6772 22.9497 1.61077 23.1019 1.52831 23.1545L1.52945 23.1556ZM2.07693 23.2403C2.03226 23.2403 1.99675 23.2049 1.99675 23.1602C1.99675 23.1156 2.03226 23.0824 2.07693 23.0824C2.11931 23.0824 2.15481 23.1179 2.15481 23.1602C2.15481 23.2049 2.1216 23.2403 2.07693 23.2403ZM25.0217 20.5352C24.977 20.5352 24.9415 20.4998 24.9415 20.4551C24.9415 20.4105 24.977 20.375 25.0217 20.375C25.0663 20.375 25.0996 20.4105 25.0996 20.4551C25.0996 20.4998 25.064 20.5352 25.0217 20.5352ZM23.8912 19.4081C23.7057 19.4013 23.669 19.3635 23.795 19.312C23.9107 19.2651 24.0481 19.2708 24.1008 19.3246C24.1524 19.3784 24.0584 19.4161 23.8901 19.4081H23.8912ZM24.5418 18.305C24.4994 18.305 24.4627 18.2696 24.4627 18.2272C24.4627 18.1849 24.4983 18.1471 24.5418 18.1471C24.5853 18.1471 24.6219 18.1826 24.6219 18.2272C24.6219 18.2719 24.5864 18.305 24.5418 18.305ZM25.1717 18.146C25.0343 18.146 24.9667 18.075 25.0217 17.9881C25.0755 17.9 25.1877 17.8279 25.2691 17.8279C25.3504 17.8279 25.4191 17.9011 25.4191 17.9881C25.4191 18.075 25.3069 18.146 25.1717 18.146ZM16.9046 17.1917C16.8657 17.1917 16.7889 17.1196 16.7351 17.0315C16.6813 16.9445 16.7122 16.8724 16.8061 16.8724C16.9 16.8724 16.9733 16.9445 16.9733 17.0315C16.9733 17.1184 16.9435 17.1917 16.9034 17.1917H16.9046ZM22.1537 16.3952C22.1114 16.3952 22.0735 16.3598 22.0735 16.3151C22.0735 16.2705 22.1091 16.2362 22.1537 16.2362C22.1984 16.2362 22.2328 16.2717 22.2328 16.3151C22.2328 16.3586 22.1995 16.3952 22.1537 16.3952ZM22.5512 16.3952C22.4641 16.3952 22.392 16.3186 22.392 16.2259C22.392 16.1332 22.4641 16.1035 22.5512 16.1561C22.6382 16.2087 22.7115 16.2865 22.7115 16.3254C22.7115 16.3643 22.6405 16.3952 22.5512 16.3952ZM0.961361 12.4166C0.916692 12.4166 0.882331 12.3811 0.882331 12.3365C0.882331 12.2919 0.916692 12.2564 0.961361 12.2564C1.00603 12.2564 1.04154 12.2919 1.04154 12.3365C1.04154 12.3811 1.00603 12.4166 0.961361 12.4166ZM17.9297 12.2564C17.8461 12.388 17.7762 12.4246 17.7762 12.3365C17.7762 12.2484 17.8461 12.0699 17.9297 11.9394C18.0156 11.8078 18.0855 11.7724 18.0855 11.8593C18.0855 11.9463 18.0156 12.1259 17.9297 12.2564ZM0.403577 12.0973C0.315385 12.0973 0.244372 12.0252 0.244372 11.9383C0.244372 11.8513 0.315385 11.7781 0.403577 11.7781C0.491769 11.7781 0.563921 11.8502 0.563921 11.9383C0.563921 12.0264 0.492914 12.0973 0.403577 12.0973ZM18.6478 10.6658C18.6032 10.6658 18.5676 10.6304 18.5676 10.5857C18.5676 10.5411 18.6032 10.5056 18.6478 10.5056C18.6925 10.5056 18.7268 10.5423 18.7268 10.5857C18.7268 10.6292 18.6913 10.6658 18.6478 10.6658ZM2.94396 10.3466C2.86149 10.3466 2.79392 10.318 2.79392 10.2836C2.79392 10.2482 2.90387 10.1784 3.04131 10.1246C3.18219 10.0708 3.24633 10.0983 3.19135 10.1875C3.13752 10.2756 3.02528 10.3466 2.94396 10.3466ZM18.7876 10.1864C18.7452 10.1864 18.7543 10.1154 18.807 10.0285C18.862 9.94036 18.941 9.86941 18.9845 9.86941C19.0281 9.86941 19.0212 9.94036 18.9651 10.0285C18.9112 10.1154 18.8311 10.1864 18.7876 10.1864ZM19.1529 9.49752C19.0945 9.55588 19.0453 9.50782 19.0453 9.39225C19.0453 9.27668 19.0934 9.22633 19.1529 9.28583C19.2102 9.34419 19.2102 9.43917 19.1529 9.49752ZM38.3341 5.09433C38.2516 5.09433 38.1382 5.01767 38.0786 4.92384C38.0214 4.83115 38.0134 4.71558 38.0592 4.66981C38.1061 4.62289 38.2218 4.63205 38.3146 4.68926C38.4096 4.74762 38.4841 4.86205 38.4841 4.94329C38.4841 5.02453 38.4188 5.09319 38.3341 5.09319V5.09548V5.09433ZM37.0501 4.45697C36.9344 4.45697 36.8863 4.40891 36.9447 4.34941C37.002 4.29334 37.0982 4.29334 37.1566 4.34941C37.2139 4.40777 37.1658 4.45697 37.049 4.45697H37.0501ZM38.0867 3.82075C38.0443 3.82075 38.0065 3.78528 38.0065 3.74065C38.0065 3.69602 38.042 3.66055 38.0867 3.66055C38.1313 3.66055 38.1668 3.69602 38.1668 3.74065C38.1668 3.78299 38.1313 3.82075 38.0867 3.82075ZM38.5643 1.9098C38.5219 1.9098 38.4852 1.87433 38.4852 1.8297C38.4852 1.78508 38.5184 1.75075 38.5643 1.75075C38.6101 1.75075 38.6444 1.78622 38.6444 1.8297C38.6444 1.87319 38.6089 1.9098 38.5643 1.9098ZM28.996 1.11338C28.9571 1.11338 28.925 1.04244 28.925 0.954329C28.925 0.86622 28.9995 0.79413 29.0945 0.79413C29.1896 0.79413 29.2194 0.867364 29.1644 0.954329C29.1106 1.04244 29.0338 1.11338 28.9972 1.11338H28.996ZM29.4736 0.954329C29.4347 0.954329 29.4026 0.883384 29.4026 0.79413C29.4026 0.704876 29.4794 0.635075 29.5721 0.635075C29.6649 0.635075 29.697 0.706021 29.642 0.79413C29.5882 0.883384 29.5114 0.954329 29.4748 0.954329H29.4736ZM39.5997 0.954329C39.5126 0.954329 39.4416 0.84219 39.4416 0.704876C39.4416 0.567563 39.5126 0.502339 39.5997 0.554976C39.6878 0.609901 39.7589 0.720896 39.7589 0.804429C39.7589 0.887961 39.6878 0.954329 39.5997 0.954329ZM30.1013 0.795274C30.0566 0.795274 30.0658 0.723185 30.1208 0.63622C30.1746 0.549254 30.2548 0.477165 30.2994 0.477165C30.3418 0.477165 30.3326 0.549254 30.28 0.63622C30.2238 0.723185 30.1448 0.795274 30.1013 0.795274ZM30.9958 0.63622C30.8206 0.63622 30.6763 0.608757 30.6763 0.575573C30.6763 0.542389 30.8206 0.477165 30.9958 0.431394C31.171 0.384478 31.3154 0.411941 31.3154 0.49204C31.3154 0.57214 31.171 0.63622 30.9958 0.63622ZM31.9132 0.464578C31.478 0.455423 31.4459 0.432538 31.7128 0.316966C31.8892 0.242587 32.1217 0.176219 32.2316 0.169353C32.3405 0.163632 32.4298 0.23 32.4298 0.316966C32.4298 0.403931 32.1984 0.472588 31.9132 0.464578ZM37.0501 0.477165C36.9344 0.477165 36.8863 0.429105 36.9447 0.370747C37.002 0.312388 37.0982 0.312388 37.1566 0.370747C37.2139 0.429105 37.1658 0.477165 37.049 0.477165H37.0501ZM33.9428 0.159055C33.9004 0.159055 33.8638 0.123582 33.8638 0.0789553C33.8638 0.0343284 33.8993 0 33.9428 0C33.9863 0 34.023 0.036617 34.023 0.0789553C34.023 0.123582 33.9874 0.159055 33.9428 0.159055Z" fill="white"/>
</svg>
