<svg width="29" height="46" viewBox="0 0 29 46" fill="none" xmlns="http://www.w3.org/2000/svg">
<path d="M20.0848 0.00239308C20.0195 -0.0147711 19.9004 0.0607515 19.755 0.217518C19.5511 0.434931 19.3976 0.499011 19.3346 0.394881C19.2785 0.304483 19.1674 0.231249 19.0884 0.231249C19.0093 0.231249 18.9624 0.314782 18.983 0.418911C19.0047 0.520752 18.8673 0.628315 18.6783 0.658066C18.4882 0.686673 18.3347 0.766772 18.3347 0.835429C18.3347 0.904086 18.2271 1.00249 18.0953 1.0517C17.9052 1.12493 17.8777 1.07458 17.9636 0.802245C18.0644 0.487568 18.0507 0.479558 17.793 0.688961C17.5387 0.896076 17.5227 0.890355 17.6223 0.62717C17.7094 0.393737 17.691 0.37314 17.5181 0.513886C17.4001 0.61115 17.3314 0.87319 17.3635 1.10662C17.4081 1.42588 17.391 1.45906 17.297 1.24279C17.1836 0.986474 17.1229 1.01394 16.6831 1.51513C16.4151 1.82065 16.1941 2.15822 16.1941 2.26578C16.1941 2.37334 16.0658 2.59648 15.9089 2.76583C15.7531 2.93289 15.5435 3.22125 15.4439 3.40777C15.3454 3.592 15.3053 3.8117 15.3568 3.89409C15.4084 3.97533 15.3568 4.04285 15.2423 4.04285C15.1278 4.04285 14.9296 4.26598 14.7979 4.53946C14.6673 4.81295 14.2138 5.70091 13.7877 6.51335C13.3639 7.32807 12.9333 8.25494 12.8302 8.57534C12.7271 8.89459 12.5118 9.3729 12.3537 9.63952C12.1934 9.90614 12.0754 10.1796 12.0914 10.2517C12.1098 10.3215 12.0262 10.5847 11.9082 10.8353C11.7902 11.0882 11.6459 11.3285 11.5852 11.3731C11.5256 11.4177 11.4455 11.6317 11.4054 11.8503C11.3641 12.0688 11.2622 12.3766 11.1763 12.5334C11.0904 12.6925 10.8739 13.1639 10.6907 13.5839C10.5097 14.0038 10.3047 14.4844 10.2348 14.6526C10.165 14.8197 9.94276 15.3357 9.73889 15.7969C9.53731 16.2592 9.39872 16.7226 9.43537 16.8279C9.46973 16.932 9.42392 17.0167 9.3323 17.0167C9.24067 17.0167 9.16737 17.0853 9.16737 17.1712C9.16737 17.257 8.99556 17.6804 8.78596 18.1152C8.57636 18.5489 8.40341 19.0306 8.40341 19.1828C8.40341 19.335 8.3347 19.4597 8.25109 19.4597C8.16748 19.4597 8.09875 19.6051 8.09875 19.7847C8.09875 19.9644 7.85479 20.6658 7.55471 21.3489C7.25692 22.0298 6.93966 22.7198 6.85032 22.8823C6.76099 23.0425 6.65561 23.3858 6.61438 23.6444C6.57429 23.9041 6.47923 24.1375 6.40249 24.1673C6.3269 24.1948 6.26391 24.2771 6.26391 24.347C6.26391 24.4168 6.20435 24.6376 6.12876 24.8321C6.05545 25.0255 5.99017 25.2383 5.98329 25.3036C5.97299 25.3676 5.8699 25.6068 5.74735 25.8357C5.6248 26.0645 5.47247 26.3895 5.41062 26.5588C5.34763 26.7259 5.28578 26.8987 5.26974 26.9399C5.25486 26.9822 5.13803 27.2569 5.01204 27.5509C4.88605 27.845 4.72341 28.2226 4.65355 28.3897C4.58139 28.559 4.5184 28.7639 4.51153 28.8474C4.50122 28.9309 4.45884 29.0694 4.40844 29.1529C4.35919 29.2365 4.23091 29.5797 4.1244 29.9162C4.01903 30.2526 3.86211 30.613 3.78079 30.7172C3.69604 30.8236 3.67313 30.9083 3.7281 30.9083C3.78308 30.9083 3.71895 31.1154 3.58952 31.366C3.4601 31.6166 3.38336 31.8237 3.41887 31.8237C3.45437 31.8237 3.27798 32.3558 3.02715 33.0069C2.77747 33.658 2.51748 34.3949 2.45105 34.6478C2.38462 34.8984 2.31131 35.1741 2.29069 35.2577C2.26893 35.3412 2.30444 35.6364 2.36858 35.9156C2.44761 36.2543 2.55527 36.3939 2.69501 36.339C2.84963 36.2795 2.89658 36.3802 2.87139 36.7109C2.85306 36.9626 2.75686 37.1652 2.6595 37.1652C2.56215 37.1652 2.43043 36.942 2.36744 36.6708C2.30215 36.3974 2.26092 36.1159 2.27695 36.0461C2.28955 35.974 2.21396 35.9454 2.1063 35.9808C1.99863 36.0163 1.88753 36.1948 1.86119 36.3768C1.82912 36.6022 1.89211 36.7086 2.06163 36.7086C2.24488 36.7086 2.28612 36.7933 2.21396 37.0176C2.16127 37.1881 2.17273 37.3162 2.24259 37.3048C2.31131 37.2933 2.46479 37.291 2.58276 37.3013C2.75341 37.3151 2.7454 37.3769 2.54038 37.6034C2.39836 37.7591 2.26664 38.0966 2.24832 38.3518C2.23114 38.6081 2.16242 38.7855 2.10172 38.7466C2.03872 38.7077 1.97687 38.782 1.96313 38.9136C1.95053 39.0429 1.93335 39.2363 1.92533 39.3416C1.91617 39.4457 1.82225 39.5876 1.71687 39.6563C1.60921 39.7249 1.56111 39.8439 1.60921 39.9206C1.65732 39.9996 1.59203 40.0213 1.46032 39.9721C1.30455 39.9126 1.17971 40.003 1.09152 40.2421C1.01822 40.439 0.985002 40.6724 1.01936 40.7605C1.05258 40.8498 0.836107 41.0374 0.540608 41.177C0.242817 41.3189 0 41.5386 0 41.6656C0 41.7926 0.0595572 41.8979 0.13515 41.8979C0.210743 41.8979 0.531443 41.7892 0.853285 41.653C1.38473 41.4322 1.42138 41.4322 1.23812 41.653C1.12702 41.7869 1.07205 41.9883 1.11671 42.1016C1.16825 42.2355 1.00562 42.3854 0.673465 42.5158C0.388273 42.6268 0.15348 42.7767 0.15348 42.8477C0.15348 42.9186 0.326423 42.9312 0.536022 42.8786C0.847556 42.7996 0.90139 42.8294 0.824652 43.0273C0.773111 43.1623 0.668883 43.2733 0.594436 43.2733C0.519988 43.2733 0.456993 43.4118 0.456993 43.5789C0.456993 43.7459 0.388277 43.8844 0.304666 43.8844C0.221056 43.8844 0.152333 43.9439 0.152333 44.0171C0.152333 44.0904 0.65858 44.1418 1.27936 44.1316C1.95511 44.1201 2.39607 44.1739 2.38232 44.2654C2.36972 44.349 2.30558 44.5046 2.2403 44.6087C2.16356 44.7334 2.20938 44.7998 2.37431 44.7998C2.5129 44.7998 2.6595 44.6682 2.70302 44.5092C2.7454 44.349 2.9172 44.1808 3.08557 44.1373C3.35014 44.0675 3.37992 44.111 3.29631 44.4485C3.24248 44.6614 3.15772 45.0126 3.10618 45.2232C3.04662 45.4646 3.07068 45.5733 3.16574 45.5138V45.5116C3.24935 45.4601 3.40627 45.1076 3.51279 44.7254C3.68917 44.0995 3.76247 44.0217 4.33514 43.8729C4.68218 43.7825 5.90313 43.4049 7.04847 43.0342C8.19497 42.6634 9.53502 42.2504 10.0275 42.1153C10.52 41.9803 11.749 41.6679 12.758 41.4208C13.7659 41.1713 15.6569 40.7353 16.9592 40.4527C18.2603 40.1689 19.7046 39.8554 20.1661 39.7558C20.63 39.6574 21.1443 39.519 21.3126 39.4514C21.4798 39.3828 21.7364 39.3336 21.8807 39.3405C22.0262 39.3473 22.5404 39.2672 23.0272 39.1597C23.5128 39.0521 24.0122 38.9308 24.1382 38.8896C24.2653 38.8473 24.6353 38.7901 24.9628 38.7637C25.2916 38.7363 25.6111 38.6299 25.6741 38.5303C25.736 38.4273 25.9192 38.3781 26.0761 38.4193C26.2342 38.4605 26.4529 38.401 26.5595 38.2843C26.6694 38.1676 26.7336 37.9547 26.7072 37.8117C26.6728 37.6286 26.4816 37.5348 26.0761 37.5005C25.5115 37.4547 25.4989 37.4398 25.5974 36.9821C25.6867 36.5793 25.6638 36.5255 25.4405 36.6113C25.2984 36.6663 25.0316 36.7464 24.8506 36.7887C24.6696 36.831 24.4257 36.8024 24.3089 36.7281C24.1897 36.6514 24.1382 36.4786 24.1897 36.3436C24.2413 36.2097 24.3535 36.0987 24.4406 36.0987C24.5276 36.0987 24.5975 36.2063 24.5975 36.3356C24.5975 36.4901 24.6662 36.5324 24.7888 36.4557C24.893 36.3894 25.1049 36.3562 25.2572 36.3802C25.4095 36.4054 25.6592 36.2841 25.8093 36.1101C25.9616 35.9362 26.1872 35.7932 26.3098 35.7932C26.4323 35.7932 26.611 35.6387 26.7026 35.4499C26.8343 35.1764 26.8699 35.1615 26.879 35.3744C26.8882 35.5208 26.9924 35.641 27.1184 35.641C27.2444 35.641 27.3475 35.5392 27.3475 35.4121C27.3475 35.2851 27.2787 35.1833 27.1951 35.1833C27.1115 35.1833 27.0611 35.0643 27.0863 34.9155C27.1081 34.7691 27.1802 34.5631 27.2467 34.4578C27.312 34.3537 27.4998 34.269 27.6624 34.269C27.8251 34.269 27.9579 34.1649 27.9579 34.0401C27.9579 33.8834 27.801 33.8113 27.454 33.8113C27.1768 33.8113 26.8847 33.8662 26.8057 33.9326C26.7255 33.999 26.3854 34.0081 26.0486 33.9532C25.5722 33.8765 25.5321 33.8491 25.8677 33.8319C26.1219 33.8193 26.2559 33.7461 26.1975 33.6522C26.1437 33.563 25.9513 33.5378 25.768 33.595C25.5871 33.6511 25.3145 33.825 25.1644 33.9829C25.0144 34.1397 24.8243 34.2701 24.7441 34.2701C24.6639 34.2701 24.5975 34.166 24.5975 34.0413C24.5975 33.9166 24.4669 33.8124 24.3089 33.8124C24.1508 33.8124 23.4808 33.9108 22.8199 34.0333C22.1602 34.1546 21.4134 34.2862 21.1603 34.3251C20.9095 34.3663 19.9932 34.5402 19.1262 34.7164C18.258 34.8915 17.5021 35.0322 17.4448 35.0288C17.3887 35.0254 17.4631 34.9533 17.6086 34.8686C17.7552 34.7828 17.8766 34.6478 17.8766 34.5677C17.8766 34.4876 17.7517 34.4223 17.6017 34.4223C17.4517 34.4223 17.234 34.5082 17.1218 34.6134C16.9546 34.7691 16.9385 34.7599 17.0428 34.5745C17.1539 34.3789 17.1355 34.3743 16.9134 34.5562C16.7702 34.6706 16.6534 34.8331 16.6534 34.9167C16.6534 35.0002 16.7541 35.0277 16.879 34.9796C17.0015 34.9338 17.1436 34.959 17.1928 35.0391C17.2409 35.1192 17.2272 35.1879 17.1607 35.1879C17.0909 35.189 16.8904 35.2291 16.7118 35.276C16.4346 35.3515 16.3968 35.3103 16.4575 35.0002C16.5228 34.6603 16.4861 34.6375 15.9799 34.6981C15.6111 34.7404 15.4255 34.8434 15.4141 35.0128C15.4049 35.1512 15.3877 35.3481 15.3763 35.4522C15.3648 35.5563 15.287 35.6387 15.2045 35.6353C15.1197 35.6318 15.0602 35.522 15.0739 35.3938C15.0888 35.2371 15.0041 35.1844 14.8139 35.2336C14.6582 35.2748 14.4932 35.2302 14.4463 35.1329C14.3833 35.0013 14.342 35.0013 14.2791 35.1329C14.2332 35.2291 14.0752 35.276 13.9297 35.2394C13.7453 35.1913 13.6583 35.2668 13.6411 35.4831C13.6205 35.7463 13.6651 35.7737 13.9045 35.6456C14.0981 35.5414 14.2218 35.5414 14.2871 35.6456C14.3386 35.7314 14.2951 35.8287 14.1805 35.863C14.0694 35.8973 13.7396 35.9591 13.4452 36.0014C13.1509 36.0426 12.7901 36.1239 12.6435 36.1822C12.4866 36.2452 12.3755 36.22 12.3755 36.1193C12.3755 36.0266 12.5175 35.9511 12.6893 35.9511C12.8611 35.9511 12.9665 35.8893 12.9184 35.8126C12.8703 35.7371 12.9711 35.7108 13.1394 35.7543C13.3719 35.8161 13.4452 35.76 13.4452 35.522C13.4452 35.2416 13.3925 35.2245 12.9493 35.3515C12.6756 35.4304 12.4316 35.4934 12.4053 35.4934C12.3789 35.4934 12.395 35.5632 12.4511 35.6467C12.5026 35.7303 12.4786 35.7989 12.3961 35.7989C12.3136 35.7989 12.2151 35.7142 12.1773 35.6078C12.1212 35.4556 12.0662 35.4556 11.9036 35.6078C11.7925 35.7142 11.5039 35.7989 11.2645 35.7989C11.0251 35.7989 10.6941 35.871 10.5315 35.958C10.3677 36.0438 10.2325 36.2326 10.2302 36.3768C10.2199 36.6216 10.2119 36.6194 10.0206 36.3688C9.85342 36.1479 9.73889 36.1285 9.40445 36.2543C9.17882 36.3401 9.03794 36.4786 9.08834 36.5633C9.14102 36.6468 9.1101 36.7155 9.0219 36.7155C8.93371 36.7155 8.86155 36.6491 8.86155 36.569C8.86155 36.4889 8.75962 36.4592 8.63248 36.5072C8.50764 36.5553 8.44236 36.656 8.48932 36.7315C8.53513 36.8082 8.75962 36.8711 8.98525 36.8768C9.34375 36.8825 9.31855 36.9111 8.78482 37.1022C8.44808 37.2235 8.07127 37.3208 7.94414 37.3208C7.76432 37.3197 7.77119 37.2853 7.97964 37.164C8.19726 37.0382 8.21214 36.9569 8.06096 36.7201C7.91206 36.4809 7.94642 36.2967 8.24765 35.6959C8.44923 35.2931 8.61531 34.7393 8.61531 34.4658C8.61531 34.1923 8.69319 33.9692 8.79513 33.9692C8.89706 33.9692 9.06313 33.7472 9.16965 33.4737C9.27617 33.2002 9.59343 32.4736 9.87747 31.8546C10.1592 31.2378 10.4307 30.5661 10.4822 30.3647C10.5338 30.1633 10.6368 29.9596 10.7101 29.9139C10.7857 29.8681 10.8464 29.709 10.8464 29.5614C10.8464 29.4138 10.9839 29.0099 11.1534 28.6632C11.3206 28.3142 11.4569 27.94 11.4569 27.8313C11.4569 27.7226 11.6058 27.3244 11.7891 26.9468C11.9723 26.5691 12.1888 26.108 12.2713 25.9215C12.3537 25.735 12.4786 25.6194 12.5484 25.6617C12.6206 25.7064 12.6423 25.6514 12.6 25.5404C12.5576 25.4294 12.766 24.7417 13.0604 24.0082C13.3559 23.2759 13.5987 22.5653 13.5987 22.4303C13.5987 22.285 13.6823 22.2152 13.8037 22.2609C13.9469 22.3159 13.9881 22.2369 13.9423 21.9932C13.9068 21.8021 14.0191 21.365 14.1954 21.0217C14.3707 20.6772 14.515 20.2516 14.515 20.0776C14.515 19.9037 14.6788 19.5936 14.8804 19.3945C15.0819 19.1931 15.2102 18.9929 15.1655 18.9494C15.1232 18.9048 15.1965 18.6347 15.3328 18.3486C15.4679 18.0637 15.5996 17.6998 15.6248 17.5419C15.6512 17.3851 15.7531 17.1185 15.8528 16.9492C15.9513 16.7821 16.0337 16.6997 16.0372 16.7684C16.0475 16.837 16.1173 16.8451 16.2113 16.7867C16.3338 16.7112 16.3327 16.6528 16.2113 16.5761C16.0853 16.4995 16.0864 16.3393 16.2204 15.9697C16.3533 15.5886 16.43 15.5188 16.5434 15.6745C16.6511 15.8266 16.6648 15.8038 16.5961 15.5921C16.5434 15.433 16.5411 15.1733 16.5858 15.0165C16.635 14.8586 16.7393 14.7705 16.816 14.8185C16.8927 14.8643 16.9156 14.7979 16.8652 14.6663C16.8137 14.5359 16.8515 14.4306 16.9454 14.4306C17.0496 14.4306 17.0817 14.2887 17.029 14.0747C16.9718 13.8493 17.029 13.6479 17.1779 13.5221C17.3096 13.4122 17.4173 13.1685 17.4173 12.9808C17.4173 12.7932 17.5215 12.5483 17.6498 12.443C17.848 12.2805 17.8686 12.2942 17.7884 12.5391C17.7162 12.7611 17.73 12.7783 17.848 12.6124C17.9316 12.4945 17.9613 12.2942 17.9132 12.1684C17.8583 12.0288 17.8869 11.9796 17.9865 12.0391C18.0759 12.0951 18.187 12.0425 18.2305 11.9258C18.2775 11.8079 18.2786 11.5779 18.2408 11.4143C18.1916 11.2243 18.2545 11.079 18.4138 11.0195C18.5798 10.9566 18.6348 10.8216 18.5752 10.6316C18.5237 10.4726 18.5752 10.2494 18.6909 10.135C18.8055 10.0183 18.8707 9.83748 18.8341 9.73221C18.7997 9.62464 18.8616 9.55713 18.975 9.58002C19.1067 9.60748 19.1972 9.44499 19.2292 9.12459C19.2567 8.82822 19.3403 8.66459 19.4354 8.72524C19.5385 8.78817 19.5568 8.70235 19.4858 8.47922C19.4102 8.24579 19.4308 8.16798 19.5465 8.24121C19.6439 8.30071 19.7721 8.19658 19.8489 7.9929C19.9359 7.7629 19.921 7.60041 19.8088 7.52718C19.7011 7.45738 19.7424 7.41275 19.9153 7.41275C20.11 7.41046 20.1856 7.30748 20.1661 7.06718C20.1512 6.87837 20.1455 6.59917 20.1547 6.44698C20.165 6.27648 20.2417 6.21354 20.3517 6.28106C20.4742 6.35658 20.4971 6.30509 20.4238 6.11056C20.3643 5.95608 20.386 5.78787 20.4719 5.73409C20.559 5.67917 20.7044 5.29698 20.7949 4.8816C20.8854 4.46623 21.0103 3.68125 21.0698 3.13429C21.1317 2.58961 21.142 1.69593 21.0939 1.15011C21.0274 0.386871 20.9793 0.240403 20.8843 0.509309C20.7903 0.777071 20.7113 0.821698 20.559 0.695827C20.4124 0.573389 20.2978 0.591697 20.1238 0.764484C19.9943 0.894931 19.8489 0.93727 19.8008 0.858315C19.7527 0.781648 19.8225 0.608862 19.9565 0.473837C20.0894 0.339956 20.173 0.153438 20.1409 0.0550303C20.1306 0.0275676 20.1157 0.0126919 20.0951 0.00582621H20.0848V0.00239308ZM17.8743 0.0882141C17.8388 0.0882141 17.801 0.10309 17.7735 0.130553C17.7174 0.186622 17.7632 0.232394 17.8743 0.232394C17.9854 0.232394 18.0335 0.186622 17.9762 0.130553C17.9476 0.10309 17.9109 0.0882141 17.8743 0.0882141ZM16.8148 0.233538C16.7255 0.233538 16.6522 0.302195 16.6522 0.385727C16.6522 0.46926 16.6831 0.537916 16.7209 0.537916C16.7587 0.537916 16.8309 0.46926 16.8836 0.385727C16.9351 0.302195 16.9042 0.233538 16.8148 0.233538ZM19.3907 0.709558C19.4434 0.711847 19.4881 0.724434 19.5133 0.750752C19.5648 0.802245 19.4743 0.837718 19.3128 0.830852C19.1353 0.823986 19.0998 0.788513 19.2201 0.738165C19.2751 0.716424 19.3346 0.70727 19.3873 0.709558H19.3884H19.3907ZM16.0452 0.861748C15.9547 0.89722 15.7989 1.03568 15.6466 1.22334C15.445 1.47623 15.2789 1.75772 15.2778 1.85041C15.2778 1.9408 15.1346 2.18225 14.9582 2.38364C14.7807 2.58503 14.4967 3.02558 14.3237 3.362C14.1531 3.69727 13.8484 4.18474 13.6525 4.44449C13.4544 4.70424 13.2918 4.96285 13.2918 5.02349C13.2918 5.08414 13.0512 5.64369 12.7569 6.2719C12.4625 6.89782 12.222 7.49972 12.222 7.60728C12.222 7.71484 12.159 7.86817 12.08 7.94713C11.9998 8.02723 11.9025 8.28126 11.8589 8.51355C11.8177 8.74469 11.6722 9.04449 11.5359 9.18181C11.3985 9.31798 11.3241 9.5228 11.3687 9.63723C11.4134 9.7528 11.3928 9.84663 11.3263 9.84663C11.2599 9.84663 11.0182 10.3112 10.796 10.8799C10.5716 11.4486 10.3894 11.9933 10.3894 12.0883C10.3894 12.1833 10.3265 12.2851 10.2509 12.3137C10.1741 12.3412 10.0882 12.5014 10.0596 12.6684C10.0298 12.8378 9.97254 13.0083 9.92902 13.0506C9.88664 13.0918 9.72171 13.5049 9.56365 13.966C9.40445 14.4272 9.20745 14.8918 9.12613 14.9959C9.04366 15.1023 9.03679 15.187 9.11124 15.1927C9.18454 15.195 9.12269 15.2659 8.97609 15.3529C8.82948 15.4376 8.70923 15.6069 8.70923 15.7282C8.70923 15.8495 8.76878 15.9502 8.84438 15.9502C8.91997 15.9502 9.15934 15.5715 9.37925 15.1069C9.59801 14.6423 9.77898 14.2327 9.77898 14.1949C9.77898 14.1571 9.98399 13.6765 10.2371 13.1261C10.4879 12.5757 10.6953 12.0551 10.6953 11.9681C10.6953 11.8812 10.8579 11.4543 11.056 11.0184C11.2542 10.5824 11.5073 9.98624 11.6161 9.6933C11.7261 9.39808 12.0078 8.80648 12.2415 8.37624C12.4763 7.94599 12.6366 7.56265 12.5988 7.52375C12.5587 7.48598 12.8382 6.85091 13.2162 6.11056C13.5941 5.37135 13.9034 4.63902 13.9034 4.48111C13.9034 4.32319 13.9561 4.19618 14.0225 4.19618C14.0889 4.19618 14.3798 3.8014 14.6708 3.31852C14.9617 2.83677 15.2515 2.3722 15.3167 2.28866C15.382 2.20513 15.6088 1.86986 15.8207 1.54603C16.0349 1.2222 16.1643 0.912096 16.1116 0.859459C16.0979 0.845728 16.0738 0.845728 16.0452 0.858315V0.861748ZM17.0451 2.6022C17.0577 2.60906 17.0691 2.62623 17.0783 2.65369C17.1161 2.76469 17.0691 2.92717 16.9844 3.01528C16.871 3.12857 16.8504 3.06792 16.9179 2.81503C16.9592 2.65941 17.0084 2.58275 17.0462 2.6022H17.0451ZM15.2011 3.28533C15.1587 3.28533 15.1255 3.31966 15.1255 3.362C15.1255 3.40434 15.1598 3.43752 15.2011 3.43752C15.2423 3.43752 15.2778 3.40319 15.2778 3.362C15.2778 3.32081 15.2434 3.28533 15.2011 3.28533ZM15.0487 3.59086C15.0063 3.59086 14.972 3.62518 14.972 3.66638C14.972 3.70757 15.0075 3.74304 15.0487 3.74304C15.09 3.74304 15.1255 3.70872 15.1255 3.66638C15.1255 3.62404 15.09 3.59086 15.0487 3.59086ZM16.4231 3.89638C16.4655 3.89638 16.4999 3.93071 16.4999 3.9719C16.4999 4.01309 16.4655 4.04857 16.4231 4.04857C16.3808 4.04857 16.3475 4.01424 16.3475 3.9719C16.3475 3.92956 16.3819 3.89638 16.4231 3.89638ZM14.8952 6.94817C14.9376 6.94817 14.972 6.9825 14.972 7.02484C14.972 7.06718 14.9376 7.10036 14.8952 7.10036C14.854 7.10036 14.8208 7.06603 14.8208 7.02484C14.8208 6.98364 14.8552 6.94817 14.8952 6.94817ZM14.5906 7.55807C14.633 7.55807 14.6662 7.59355 14.6662 7.63474C14.6662 7.67594 14.6318 7.71141 14.5906 7.71141C14.5493 7.71141 14.5138 7.67708 14.5138 7.63474C14.5138 7.5924 14.5493 7.55807 14.5906 7.55807ZM14.4371 8.01807C14.4795 8.01807 14.5138 8.0524 14.5138 8.0936C14.5138 8.13479 14.4795 8.17026 14.4371 8.17026C14.3947 8.17026 14.3615 8.13594 14.3615 8.0936C14.3615 8.05126 14.3959 8.01807 14.4371 8.01807ZM13.8095 9.4427C13.8644 9.4324 13.9034 9.4633 13.9034 9.52624C13.9034 9.60977 13.8347 9.72076 13.7488 9.77226C13.6651 9.82604 13.5976 9.79857 13.5976 9.71504C13.5976 9.63151 13.6663 9.52052 13.7488 9.46902C13.7717 9.45529 13.79 9.44614 13.8083 9.44385L13.8095 9.4427ZM18.4103 11.2221C18.3679 11.2221 18.3347 11.2564 18.3347 11.2987C18.3347 11.3411 18.3691 11.3754 18.4103 11.3754C18.4515 11.3754 18.4871 11.3411 18.4871 11.2987C18.4871 11.2564 18.4515 11.2221 18.4103 11.2221ZM17.6464 13.0541C17.604 13.0541 17.5708 13.0884 17.5708 13.1296C17.5708 13.1708 17.6051 13.2062 17.6464 13.2062C17.6876 13.2062 17.7231 13.1719 17.7231 13.1296C17.7231 13.0872 17.6876 13.0541 17.6464 13.0541ZM8.48474 16.3061C8.42976 16.3004 8.39884 16.3507 8.40915 16.4343C8.42289 16.5487 8.38509 16.7958 8.32553 16.9847C8.26368 17.1735 8.15259 17.3279 8.07929 17.3279C8.00598 17.3279 7.94414 17.5007 7.94414 17.7101C7.94414 17.9195 8.014 18.0912 8.09646 18.0912C8.17893 18.0912 8.25109 17.9241 8.25109 17.7204C8.25109 17.5167 8.35302 17.2478 8.48016 17.1208C8.60614 16.995 8.70923 16.7878 8.70923 16.6608C8.70923 16.5338 8.63592 16.3839 8.54658 16.329C8.52367 16.3141 8.50192 16.3072 8.48474 16.3049V16.3061ZM15.8127 17.6335C15.7691 17.6335 15.7359 17.6678 15.7359 17.7101C15.7359 17.7502 15.7703 17.7856 15.8127 17.7856C15.855 17.7856 15.8883 17.7513 15.8883 17.7101C15.8883 17.6678 15.8539 17.6335 15.8127 17.6335ZM7.79638 18.3967C7.71392 18.3967 7.53982 18.605 7.40811 18.8601C7.27639 19.113 7.20996 19.3876 7.26151 19.47C7.31076 19.5524 7.38176 19.6188 7.41498 19.6188C7.45048 19.6188 7.58335 19.4151 7.71277 19.1679C7.84105 18.9196 7.94527 18.645 7.94527 18.558C7.94527 18.4711 7.87885 18.3978 7.79638 18.3978V18.3967ZM15.0487 19.4632C15.0063 19.4632 14.972 19.4986 14.972 19.5398C14.972 19.581 15.0075 19.6165 15.0487 19.6165C15.09 19.6165 15.1255 19.5822 15.1255 19.5398C15.1255 19.4975 15.09 19.4632 15.0487 19.4632ZM7.00266 20.0754C6.92706 20.0754 6.82627 20.1944 6.77931 20.342C6.7335 20.4884 6.5617 20.9313 6.40249 21.326C6.24215 21.7197 6.11158 22.0847 6.11158 22.1396C6.11158 22.1946 6.19518 22.2117 6.29826 22.1774C6.4002 22.1431 6.53879 21.8478 6.60751 21.5217C6.67394 21.1956 6.81482 20.8775 6.91675 20.8146C7.01869 20.7516 7.11146 20.5582 7.12177 20.3877C7.12979 20.2172 7.0771 20.0765 7.00151 20.0765L7.00266 20.0754ZM14.7429 20.2264C14.7017 20.2264 14.6673 20.2607 14.6673 20.3031C14.6673 20.3454 14.7017 20.3797 14.7429 20.3797C14.7841 20.3797 14.8197 20.3454 14.8197 20.3031C14.8197 20.2607 14.7853 20.2264 14.7429 20.2264ZM14.1324 21.754C14.0901 21.754 14.0557 21.7883 14.0557 21.8307C14.0557 21.873 14.0901 21.9062 14.1324 21.9062C14.1748 21.9062 14.208 21.8719 14.208 21.8307C14.208 21.7895 14.1737 21.754 14.1324 21.754ZM6.18717 22.6694C6.14479 22.6694 6.11158 22.7038 6.11158 22.7461C6.11158 22.7884 6.14594 22.8228 6.18717 22.8228C6.2284 22.8228 6.26391 22.7873 6.26391 22.7461C6.26391 22.7049 6.22955 22.6694 6.18717 22.6694ZM13.6743 22.975C13.6319 22.975 13.5976 23.0093 13.5976 23.0516C13.5976 23.094 13.6319 23.1271 13.6743 23.1271C13.7167 23.1271 13.7499 23.0928 13.7499 23.0516C13.7499 23.0104 13.7155 22.975 13.6743 22.975ZM5.86762 23.1546C5.83211 23.1489 5.80691 23.1969 5.80691 23.2805C5.80691 23.3915 5.85273 23.4372 5.9077 23.3812C5.96383 23.3263 5.96383 23.2347 5.9077 23.1775C5.89396 23.1638 5.88022 23.1569 5.86762 23.1535V23.1546ZM5.65344 23.5952C5.61564 23.5952 5.57785 23.6089 5.5515 23.6364C5.49538 23.6924 5.5412 23.7393 5.65344 23.7393C5.76568 23.7393 5.81035 23.6936 5.75422 23.6364C5.72674 23.6089 5.68895 23.5952 5.65344 23.5952ZM5.51943 23.8904C5.44384 23.8904 5.34992 24.0632 5.31098 24.2726C5.25142 24.5838 5.27661 24.6227 5.44613 24.4843C5.56066 24.3881 5.65458 24.2165 5.65458 24.0998C5.65458 23.9831 5.59388 23.8892 5.51943 23.8892V23.8904ZM4.82994 25.4706C4.77496 25.4603 4.73602 25.4947 4.73602 25.561C4.73602 25.6503 4.80473 25.7235 4.88949 25.7235C4.97424 25.7235 5.04182 25.6926 5.04182 25.6549C5.04182 25.6171 4.9731 25.5462 4.88949 25.4935C4.86773 25.4798 4.84826 25.4718 4.82994 25.4695V25.4706ZM4.81275 26.0268C4.77037 26.0268 4.73602 26.0622 4.73602 26.1034C4.73602 26.1446 4.77037 26.1801 4.81275 26.1801C4.85513 26.1801 4.88834 26.1458 4.88834 26.1034C4.88834 26.0611 4.85398 26.0268 4.81275 26.0268ZM4.33972 26.9708C4.30422 26.9639 4.27788 27.012 4.27788 27.0955C4.27788 27.2088 4.32369 27.2534 4.37867 27.1985C4.43479 27.1424 4.43479 27.0497 4.37867 26.9937C4.36492 26.9799 4.35118 26.9731 4.33972 26.9719V26.9708ZM6.26391 27.7157C6.29941 27.7157 6.33721 27.7294 6.3647 27.758C6.42082 27.813 6.375 27.8587 6.26391 27.8587C6.15281 27.8587 6.10585 27.8118 6.16083 27.758C6.19061 27.7294 6.22611 27.7157 6.26391 27.7157ZM4.03506 27.734C3.99727 27.7271 3.97206 27.7752 3.97206 27.8587C3.97206 27.9709 4.01788 28.0155 4.07515 27.9606C4.13012 27.9045 4.13012 27.8118 4.07515 27.7558C4.0614 27.742 4.04766 27.7352 4.03392 27.734H4.03506ZM3.74299 28.4686C3.70062 28.4686 3.6674 28.5041 3.6674 28.5453C3.6674 28.5865 3.70176 28.622 3.74299 28.622C3.78423 28.622 3.81974 28.5877 3.81974 28.5453C3.81974 28.503 3.78423 28.4686 3.74299 28.4686ZM5.88136 28.4686C5.92374 28.4686 5.9581 28.5041 5.9581 28.5453C5.9581 28.5865 5.92374 28.622 5.88136 28.622C5.83899 28.622 5.80577 28.5877 5.80577 28.5453C5.80577 28.503 5.84013 28.4686 5.88136 28.4686ZM3.28486 29.5385C3.24362 29.5385 3.20812 29.5729 3.20812 29.6141C3.20812 29.6564 3.24362 29.6907 3.28486 29.6907C3.32609 29.6907 3.3616 29.6564 3.3616 29.6141C3.3616 29.5717 3.32609 29.5385 3.28486 29.5385ZM5.40948 29.566C5.42093 29.5683 5.43467 29.5763 5.44842 29.59C5.50454 29.6461 5.50454 29.7365 5.44842 29.7926C5.3923 29.8486 5.34763 29.8029 5.34763 29.6907C5.34763 29.6072 5.37397 29.5603 5.40948 29.566ZM4.81275 31.5227C4.85513 31.5227 4.88834 31.5571 4.88834 31.5983C4.88834 31.6406 4.85398 31.6749 4.81275 31.6749C4.77152 31.6749 4.73602 31.6406 4.73602 31.5983C4.73602 31.5559 4.77037 31.5227 4.81275 31.5227ZM3.97206 33.5069C4.05567 33.5069 4.12669 33.5756 4.12669 33.6591C4.12669 33.7426 4.05682 33.8113 3.97206 33.8113C3.88731 33.8113 3.81974 33.7426 3.81974 33.6591C3.81974 33.5756 3.88845 33.5069 3.97206 33.5069ZM26.737 33.5161C26.6992 33.5161 26.6614 33.5298 26.6351 33.5573C26.5789 33.6133 26.6259 33.6591 26.737 33.6591C26.8481 33.6591 26.8939 33.6133 26.8378 33.5573C26.8103 33.5298 26.7748 33.5161 26.737 33.5161ZM27.1951 33.5161C27.1573 33.5161 27.1195 33.5298 27.0921 33.5573C27.0382 33.6133 27.084 33.6591 27.1951 33.6591C27.3062 33.6591 27.352 33.6133 27.2959 33.5573C27.2684 33.5298 27.2329 33.5161 27.1951 33.5161ZM22.3056 33.6683C22.2701 33.6683 22.2323 33.682 22.2037 33.7106C22.1487 33.7667 22.1934 33.8113 22.3056 33.8113C22.4179 33.8113 22.4626 33.7655 22.4076 33.7106C22.3789 33.682 22.3423 33.6683 22.3056 33.6683ZM21.0836 33.8113C20.9163 33.8113 20.7778 33.8742 20.7778 33.9497C20.7778 34.0253 20.9163 34.0527 21.0836 34.0093C21.2508 33.9646 21.3894 33.9017 21.3894 33.8708C21.3894 33.8376 21.2508 33.8113 21.0836 33.8113ZM20.3196 33.9646C20.236 33.9646 20.1673 34.0333 20.1673 34.1168C20.1673 34.2003 20.236 34.269 20.3196 34.269C20.4032 34.269 20.4719 34.2003 20.4719 34.1168C20.4719 34.0333 20.4032 33.9646 20.3196 33.9646ZM19.6324 34.1168C19.5064 34.1168 19.4033 34.1832 19.4033 34.2656C19.4033 34.348 19.5064 34.3731 19.6324 34.3251C19.7584 34.2747 19.8615 34.2084 19.8615 34.1763C19.8615 34.1443 19.7595 34.1168 19.6324 34.1168ZM28.187 34.1168C28.1446 34.1168 28.1103 34.1511 28.1103 34.1935C28.1103 34.2358 28.1446 34.269 28.187 34.269C28.2294 34.269 28.2626 34.2347 28.2626 34.1935C28.2626 34.1523 28.2282 34.1168 28.187 34.1168ZM3.43376 34.1168C3.76247 34.1168 3.80599 34.1626 3.69375 34.3846C3.61815 34.531 3.58609 34.737 3.62503 34.8423C3.66168 34.9464 3.62502 35.0322 3.53569 35.0322C3.44635 35.0322 3.35931 35.2508 3.33297 35.5174C3.30548 35.784 3.18865 36.0335 3.07182 36.0724C2.9046 36.1273 2.88055 36.0312 2.95843 35.633C3.01456 35.3526 3.12451 35.0849 3.20354 35.0368C3.28142 34.9865 3.32953 34.8469 3.3112 34.7221C3.29288 34.5997 3.22415 34.4109 3.15658 34.3068C3.07297 34.1717 3.15658 34.1157 3.43376 34.1157V34.1168ZM18.7745 34.1935C18.6909 34.1912 18.6394 34.2484 18.6394 34.3502C18.6394 34.4727 18.7413 34.5745 18.8685 34.5745C18.9956 34.5745 19.0975 34.5127 19.0975 34.4372C19.0975 34.3617 18.9956 34.261 18.8685 34.2141C18.8341 34.2003 18.802 34.1935 18.7745 34.1935ZM18.1801 34.4223C18.0965 34.4223 18.0289 34.491 18.0289 34.5745C18.0289 34.6581 18.0976 34.7267 18.1801 34.7267C18.2626 34.7267 18.3324 34.6581 18.3324 34.5745C18.3324 34.491 18.2637 34.4223 18.1801 34.4223ZM26.0578 34.5745C26.1895 34.5745 26.2525 34.6432 26.201 34.7279C26.1494 34.8114 26.0418 34.88 25.9639 34.88C25.886 34.88 25.8184 34.8114 25.8184 34.7279C25.8184 34.6443 25.9261 34.5745 26.0578 34.5745ZM27.8148 34.5745C27.7254 34.5745 27.6521 34.6432 27.6521 34.7267C27.6521 34.8102 27.6808 34.88 27.7186 34.88C27.7564 34.88 27.8297 34.8114 27.8812 34.7267C27.9339 34.6432 27.903 34.5745 27.8148 34.5745ZM24.9021 34.737C24.9399 34.737 24.9766 34.7507 25.0041 34.7782C25.0602 34.8343 25.0121 34.88 24.9021 34.88C24.7922 34.88 24.7441 34.8343 24.8014 34.7782C24.8288 34.7507 24.8666 34.737 24.9021 34.737ZM16.1173 34.88C16.1597 34.88 16.1941 34.9144 16.1941 34.9567C16.1941 34.9991 16.1597 35.0322 16.1173 35.0322C16.0772 35.0322 16.0417 34.9979 16.0417 34.9567C16.0417 34.9155 16.0761 34.88 16.1173 34.88ZM15.1129 34.8995C15.059 34.8972 14.9995 34.9064 14.9434 34.9293C14.8219 34.9785 14.8575 35.0151 15.0361 35.0208C15.1965 35.0277 15.287 34.9922 15.2366 34.9407C15.2102 34.9144 15.1667 34.9018 15.114 34.8995H15.1129ZM15.8218 35.1856C15.9535 35.1856 16.0165 35.2542 15.965 35.3378C15.9135 35.4213 15.8058 35.49 15.7279 35.49C15.65 35.49 15.5825 35.4213 15.5825 35.3378C15.5825 35.2542 15.6901 35.1856 15.8218 35.1856ZM27.5628 35.213C27.5273 35.2062 27.4986 35.2542 27.4986 35.3378C27.4986 35.451 27.5445 35.4945 27.6017 35.4396C27.6578 35.3835 27.6578 35.292 27.6017 35.2348C27.588 35.221 27.5742 35.2142 27.5628 35.213ZM2.59765 35.3469C2.63315 35.3469 2.67095 35.3606 2.69844 35.3893C2.75456 35.4453 2.70875 35.49 2.59765 35.49C2.48655 35.49 2.43959 35.4453 2.49457 35.3893C2.52435 35.3606 2.55985 35.3469 2.59765 35.3469ZM24.5207 35.6433C24.5631 35.6433 24.5952 35.6776 24.5952 35.7188C24.5952 35.76 24.5608 35.7955 24.5207 35.7955C24.4807 35.7955 24.444 35.7611 24.444 35.7188C24.444 35.6765 24.4795 35.6433 24.5207 35.6433ZM25.4027 35.7016C25.4176 35.6845 25.4405 35.7074 25.4657 35.7669C25.508 35.8779 25.5035 36.0095 25.4519 36.0609C25.4004 36.1113 25.3649 36.0198 25.3717 35.8596C25.382 35.7703 25.3866 35.7177 25.4027 35.7028V35.7016ZM3.89533 35.9488C3.93771 35.9488 3.97206 35.9831 3.97206 36.0243C3.97206 36.0667 3.93771 36.101 3.89533 36.101C3.85295 36.101 3.81974 36.0667 3.81974 36.0243C3.81974 35.982 3.8541 35.9488 3.89533 35.9488ZM11.3825 35.9488C11.4237 35.9488 11.4581 35.9831 11.4581 36.0243C11.4581 36.0667 11.4237 36.101 11.3825 36.101C11.3412 36.101 11.3057 36.0667 11.3057 36.0243C11.3057 35.982 11.3412 35.9488 11.3825 35.9488ZM11.8406 36.2532C11.883 36.2532 11.9173 36.2887 11.9173 36.3299C11.9173 36.371 11.8818 36.4065 11.8406 36.4065C11.7994 36.4065 11.7639 36.3722 11.7639 36.3299C11.7639 36.2875 11.7994 36.2532 11.8406 36.2532ZM23.6045 36.2532C23.6457 36.2532 23.6801 36.2887 23.6801 36.3299C23.6801 36.371 23.6457 36.4065 23.6045 36.4065C23.5632 36.4065 23.5277 36.3722 23.5277 36.3299C23.5277 36.2875 23.5621 36.2532 23.6045 36.2532ZM24.3696 36.4054C24.3272 36.4054 24.2928 36.4408 24.2928 36.482C24.2928 36.5232 24.3272 36.5587 24.3696 36.5587C24.4119 36.5587 24.4451 36.5244 24.4451 36.482C24.4451 36.4397 24.4108 36.4054 24.3696 36.4054ZM8.1732 36.5587C8.13083 36.5587 8.09646 36.593 8.09646 36.6354C8.09646 36.6777 8.13197 36.7109 8.1732 36.7109C8.21444 36.7109 8.24994 36.6766 8.24994 36.6354C8.24994 36.5942 8.21444 36.5587 8.1732 36.5587ZM9.61977 36.5587C9.70109 36.5587 9.72858 36.6605 9.67933 36.7876C9.63123 36.9134 9.5648 37.0164 9.53273 37.0164C9.50066 37.0164 9.47317 36.9134 9.47317 36.7876C9.47317 36.6617 9.5396 36.5587 9.61977 36.5587ZM26.3075 36.5953C26.2159 36.601 26.1345 36.6399 26.0464 36.7143C25.8551 36.8734 25.8459 36.9386 26.004 37.0393C26.1139 37.108 26.2548 37.1675 26.3167 37.1675C26.3785 37.1675 26.4312 37.1011 26.4312 37.0176C26.4312 36.934 26.5526 36.8597 26.6992 36.8539C26.9134 36.8471 26.8996 36.8104 26.627 36.6789C26.4988 36.6182 26.398 36.5896 26.3075 36.5953ZM10.1604 36.7109C10.2016 36.7109 10.236 36.7452 10.236 36.7876C10.236 36.8299 10.2016 36.8642 10.1604 36.8642C10.1191 36.8642 10.0836 36.8288 10.0836 36.7876C10.0836 36.7464 10.118 36.7109 10.1604 36.7109ZM22.9928 36.7109C23.0341 36.7109 23.0696 36.7452 23.0696 36.7876C23.0696 36.8299 23.0341 36.8642 22.9928 36.8642C22.9516 36.8642 22.9173 36.8288 22.9173 36.7876C22.9173 36.7464 22.9516 36.7109 22.9928 36.7109ZM23.6709 36.7109C23.7591 36.7109 23.8335 36.7796 23.8335 36.8642C23.8335 36.9489 23.8026 37.0164 23.7648 37.0164C23.727 37.0164 23.656 36.9478 23.6022 36.8642C23.5506 36.7796 23.5816 36.7109 23.6709 36.7109ZM18.1034 36.8642C18.1446 36.8642 18.1801 36.8986 18.1801 36.9398C18.1801 36.9809 18.1446 37.0164 18.1034 37.0164C18.0621 37.0164 18.0289 36.9821 18.0289 36.9398C18.0289 36.8974 18.0633 36.8642 18.1034 36.8642ZM21.3126 37.1686C21.3539 37.1686 21.3894 37.2029 21.3894 37.2453C21.3894 37.2876 21.3539 37.3219 21.3126 37.3219C21.2714 37.3219 21.2359 37.2876 21.2359 37.2453C21.2359 37.2029 21.2714 37.1686 21.3126 37.1686ZM23.6617 37.1686C23.735 37.1686 23.7946 37.3414 23.7946 37.5519C23.7946 37.7625 23.7774 37.933 23.7557 37.933C23.7339 37.933 23.672 37.8254 23.6216 37.6915C23.5701 37.5577 23.5277 37.3872 23.5277 37.3094C23.5277 37.2315 23.5873 37.1686 23.6629 37.1686H23.6617ZM24.8266 37.1686C24.8678 37.1686 24.9021 37.2029 24.9021 37.2453C24.9021 37.2876 24.8678 37.3219 24.8266 37.3219C24.7842 37.3219 24.7498 37.2876 24.7498 37.2453C24.7498 37.2029 24.7842 37.1686 24.8266 37.1686ZM25.2858 37.1686C25.3282 37.1686 25.3603 37.2029 25.3603 37.2453C25.3603 37.2876 25.3259 37.3219 25.2858 37.3219C25.2423 37.3219 25.2091 37.2876 25.2091 37.2453C25.2091 37.2029 25.2435 37.1686 25.2858 37.1686ZM1.53591 37.3231C1.44887 37.3231 1.37556 37.4123 1.37556 37.521C1.37556 37.6298 1.45689 37.8014 1.55882 37.9021C1.65961 38.0028 1.78903 38.0852 1.84745 38.0852C1.90586 38.0852 1.99635 37.9776 2.0456 37.8437C2.09714 37.711 2.13837 37.5565 2.13837 37.5005C2.13837 37.4444 2.07537 37.4924 2.00207 37.608C1.92877 37.7247 1.79132 37.7716 1.69626 37.7121C1.60234 37.6538 1.56455 37.5416 1.61265 37.4638C1.66076 37.386 1.62754 37.3219 1.53706 37.3219L1.53591 37.3231ZM3.3616 37.3265C3.39367 37.3265 3.42803 37.338 3.45208 37.3643C3.50362 37.4158 3.51622 37.5439 3.48071 37.6492C3.42803 37.8048 3.39138 37.8048 3.29631 37.6492C3.23103 37.5439 3.21729 37.4158 3.26883 37.3643C3.29517 37.338 3.32724 37.3265 3.35931 37.3265H3.3616ZM27.2696 37.4741C27.1344 37.4741 27.0657 37.5428 27.1172 37.6263C27.1699 37.7121 27.2387 37.7808 27.2696 37.7808C27.3039 37.7808 27.3715 37.7121 27.4231 37.6263C27.4746 37.5428 27.4059 37.4741 27.2696 37.4741ZM24.9789 37.4741C25.2068 37.4741 25.3385 37.5394 25.2858 37.6263C25.232 37.7121 25.0957 37.7808 24.9789 37.7808C24.8621 37.7808 24.7258 37.7121 24.6731 37.6263C24.6204 37.5394 24.7521 37.4741 24.9789 37.4741ZM16.8767 37.6984C16.887 37.7018 16.895 37.7156 16.9076 37.7407C16.95 37.846 16.95 38.0177 16.9076 38.1229C16.8652 38.2271 16.8309 38.1412 16.8309 37.9318C16.8309 37.7739 16.8492 37.687 16.8767 37.6973V37.6984ZM1.24156 38.0394C1.20949 38.0394 1.182 38.0428 1.16253 38.0543C1.08808 38.0932 1.19002 38.2511 1.38816 38.401C1.64128 38.5898 1.78331 38.6218 1.85661 38.5017C1.91617 38.4044 1.81767 38.2545 1.63097 38.155C1.49239 38.0829 1.34006 38.0394 1.24156 38.0394ZM1.32861 38.9995C1.23583 38.9995 0.90139 39.1803 0.581838 39.4022C0.262287 39.6242 0.00114647 39.8874 0.00114647 39.9881C0.00114647 40.0888 0.0515454 40.2204 0.112249 40.2822C0.174098 40.3428 0.287487 40.2524 0.36308 40.0819C0.438673 39.9092 0.647123 39.7192 0.824652 39.6597C0.99989 39.5979 1.19803 39.5624 1.25988 39.5796C1.32288 39.5968 1.37442 39.5373 1.37442 39.448C1.37442 39.3588 1.44314 39.329 1.5256 39.3794C1.61265 39.4343 1.63785 39.3725 1.58631 39.2363C1.53706 39.107 1.42023 38.9995 1.32746 38.9995H1.32861ZM2.29184 39.6197C2.32964 39.6197 2.36515 39.6345 2.39378 39.662C2.4499 39.7181 2.40409 39.7638 2.29184 39.7638C2.1796 39.7638 2.13378 39.7181 2.19105 39.662C2.21854 39.6345 2.25634 39.6197 2.29184 39.6197ZM2.67439 41.4436C2.71448 41.4436 2.74998 41.478 2.74998 41.5192C2.74998 41.5604 2.71562 41.5958 2.67439 41.5958C2.63087 41.5958 2.59765 41.5615 2.59765 41.5192C2.59765 41.4768 2.63201 41.4436 2.67439 41.4436ZM1.89326 41.502C1.94824 41.5054 1.98718 41.5649 1.98718 41.6622C1.98718 41.7938 1.91731 41.9014 1.8337 41.9014C1.75009 41.9014 1.68137 41.8361 1.68137 41.7583C1.68137 41.6805 1.75009 41.5718 1.8337 41.5192C1.85546 41.5066 1.87494 41.5009 1.89326 41.502ZM1.29768 44.3432C1.25645 44.3432 1.22209 44.3776 1.22209 44.4188C1.22209 44.46 1.25645 44.4954 1.29768 44.4954C1.33891 44.4954 1.37442 44.4611 1.37442 44.4188C1.37442 44.3764 1.34006 44.3432 1.29768 44.3432Z" fill="white"/>
</svg>
