<svg width="44" height="77" viewBox="0 0 44 77" fill="none" xmlns="http://www.w3.org/2000/svg">
<path d="M41.6643 0C41.5303 0 41.4181 0.102985 41.4181 0.23C41.4181 0.357015 41.4639 0.462289 41.5211 0.462289C41.5784 0.462289 41.6872 0.355871 41.7662 0.23C41.8441 0.102985 41.7972 0 41.6632 0H41.6643ZM40.8591 0.231145C40.7927 0.231145 40.2761 0.553832 39.7126 0.950897C39.0392 1.42577 38.581 1.60771 38.376 1.47841C38.2019 1.37199 37.8732 1.25642 37.6407 1.2198C37.3131 1.16831 37.2547 1.25642 37.3681 1.62259C37.4723 1.94413 37.4219 2.07 37.2135 2.02652C37.0428 1.99334 36.9317 2.09289 36.9627 2.25309C36.9959 2.411 36.8642 2.5403 36.6752 2.5403C36.4862 2.5403 35.9525 3.0598 35.4943 3.69602C35.0385 4.33224 34.554 4.78538 34.4165 4.70299C34.2768 4.61488 34.2413 4.65836 34.3306 4.80369C34.4165 4.94329 34.1703 5.57493 33.782 6.20543C33.3937 6.83364 32.915 7.4115 32.7214 7.48588C32.5244 7.56026 32.4282 7.72847 32.5084 7.85548C32.5863 7.98479 32.4855 8.08892 32.2839 8.08892C32.0823 8.08892 31.859 7.9413 31.7891 7.76051C31.7192 7.57971 31.7765 7.21469 31.922 6.95036C32.064 6.68717 32.0903 6.47205 31.9838 6.47205C31.8773 6.47205 31.5749 6.75926 31.3138 7.11056C31.0527 7.46299 30.7652 7.9928 30.6713 8.28573C30.5338 8.71255 30.3861 8.79265 29.9428 8.68051C29.637 8.60613 29.3862 8.62101 29.3839 8.71941C29.3839 8.81782 28.9154 9.09016 28.3428 9.32474C27.7712 9.56046 27.3016 9.82708 27.3016 9.91748C27.3016 10.0079 26.9054 10.3077 26.422 10.58C25.894 10.8775 25.3362 11.0229 25.0339 10.9427C24.7544 10.8695 24.5265 10.7356 24.5265 10.6452C24.5265 10.5548 24.5883 10.4152 24.6662 10.3397C24.7418 10.2619 25.0442 10.2905 25.3374 10.4015C25.7108 10.5434 25.9948 10.4999 26.2949 10.2596C26.7049 9.93121 26.6992 9.9232 26.2044 10.0582C25.8081 10.1669 25.7176 10.12 25.8184 9.85912C25.8883 9.6726 26.2044 9.45519 26.5194 9.37509C26.8332 9.29727 27.0302 9.1325 26.9523 9.0112C26.879 8.88877 26.9672 8.84528 27.1436 8.91509C27.3246 8.98489 27.5364 8.87847 27.612 8.68165C27.6899 8.48255 27.8629 8.32006 27.998 8.32006C28.1332 8.32006 28.0335 8.54777 27.7781 8.82354C27.5193 9.10046 27.3555 9.37509 27.4162 9.43459C27.4734 9.49409 27.6567 9.43459 27.8171 9.303C27.9797 9.1714 28.4962 8.84986 28.9647 8.58897C29.4515 8.32006 29.8684 8.21135 29.9337 8.33837C29.9955 8.46195 30.0196 8.4322 29.9852 8.26857C29.944 8.0729 29.5374 7.98479 28.7574 8.00767C27.714 8.03285 27.2604 8.24797 24.3822 10.08C22.616 11.2025 20.677 12.4727 20.0734 12.9029C19.4675 13.332 18.9727 13.8263 18.9727 14.0026C18.9727 14.1788 18.8295 14.2635 18.6485 14.1971C18.4733 14.1273 18.1847 14.2669 18.014 14.5026C17.8399 14.7372 17.336 15.1777 16.8904 15.4775C16.4449 15.775 15.2205 16.8953 14.1714 17.9641C13.12 19.0305 12.2609 19.9379 12.2609 19.9791C12.2609 20.0203 11.8177 20.5215 11.2759 21.0948C10.7376 21.6692 10.008 22.4862 9.65757 22.9188C9.30709 23.3479 8.81345 23.9475 8.55918 24.253C8.30262 24.5608 8.08272 24.9236 8.06668 25.0632C8.05179 25.2028 8.05179 25.3973 8.06668 25.49C8.08272 25.5861 7.94871 25.6639 7.77233 25.6639C7.59594 25.6639 7.38406 25.8344 7.30388 26.0438C7.22371 26.2532 7.20538 26.4706 7.26494 26.5301C7.32221 26.5873 7.45965 26.5816 7.56846 26.5141C7.67497 26.4477 8.17434 25.7875 8.67944 25.0449C9.18225 24.3045 9.72514 23.6134 9.88549 23.5127C10.047 23.412 10.1787 23.2026 10.1787 23.0504C10.1787 22.8982 10.3883 22.6396 10.6414 22.4817C10.8957 22.3203 11.1053 22.0549 11.1053 21.8866C11.1053 21.7184 11.3641 21.4415 11.6825 21.271C12.001 21.1005 12.2609 20.8705 12.2609 20.7595C12.2609 20.6485 13.0501 19.7846 14.0133 18.8371C14.9766 17.8897 15.6993 17.0109 15.6214 16.8839C15.5412 16.7545 15.634 16.7088 15.8127 16.7832C16.0016 16.8552 16.4598 16.6046 16.8744 16.2007C17.273 15.8105 17.6567 15.4924 17.7265 15.4924C17.7964 15.4924 18.211 15.1251 18.6451 14.68C19.0803 14.2326 19.4354 13.9453 19.4423 14.0437C19.4549 14.1399 19.5534 14.0392 19.6862 13.816C19.8157 13.594 20.0642 13.4121 20.2383 13.4121C20.4124 13.4121 20.5876 13.332 20.6311 13.237C20.6724 13.1432 21.2141 12.8045 21.8326 12.4864C22.4522 12.1683 23.0112 11.7701 23.0788 11.6019C23.1532 11.4108 23.4017 11.3455 23.7419 11.4314C24.1428 11.5321 24.2516 11.4851 24.1611 11.2483C24.0706 11.0126 24.1897 10.9576 24.6296 11.0412C24.9525 11.1029 25.2194 11.246 25.2194 11.3593C25.2194 11.4726 25.0751 11.5629 24.8987 11.5629C24.7223 11.5629 24.515 11.7186 24.4429 11.9097C24.3707 12.0985 24.1451 12.2564 23.9412 12.2564C23.7373 12.2564 23.6423 12.1454 23.7305 12.0024C23.8267 11.8479 23.7305 11.7804 23.4739 11.8296C23.246 11.873 23.0135 12.0516 22.9539 12.2301C22.884 12.4418 22.9539 12.4967 23.1669 12.388C23.3422 12.2976 23.1223 12.5459 22.6802 12.9361C22.2369 13.3297 21.7433 13.6009 21.5829 13.5391C21.4249 13.4773 21.3035 13.5025 21.3195 13.5929C21.3344 13.6833 21.3321 13.8881 21.3195 14.0449C21.3035 14.2051 21.1282 14.3355 20.9312 14.3355C20.709 14.3355 20.6334 14.2268 20.7365 14.0449C20.8316 13.8767 20.8144 13.8378 20.6918 13.9499C20.5762 14.0563 20.4719 14.2108 20.4616 14.2966C20.4456 14.3825 20.3597 14.6331 20.2623 14.855C20.1638 15.077 19.9955 15.2613 19.8844 15.2613C19.7733 15.2613 19.7366 15.0782 19.7962 14.855C19.8603 14.6331 19.7572 14.7612 19.5683 15.1445C19.3816 15.5256 19.2258 15.7087 19.2189 15.5485C19.2029 15.3906 19.117 15.2613 19.0082 15.2613C18.8994 15.2613 18.8341 15.5073 18.8685 15.8094C18.9188 16.2522 18.8398 16.3369 18.4905 16.2465C18.2419 16.1824 18.0507 16.2488 18.0507 16.4021C18.0507 16.5554 17.9247 16.6012 17.7632 16.5085C17.6028 16.4181 17.5536 16.4307 17.6498 16.5371C17.746 16.6436 17.5467 17.0235 17.202 17.3828C16.8572 17.7421 16.4667 18.0396 16.3315 18.0453C16.1941 18.0533 15.8757 18.3199 15.6225 18.6403C15.366 18.963 14.4027 19.9906 13.4807 20.9243C12.5599 21.858 11.8028 22.7346 11.8028 22.8719C11.8028 23.0092 11.7249 23.1202 11.6287 23.1202C11.5325 23.1202 11.1419 23.6168 10.7617 24.2198C10.3814 24.8229 9.88435 25.5003 9.66101 25.7234C9.43766 25.9465 9.2567 26.2338 9.2567 26.3596C9.2567 26.4855 8.96693 26.9936 8.6153 27.4799C8.26025 27.9662 7.76775 28.8256 7.52264 29.3863C7.2741 29.9447 7.01754 30.4573 6.95111 30.5191C6.88354 30.5843 6.70486 30.8944 6.55711 31.2125C6.40707 31.5306 6.10585 32.2859 5.88938 32.8889C5.66718 33.5079 5.34534 33.9885 5.15979 33.9885C4.97424 33.9885 4.86429 33.8226 4.91583 33.5823C4.96508 33.3603 5.12887 33.2047 5.2812 33.2356C5.43124 33.2699 5.55608 33.1887 5.55608 33.0617C5.55608 32.9347 5.34992 32.8317 5.09221 32.8317C4.81504 32.8317 4.62033 32.993 4.60544 33.2356C4.5917 33.4576 4.5665 33.9519 4.54817 34.3353C4.52527 34.8239 4.61002 35.0081 4.84253 34.9589C5.09909 34.9017 5.11169 34.9589 4.90209 35.2129C4.74403 35.4017 4.64095 36.2325 4.65698 37.1914C4.67187 38.2579 4.7761 38.8472 4.94446 38.8472C5.13688 38.8494 5.13688 38.8964 4.93187 39.0234C4.74059 39.1424 4.71998 39.5074 4.862 40.2592C4.97195 40.8439 5.08191 41.8841 5.11054 42.5695C5.13917 43.2526 5.25829 44.1269 5.37282 44.5068C5.48965 44.8901 5.74506 45.5137 5.94435 45.8936C6.14364 46.2758 6.62583 46.9258 7.0164 47.34C7.40467 47.7542 7.84792 48.0918 8.00025 48.0918C8.15258 48.0918 8.33469 48.2417 8.40341 48.4259C8.47328 48.6102 8.95547 48.8733 9.47088 49.0129C9.98628 49.1503 10.4078 49.3517 10.4078 49.4581C10.4078 49.5645 10.7468 49.7213 11.1603 49.8094C11.5714 49.8975 12.3801 50.0165 12.9527 50.076C13.5243 50.1355 14.2057 50.2293 14.4669 50.2865C14.7257 50.3437 16.9649 50.3929 19.4411 50.3929C21.9174 50.3929 24.1531 50.3826 24.4074 50.3666C24.6616 50.3529 25.0029 50.3563 25.1656 50.3746C25.3855 50.3975 25.3672 50.5451 25.0877 50.972C24.8838 51.2821 24.7246 51.5944 24.7361 51.6654C24.751 51.7352 24.7532 51.8954 24.7532 52.0224C24.7532 52.1494 24.6399 52.2558 24.499 52.2558C24.3581 52.2558 24.3043 52.0899 24.3833 51.8885C24.4738 51.6551 24.4165 51.5601 24.2333 51.6242C24.0752 51.6814 23.9698 51.9503 23.9996 52.2226C24.0305 52.4973 23.9458 52.7193 23.8129 52.7193C23.6801 52.7193 23.64 52.8337 23.727 52.9733C23.8381 53.1518 23.7488 53.1518 23.4006 52.9676C23.002 52.7524 22.7615 52.8177 21.9953 53.3475C21.4844 53.6988 21.0687 54.0638 21.0606 54.1599C21.0446 54.2549 21.1557 54.3327 21.2828 54.3327C21.41 54.3327 21.5131 54.2469 21.5131 54.1382C21.5131 54.0295 21.7902 53.8201 22.1293 53.6644C22.7351 53.3898 22.7374 53.3932 22.3915 53.9185C22.1968 54.2114 21.8429 54.4883 21.6013 54.5341C21.363 54.581 20.8167 54.9243 20.3895 55.2996C19.9657 55.6749 19.5488 55.9129 19.4652 55.8306C19.385 55.7505 19.5236 55.5273 19.7779 55.3397C20.0344 55.1509 20.3963 54.9071 20.5853 54.7984C20.7743 54.6897 20.8705 54.5398 20.7972 54.4677C20.7228 54.3922 20.2875 54.6211 19.826 54.9701C19.2796 55.3843 19.0288 55.7413 19.1044 55.9919C19.1662 56.2036 19.117 56.4393 18.9899 56.5171C18.865 56.5915 18.6554 56.4736 18.5271 56.2459C18.3943 56.0239 18.2706 55.9152 18.2523 56.0102C18.2316 56.1063 18.1996 56.3157 18.1824 56.4737C18.1618 56.6316 17.9705 56.7323 17.7506 56.6968C17.4757 56.6499 17.3978 56.738 17.4917 56.984C17.5719 57.1945 17.5066 57.3513 17.3154 57.3662C17.1424 57.3822 16.8423 57.3799 16.6453 57.3616C16.4323 57.3433 16.1689 57.6591 15.9925 58.1477C15.8298 58.5986 15.6122 58.9133 15.5057 58.8515C15.4026 58.7862 15.2652 58.9419 15.1976 59.1925C15.1323 59.4465 14.98 59.6525 14.8609 59.6525C14.7418 59.6525 14.5287 59.4179 14.3924 59.133C14.1828 58.7016 14.1382 58.6833 14.1256 59.03C14.1107 59.26 14.0007 59.3847 13.8713 59.3046C13.7419 59.2222 13.6491 59.2428 13.6674 59.3492C13.6858 59.4522 13.688 59.6639 13.6823 59.8195C13.6674 59.9774 13.5014 60.0415 13.3124 59.9694C13.1257 59.8996 12.813 59.998 12.6194 60.1914C12.4144 60.3962 12.332 60.7109 12.4224 60.9444C12.5461 61.267 12.4797 61.3197 12.072 61.2133C11.7971 61.1435 11.6264 61.1744 11.6963 61.2854C11.7662 61.3998 11.3229 61.8037 10.7124 62.1859C10.1043 62.5692 9.48004 62.837 9.32771 62.7832C9.17423 62.726 9.0975 62.8061 9.15133 62.9594C9.20859 63.1116 8.89248 63.4709 8.44923 63.7558C8.00598 64.0431 7.55357 64.2753 7.44476 64.2753C7.33595 64.2753 7.05305 64.4893 6.81825 64.7491C6.44029 65.1656 6.43685 65.2034 6.78504 65.0695C7.08283 64.955 7.14468 65.01 7.03587 65.2915C6.95799 65.4963 6.97058 65.6645 7.06908 65.6645C7.16758 65.6645 7.56846 65.4185 7.96245 65.1175C8.35645 64.8177 8.93829 64.4939 9.2567 64.4012C9.80074 64.2387 9.79043 64.2696 9.08261 64.931C8.66799 65.3189 8.33011 65.6943 8.33011 65.7641C8.33011 65.8339 8.4183 65.8934 8.52482 65.8934C8.63134 65.8934 9.0219 65.5833 9.39185 65.2057C9.7618 64.828 10.1821 64.5202 10.3219 64.5122C10.4593 64.5099 10.7823 64.3234 11.0366 64.1014C11.2908 63.8794 11.4477 63.5499 11.3859 63.3691C11.2908 63.0842 11.3263 63.0842 11.6482 63.3691C11.9838 63.6666 11.9483 63.757 11.2748 64.3314C10.8659 64.6804 10.3482 65.1221 10.126 65.3144C9.90267 65.5054 9.61519 65.6634 9.4892 65.6634C9.36322 65.6634 9.25784 65.7435 9.25784 65.8442C9.25784 65.9449 8.93715 66.2138 8.54315 66.4472C8.14915 66.6806 7.55929 67.1692 7.23058 67.5365C6.90415 67.9039 6.5365 68.206 6.41738 68.206C6.29827 68.206 5.87334 68.4646 5.47247 68.7838C5.07389 69.1042 4.58941 69.4978 4.39813 69.6638C4.20686 69.8297 3.75559 70.1467 3.39596 70.3744C3.03403 70.5998 2.79236 70.8401 2.85993 70.9076C2.92636 70.974 3.27455 70.8218 3.6319 70.5712C3.98924 70.3171 4.47831 70.0723 4.72112 70.0254C4.96279 69.9784 5.27318 69.7324 5.4152 69.4761C5.55493 69.2232 5.68894 68.9772 5.71299 68.9337C5.7359 68.8902 5.86303 68.9188 5.99131 68.9989C6.12417 69.0813 6.15281 69.3479 6.0566 69.6123C5.95924 69.8709 5.62709 70.2222 5.31327 70.3984C4.99944 70.5723 4.4073 70.8893 3.99268 71.1044C3.57807 71.3195 3.24133 71.5884 3.24133 71.6994C3.24133 71.8104 3.03173 72.1137 2.77747 72.3666C2.5232 72.6206 2.21854 72.83 2.10171 72.83C1.98489 72.83 1.84286 72.9593 1.78903 73.1195C1.73177 73.2774 1.87608 73.6779 2.10973 74.012C2.34338 74.3439 2.45906 74.6871 2.37087 74.7753C2.28611 74.8634 2.35827 75.0293 2.54725 75.1426C2.76945 75.2799 3.01799 75.225 3.28257 74.987C3.54943 74.7455 3.88845 74.6734 4.29276 74.7775C4.68676 74.876 4.84711 74.8451 4.7509 74.6872C4.66042 74.5418 4.87803 74.4457 5.30983 74.4457C5.6981 74.4457 6.01651 74.3427 6.01651 74.2157C6.01651 74.0887 6.15395 73.9857 6.32461 73.9857C6.49527 73.9857 6.88125 73.7191 7.18476 73.3953C7.71277 72.8346 7.75629 72.8266 8.05523 73.2202C8.28086 73.5234 8.34729 73.5429 8.29575 73.2923C8.25681 73.1012 8.4309 72.7098 8.67601 72.4238C8.92455 72.1388 9.28762 71.9088 9.48119 71.9088C9.78928 71.9111 9.79158 71.9397 9.49608 72.1263C9.30938 72.2453 9.22692 72.4135 9.3174 72.5039C9.40559 72.592 9.63581 72.5325 9.82708 72.3746C10.0195 72.2144 10.1226 71.9947 10.055 71.8882C9.99087 71.7795 10.1535 71.4717 10.4181 71.2085C10.6849 70.9419 11.0778 70.7428 11.2954 70.7634C11.5107 70.784 11.8085 70.7897 11.9551 70.776C12.1006 70.7611 12.1705 70.5517 12.1052 70.3103C12.009 69.9384 12.1201 69.8709 12.8279 69.8709C13.2883 69.8709 13.8198 69.7439 14.0053 69.5882C14.1943 69.4338 14.3478 69.2026 14.3478 69.079C14.3478 68.9555 14.192 68.9108 14.0007 68.9829C13.8095 69.0562 13.6537 69.0173 13.6537 68.8925C13.6537 68.7678 13.7648 68.6671 13.8999 68.6671C14.0351 68.6671 14.3455 68.7735 14.5883 68.9051C14.9399 69.0916 15.0911 69.0447 15.3236 68.6728C15.4851 68.4165 15.7279 68.2071 15.8654 68.2071C16.0028 68.2071 16.4655 67.8947 16.8939 67.5114C17.3211 67.1303 17.8617 66.8179 18.0919 66.8179C18.3221 66.8179 18.5145 66.7035 18.5145 66.5616C18.5145 66.4197 18.6749 66.3671 18.8719 66.4449C19.0792 66.5227 19.172 66.4838 19.0918 66.3545C19.0116 66.2275 19.0712 66.1245 19.2212 66.1245C19.3713 66.1245 19.4434 65.9334 19.3793 65.6874C19.2751 65.2972 19.3426 65.2709 19.9771 65.454C20.425 65.581 20.78 65.573 20.9221 65.4276C21.0721 65.2777 21.0515 65.1999 20.8602 65.1999C20.6999 65.1999 20.622 65.1118 20.6896 65.0054C20.7548 64.899 21.1225 64.8612 21.5085 64.915C22.088 65.0008 22.2461 64.9207 22.4248 64.4493C22.5462 64.1357 22.9871 63.662 23.4086 63.3965C23.8278 63.1322 24.2321 63.0086 24.3043 63.1253C24.3776 63.2444 24.6147 63.1322 24.83 62.8793C25.0476 62.6253 25.2263 62.3095 25.2263 62.1779C25.2263 62.0463 25.3202 61.9914 25.4336 62.0612C25.5481 62.1333 25.7005 62.0348 25.7726 61.8438C25.8459 61.6549 26.1174 61.4993 26.3762 61.4993C26.6351 61.4993 26.8195 61.3757 26.7874 61.2236C26.7565 61.0702 27.0417 60.8871 27.4242 60.8139C27.8881 60.7235 28.0232 60.6194 27.8262 60.4958C27.6659 60.3951 27.5857 60.2246 27.6521 60.1182C27.7174 60.0118 27.9705 59.9763 28.2111 60.0369C28.5214 60.1193 28.7001 60.0015 28.8147 59.6387C28.9406 59.2371 29.0242 59.1936 29.1823 59.4442C29.2911 59.6204 29.3862 59.6845 29.3862 59.5895C29.3862 59.4945 29.3736 59.3561 29.3736 59.284C29.3575 59.2108 29.6244 58.9213 29.9508 58.6398C30.2773 58.3606 30.543 57.9978 30.543 57.8353C30.543 57.6729 30.6232 57.5893 30.7194 57.6488C30.8179 57.7083 31.1019 57.5996 31.3562 57.4062C31.6563 57.1728 31.7215 57.016 31.5394 56.9485C31.3894 56.8913 31.3195 56.6956 31.3894 56.5137C31.4593 56.3329 31.6013 56.2345 31.7021 56.2997C31.8063 56.3615 32.0594 56.3489 32.2667 56.2688C32.474 56.1887 32.6058 56.0068 32.5565 55.866C32.5073 55.7207 32.6676 55.4289 32.9138 55.2115C33.1601 54.9964 33.2895 54.7046 33.2013 54.5593C33.1074 54.4094 33.2449 54.2492 33.5243 54.1736C33.7912 54.1061 33.9607 53.9688 33.9 53.8738C33.8427 53.7777 33.9985 53.5145 34.2493 53.2868C34.5013 53.0591 34.7086 52.7307 34.7086 52.5522C34.7086 52.3737 34.9125 52.0132 35.1645 51.7455C35.413 51.4766 35.5711 51.1814 35.5138 51.0887C35.4565 50.9983 35.5756 50.584 35.7841 50.1755C36.0739 49.5965 36.091 49.386 35.8711 49.2487C35.6673 49.1251 35.6592 49.029 35.8425 48.9157C36.0006 48.8173 36.0933 47.951 36.0865 46.6306C36.0704 45.4645 36.0132 44.1578 35.941 43.7332C35.8505 43.2057 35.7463 43.0558 35.618 43.2652C35.468 43.5032 35.3099 43.4598 34.8793 43.0558C34.5792 42.7743 34.2161 42.5409 34.0787 42.5409C33.9412 42.5409 33.8748 42.3109 33.9366 42.0202C34.0466 41.5133 34.0409 41.511 33.6835 41.9504C33.4705 42.2136 33.3216 42.2766 33.3216 42.1026C33.3216 41.9402 33.191 41.852 33.0341 41.9035C32.8761 41.9573 32.6401 41.7925 32.5141 41.5362C32.3847 41.2822 32.1591 41.0339 32.009 40.9847C31.8613 40.9355 31.6746 41.1037 31.5921 41.36C31.5016 41.6415 31.3149 41.7742 31.1111 41.6941C30.9267 41.6243 30.7766 41.4229 30.7766 41.2444C30.7766 41.0659 30.6965 40.9149 30.6037 40.9057C30.5052 40.8954 30.2383 40.8519 30.0058 40.8073C29.7286 40.7558 29.6256 40.8325 29.7023 41.0373C29.7928 41.273 29.5706 41.3394 28.7929 41.3085C28.2282 41.2879 27.7678 41.1998 27.7678 41.114C27.7678 41.0282 27.8972 40.9046 28.0553 40.8371C28.2156 40.7707 27.9831 40.7158 27.5353 40.7078C27.0898 40.702 25.3213 40.6872 23.6022 40.6711C21.883 40.6528 20.244 40.6975 19.9565 40.7673C19.6713 40.8371 19.4365 40.8165 19.4365 40.7181C19.4365 40.6197 18.7608 40.3999 17.9316 40.2283C17.1058 40.0555 16.4277 39.8507 16.4277 39.7729C16.4277 39.6951 16.1941 39.3335 15.9066 38.9662C15.6225 38.5989 15.2045 38.1068 14.9823 37.8745C14.736 37.6182 14.578 37.0964 14.578 36.5426C14.578 36.0437 14.6822 35.3605 14.8082 35.0264C14.9353 34.6923 15.1163 34.468 15.2125 34.5275C15.3087 34.587 15.4026 34.3822 15.4198 34.0744C15.4404 33.7666 15.5802 33.3603 15.7359 33.175C15.8906 32.9884 16.1001 32.8843 16.2021 32.9495C16.3029 33.0113 16.3338 32.8591 16.2662 32.6131C16.1941 32.3259 16.3601 31.9506 16.7278 31.5867C17.0428 31.2686 17.36 31.0615 17.4242 31.129C17.4895 31.1942 17.6143 31.0283 17.6968 30.764C17.7838 30.4928 17.9602 30.3497 18.1057 30.4378C18.2683 30.5385 18.3049 30.4539 18.2064 30.1975C18.1148 29.9618 18.1446 29.8588 18.2809 29.9412C18.4057 30.019 18.5088 29.9149 18.5088 29.7089C18.5088 29.503 18.6199 29.4034 18.7574 29.4892C18.8914 29.5716 19.0609 29.4217 19.1307 29.1551C19.2006 28.8862 19.3506 28.6688 19.4617 28.6688C19.5728 28.6688 19.6736 28.4365 19.6851 28.1493C19.7 27.8621 19.7572 27.7637 19.8237 27.9273C19.9119 28.1493 20.023 28.1607 20.2543 27.9685C20.425 27.8266 20.5109 27.536 20.441 27.322C20.3379 26.9936 20.3551 26.9856 20.5659 27.2831C20.7755 27.5783 20.8717 27.544 21.2153 27.0554C21.4386 26.7418 21.9483 26.1674 22.3549 25.7852C22.7592 25.3996 23.5174 24.6856 24.0408 24.1992C24.5631 23.7106 24.9342 23.2163 24.8609 23.0996C24.791 22.9829 24.8769 22.8902 25.0476 22.8902C25.2183 22.8902 25.618 22.6545 25.9261 22.3707C26.2319 22.0835 26.5732 21.8477 26.682 21.8477C26.7908 21.8477 27.0268 21.6486 27.2054 21.4038C27.3841 21.16 27.5788 21.0055 27.6361 21.0616C27.6956 21.1188 27.5823 21.5273 27.3875 21.969C27.1928 22.4119 26.8355 23.2186 26.5927 23.7621C26.3487 24.3079 26.1494 24.9579 26.1494 25.2085C26.1494 25.4591 26.3018 25.6628 26.4885 25.6628C26.7496 25.6628 26.7965 25.839 26.6854 26.3928C26.5537 27.0519 26.587 27.1126 27.0302 26.9959C27.2994 26.9261 27.6258 26.9936 27.7529 27.148C27.8823 27.3014 27.9339 27.7145 27.8686 28.0669C27.8022 28.4422 27.8457 28.6493 27.9751 28.5692C28.0977 28.4949 28.2649 28.1218 28.3485 27.7419C28.431 27.3643 28.6486 27.0508 28.833 27.0508C29.0174 27.0508 29.361 27.1744 29.6004 27.3254C29.944 27.5394 30.102 27.5279 30.3517 27.2659C30.5224 27.0851 30.6644 26.7281 30.6644 26.4741C30.6644 26.22 30.7961 26.0392 30.9645 26.0724C31.1305 26.1056 31.4203 25.982 31.607 25.7932C31.796 25.6067 32.0777 25.5037 32.2335 25.5632C32.3996 25.625 32.6894 25.2783 32.9219 24.7405C33.1418 24.2301 33.3239 23.6568 33.3239 23.468C33.3239 23.2792 33.4041 23.1213 33.5048 23.1213C33.6056 23.1213 33.8908 22.6304 34.1417 22.0331C34.3925 21.4335 35.0556 20.0547 35.6146 18.9676C36.1712 17.884 36.8344 16.6058 37.0829 16.1275C37.3337 15.6515 37.6315 15.2006 37.7461 15.132C37.8595 15.0622 37.9522 14.8013 37.9522 14.5552C37.9522 14.3092 38.0404 14.1078 38.1492 14.1078C38.258 14.1078 38.691 13.4304 39.1102 12.602C39.6153 11.6087 39.999 11.1167 40.2372 11.1556C40.4445 11.1922 40.6301 11.0206 40.677 10.7551C40.7412 10.374 40.7125 10.3534 40.5144 10.6384C40.3815 10.8295 40.2704 10.8993 40.2704 10.7963C40.2704 10.6933 40.3769 10.4026 40.5121 10.1543C40.6438 9.90374 40.8328 9.74812 40.929 9.80762C41.0218 9.86713 41.0813 9.6131 41.0561 9.24349C41.0298 8.87618 41.1626 8.44708 41.3516 8.29145C41.6231 8.06603 41.7342 8.07633 41.9002 8.34066C42.0171 8.52374 42.1156 8.56265 42.1156 8.42877C42.1156 8.29489 41.9884 8.05344 41.8304 7.89096C41.5967 7.65066 41.6254 7.60946 41.9781 7.67125C42.2221 7.71245 42.4672 7.60489 42.5302 7.42867C42.6001 7.23185 42.5451 7.17006 42.3801 7.26847C42.2381 7.35658 42.119 7.37946 42.119 7.31996C42.119 7.26046 42.1831 7.04533 42.261 6.84394C42.3366 6.64483 42.505 6.54414 42.631 6.62424C42.773 6.71235 42.8051 6.58075 42.7054 6.27523C42.6195 6.00633 42.6482 5.78319 42.773 5.78319C42.8978 5.78319 43.104 5.16757 43.2369 4.41463C43.3686 3.6617 43.4178 2.46478 43.3457 1.75533C43.2346 0.688857 43.1567 0.511493 42.8921 0.727762C42.7169 0.875374 42.505 0.926867 42.4237 0.846767C42.3435 0.766668 42.1396 0.815872 41.9678 0.957762C41.7399 1.14886 41.6574 1.14886 41.6574 0.957762C41.6574 0.815872 41.4432 0.699155 41.181 0.699155C40.9187 0.699155 40.7698 0.59617 40.8477 0.465722C40.9256 0.338707 40.9347 0.235722 40.8683 0.235722H40.8603L40.8591 0.231145ZM37.2169 0.47602C37.178 0.460001 37.0463 0.545822 36.7817 0.719752C36.4839 0.918857 36.1987 1.20149 36.1506 1.35139C36.0933 1.51388 36.2021 1.56309 36.4324 1.47612C36.6374 1.39831 36.9226 1.11338 37.0669 0.846767C37.1917 0.61219 37.2536 0.49204 37.2181 0.477165L37.2169 0.47602ZM41.0744 0.921145C41.1363 0.921145 41.1913 0.972638 41.1913 1.03672C41.1913 1.1008 41.1374 1.15 41.0744 1.15C41.0115 1.15 40.9611 1.09851 40.9611 1.03672C40.9611 0.974927 41.0137 0.921145 41.0744 0.921145ZM40.1502 1.15115C40.212 1.15115 40.2647 1.20264 40.2647 1.26786C40.2647 1.33309 40.212 1.38458 40.1502 1.38458C40.0849 1.38458 40.0333 1.3308 40.0333 1.26786C40.0333 1.20493 40.0849 1.15115 40.1502 1.15115ZM35.6054 1.61916C35.4302 1.61916 34.8964 2.14438 34.42 2.78632C33.9435 3.42826 33.553 4.0416 33.553 4.1503C33.553 4.25901 33.3949 4.40433 33.2048 4.47642C33.0135 4.5508 32.8577 4.71672 32.8577 4.84831C32.8577 4.97991 32.9356 5.08632 33.0307 5.07831C33.1269 5.07603 33.5667 4.58971 34.0145 3.99926C34.4601 3.40767 34.9285 2.8115 35.0556 2.67533C35.1828 2.53801 35.429 2.24393 35.6043 2.02309C35.8746 1.67866 35.8746 1.61916 35.6043 1.61916H35.6054ZM38.195 1.84458C38.3302 1.84458 38.376 1.951 38.2981 2.07801C38.218 2.20388 38.1091 2.30801 38.0519 2.30801C37.9946 2.30801 37.9499 2.20503 37.9499 2.07801C37.9499 1.951 38.0588 1.84458 38.1939 1.84458H38.195ZM37.3715 3.92717C37.4368 3.92717 37.4884 3.97866 37.4884 4.0416C37.4884 4.10453 37.4368 4.15717 37.3715 4.15717C37.3063 4.15717 37.2559 4.10568 37.2559 4.0416C37.2559 3.97752 37.3074 3.92717 37.3715 3.92717ZM38.0656 4.6206C38.1309 4.6206 38.1824 4.6721 38.1824 4.73617C38.1824 4.80025 38.1309 4.8506 38.0656 4.8506C38.0003 4.8506 37.9511 4.79911 37.9511 4.73617C37.9511 4.67324 38.0026 4.6206 38.0656 4.6206ZM32.6825 5.31861C32.5874 5.31861 32.3767 5.52573 32.2163 5.77976C32.0583 6.03493 32.0113 6.24205 32.1155 6.24205C32.2198 6.24205 32.4259 6.11732 32.5794 5.96513C32.7317 5.8118 32.8589 5.60239 32.8589 5.5017C32.8589 5.401 32.7787 5.31747 32.6825 5.31747V5.31861ZM35.0568 6.4709C35.1221 6.4709 35.1736 6.5224 35.1736 6.58648C35.1736 6.65056 35.1221 6.69976 35.0568 6.69976C34.9915 6.69976 34.9434 6.64827 34.9434 6.58648C34.9434 6.52468 34.9949 6.4709 35.0568 6.4709ZM30.3128 7.39891C30.1833 7.39891 30.0791 7.5019 30.0791 7.62892C30.0791 7.75593 30.1833 7.8612 30.3128 7.8612C30.4422 7.8612 30.543 7.75479 30.543 7.62892C30.543 7.50304 30.4365 7.39891 30.3128 7.39891ZM34.1325 8.08663C34.1943 8.08663 34.2482 8.14041 34.2482 8.20334C34.2482 8.26628 34.1943 8.32006 34.1325 8.32006C34.0672 8.32006 34.0157 8.26742 34.0157 8.20334C34.0157 8.13926 34.0695 8.08663 34.1325 8.08663ZM31.5875 9.24349C31.6517 9.24349 31.7009 9.29728 31.7009 9.36021C31.7009 9.42315 31.6494 9.47693 31.5875 9.47693C31.5257 9.47693 31.4707 9.42544 31.4707 9.36021C31.4707 9.29499 31.5245 9.24349 31.5875 9.24349ZM27.6533 10.1692C27.7151 10.1692 27.7678 10.2207 27.7678 10.2825C27.7678 10.3477 27.7163 10.3992 27.6533 10.3992C27.5903 10.3992 27.5364 10.3477 27.5364 10.2825C27.5364 10.2207 27.5891 10.1692 27.6533 10.1692ZM22.6389 12.3857C22.5691 12.3628 22.403 12.42 22.2117 12.539C21.9575 12.6969 21.7513 12.9063 21.7513 13.0013C21.7513 13.0963 21.8338 13.1775 21.9345 13.1775C22.0353 13.1775 22.2449 13.0528 22.3984 12.9006C22.5507 12.7473 22.6744 12.5379 22.6744 12.4337C22.6744 12.4109 22.6618 12.3926 22.6389 12.3845V12.3857ZM39.684 12.4852C39.6222 12.4852 39.5672 12.5367 39.5672 12.6008C39.5672 12.6649 39.621 12.7141 39.684 12.7141C39.747 12.7141 39.7997 12.6626 39.7997 12.6008C39.7997 12.539 39.7458 12.4852 39.684 12.4852ZM22.7936 13.4052C22.8588 13.4052 22.9069 13.4567 22.9069 13.522C22.9069 13.5872 22.8554 13.6364 22.7936 13.6364C22.7317 13.6364 22.6767 13.5849 22.6767 13.522C22.6767 13.459 22.7294 13.4052 22.7936 13.4052ZM21.3848 14.6056C21.4111 14.6113 21.442 14.6285 21.4856 14.6548C21.631 14.7452 21.7524 14.8642 21.7524 14.9214C21.7524 14.9786 21.7055 15.0255 21.6494 15.0255C21.5932 15.0255 21.473 14.9042 21.3825 14.7555C21.308 14.6342 21.308 14.5804 21.3825 14.6056H21.3848ZM20.0413 15.5656C20.0699 15.5714 20.0986 15.584 20.1318 15.6023C20.2578 15.6824 20.3643 15.7911 20.3643 15.8483C20.3643 15.9055 20.2612 15.949 20.1318 15.949C20.0023 15.949 19.9016 15.8403 19.9016 15.7064C19.9016 15.6034 19.9588 15.5531 20.0436 15.5668H20.0413V15.5656ZM18.1641 16.8747C18.2282 16.8747 18.2809 16.9262 18.2809 16.988C18.2809 17.0532 18.2271 17.1047 18.1641 17.1047C18.1011 17.1047 18.0495 17.0532 18.0495 16.988C18.0495 16.9262 18.1011 16.8747 18.1641 16.8747ZM18.8581 17.3347C18.9223 17.3347 18.9738 17.3885 18.9738 17.4514C18.9738 17.5144 18.9223 17.567 18.8581 17.567C18.794 17.567 18.7436 17.5155 18.7436 17.4514C18.7436 17.3873 18.7952 17.3347 18.8581 17.3347ZM16.5457 18.4916C16.6075 18.4916 16.6591 18.5431 16.6591 18.6083C16.6591 18.6735 16.6075 18.725 16.5457 18.725C16.4838 18.725 16.43 18.6712 16.43 18.6083C16.43 18.5453 16.4816 18.4916 16.5457 18.4916ZM26.2399 22.6956C26.1861 22.6876 26.1471 22.7597 26.1471 22.8867C26.1471 23.055 26.217 23.1248 26.2995 23.0389C26.3854 22.9565 26.3854 22.8158 26.2995 22.7311C26.2789 22.7105 26.2582 22.7002 26.2399 22.6956ZM32.0503 23.8102C32.1121 23.8102 32.1648 23.8617 32.1648 23.9269C32.1648 23.9921 32.1133 24.0413 32.0503 24.0413C31.9873 24.0413 31.9334 23.9898 31.9334 23.9269C31.9334 23.864 31.985 23.8102 32.0503 23.8102ZM28.5569 23.8514C28.5753 23.8514 28.5959 23.8662 28.6165 23.8868C28.7024 23.9692 28.7024 24.1088 28.6165 24.1947C28.5306 24.2805 28.4619 24.2107 28.4619 24.0402C28.4619 23.9132 28.5031 23.8434 28.5569 23.8514ZM23.3708 24.0528C23.4281 24.0528 23.4853 24.0768 23.5266 24.118C23.6125 24.2038 23.5392 24.2725 23.3708 24.2725C23.2024 24.2725 23.1326 24.2027 23.2185 24.118C23.2597 24.0768 23.3147 24.0528 23.3708 24.0528ZM27.1905 24.5036C27.2558 24.5036 27.3039 24.5551 27.3039 24.6203C27.3039 24.6856 27.2524 24.7348 27.1905 24.7348C27.1287 24.7348 27.0737 24.6833 27.0737 24.6203C27.0737 24.5574 27.1253 24.5036 27.1905 24.5036ZM27.1905 24.9659C27.2558 24.9659 27.3039 25.0174 27.3039 25.0803C27.3039 25.1433 27.2524 25.197 27.1905 25.197C27.1287 25.197 27.0737 25.1456 27.0737 25.0803C27.0737 25.0151 27.1253 24.9659 27.1905 24.9659ZM27.6533 24.9659C27.7151 24.9659 27.7678 25.0174 27.7678 25.0803C27.7678 25.1433 27.7163 25.197 27.6533 25.197C27.5903 25.197 27.5364 25.1456 27.5364 25.0803C27.5364 25.0151 27.5891 24.9659 27.6533 24.9659ZM31.3539 25.197C31.4192 25.197 31.4707 25.2485 31.4707 25.3138C31.4707 25.3756 31.4192 25.427 31.3539 25.427C31.2886 25.427 31.2394 25.3744 31.2394 25.3138C31.2394 25.2485 31.2909 25.197 31.3539 25.197ZM27.848 25.5541C27.9133 25.5277 28.0301 25.5872 28.2317 25.7143C28.4859 25.8722 28.6955 26.0816 28.6955 26.1777C28.6955 26.2738 28.4859 26.3539 28.2317 26.3539C27.9236 26.3539 27.7678 26.1994 27.7678 25.8882C27.7678 25.6857 27.7827 25.5781 27.848 25.5541ZM10.7582 26.8162C10.8235 26.8162 10.8751 26.8677 10.8751 26.9306C10.8751 26.9936 10.8235 27.0473 10.7582 27.0473C10.693 27.0473 10.6449 26.9959 10.6449 26.9306C10.6449 26.8654 10.6964 26.8162 10.7582 26.8162ZM7.35084 26.8322C7.26837 26.8379 7.16758 26.8585 7.07138 26.894C6.87667 26.9695 6.77358 27.1766 6.84345 27.3574C6.90988 27.536 6.8068 27.7454 6.60751 27.8209C6.40822 27.8953 6.24787 28.0944 6.24787 28.2637C6.24787 28.4331 6.04056 28.972 5.79202 29.4606C5.54119 29.9527 5.39802 30.4539 5.47362 30.5763C5.5515 30.701 5.46102 30.8967 5.29265 31.0191C5.0464 31.1873 5.07274 31.2205 5.40604 31.1668C5.71643 31.1153 5.96726 30.6724 6.29941 29.5991C6.55024 28.7729 6.95799 27.8472 7.2008 27.5394C7.44476 27.2316 7.59251 26.9283 7.53295 26.8688C7.50203 26.8402 7.43674 26.8276 7.35428 26.8334H7.35199L7.35084 26.8322ZM26.753 27.2796C26.6877 27.2796 26.5709 27.3826 26.4942 27.5096C26.4163 27.6367 26.4037 27.7431 26.4655 27.7431C26.5274 27.7431 26.6477 27.6367 26.7244 27.5096C26.8046 27.3826 26.8172 27.2796 26.753 27.2796ZM10.6162 27.6378C10.6346 27.6458 10.6449 27.6641 10.6449 27.695C10.6449 27.814 10.4868 28.0452 10.2978 28.2019C10.1065 28.3598 9.94963 28.417 9.94963 28.3278C9.94963 28.2385 10.1054 28.0131 10.2978 27.8209C10.4398 27.679 10.5635 27.6115 10.6162 27.6367V27.6378ZM26.264 28.2031C26.1987 28.2031 26.1506 28.2569 26.1506 28.3198C26.1506 28.3827 26.2021 28.4365 26.264 28.4365C26.3258 28.4365 26.3796 28.3839 26.3796 28.3198C26.3796 28.2557 26.3281 28.2031 26.264 28.2031ZM8.90737 29.3588C8.97265 29.3588 9.02419 29.4103 9.02419 29.4755C9.02419 29.5407 8.97265 29.5899 8.90737 29.5899C8.84208 29.5899 8.79283 29.5384 8.79283 29.4755C8.79283 29.4126 8.84437 29.3588 8.90737 29.3588ZM8.65654 31.0203C8.67372 31.0203 8.69548 31.0329 8.71609 31.0535C8.802 31.1393 8.802 31.2789 8.71609 31.3613C8.63019 31.446 8.56033 31.3762 8.56033 31.2079C8.56033 31.0821 8.59927 31.0088 8.65654 31.0169V31.0191V31.0203ZM5.19186 31.9014C5.00746 31.9014 4.85856 32.0593 4.85856 32.2481C4.85856 32.4369 4.90209 32.5982 4.95592 32.5982C5.00975 32.5982 5.21477 32.533 5.41635 32.4586C5.61564 32.3808 5.72216 32.2229 5.65229 32.1085C5.58242 31.9952 5.37512 31.9014 5.19071 31.9014H5.19186ZM16.7759 32.1348C16.7106 32.1348 16.6614 32.1863 16.6614 32.2481C16.6614 32.3133 16.7129 32.3648 16.7759 32.3648C16.8389 32.3648 16.8927 32.3133 16.8927 32.2481C16.8927 32.1829 16.8389 32.1348 16.7759 32.1348ZM8.23161 32.5948C8.29346 32.5948 8.24536 32.8019 8.0999 33.0582C7.96246 33.3123 7.79982 33.5182 7.73453 33.5182C7.67268 33.5182 7.72193 33.3111 7.86968 33.0582C8.00483 32.8019 8.16976 32.5948 8.23161 32.5948ZM5.20446 34.4451C5.26974 34.4451 5.32128 34.4966 5.32128 34.5618C5.32128 34.6271 5.26974 34.6751 5.20446 34.6751C5.13917 34.6751 5.09107 34.6236 5.09107 34.5618C5.09107 34.4966 5.14261 34.4451 5.20446 34.4451ZM4.97424 35.6008C5.03953 35.6008 5.09107 35.6523 5.09107 35.7176C5.09107 35.7793 5.03724 35.832 4.97424 35.832C4.91125 35.832 4.85856 35.7793 4.85856 35.7176C4.85856 35.6523 4.9124 35.6008 4.97424 35.6008ZM6.13104 39.5314C6.19289 39.5314 6.24443 39.5829 6.24443 39.647C6.24443 39.7111 6.19289 39.7637 6.13104 39.7637C6.0692 39.7637 6.01536 39.7099 6.01536 39.647C6.01536 39.5841 6.0692 39.5314 6.13104 39.5314ZM15.8516 39.5314C15.9135 39.5314 15.9661 39.5829 15.9661 39.647C15.9661 39.7111 15.9146 39.7637 15.8516 39.7637C15.7886 39.7637 15.7359 39.7099 15.7359 39.647C15.7359 39.5841 15.7875 39.5314 15.8516 39.5314ZM29.0288 40.6895C28.8295 40.6895 28.731 40.7924 28.8089 40.9194C28.8891 41.0465 29.0529 41.1495 29.172 41.1495C29.2911 41.1495 29.3896 41.0465 29.3896 40.9194C29.3896 40.7924 29.227 40.6895 29.03 40.6895H29.0288ZM30.1994 41.1506C30.2624 41.1506 30.3139 41.2021 30.3139 41.2673C30.3139 41.3325 30.2624 41.3806 30.1994 41.3806C30.1364 41.3806 30.0826 41.3291 30.0826 41.2673C30.0826 41.2021 30.1341 41.1506 30.1994 41.1506ZM21.7536 41.1632C21.8074 41.1632 21.8624 41.1849 21.9059 41.225C21.9918 41.3108 21.9219 41.3795 21.7536 41.3795C21.5852 41.3795 21.5131 41.3097 21.5978 41.225C21.639 41.1838 21.6963 41.1632 21.7536 41.1632ZM26.611 41.1632C26.6683 41.1632 26.7221 41.1849 26.7668 41.225C26.8527 41.3108 26.7828 41.3795 26.611 41.3795C26.4392 41.3795 26.3728 41.3097 26.4575 41.225C26.4988 41.1838 26.556 41.1632 26.611 41.1632ZM25.2228 41.1781C25.3294 41.1781 25.4336 41.1929 25.5138 41.2273C25.6718 41.2925 25.5424 41.344 25.2228 41.344C24.9033 41.344 24.775 41.2925 24.9331 41.2273C25.0132 41.1929 25.1186 41.1781 25.2228 41.1781ZM32.0503 41.3795C32.1121 41.3795 32.1648 41.4321 32.1648 41.4962C32.1648 41.5602 32.1133 41.6106 32.0503 41.6106C31.9873 41.6106 31.9334 41.5591 31.9334 41.4962C31.9334 41.4332 31.985 41.3795 32.0503 41.3795ZM35.1862 42.3063C35.0545 42.3063 34.9434 42.4093 34.9434 42.5363C34.9434 42.6633 34.9881 42.7686 35.0453 42.7686C35.1026 42.7686 35.2137 42.6656 35.2904 42.5363C35.3683 42.4093 35.3214 42.3063 35.1862 42.3063ZM17.47 45.3101C17.5353 45.3101 17.5868 45.3638 17.5868 45.4268C17.5868 45.4897 17.533 45.5435 17.47 45.5435C17.407 45.5435 17.3532 45.492 17.3532 45.4268C17.3532 45.3615 17.407 45.3101 17.47 45.3101ZM7.63603 45.5549C7.68986 45.5549 7.74713 45.5755 7.78836 45.6202C7.87426 45.7025 7.8044 45.7723 7.63603 45.7723C7.46767 45.7723 7.39551 45.7025 7.48141 45.6202C7.52493 45.5755 7.57991 45.5549 7.63603 45.5549ZM30.1994 45.7723C30.2624 45.7723 30.3139 45.8238 30.3139 45.8891C30.3139 45.9543 30.2624 46.0035 30.1994 46.0035C30.1364 46.0035 30.0826 45.952 30.0826 45.8891C30.0826 45.8261 30.1341 45.7723 30.1994 45.7723ZM8.408 46.5562C8.5042 46.5402 8.60729 46.5825 8.65883 46.6706C8.73098 46.7873 8.63363 46.9395 8.4435 47.0116C8.25452 47.0871 8.09646 47.0505 8.09646 46.9338C8.09646 46.8171 8.19496 46.6649 8.31408 46.5928C8.34271 46.5745 8.37364 46.5619 8.408 46.5562ZM10.0939 48.3161C10.1558 48.3161 10.1455 48.4225 10.0653 48.5495C9.98743 48.6754 9.8706 48.7795 9.80647 48.7795C9.74233 48.7795 9.75492 48.6765 9.8351 48.5495C9.91298 48.4191 10.0298 48.3161 10.0939 48.3161ZM34.3627 49.9352C34.428 49.9352 34.4795 49.9879 34.4795 50.0519C34.4795 50.116 34.428 50.1652 34.3627 50.1652C34.3009 50.1652 34.2493 50.1137 34.2493 50.0519C34.2493 49.9902 34.302 49.9352 34.3627 49.9352ZM22.4477 51.1047C22.3904 51.1047 22.3331 51.1276 22.2919 51.1699C22.206 51.2557 22.2793 51.3244 22.4477 51.3244C22.616 51.3244 22.6859 51.2546 22.6 51.1699C22.5588 51.1276 22.5015 51.1047 22.4477 51.1047ZM21.2897 52.0304C21.2325 52.0304 21.1752 52.051 21.134 52.0922C21.048 52.178 21.1214 52.2478 21.2897 52.2478C21.4581 52.2478 21.528 52.178 21.4421 52.0922C21.4008 52.051 21.3435 52.0304 21.2897 52.0304ZM23.4876 52.2478C23.4224 52.2478 23.3708 52.2993 23.3708 52.3634C23.3708 52.4275 23.4246 52.4778 23.4876 52.4778C23.5506 52.4778 23.6022 52.4263 23.6022 52.3634C23.6022 52.3005 23.5506 52.2478 23.4876 52.2478ZM20.2486 52.7113C20.1845 52.7113 20.1329 52.7627 20.1329 52.828C20.1329 52.8898 20.1845 52.9413 20.2486 52.9413C20.3127 52.9413 20.3631 52.8886 20.3631 52.828C20.3631 52.7627 20.3116 52.7113 20.2486 52.7113ZM25.3649 53.4013C25.4301 53.4013 25.4164 53.5077 25.3385 53.6335C25.2583 53.7606 25.1415 53.8635 25.0797 53.8635C25.0178 53.8635 25.0281 53.7606 25.106 53.6335C25.1873 53.5077 25.303 53.4013 25.3649 53.4013ZM17.5994 54.5604C17.4654 54.5604 17.3532 54.6634 17.3532 54.7904C17.3532 54.9174 17.4001 55.0238 17.4562 55.0238C17.5124 55.0238 17.6223 54.9174 17.7025 54.7904C17.7804 54.6645 17.7334 54.5604 17.5994 54.5604ZM23.514 54.7904C23.5793 54.7904 23.5655 54.8945 23.4876 55.0204C23.4075 55.1474 23.2906 55.2504 23.2288 55.2504C23.1669 55.2504 23.1772 55.1474 23.2574 55.0204C23.3353 54.8934 23.4521 54.7904 23.514 54.7904ZM16.3132 55.4838C16.2479 55.4838 16.1998 55.5353 16.1998 55.6006C16.1998 55.6658 16.2513 55.7173 16.3132 55.7173C16.375 55.7173 16.43 55.6658 16.43 55.6006C16.43 55.5353 16.3773 55.4838 16.3132 55.4838ZM15.1552 58.0264C15.0934 58.0264 15.0418 58.0802 15.0418 58.1432C15.0418 58.2061 15.0934 58.2599 15.1552 58.2599C15.2171 58.2599 15.2721 58.2084 15.2721 58.1432C15.2721 58.0779 15.2194 58.0264 15.1552 58.0264ZM25.9169 60.5828C25.9742 60.5828 26.0303 60.6034 26.0715 60.6468C26.1574 60.7327 26.0876 60.8002 25.9169 60.8002C25.7463 60.8002 25.6787 60.7327 25.7646 60.6468C25.8058 60.6034 25.8597 60.5828 25.9169 60.5828ZM13.7682 60.8002C13.8335 60.8002 13.885 60.8517 13.885 60.9157C13.885 60.9798 13.8312 61.0325 13.7682 61.0325C13.7052 61.0325 13.6537 60.981 13.6537 60.9157C13.6537 60.8505 13.7052 60.8002 13.7682 60.8002ZM17.2398 61.4936C17.3016 61.4936 17.3532 61.5474 17.3532 61.6092C17.3532 61.6744 17.3016 61.7259 17.2398 61.7259C17.1779 61.7259 17.1229 61.6744 17.1229 61.6092C17.1229 61.544 17.1768 61.4936 17.2398 61.4936ZM15.2537 61.5222C15.3339 61.5268 15.4015 61.5485 15.4404 61.5863C15.5195 61.6641 15.382 61.7179 15.1369 61.7087C14.8678 61.695 14.8139 61.6412 14.9972 61.5691C15.0796 61.5348 15.1713 61.5199 15.2514 61.5245L15.2537 61.5222ZM12.8978 63.0018C12.939 63.0018 12.9791 63.0098 13.0089 63.0304C13.1486 63.1162 13.1154 63.2501 12.9264 63.3691C12.7534 63.4801 12.5198 63.5705 12.4087 63.5705C12.2976 63.5728 12.3365 63.4206 12.4946 63.2318C12.6114 63.0899 12.7718 63.0018 12.8978 63.0018ZM10.7582 63.1128C10.8235 63.1128 10.8751 63.1643 10.8751 63.2295C10.8751 63.2947 10.8235 63.3439 10.7582 63.3439C10.693 63.3439 10.6449 63.2913 10.6449 63.2295C10.6449 63.1643 10.6964 63.1128 10.7582 63.1128ZM12.1498 64.9619C12.2117 64.9619 12.2632 65.0134 12.2632 65.0786C12.2632 65.1439 12.2117 65.1931 12.1498 65.1931C12.0846 65.1931 12.033 65.1404 12.033 65.0786C12.033 65.0134 12.0846 64.9619 12.1498 64.9619ZM11.686 65.4254C11.7513 65.4254 11.7994 65.4768 11.7994 65.5421C11.7994 65.6073 11.7478 65.6565 11.686 65.6565C11.6241 65.6565 11.5703 65.605 11.5703 65.5421C11.5703 65.4791 11.6241 65.4254 11.686 65.4254ZM6.50443 65.4254C6.39104 65.4254 6.23985 65.573 6.17342 65.7515C6.10356 65.93 6.11043 66.1371 6.18602 66.2126C6.26391 66.2904 6.41165 66.3522 6.51703 66.3522C6.6224 66.3522 6.71174 66.1428 6.71174 65.8888C6.71174 65.6348 6.61667 65.4254 6.50443 65.4254ZM18.3977 65.6553C18.4596 65.6553 18.5111 65.7068 18.5111 65.7709C18.5111 65.835 18.4596 65.8876 18.3977 65.8876C18.3359 65.8876 18.282 65.8339 18.282 65.7709C18.282 65.708 18.3336 65.6553 18.3977 65.6553ZM10.7663 65.9963C10.8041 65.9941 10.8327 65.9986 10.8522 66.0181C10.922 66.0879 10.8235 66.2401 10.6368 66.3591C10.4479 66.4781 10.1913 66.5696 10.0642 66.5696C9.93703 66.5696 10.0332 66.414 10.2795 66.2309C10.4639 66.0913 10.6552 66.0032 10.7663 65.9975V65.9963ZM5.2182 66.2687C5.11627 66.295 5.0212 66.3751 4.91698 66.5147C4.75663 66.7264 4.62491 66.8019 4.62491 66.6829C4.62491 66.5639 4.5184 66.6211 4.39699 66.8122C4.27329 67.0033 4.17021 67.2356 4.17021 67.3317C4.17021 67.4278 4.29391 67.4999 4.45426 67.4999C4.6146 67.4999 5.00288 67.2894 5.32128 67.0399C5.81035 66.6543 5.847 66.5479 5.5515 66.3568C5.4278 66.2744 5.32128 66.2424 5.2182 66.2687ZM7.31533 66.3522C7.12521 66.3522 6.90301 66.4552 6.82513 66.5822C6.74724 66.7092 6.84116 66.8157 7.03014 66.8157C7.21912 66.8157 7.44132 66.7092 7.51921 66.5822C7.59938 66.4552 7.50661 66.3522 7.31533 66.3522ZM17.1229 66.5948C17.1768 66.5948 17.234 66.6154 17.2787 66.6566C17.3612 66.7424 17.2913 66.8122 17.1229 66.8122C16.9546 66.8122 16.8847 66.7424 16.9683 66.6566C17.0118 66.6154 17.0668 66.5948 17.1229 66.5948ZM9.37123 67.0422C9.43652 67.0422 9.48806 67.096 9.48806 67.1589C9.48806 67.2219 9.43423 67.2757 9.37123 67.2757C9.30824 67.2757 9.2567 67.2242 9.2567 67.1589C9.2567 67.0937 9.30824 67.0422 9.37123 67.0422ZM5.90198 67.2745C5.83669 67.2745 5.78515 67.326 5.78515 67.3912C5.78515 67.4565 5.83669 67.5079 5.90198 67.5079C5.96726 67.5079 6.01536 67.4553 6.01536 67.3912C6.01536 67.3271 5.96382 67.2745 5.90198 67.2745ZM16.1677 67.2825C16.4838 67.2882 16.4735 67.342 16.0956 67.6292C15.8505 67.8158 15.5492 67.9679 15.4301 67.9679C15.311 67.9679 15.3442 67.8123 15.5046 67.6212C15.6626 67.4301 15.9604 67.2745 16.1677 67.2825ZM8.77336 67.5343C8.85354 67.5366 8.9234 67.5606 8.96234 67.5983C9.04023 67.6739 8.90279 67.7288 8.65883 67.7173C8.38738 67.707 8.3324 67.6521 8.5168 67.5777C8.60271 67.5446 8.69319 67.5308 8.77336 67.5343ZM3.25508 67.58C3.15085 67.572 3.0638 67.5857 3.01341 67.6166C2.91262 67.6784 2.77518 67.9393 2.7076 68.1956C2.63544 68.4794 2.695 68.6614 2.87597 68.6614C3.03632 68.6614 3.34212 68.4646 3.55974 68.2265C3.91938 67.8272 3.92167 67.7814 3.57463 67.6475C3.46811 67.6086 3.35472 67.5857 3.25393 67.58H3.25508ZM5.43811 67.7379C5.37626 67.7379 5.32128 67.7894 5.32128 67.8512C5.32128 67.913 5.37512 67.9679 5.43811 67.9679C5.5011 67.9679 5.5515 67.9164 5.5515 67.8512C5.5515 67.786 5.49996 67.7379 5.43811 67.7379ZM17.0073 67.9679C16.9454 67.9679 16.8939 68.0194 16.8939 68.0847C16.8939 68.1465 16.9454 68.1979 17.0073 68.1979C17.0691 68.1979 17.1229 68.1453 17.1229 68.0847C17.1229 68.0194 17.0714 67.9679 17.0073 67.9679ZM7.42643 68.1934C7.44934 68.1934 7.47339 68.2037 7.49286 68.2243C7.57533 68.3021 7.58105 68.5344 7.50661 68.7438C7.42643 68.9532 7.16415 69.1237 6.92363 69.1237C6.6831 69.1237 6.4861 69.0172 6.4861 68.8902C6.4861 68.7632 6.63271 68.6602 6.81253 68.6602C6.99235 68.6602 7.1882 68.5298 7.24432 68.3696C7.2867 68.2506 7.36344 68.1831 7.4333 68.1911H7.42643V68.1934ZM1.70886 68.6614C1.65617 68.6614 1.61838 68.8754 1.61838 69.1374C1.61838 69.3994 1.71917 69.5516 1.84057 69.4761C1.96198 69.4017 2.00321 69.1866 1.93106 69.0001C1.8589 68.8136 1.75811 68.6614 1.70886 68.6614ZM13.0341 69.2152C13.1326 69.1992 13.2333 69.2415 13.2883 69.3262C13.3582 69.4418 13.2631 69.5974 13.0741 69.6695C12.8829 69.7427 12.7271 69.7084 12.7271 69.5917C12.7271 69.475 12.8222 69.3205 12.9413 69.2472C12.9699 69.2289 13.0031 69.2198 13.0341 69.2141V69.2152ZM7.51921 69.5848C7.58449 69.5848 7.63603 69.6386 7.63603 69.7015C7.63603 69.7645 7.5822 69.8182 7.51921 69.8182C7.45621 69.8182 7.40582 69.7668 7.40582 69.7015C7.40582 69.6363 7.45736 69.5848 7.51921 69.5848ZM0.113389 70.2805C0.0492499 70.2805 0 70.332 0 70.395C0 70.4579 0.052686 70.5117 0.113389 70.5117C0.178674 70.5117 0.230215 70.4602 0.230215 70.395C0.230215 70.3297 0.176384 70.2805 0.113389 70.2805ZM5.20446 71.2051C5.26974 71.2051 5.32128 71.2566 5.32128 71.3207C5.32128 71.3848 5.26974 71.4351 5.20446 71.4351C5.13917 71.4351 5.09107 71.3836 5.09107 71.3207C5.09107 71.2577 5.14261 71.2051 5.20446 71.2051ZM8.44694 71.4374C8.50879 71.4374 8.56033 71.4889 8.56033 71.5518C8.56033 71.6148 8.50879 71.6685 8.44694 71.6685C8.38165 71.6685 8.33011 71.6171 8.33011 71.5518C8.33011 71.4866 8.38165 71.4374 8.44694 71.4374ZM5.66832 71.6674C5.73132 71.6674 5.78515 71.7189 5.78515 71.7841C5.78515 71.8493 5.73132 71.8974 5.66832 71.8974C5.60533 71.8974 5.5515 71.8459 5.5515 71.7841C5.5515 71.7189 5.60533 71.6674 5.66832 71.6674ZM7.28899 72.1182C7.41498 72.1228 7.51921 72.2498 7.51921 72.3997C7.51921 72.5496 7.37947 72.7156 7.20882 72.7728C7.01411 72.8369 6.92706 72.7316 6.9786 72.4901C7.01983 72.2784 7.16186 72.1102 7.28899 72.1182ZM3.8163 72.3608C3.87815 72.3608 3.93312 72.4123 3.93312 72.4776C3.93312 72.5428 3.87929 72.5908 3.8163 72.5908C3.7533 72.5908 3.70176 72.5393 3.70176 72.4776C3.70176 72.4123 3.7533 72.3608 3.8163 72.3608ZM4.48518 72.6789C4.56765 72.6847 4.6272 72.7774 4.6272 72.925C4.6272 73.1241 4.52412 73.2843 4.39699 73.2843C4.26986 73.2843 4.16448 73.1893 4.16448 73.0668C4.16448 72.9444 4.26756 72.7854 4.39699 72.7075C4.42791 72.687 4.45655 72.6789 4.48747 72.6789H4.48518ZM3.21843 72.8529C3.2986 72.8552 3.36847 72.8758 3.40741 72.9147C3.48529 72.9925 3.34785 73.0462 3.10389 73.036C2.83244 73.0234 2.77747 72.9719 2.96187 72.8964C3.04777 72.8632 3.13825 72.8472 3.21843 72.8529ZM6.11043 73.0955C6.12875 73.0977 6.14708 73.1115 6.16999 73.1321C6.25589 73.2179 6.25589 73.3541 6.16999 73.4399C6.08409 73.5257 6.01422 73.4548 6.01422 73.2843C6.01422 73.1584 6.05316 73.0874 6.10928 73.0955H6.11043ZM2.42814 73.2843C2.49342 73.2843 2.54496 73.338 2.54496 73.401C2.54496 73.4639 2.49113 73.5177 2.42814 73.5177C2.36514 73.5177 2.31246 73.4662 2.31246 73.401C2.31246 73.3358 2.36629 73.2843 2.42814 73.2843ZM5.66832 73.5177C5.73132 73.5177 5.78515 73.5692 5.78515 73.6344C5.78515 73.6962 5.73132 73.7477 5.66832 73.7477C5.60533 73.7477 5.5515 73.6962 5.5515 73.6344C5.5515 73.5692 5.60533 73.5177 5.66832 73.5177ZM3.00654 73.9937C3.0638 73.9937 3.11764 74.0143 3.16116 74.0555C3.24706 74.1413 3.17605 74.2111 3.00654 74.2111C2.83703 74.2111 2.7683 74.1413 2.85306 74.0555C2.89544 74.0143 2.95156 73.9937 3.00654 73.9937ZM0.883063 74.0498C0.833813 74.0395 0.712406 74.107 0.487918 74.2443C0.174093 74.4389 0.0962092 74.5807 0.282901 74.6231C0.448976 74.6563 0.79029 74.995 1.04456 75.3737C1.29539 75.7513 1.63441 76.0591 1.79247 76.0614C1.95282 76.0614 2.08224 75.9276 2.08224 75.7616C2.08224 75.5957 1.95282 75.3314 1.79476 75.1746C1.56684 74.9446 1.57714 74.8382 1.85203 74.6517C2.10286 74.4778 1.99405 74.4549 1.44543 74.5636C0.806325 74.6872 0.715842 74.6517 0.842976 74.3233C0.910551 74.1493 0.933458 74.0612 0.884208 74.0509L0.883063 74.0498ZM3.58723 75.1334C3.52194 75.1334 3.4704 75.1872 3.4704 75.2501C3.4704 75.3131 3.52194 75.3669 3.58723 75.3669C3.64908 75.3669 3.70062 75.3154 3.70062 75.2501C3.70062 75.1849 3.64908 75.1334 3.58723 75.1334ZM3.4704 75.8429C3.41657 75.8429 3.3593 75.8635 3.31693 75.9047C3.23102 75.9905 3.30204 76.0603 3.4704 76.0603C3.63877 76.0603 3.70863 75.9905 3.62502 75.9047C3.5815 75.8635 3.52652 75.8429 3.4704 75.8429Z" fill="white"/>
</svg>
