<svg width="83" height="100" viewBox="0 0 83 100" fill="none" xmlns="http://www.w3.org/2000/svg">
<path d="M78.387 13.0181C77.2673 14.968 75.3638 17.262 75.3638 17.6061C75.3638 17.9501 75.3638 18.0648 75.6997 18.2942C76.0356 18.5236 76.5955 18.5237 77.0434 18.5236C77.4912 18.5236 77.9391 18.409 78.723 17.9501C79.5068 17.4913 80.0666 16.115 80.0666 16.115C80.0666 16.115 81.0744 14.2798 81.4103 13.4769C81.7462 12.6739 82.642 9.69183 82.5301 8.43009C82.4181 7.16836 82.3061 5.33324 80.0666 3.26861C77.8272 1.20398 77.1553 1.20408 75.3638 0.630522C73.5722 0.0569678 69.7651 -0.537385 62.2628 0.859921C54.7606 2.25723 46.4746 5.79195 39.4202 10.8388C32.3659 15.8856 23.1841 22.7676 17.3614 29.9936C11.5388 37.2196 8.17961 42.2665 5.60422 46.9691C3.02883 51.6718 1.23726 57.0627 0.453438 59.9302C-0.330382 62.7978 0.00554883 69.7943 0.677385 73.006C1.34922 76.2176 4.03659 79.7733 5.7162 80.6908C7.3958 81.6084 9.29934 82.6408 13.1065 82.4113C16.9136 82.1819 22.1763 80.0026 22.1763 80.0026L28.4468 76.3323C28.4468 76.3323 22.2883 88.0315 21.6164 91.1285C20.9446 94.2254 21.0566 95.3723 21.2805 96.6341C21.5044 97.8958 22.0643 98.8133 23.296 99.6163C24.5277 100.419 26.7672 99.7309 27.2151 99.6163C27.663 99.5016 30.1264 98.8133 31.0222 98.3546C31.918 97.8958 33.5976 97.2076 33.9335 96.6341C34.2695 96.0605 34.2695 95.6018 34.1575 95.143C34.0455 94.6841 33.5976 94.3401 33.3737 94.5695C33.1497 94.7988 28.7827 96.7488 27.775 96.29C26.7672 95.8311 27.4391 94.2254 27.4391 94.2254C27.4391 94.2254 27.4391 93.501 29.2306 89.6374C31.0222 85.7738 40.316 74.4971 40.316 74.4971C40.316 74.4971 59.7994 51.5571 64.7263 45.8221C69.6531 40.0872 72.6764 37.6785 73.7961 36.5315C74.9159 35.3844 77.2673 33.0905 77.2673 32.4023C77.2673 32.4023 77.3793 31.8288 77.1553 31.7141C76.9314 31.5994 74.468 31.5994 74.468 31.5994L72.3252 31.4423C67.3832 30.4823 63.6065 33.4346 63.6065 33.4346C63.6065 33.4346 58.0079 38.7107 56.2163 40.546C54.4247 42.3812 40.316 59.9302 40.316 59.9302C40.316 59.9302 31.806 69.4502 25.6475 73.006C19.4889 76.5617 15.5699 77.2498 13.1065 77.2498C10.643 77.2499 8.17961 76.5616 7.61975 73.006C7.05988 69.4503 7.17186 68.8767 8.17961 64.4035C9.18737 59.9303 12.3226 53.8511 17.0255 46.5103C21.7284 39.1696 24.4158 36.302 32.7018 28.7319C40.9879 21.1618 50.8415 14.2798 57.448 10.8388C64.0544 7.39776 67.6376 6.13614 70.213 5.4479C72.7884 4.75967 73.9081 4.53035 75.3638 4.87441C76.8194 5.21847 77.8272 6.36554 78.387 6.939C78.9469 7.51246 79.5068 8.54475 79.5068 9.34769C79.5068 10.1506 79.5068 11.0681 78.387 13.0181Z" fill="#C7AA60" fill-opacity="0.1"/>
</svg>
