<svg width="40" height="40" viewBox="0 0 40 40" fill="none" xmlns="http://www.w3.org/2000/svg">
<g clip-path="url(#clip0_22088_49154)">
<path d="M13.334 15H26.6673" stroke="#D1AB59" stroke-width="2" stroke-linecap="round" stroke-linejoin="round"/>
<path d="M13.334 21.668H20.834" stroke="#D1AB59" stroke-width="2" stroke-linecap="round" stroke-linejoin="round"/>
<path d="M17.2083 32.6763L13.3333 35.0013V30.0013H10C8.67392 30.0013 7.40215 29.4745 6.46447 28.5368C5.52678 27.5992 5 26.3274 5 25.0013V11.668C5 10.3419 5.52678 9.07012 6.46447 8.13244C7.40215 7.19475 8.67392 6.66797 10 6.66797H30C31.3261 6.66797 32.5979 7.19475 33.5355 8.13244C34.4732 9.07012 35 10.3419 35 11.668V19.168" stroke="#D1AB59" stroke-width="2" stroke-linecap="round" stroke-linejoin="round"/>
<path d="M29.6671 34.6945L26.0471 36.5911C25.9396 36.647 25.8188 36.672 25.698 36.6632C25.5772 36.6544 25.4612 36.6122 25.363 36.5413C25.2649 36.4705 25.1883 36.3737 25.1419 36.2618C25.0955 36.1499 25.0812 36.0274 25.1004 35.9078L25.7921 31.8895L22.8637 29.0445C22.7763 28.96 22.7144 28.8526 22.6851 28.7346C22.6558 28.6166 22.6603 28.4928 22.698 28.3772C22.7357 28.2616 22.8052 28.159 22.8984 28.081C22.9917 28.003 23.105 27.9528 23.2254 27.9361L27.2721 27.3495L29.0821 23.6945C29.1362 23.5856 29.2196 23.494 29.323 23.43C29.4263 23.366 29.5455 23.332 29.6671 23.332C29.7886 23.332 29.9078 23.366 30.0112 23.43C30.1145 23.494 30.1979 23.5856 30.2521 23.6945L32.0621 27.3495L36.1087 27.9361C36.2288 27.9534 36.3416 28.0039 36.4345 28.082C36.5273 28.1601 36.5965 28.2626 36.6341 28.3779C36.6717 28.4932 36.6764 28.6167 36.6474 28.7345C36.6185 28.8523 36.5572 28.9597 36.4704 29.0445L33.5421 31.8895L34.2321 35.9061C34.2528 36.0259 34.2395 36.1491 34.1937 36.2617C34.1479 36.3743 34.0715 36.4718 33.973 36.5432C33.8746 36.6145 33.7582 36.6568 33.6369 36.6653C33.5157 36.6738 33.3945 36.6481 33.2871 36.5911L29.6671 34.6945Z" stroke="#D1AB59" stroke-width="2" stroke-linecap="round" stroke-linejoin="round"/>
</g>
<defs>
<clipPath id="clip0_22088_49154">
<rect width="40" height="40" fill="white"/>
</clipPath>
</defs>
</svg>
