<svg width="49" height="50" viewBox="0 0 49 50" fill="none" xmlns="http://www.w3.org/2000/svg">
<g clip-path="url(#clip0_35000_10470)">
<path d="M6.80469 30.9321H30.9322" stroke="#5D5A93" stroke-width="1.5" stroke-linejoin="round"/>
<path d="M6.80469 36.9619H30.9322" stroke="#5D5A93" stroke-width="1.5" stroke-linejoin="round"/>
<path d="M6.80469 42.9944H18.8697" stroke="#5D5A93" stroke-width="1.5" stroke-linejoin="round"/>
<path d="M18.3665 11.3288C18.3665 13.8278 16.3411 15.8532 13.8421 15.8532C11.3432 15.8532 9.32031 13.8278 9.32031 11.3288C9.32031 8.82987 11.3457 6.80444 13.8421 6.80444C16.3385 6.80444 18.3665 8.82987 18.3665 11.3288Z" fill="url(#paint0_linear_35000_10470)" fill-opacity="0.7" stroke="#5D5A93" stroke-width="1.5" stroke-linejoin="round"/>
<path d="M13.8409 15.8506C9.95478 15.8506 6.80469 19.0007 6.80469 22.8868V24.8968H20.8797V22.8868C20.8797 19.0007 17.7296 15.8506 13.8409 15.8506Z" fill="url(#paint1_linear_35000_10470)" fill-opacity="0.7" stroke="#5D5A93" stroke-width="1.5" stroke-linejoin="round"/>
<path d="M48.0238 15.8508C48.0238 21.9579 43.0722 26.9096 36.965 26.9096C30.8579 26.9096 25.9062 21.9579 25.9062 15.8508C25.9062 9.74361 30.8579 4.79199 36.965 4.79199C43.0722 4.79199 48.0238 9.74361 48.0238 15.8508Z" fill="url(#paint2_linear_35000_10470)" fill-opacity="0.7" stroke="#5D5A93" stroke-width="1.5" stroke-linejoin="round"/>
<path d="M36.966 4.79194V0.771973H0.773438V49.2278H36.966V26.9095" stroke="#5D5A93" stroke-width="1.5" stroke-linejoin="round"/>
<path d="M32.3975 17L37.3975 12L42.3975 17" stroke="#5D5A93" stroke-width="1.5" stroke-linecap="round" stroke-linejoin="round"/>
<path d="M37.3975 21.1667V12" stroke="#5D5A93" stroke-width="1.5" stroke-linecap="round" stroke-linejoin="round"/>
</g>
<defs>
<linearGradient id="paint0_linear_35000_10470" x1="10.4009" y1="8.87724" x2="18.3194" y2="20.1267" gradientUnits="userSpaceOnUse">
<stop stop-color="#F9FAFC"/>
<stop offset="1" stop-color="#D3DCE6"/>
</linearGradient>
<linearGradient id="paint1_linear_35000_10470" x1="8.48596" y1="17.9228" x2="14.8009" y2="31.8853" gradientUnits="userSpaceOnUse">
<stop stop-color="#F9FAFC"/>
<stop offset="1" stop-color="#D3DCE6"/>
</linearGradient>
<linearGradient id="paint2_linear_35000_10470" x1="28.5482" y1="9.85843" x2="47.9013" y2="37.3602" gradientUnits="userSpaceOnUse">
<stop stop-color="#F9FAFC"/>
<stop offset="1" stop-color="#D3DCE6"/>
</linearGradient>
<clipPath id="clip0_35000_10470">
<rect width="48.7956" height="50" fill="white"/>
</clipPath>
</defs>
</svg>
