<svg width="40" height="40" viewBox="0 0 40 40" fill="none" xmlns="http://www.w3.org/2000/svg">
<g clip-path="url(#clip0_22088_49130)">
<path d="M11.6667 18.3346V31.668C11.6667 32.11 11.4911 32.5339 11.1785 32.8465C10.866 33.159 10.442 33.3346 10 33.3346H6.66667C6.22464 33.3346 5.80072 33.159 5.48816 32.8465C5.17559 32.5339 5 32.11 5 31.668V20.0013C5 19.5593 5.17559 19.1354 5.48816 18.8228C5.80072 18.5102 6.22464 18.3346 6.66667 18.3346H11.6667ZM11.6667 18.3346C13.4348 18.3346 15.1305 17.6323 16.3807 16.382C17.631 15.1318 18.3333 13.4361 18.3333 11.668V10.0013C18.3333 9.11725 18.6845 8.2694 19.3096 7.64428C19.9348 7.01916 20.7826 6.66797 21.6667 6.66797C22.5507 6.66797 23.3986 7.01916 24.0237 7.64428C24.6488 8.2694 25 9.11725 25 10.0013V18.3346H30C30.8841 18.3346 31.7319 18.6858 32.357 19.3109C32.9821 19.9361 33.3333 20.7839 33.3333 21.668L31.6667 30.0013C31.427 31.0238 30.9723 31.9017 30.3711 32.5029C29.7699 33.1041 29.0547 33.396 28.3333 33.3346H16.6667C15.3406 33.3346 14.0688 32.8079 13.1311 31.8702C12.1935 30.9325 11.6667 29.6607 11.6667 28.3346" stroke="#D1AB59" stroke-width="2" stroke-linecap="round" stroke-linejoin="round"/>
</g>
<defs>
<clipPath id="clip0_22088_49130">
<rect width="40" height="40" fill="white"/>
</clipPath>
</defs>
</svg>
