<svg width="50" height="50" viewBox="0 0 50 50" fill="none" xmlns="http://www.w3.org/2000/svg">
<g opacity="0.7">
<path d="M15.385 9.71509C19.5711 9.71529 22.9768 13.1217 22.9768 17.3079C22.9768 19.965 21.6032 22.3061 19.5295 23.6633L19.3557 23.7776L19.554 23.842C25.0121 25.6317 28.7462 30.7474 28.7463 36.5383V47.1155C28.7463 47.5911 28.3606 47.9766 27.885 47.9768H2.88501C2.40919 47.9768 2.02271 47.5912 2.02271 47.1155V36.5383C2.0228 30.6259 5.88392 25.5982 11.217 23.843L11.4143 23.7786L11.2405 23.6643C9.16607 22.3073 7.79226 19.9655 7.79224 17.3079C7.79224 13.1216 11.1987 9.71509 15.385 9.71509ZM15.385 24.8997C8.96755 24.8997 3.74646 30.1209 3.74634 36.5383V46.2542H7.79224V39.4231C7.79228 38.9475 8.17791 38.5619 8.65356 38.5618C9.12936 38.5618 9.51583 38.9474 9.51587 39.4231V46.2542H21.2542V39.4231C21.2542 38.9474 21.6397 38.5618 22.1155 38.5618C22.5912 38.5618 22.9768 38.9474 22.9768 39.4231V46.2542H27.0227V36.5383C27.0226 30.1524 21.8527 24.8999 15.385 24.8997ZM15.385 11.4387C12.1486 11.4387 9.51587 14.0715 9.51587 17.3079C9.51591 20.5442 12.1487 23.177 15.385 23.177C18.6212 23.1768 21.2541 20.5441 21.2542 17.3079C21.2542 14.0716 18.6212 11.4389 15.385 11.4387Z" fill="#1B1464" stroke="#EBEBFB" stroke-width="0.2"/>
<path d="M5.76929 2.02271C7.30457 2.02279 8.55347 3.27256 8.55347 4.80786C8.55339 6.34309 7.30452 7.59196 5.76929 7.59204C4.23399 7.59204 2.98421 6.34314 2.98413 4.80786C2.98413 3.27251 4.23394 2.02271 5.76929 2.02271ZM5.76929 3.74634C5.18387 3.74634 4.70776 4.22244 4.70776 4.80786C4.70785 5.39321 5.18392 5.86938 5.76929 5.86938C6.35459 5.8693 6.83073 5.39316 6.83081 4.80786C6.83081 4.22249 6.35464 3.74642 5.76929 3.74634Z" fill="#1B1464" stroke="#EBEBFB" stroke-width="0.2"/>
<path d="M41.3464 40.4841C42.8817 40.4842 44.1306 41.734 44.1306 43.2693C44.1305 44.8045 42.8817 46.0534 41.3464 46.0535C39.8111 46.0535 38.5614 44.8046 38.5613 43.2693C38.5613 41.7339 39.8111 40.4841 41.3464 40.4841ZM41.3464 42.2078C40.761 42.2078 40.2849 42.6839 40.2849 43.2693C40.285 43.8546 40.7611 44.3308 41.3464 44.3308C41.9317 44.3307 42.4079 43.8546 42.408 43.2693C42.408 42.6839 41.9318 42.2078 41.3464 42.2078Z" fill="#1B1464" stroke="#EBEBFB" stroke-width="0.2"/>
<path d="M43.2693 7.79199C44.8046 7.79207 46.0535 9.04185 46.0535 10.5771C46.0534 12.1124 44.8045 13.3612 43.2693 13.3613C41.734 13.3613 40.4842 12.1124 40.4841 10.5771C40.4841 9.0418 41.7339 7.79199 43.2693 7.79199ZM43.2693 9.51562C42.6839 9.51562 42.2078 9.99173 42.2078 10.5771C42.2078 11.1625 42.6839 11.6387 43.2693 11.6387C43.8546 11.6386 44.3307 11.1625 44.3308 10.5771C44.3308 9.99178 43.8546 9.51571 43.2693 9.51562Z" fill="#1B1464" stroke="#EBEBFB" stroke-width="0.2"/>
<path d="M28.7019 5.20317L27.4838 6.42127L26.2651 5.20248L27.4832 3.98437L28.7019 5.20317Z" fill="#1B1464" stroke="#EBEBFB" stroke-width="0.2"/>
<path d="M24.7702 9.14262L23.5514 7.92383L24.7702 6.70504L25.989 7.92383L24.7702 9.14262Z" fill="#1B1464" stroke="#EBEBFB" stroke-width="0.2"/>
<path d="M27.4899 9.14238L26.2712 7.92358L27.4899 6.70479L28.7087 7.92358L27.4899 9.14238Z" fill="#1B1464" stroke="#EBEBFB" stroke-width="0.2"/>
<path d="M24.7628 3.98991L25.9816 5.2087L24.7635 6.4268L23.5447 5.20801L24.7628 3.98991Z" fill="#1B1464" stroke="#EBEBFB" stroke-width="0.2"/>
</g>
</svg>
