<svg width="40" height="40" viewBox="0 0 40 40" fill="none" xmlns="http://www.w3.org/2000/svg">
<g clip-path="url(#clip0_22088_49137)">
<path d="M28.3327 13.3346V8.33464C28.3327 7.89261 28.1571 7.46869 27.8445 7.15612C27.532 6.84356 27.108 6.66797 26.666 6.66797H9.99935C9.11529 6.66797 8.26745 7.01916 7.64233 7.64428C7.0172 8.2694 6.66602 9.11725 6.66602 10.0013M6.66602 10.0013C6.66602 10.8854 7.0172 11.7332 7.64233 12.3583C8.26745 12.9834 9.11529 13.3346 9.99935 13.3346H29.9993C30.4414 13.3346 30.8653 13.5102 31.1779 13.8228C31.4904 14.1354 31.666 14.5593 31.666 15.0013V20.0013M6.66602 10.0013V30.0013C6.66602 30.8854 7.0172 31.7332 7.64233 32.3583C8.26745 32.9834 9.11529 33.3346 9.99935 33.3346H29.9993C30.4414 33.3346 30.8653 33.159 31.1779 32.8465C31.4904 32.5339 31.666 32.11 31.666 31.668V26.668" stroke="#D1AB59" stroke-width="2" stroke-linecap="round" stroke-linejoin="round"/>
<path d="M33.334 20V26.6667H26.6673C25.7833 26.6667 24.9354 26.3155 24.3103 25.6904C23.6852 25.0652 23.334 24.2174 23.334 23.3333C23.334 22.4493 23.6852 21.6014 24.3103 20.9763C24.9354 20.3512 25.7833 20 26.6673 20H33.334Z" stroke="#D1AB59" stroke-width="2" stroke-linecap="round" stroke-linejoin="round"/>
</g>
<defs>
<clipPath id="clip0_22088_49137">
<rect width="40" height="40" fill="white"/>
</clipPath>
</defs>
</svg>
