<svg width="40" height="40" viewBox="0 0 40 40" fill="none" xmlns="http://www.w3.org/2000/svg">
<g clip-path="url(#clip0_22088_49145)">
<path d="M15 35.0013V25.0013C15 24.1172 15.3512 23.2694 15.9763 22.6443C16.6014 22.0192 17.4493 21.668 18.3333 21.668H20.5683" stroke="#D1AB59" stroke-width="2" stroke-linecap="round" stroke-linejoin="round"/>
<path d="M32.8033 17.8033L20 5L5 20H8.33333V31.6667C8.33333 32.5507 8.68452 33.3986 9.30964 34.0237C9.93477 34.6488 10.7826 35 11.6667 35H20" stroke="#D1AB59" stroke-width="2" stroke-linecap="round" stroke-linejoin="round"/>
<path d="M36.6667 26.668C36.6667 33.3346 32.5 36.668 30.8333 36.668C29.1667 36.668 25 33.3346 25 26.668C26.6667 26.668 29.1667 25.8346 30.8333 24.168C32.5 25.8346 35 26.668 36.6667 26.668Z" stroke="#D1AB59" stroke-width="2" stroke-linecap="round" stroke-linejoin="round"/>
</g>
<defs>
<clipPath id="clip0_22088_49145">
<rect width="40" height="40" fill="white"/>
</clipPath>
</defs>
</svg>
