<svg width="80" height="80" viewBox="0 0 80 80" fill="none" xmlns="http://www.w3.org/2000/svg">
<path d="M40.01 70C37.57 70.0033 35.1267 68.54 34.4167 65.61C34.2036 64.7307 33.7859 63.9141 33.1976 63.2267C32.6093 62.5393 31.867 62.0005 31.0312 61.6542C30.1953 61.3079 29.2894 61.1638 28.3874 61.2338C27.4853 61.3037 26.6125 61.5857 25.84 62.0567C20.6967 65.19 14.8067 59.3033 17.94 54.1567C18.4103 53.3845 18.6918 52.5122 18.7616 51.6108C18.8314 50.7093 18.6875 49.8041 18.3416 48.9687C17.9957 48.1334 17.4575 47.3914 16.7709 46.8032C16.0843 46.2149 15.2685 45.797 14.39 45.5833C8.53667 44.1633 8.53667 35.8367 14.39 34.4167C15.2693 34.2036 16.0859 33.7859 16.7733 33.1976C17.4607 32.6093 17.9995 31.867 18.3458 31.0312C18.6921 30.1953 18.8362 29.2894 18.7662 28.3874C18.6963 27.4853 18.4143 26.6125 17.9433 25.84C14.81 20.6967 20.6967 14.8067 25.8433 17.94C29.1767 19.9667 33.4967 18.1733 34.4167 14.39C35.8367 8.53667 44.1633 8.53667 45.5833 14.39C45.7964 15.2693 46.2141 16.0859 46.8024 16.7733C47.3907 17.4607 48.133 17.9995 48.9688 18.3458C49.8047 18.6921 50.7106 18.8362 51.6126 18.7662C52.5147 18.6963 53.3875 18.4143 54.16 17.9433C59.3033 14.81 65.1933 20.6967 62.06 25.8433C61.5897 26.6155 61.3082 27.4878 61.2384 28.3892C61.1686 29.2907 61.3125 30.1959 61.6584 31.0313C62.0043 31.8666 62.5425 32.6086 63.2291 33.1968C63.9157 33.7851 64.7315 34.203 65.61 34.4167C68.5633 35.1333 70.0267 37.6067 70.0033 40.0633" stroke="black" stroke-width="3" stroke-linecap="round" stroke-linejoin="round"/>
<path d="M30 40C30 42.6522 31.0536 45.1957 32.9289 47.0711C34.8043 48.9464 37.3478 50 40 50C42.6522 50 45.1957 48.9464 47.0711 47.0711C48.9464 45.1957 50 42.6522 50 40C50 37.3478 48.9464 34.8043 47.0711 32.9289C45.1957 31.0536 42.6522 30 40 30C37.3478 30 34.8043 31.0536 32.9289 32.9289C31.0536 34.8043 30 37.3478 30 40Z" stroke="black" stroke-width="3" stroke-linecap="round" stroke-linejoin="round"/>
<path d="M56.6699 63.3334C56.6699 65.1015 57.3723 66.7972 58.6225 68.0475C59.8728 69.2977 61.5685 70.0001 63.3366 70.0001C65.1047 70.0001 66.8004 69.2977 68.0506 68.0475C69.3009 66.7972 70.0033 65.1015 70.0033 63.3334C70.0033 61.5653 69.3009 59.8696 68.0506 58.6194C66.8004 57.3691 65.1047 56.6667 63.3366 56.6667C61.5685 56.6667 59.8728 57.3691 58.6225 58.6194C57.3723 59.8696 56.6699 61.5653 56.6699 63.3334Z" stroke="black" stroke-width="3" stroke-linecap="round" stroke-linejoin="round"/>
<path d="M63.3367 51.6667V56.6667" stroke="black" stroke-width="3" stroke-linecap="round" stroke-linejoin="round"/>
<path d="M63.3367 70V75" stroke="black" stroke-width="3" stroke-linecap="round" stroke-linejoin="round"/>
<path d="M73.4401 57.5L69.1101 60" stroke="black" stroke-width="3" stroke-linecap="round" stroke-linejoin="round"/>
<path d="M57.5667 66.6667L53.2334 69.1667" stroke="black" stroke-width="3" stroke-linecap="round" stroke-linejoin="round"/>
<path d="M53.2334 57.5L57.5667 60" stroke="black" stroke-width="3" stroke-linecap="round" stroke-linejoin="round"/>
<path d="M69.1101 66.6667L73.4434 69.1667" stroke="black" stroke-width="3" stroke-linecap="round" stroke-linejoin="round"/>
</svg>
