<svg xmlns="http://www.w3.org/2000/svg" width="24" height="24" viewBox="0 0 24 24" fill="none">
  <mask id="mask0_22917_19706" style="mask-type:alpha" maskUnits="userSpaceOnUse" x="0" y="0" width="24" height="24">
    <rect width="24" height="24" fill="#D9D9D9"/>
  </mask>
  <g mask="url(#mask0_22917_19706)">
    <path d="M20.7643 10.973V18.9423C20.7643 19.4474 20.5893 19.875 20.2393 20.225C19.8893 20.575 19.4618 20.75 18.9568 20.75H5.07207C4.56707 20.75 4.13957 20.575 3.78957 20.225C3.43957 19.875 3.26457 19.4474 3.26457 18.9423V10.9538C2.8619 10.6231 2.55965 10.1939 2.35782 9.66625C2.15582 9.13875 2.15165 8.56925 2.34532 7.95775L3.35682 4.65375C3.49015 4.23325 3.7164 3.89417 4.03557 3.6365C4.3549 3.37883 4.73632 3.25 5.17982 3.25H18.8298C19.2735 3.25 19.6523 3.37308 19.9663 3.61925C20.2805 3.86542 20.5093 4.20392 20.6528 4.63475L21.6836 7.95775C21.8772 8.56925 21.8731 9.13683 21.6711 9.6605C21.4692 10.1843 21.167 10.6218 20.7643 10.973ZM14.2146 10.25C14.7607 10.25 15.1713 10.083 15.4463 9.749C15.7213 9.415 15.8338 9.05633 15.7838 8.673L15.1761 4.75H12.7643V8.7C12.7643 9.1205 12.9067 9.484 13.1913 9.7905C13.476 10.0968 13.8171 10.25 14.2146 10.25ZM9.71457 10.25C10.1747 10.25 10.5481 10.0968 10.8346 9.7905C11.1212 9.484 11.2646 9.1205 11.2646 8.7V4.75H8.85282L8.24532 8.7115C8.19132 9.06667 8.30282 9.41192 8.57982 9.74725C8.85682 10.0824 9.23507 10.25 9.71457 10.25ZM5.26457 10.25C5.63507 10.25 5.95365 10.1208 6.22032 9.8625C6.48698 9.60417 6.65173 9.2795 6.71457 8.8885L7.30282 4.75H5.17982C5.07082 4.75 4.98432 4.774 4.92032 4.822C4.85615 4.87017 4.80807 4.94233 4.77607 5.0385L3.81432 8.29225C3.68232 8.72175 3.74457 9.15542 4.00107 9.59325C4.2574 10.0311 4.67857 10.25 5.26457 10.25ZM18.7646 10.25C19.3056 10.25 19.7197 10.0375 20.0068 9.6125C20.294 9.1875 20.3632 8.74742 20.2146 8.29225L19.2028 5.01925C19.1708 4.92308 19.1228 4.85417 19.0588 4.8125C18.9947 4.77083 18.9081 4.75 18.7991 4.75H16.7261L17.3143 8.8885C17.3772 9.2795 17.5419 9.60417 17.8086 9.8625C18.0752 10.1208 18.3939 10.25 18.7646 10.25ZM5.07207 19.25H18.9568C19.0465 19.25 19.1202 19.2212 19.1778 19.1635C19.2357 19.1058 19.2646 19.0321 19.2646 18.9423V11.6615C19.1556 11.7013 19.0645 11.726 18.9913 11.7355C18.9183 11.7452 18.8427 11.75 18.7646 11.75C18.3146 11.75 17.9187 11.6686 17.5771 11.5058C17.2354 11.3429 16.9042 11.082 16.5836 10.723C16.3029 11.0358 15.9709 11.2853 15.5876 11.4713C15.2042 11.6571 14.7671 11.75 14.2761 11.75C13.8517 11.75 13.4517 11.6618 13.0761 11.4855C12.7004 11.3093 12.3466 11.0552 12.0146 10.723C11.7056 11.0552 11.3556 11.3093 10.9646 11.4855C10.5734 11.6618 10.1772 11.75 9.77607 11.75C9.32473 11.75 8.90165 11.6683 8.50682 11.5048C8.11198 11.3413 7.76457 11.0807 7.46457 10.723C7.0439 11.1435 6.65632 11.4198 6.30182 11.552C5.94748 11.684 5.60173 11.75 5.26457 11.75C5.18623 11.75 5.1054 11.7452 5.02207 11.7355C4.93873 11.726 4.85282 11.7013 4.76432 11.6615V18.9423C4.76432 19.0321 4.79323 19.1058 4.85107 19.1635C4.90873 19.2212 4.9824 19.25 5.07207 19.25Z" fill="#030303"/>
  </g>
</svg>