<svg width="38" height="24" viewBox="0 0 38 24" fill="none" xmlns="http://www.w3.org/2000/svg">
<path d="M22.079 5.99856L22.318 6.01056C23.748 6.10756 25.752 7.02356 26.826 8.59656C26.9046 8.7117 26.9583 8.84201 26.9835 8.97911C27.0088 9.11622 27.0051 9.25709 26.9727 9.39269C26.9403 9.52829 26.8799 9.65562 26.7954 9.7665C26.7109 9.87738 26.6042 9.96937 26.482 10.0366C26.432 10.0646 26.11 10.1946 25.985 10.2536C25.7304 10.3724 25.4885 10.5168 25.263 10.6846C24.649 11.1456 24.315 11.6936 24.321 12.3786C24.331 13.2636 24.66 13.8326 25.228 14.2246C25.436 14.3676 25.664 14.4776 25.894 14.5546C26.02 14.5976 26.32 14.6706 26.338 14.6766C26.532 14.7462 26.6997 14.8741 26.8182 15.0427C26.9367 15.2113 27.0002 15.4125 27 15.6186C27 18.2396 23.96 21.9996 21.714 21.9996C20.924 21.9996 20.442 21.9086 19.731 21.6846L19.633 21.6536C19.17 21.5076 18.931 21.4616 18.5 21.4616C17.98 21.4616 17.637 21.5216 16.982 21.6986L16.785 21.7516C16.21 21.9046 15.821 21.9776 15.285 21.9996C12.536 21.9996 10 16.9066 10 12.9276C10 9.05756 11.786 6.00756 15.286 6.00756C15.583 6.00756 15.884 6.05256 16.195 6.13556C16.598 6.24256 16.969 6.39556 17.491 6.64356C18.278 7.01756 18.439 7.08356 18.5 7.08356H18.516C18.546 7.08056 18.644 7.03656 19.572 6.62656C20.633 6.15956 21.436 5.94156 22.318 6.01056L22.078 5.99856H22.079Z" fill="black"/>
<path d="M21 1C21.2652 1 21.5196 1.10536 21.7071 1.29289C21.8946 1.48043 22 1.73478 22 2C22 2.79565 21.6839 3.55871 21.1213 4.12132C20.5587 4.68393 19.7956 5 19 5C18.7348 5 18.4804 4.89464 18.2929 4.70711C18.1054 4.51957 18 4.26522 18 4C18 3.20435 18.3161 2.44129 18.8787 1.87868C19.4413 1.31607 20.2044 1 21 1Z" fill="black"/>
</svg>
