<svg width="38" height="24" viewBox="0 0 38 24" fill="none" xmlns="http://www.w3.org/2000/svg">
<g clip-path="url(#clip0_36185_5971)">
<path d="M32.9531 24H2.28594C1.02422 24 0 22.9733 0 21.7086V2.29138C0 1.02666 1.02422 0 2.28594 0H32.9531C34.2148 0 35.2391 1.02666 35.2391 2.29138V21.7086C35.2391 22.9733 34.2148 24 32.9531 24Z" fill="url(#paint0_linear_36185_5971)"/>
<path d="M0 3.48047H35.2391V8.28642H0V3.48047Z" fill="url(#paint1_linear_36185_5971)"/>
<path d="M35.2391 20.6758V21.7099C35.2391 22.9746 34.2148 24.0013 32.9531 24.0013H2.28594C1.02422 24.0013 0 22.9746 0 21.7099V20.6758H35.2391Z" fill="url(#paint2_linear_36185_5971)"/>
<path d="M32.6636 24H32.953C34.2147 24 35.239 22.9733 35.239 21.7086V2.29138C35.239 1.02666 34.2147 0 32.953 0H32.6636V24Z" fill="url(#paint3_linear_36185_5971)"/>
<path d="M35.2391 3.32548V2.29138C35.2391 1.02666 34.2148 0 32.9531 0H2.28594C1.02422 0 0 1.02666 0 2.29138V3.32548H35.2391Z" fill="url(#paint4_linear_36185_5971)"/>
<path d="M2.58281 0H2.29336C1.02422 0 0 1.02666 0 2.29138V21.7086C0 22.9733 1.02422 24 2.28594 24H2.57539V0H2.58281Z" fill="url(#paint5_linear_36185_5971)"/>
<path d="M19.5418 16.3981H3.16172C2.87227 16.3981 2.63477 16.16 2.63477 15.8699V12.7899C2.63477 12.4998 2.87227 12.2617 3.16172 12.2617H19.5492C19.8387 12.2617 20.0762 12.4998 20.0762 12.7899V15.8699C20.0762 16.16 19.8387 16.3981 19.5418 16.3981Z" fill="url(#paint6_linear_36185_5971)"/>
<path d="M36.5305 12.6641H20.0762V21.5097C20.0762 22.3206 20.7367 22.9827 21.5457 22.9827H36.5305C37.3395 22.9827 38 22.3206 38 21.5097V14.1371C38 13.3187 37.3395 12.6641 36.5305 12.6641Z" fill="url(#paint7_linear_36185_5971)"/>
<path d="M25.316 20.2451C23.9801 20.2451 22.8965 19.1589 22.8965 17.8198C22.8965 16.4807 23.9801 15.3945 25.316 15.3945C26.0656 15.3945 26.7633 15.7368 27.2309 16.3319C27.3793 16.5253 27.3496 16.808 27.1492 16.9643C26.9562 17.1131 26.6742 17.0833 26.5184 16.8824C26.2289 16.503 25.791 16.2873 25.316 16.2873C24.4773 16.2873 23.7945 16.9717 23.7945 17.8124C23.7945 18.6531 24.4773 19.3375 25.316 19.3375C25.791 19.3375 26.2289 19.1217 26.5184 18.7423C26.6668 18.5489 26.9488 18.5117 27.1492 18.6605C27.3422 18.8093 27.3793 19.092 27.2309 19.2929C26.7633 19.9029 26.0656 20.2451 25.316 20.2451ZM30.0437 19.9327L31.2312 15.9823C31.3055 15.7442 31.1645 15.4987 30.9344 15.4243C30.6969 15.3499 30.452 15.4912 30.3777 15.7219L29.6207 18.2439L28.8637 15.7219C28.7895 15.4838 28.5445 15.3499 28.307 15.4243C28.0695 15.4987 27.9359 15.7442 28.0102 15.9823L29.1977 19.9327C29.257 20.1186 29.4277 20.2526 29.6281 20.2526C29.8137 20.2451 29.9918 20.1186 30.0437 19.9327ZM33.9773 19.9327L35.1648 15.9823C35.2391 15.7442 35.098 15.4987 34.868 15.4243C34.6305 15.3499 34.3855 15.4912 34.3113 15.7219L33.5469 18.2439L32.7898 15.7219C32.7156 15.4838 32.4707 15.3499 32.2332 15.4243C31.9957 15.4987 31.8621 15.7442 31.9363 15.9823L33.1238 19.9327C33.1832 20.1186 33.3539 20.2526 33.5543 20.2526C33.7398 20.2451 33.918 20.1186 33.9773 19.9327Z" fill="url(#paint8_linear_36185_5971)"/>
<path d="M9.67822 20.0065H2.83525C2.72393 20.0065 2.62744 19.9172 2.62744 19.7982C2.62744 19.6866 2.7165 19.5898 2.83525 19.5898H9.6708C9.78213 19.5898 9.87861 19.6791 9.87861 19.7982C9.87861 19.9172 9.78955 20.0065 9.67822 20.0065Z" fill="url(#paint9_linear_36185_5971)"/>
</g>
<defs>
<linearGradient id="paint0_linear_36185_5971" x1="-0.12773" y1="0.738301" x2="34.7862" y2="22.7886" gradientUnits="userSpaceOnUse">
<stop stop-color="#7B7DA1"/>
<stop offset="0.3104" stop-color="#6D6F93"/>
<stop offset="0.8987" stop-color="#494C6D"/>
<stop offset="1" stop-color="#424566"/>
</linearGradient>
<linearGradient id="paint1_linear_36185_5971" x1="-0.0841641" y1="3.49103" x2="35.1668" y2="8.22911" gradientUnits="userSpaceOnUse">
<stop stop-color="#616382"/>
<stop offset="0.3104" stop-color="#545674"/>
<stop offset="0.8987" stop-color="#33354E"/>
<stop offset="1" stop-color="#2D2F47"/>
</linearGradient>
<linearGradient id="paint2_linear_36185_5971" x1="17.6207" y1="24.1665" x2="17.6207" y2="21.8879" gradientUnits="userSpaceOnUse">
<stop stop-color="#32365C"/>
<stop offset="1" stop-color="#32365C" stop-opacity="0"/>
</linearGradient>
<linearGradient id="paint3_linear_36185_5971" x1="35.2738" y1="12.001" x2="33.0825" y2="12.001" gradientUnits="userSpaceOnUse">
<stop stop-color="#32365C"/>
<stop offset="1" stop-color="#32365C" stop-opacity="0"/>
</linearGradient>
<linearGradient id="paint4_linear_36185_5971" x1="17.6207" y1="-0.163298" x2="17.6207" y2="2.11536" gradientUnits="userSpaceOnUse">
<stop stop-color="#A1A4C7"/>
<stop offset="1" stop-color="#A1A4C7" stop-opacity="0"/>
</linearGradient>
<linearGradient id="paint5_linear_36185_5971" x1="-0.0324336" y1="12.001" x2="1.88701" y2="12.001" gradientUnits="userSpaceOnUse">
<stop stop-color="#A1A4C7"/>
<stop offset="1" stop-color="#A1A4C7" stop-opacity="0"/>
</linearGradient>
<linearGradient id="paint6_linear_36185_5971" x1="2.53791" y1="13.1361" x2="20.0865" y2="15.4948" gradientUnits="userSpaceOnUse">
<stop stop-color="#E9EDFF"/>
<stop offset="1" stop-color="#C4CBFF"/>
</linearGradient>
<linearGradient id="paint7_linear_36185_5971" x1="19.9203" y1="12.8569" x2="37.9164" y2="22.6157" gradientUnits="userSpaceOnUse">
<stop stop-color="#E9EDFF"/>
<stop offset="1" stop-color="#C4CBFF"/>
</linearGradient>
<linearGradient id="paint8_linear_36185_5971" x1="24.0285" y1="15.5258" x2="35.072" y2="19.8766" gradientUnits="userSpaceOnUse">
<stop stop-color="#7B7DA1"/>
<stop offset="1" stop-color="#424566"/>
</linearGradient>
<linearGradient id="paint9_linear_36185_5971" x1="6.25629" y1="19.5616" x2="6.25629" y2="19.9933" gradientUnits="userSpaceOnUse">
<stop stop-color="#C4CBFF"/>
<stop offset="0.5251" stop-color="#E9EDFF"/>
<stop offset="1" stop-color="#C4CBFF"/>
</linearGradient>
<clipPath id="clip0_36185_5971">
<rect width="38" height="24" fill="white"/>
</clipPath>
</defs>
</svg>
