<svg width="38" height="24" viewBox="0 0 38 24" fill="none" xmlns="http://www.w3.org/2000/svg">
<path d="M19 2.00001C21.2902 1.99677 23.5116 2.78291 25.29 4.22601C25.4023 4.31697 25.4936 4.43118 25.5575 4.56079C25.6214 4.6904 25.6565 4.83233 25.6603 4.97679C25.6641 5.12126 25.6365 5.26483 25.5795 5.39762C25.5225 5.53042 25.4374 5.64927 25.33 5.74601L23.82 7.10801C23.6485 7.26247 23.4288 7.35284 23.1982 7.36378C22.9676 7.37471 22.7404 7.30555 22.555 7.16801C21.5382 6.42071 20.3118 6.01299 19.05 6.00283C17.7882 5.99266 16.5553 6.38057 15.5266 7.1114C14.4979 7.84222 13.7259 8.87875 13.3202 10.0736C12.9145 11.2685 12.8958 12.5608 13.2669 13.7669C13.6379 14.9729 14.3797 16.0313 15.3869 16.7915C16.394 17.5517 17.6152 17.9751 18.8767 18.0013C20.1383 18.0276 21.3761 17.6555 22.414 16.9378C23.4519 16.2202 24.2371 15.1936 24.658 14.004L24.659 14H20.999C20.7542 13.9997 20.5181 13.9097 20.3353 13.747C20.1524 13.5842 20.0356 13.3601 20.007 13.117L20 13V11C20 10.7348 20.1054 10.4804 20.2929 10.2929C20.4804 10.1054 20.7348 10 21 10H27.945C28.1912 9.99999 28.4287 10.0908 28.6121 10.255C28.7955 10.4192 28.9119 10.6453 28.939 10.89C28.979 11.257 29 11.627 29 12C29 17.523 24.523 22 19 22C13.477 22 9 17.523 9 12C9 6.47701 13.477 2.00001 19 2.00001Z" fill="black"/>
</svg>
