<svg width="38" height="25" viewBox="0 0 38 25" fill="none" xmlns="http://www.w3.org/2000/svg">
<path d="M35.6667 0H2.33326C1.04463 0 0 1.04463 0 2.33326V21.9611C0 23.2497 1.04463 24.2944 2.33326 24.2944H35.6667C36.9554 24.2944 38 23.2497 38 21.9611V2.33326C38 1.04463 36.9554 0 35.6667 0Z" fill="#030303"/>
<path fill-rule="evenodd" clip-rule="evenodd" d="M10.1349 11.9177L10.3041 11.2498C10.9542 11.0539 12.2811 10.9648 12.5305 11.6684C12.673 12.078 12.2633 13.779 12.1832 14.2777L11.5509 14.2866C11.4084 14.1085 11.5242 14.438 11.4262 14.0016C10.8206 14.5448 9.52931 14.4558 9.62727 13.3604C9.72523 12.2739 10.6692 12.4164 11.6934 12.2561C11.6755 11.5615 10.8028 11.7485 10.126 11.9088L10.1349 11.9177ZM14.8994 11.8108C14.3205 11.8108 14.2314 11.6862 13.7238 11.9088C13.7862 12.5411 14.1157 12.2917 14.5699 12.5945C15.4337 13.1645 14.5075 14.9278 12.4503 14.1708L12.5661 13.5296C13.145 13.6454 13.4388 13.7612 13.8841 13.5118C13.991 12.6123 12.3969 13.2001 12.8422 11.7574C13.0826 10.9737 14.1424 11.0806 15.0151 11.1607L14.8905 11.8108H14.8994ZM6.02943 10.4483L7.39198 10.4928L7.53447 12.6302L8.27363 10.9203C8.52298 10.3058 8.35378 10.4394 9.92116 10.4572L9.21762 14.2777L8.45174 14.2688L8.8703 11.5259L7.73929 14.2866L6.82202 14.2599C6.79531 13.7255 6.75078 11.8465 6.60829 11.4902L6.1452 14.2688L5.3437 14.2599L6.02943 10.4483ZM19.0226 18.5613L19.3967 18.116C18.6486 18.018 18.515 18.2317 18.1766 17.6262L19.8954 17.6084C20.0022 17.4302 20.1804 17.261 20.2694 17.0562C18.3102 16.9226 17.758 17.4213 17.4463 16.5664H20.59L20.9373 16.0232L17.0545 16.0054L16.8764 15.5512L21.062 15.5334C21.3025 15.3998 21.3025 15.2484 21.3648 14.9723L17.4018 14.9634C16.6894 14.9723 16.6448 15.1326 16.5113 14.4825H21.4984L21.6587 13.9304L20.1982 13.9126L20.1269 14.2866L19.2898 14.251L19.8152 11.1429L20.6078 11.2498C20.6078 11.2676 20.6256 11.3299 20.6256 11.3567C20.6256 11.3745 20.6345 11.4012 20.6345 11.4101L20.6791 11.5704C20.9017 11.3032 21.0442 11.1073 21.5607 11.1251L21.2935 11.8465C21.1422 12.0424 20.6969 11.8197 20.5099 12.3541L21.3826 12.3897C21.4806 11.8287 21.5874 11.6594 21.7477 11.2053L21.7566 10.9381L16.2975 10.947L16.2797 11.1429C16.5736 11.1429 16.5647 11.0895 16.7339 11.232L16.6538 11.7574C16.1016 11.891 16.1194 11.5615 16.066 12.2828C16.1461 12.4164 16.0482 12.3452 16.2174 12.3897L16.5647 12.3986C17.1257 10.573 18.8 10.9737 19.1829 11.5437C19.3878 11.8465 19.5926 12.8439 19.085 12.924L17.384 12.9418C17.4642 13.8413 18.4972 13.6543 19.1651 13.4317C19.1384 13.8057 19.1651 14.1085 18.8178 14.2332C18.5417 14.3311 17.9629 14.3044 17.6601 14.2332C16.912 14.0639 16.5914 13.6899 16.538 12.8795L16.2174 12.8706C15.9235 12.737 16.155 12.8706 16.0036 12.5055C15.879 13.2535 15.5406 13.7344 16.4667 13.6276C16.4133 14.0729 16.4756 14.2242 15.9858 14.2777C14.5609 14.4469 15.024 13.494 15.2556 12.2205C15.6207 10.19 15.3357 10.4394 16.3688 10.4572L21.6765 10.4661L21.5696 9.91396L16.44 9.89615L16.538 9.45087L21.3915 9.42416C21.2668 8.66718 21.2401 8.8542 19.4768 8.8542C18.5774 8.8542 17.6868 8.8542 16.7873 8.8542C16.9744 8.2041 16.8764 8.38221 18.6219 8.38221H20.9819L20.7325 7.82116L17.3128 7.81225L17.5443 7.34916L20.403 7.33135C20.0379 6.58329 20.0557 6.79702 18.0341 6.7614C18.2924 6.1202 18.7466 6.2805 19.5392 6.2805C19.3165 5.92427 19.1562 5.95099 19.0226 5.6482C18.6931 5.479 18.3992 5.17621 18.0697 4.94466C15.5495 3.16355 12.1297 2.97654 9.38682 4.31237C6.91998 5.50571 4.49767 8.26643 4.52439 12.0869C4.56001 17.546 9.3512 21.5268 14.7747 20.6006C17.3217 20.1642 17.9629 19.1312 19.0137 18.5523L19.0226 18.5613Z" fill="#2E2D31"/>
<path fill-rule="evenodd" clip-rule="evenodd" d="M24.8377 11.2211C27.5984 10.6601 27.1442 12.0226 26.9216 13.1269C26.8503 13.4564 26.8503 14.1065 26.5921 14.2846C26.5297 14.2846 26.1646 14.2935 26.129 14.2757C25.8796 14.1778 25.9954 14.4717 25.9598 14.0175C25.2117 14.4449 24.0273 14.5429 24.1698 13.3496C24.2855 12.3967 25.2473 12.2453 26.2269 12.2898C26.1913 11.5863 25.5501 11.702 24.6596 11.9247L24.8466 11.2211H24.8377ZM27.5628 11.141L28.3019 11.1499C28.3108 11.1677 28.3197 11.1944 28.3197 11.2122L28.4355 11.5417C28.5691 11.3369 28.8185 11.1588 29.2103 11.1499L29.1034 11.7822L28.7383 11.9247C28.0081 12.1651 28.0526 13.0824 27.8567 14.2846H27.0284L27.5628 11.141ZM31.4901 10.4642H32.2471L31.597 14.2935C30.751 14.3025 30.9558 14.347 30.6886 14.0264C30.1365 14.8457 28.48 14.0887 28.9877 12.3967C29.3617 11.1321 30.6263 10.7937 31.2497 11.5417L31.499 10.4553L31.4901 10.4642ZM19.0313 5.65516C19.1648 5.95795 19.334 5.93124 19.5478 6.28746C18.7552 6.28746 18.301 6.11825 18.0427 6.76836C20.0643 6.80398 20.0465 6.59025 20.4116 7.33831L17.5529 7.35612L17.3214 7.81921L20.7411 7.82812L20.9905 8.38917C20.2068 8.38917 19.4231 8.38917 18.6305 8.38917C16.8939 8.38917 16.983 8.21996 16.796 8.86116H19.4854C21.2487 8.86116 21.2755 8.67415 21.4001 9.43112L16.5466 9.45783L16.4486 9.90311L21.5782 9.92092L21.6851 10.4731L16.3774 10.4642L16.3062 10.9629L21.7653 10.954L21.7564 11.2211C22.166 10.8293 22.0948 10.6245 22.8606 10.4018C23.4929 10.2237 23.8937 10.3573 24.5171 10.4909L24.3835 11.3102C23.3148 10.9896 22.6202 11.0697 22.3708 12.174C22.0948 13.3585 23.0298 13.8037 24.0184 13.3317C23.9293 14.1956 23.7868 14.4093 22.7716 14.2757C22.068 14.1867 21.8543 13.8483 21.5426 13.4297H20.2691L20.1979 13.9195L21.6584 13.9373L21.4981 14.4895H16.511C16.6446 15.1396 16.6891 14.9793 17.4015 14.9704L21.3645 14.9793C21.2933 15.2464 21.3022 15.4067 21.0617 15.5403L16.8761 15.5581L17.0542 16.0123L20.937 16.0301L20.5897 16.5734H17.4461C17.7578 17.4194 18.3099 16.9296 20.2691 17.0632C20.1801 17.268 20.002 17.4372 19.8951 17.6153L18.1763 17.6331C18.5058 18.2298 18.6483 18.025 19.3964 18.1229L19.0223 18.5682C20.2958 19.5033 21.2844 20.287 23.3415 20.6432C25.2117 20.9638 27.162 20.6076 28.6671 19.8684C35.1859 16.6535 35.0078 7.39175 28.6136 4.32824C26.316 3.23285 23.2703 3.13489 20.8925 4.38167C19.7437 4.97834 19.4676 5.40581 19.0402 5.66407L19.0313 5.65516Z" fill="#8B8B8B"/>
<path fill-rule="evenodd" clip-rule="evenodd" d="M5.34326 14.2665L6.14476 14.2754L6.60785 11.4969C6.75034 11.8531 6.79487 13.7322 6.82158 14.2665L7.73886 14.2933L8.86986 11.5325L8.4513 14.2754L9.21718 14.2843L9.92072 10.4639C8.35334 10.4461 8.52254 10.3125 8.27319 10.927L7.53403 12.6368L7.39154 10.4995L6.02899 10.455L5.34326 14.2665Z" fill="#FEFEFE"/>
<path fill-rule="evenodd" clip-rule="evenodd" d="M30.154 13.564C29.4861 12.8782 30.0561 11.7383 30.6795 11.8897C31.2939 12.0411 31.1782 13.5462 30.154 13.564ZM31.2405 11.5424C30.6171 10.7943 29.3614 11.1328 28.9785 12.3973C28.4709 14.0805 30.1273 14.8464 30.6795 14.0271C30.9466 14.3477 30.7418 14.2942 31.5878 14.2942L32.2379 10.4648H31.481L31.2316 11.5513L31.2405 11.5424Z" fill="#FEFEFE"/>
<path fill-rule="evenodd" clip-rule="evenodd" d="M25.1224 13.5729C24.9977 12.9762 25.5498 12.7446 26.0753 12.8515C26.102 13.4571 25.6745 13.7866 25.1224 13.5729ZM24.8374 11.2307L24.6504 11.9342C25.5409 11.7205 26.191 11.6047 26.2178 12.2994C25.2382 12.2548 24.2764 12.4062 24.1606 13.3591C24.0092 14.5525 25.2025 14.4545 25.9506 14.027C25.9862 14.4812 25.8704 14.1873 26.1198 14.2853C26.1554 14.3031 26.5206 14.2942 26.5829 14.2942C26.8501 14.125 26.8501 13.466 26.9124 13.1365C27.1439 12.0233 27.5892 10.6696 24.8285 11.2307H24.8374Z" fill="#FEFEFE"/>
<path fill-rule="evenodd" clip-rule="evenodd" d="M11.5503 12.827C11.5681 13.1298 11.5147 13.3613 11.3188 13.5127C11.1852 13.6107 10.7845 13.7265 10.6242 13.5751C10.1254 13.1209 11.0605 12.8181 11.5414 12.827H11.5503ZM10.1344 11.9186C10.8112 11.7583 11.6839 11.5713 11.7017 12.266C10.6776 12.4263 9.7336 12.2838 9.63564 13.3702C9.52878 14.4656 10.8201 14.5547 11.4346 14.0114C11.5325 14.4478 11.4168 14.1183 11.5592 14.2964L12.1915 14.2875C12.2717 13.7799 12.6813 12.0878 12.5389 11.6782C12.2895 10.9657 10.9715 11.0548 10.3125 11.2596L10.1433 11.9275L10.1344 11.9186Z" fill="#FEFEFE"/>
<path fill-rule="evenodd" clip-rule="evenodd" d="M17.5175 12.3619C17.6332 11.9077 17.8291 11.7207 18.3546 11.7919C18.5416 12.0591 18.5416 11.9789 18.5772 12.3619H17.5175ZM16.5735 12.4064L16.5378 12.8873C16.5913 13.6977 16.9208 14.0628 17.6599 14.2409C17.9627 14.3122 18.5416 14.3389 18.8177 14.2409C19.165 14.1252 19.1383 13.8135 19.165 13.4394C18.4971 13.6621 17.464 13.8491 17.3839 12.9496L19.0848 12.9318C19.5924 12.8517 19.3876 11.8631 19.1828 11.5515C18.7999 10.9815 17.1256 10.5807 16.5646 12.4064H16.5735Z" fill="#FEFEFE"/>
<path fill-rule="evenodd" clip-rule="evenodd" d="M21.7562 11.2203C21.5959 11.6745 21.4891 11.8437 21.3911 12.4048V12.8946L21.5425 13.4378C21.8542 13.8564 22.0679 14.1948 22.7715 14.2838C23.7867 14.4174 23.9292 14.2037 24.0183 13.3398C23.0208 13.8118 22.0947 13.3666 22.3707 12.1821C22.629 11.0689 23.3236 10.9977 24.3834 11.3183L24.517 10.499C23.8936 10.3743 23.4928 10.2407 22.8605 10.4099C22.0947 10.6236 22.1659 10.8374 21.7562 11.2292V11.2203Z" fill="#FEFEFE"/>
<path fill-rule="evenodd" clip-rule="evenodd" d="M15.015 11.1605C14.1423 11.0893 13.0825 10.9735 12.842 11.7572C12.3968 13.1999 13.982 12.6121 13.884 13.5116C13.4298 13.761 13.1448 13.6452 12.566 13.5294L12.4502 14.1706C14.5074 14.9276 15.4247 13.1732 14.5697 12.5943C14.1155 12.2915 13.786 12.5498 13.7237 11.9086C14.2313 11.6771 14.3115 11.8106 14.8992 11.8106L15.0239 11.1605H15.015Z" fill="#FEFEFE"/>
<path fill-rule="evenodd" clip-rule="evenodd" d="M16.012 12.5122L16.0743 12.2985C16.1277 11.5771 16.1099 11.9067 16.6621 11.7731L16.7422 11.2476C16.573 11.1052 16.5819 11.1586 16.288 11.1586L16.3058 10.9627L16.3771 10.464C15.344 10.4461 15.629 10.1968 15.2639 12.2273C15.0323 13.5007 14.5693 14.4536 15.9941 14.2844C16.475 14.231 16.4216 14.0796 16.475 13.6343C15.5578 13.7412 15.8962 13.2603 16.012 12.5122Z" fill="#FEFEFE"/>
<path fill-rule="evenodd" clip-rule="evenodd" d="M20.1978 13.9292L20.269 13.4394L20.3581 12.905L20.5184 12.3707C20.7143 11.8364 21.1596 12.059 21.3021 11.8631L21.5693 11.1417C21.0438 11.1239 20.9013 11.3199 20.6876 11.587L20.6431 11.4267C20.6431 11.4178 20.6342 11.3911 20.6342 11.3733C20.6342 11.3555 20.6164 11.2842 20.6164 11.2664L19.8238 11.1596L19.2983 14.2676L20.1355 14.3032L20.2067 13.9292H20.1978Z" fill="#FEFEFE"/>
<path fill-rule="evenodd" clip-rule="evenodd" d="M27.0281 14.2862H27.8563C28.0522 13.084 28.0077 12.1667 28.7379 11.9263L29.1031 11.7838L29.2099 11.1515C28.8181 11.1604 28.5687 11.3385 28.4352 11.5433L28.3194 11.2138C28.3105 11.196 28.3105 11.1693 28.3016 11.1515L27.5624 11.1426L27.0281 14.2862Z" fill="#FEFEFE"/>
<path fill-rule="evenodd" clip-rule="evenodd" d="M30.1536 13.561C31.1867 13.5432 31.3025 12.0381 30.6791 11.8867C30.0468 11.7353 29.4857 12.8752 30.1536 13.561Z" fill="#8B8B8B"/>
<path fill-rule="evenodd" clip-rule="evenodd" d="M11.5505 12.8244C11.0696 12.8155 10.1345 13.1183 10.6332 13.5725C10.7935 13.715 11.1943 13.5992 11.3279 13.5101C11.5238 13.3676 11.5683 13.1272 11.5594 12.8244H11.5505Z" fill="#2E2D31"/>
<path fill-rule="evenodd" clip-rule="evenodd" d="M20.2688 13.4289L21.5423 13.4378L21.3909 12.8945H20.3579L20.2688 13.4289Z" fill="#2E2D31"/>
<path fill-rule="evenodd" clip-rule="evenodd" d="M25.1225 13.5732C25.6836 13.778 26.1022 13.4574 26.0754 12.8518C25.5411 12.7539 24.9979 12.9854 25.1225 13.5732Z" fill="#8B8B8B"/>
<path fill-rule="evenodd" clip-rule="evenodd" d="M20.3577 12.8957H21.3907V12.4059L20.518 12.3613L20.3577 12.8957Z" fill="#8B8B8B"/>
<path fill-rule="evenodd" clip-rule="evenodd" d="M17.5173 12.362H18.5771C18.5504 11.988 18.5415 12.0592 18.3545 11.7921C17.829 11.7208 17.6331 11.9078 17.5173 12.362Z" fill="#2E2D31"/>
<path fill-rule="evenodd" clip-rule="evenodd" d="M16.0122 12.5137C16.1636 12.8788 15.9321 12.7452 16.2259 12.8788L16.5465 12.8877L16.5822 12.4068L16.2348 12.3979C16.0567 12.3623 16.1547 12.4246 16.0835 12.291L16.0211 12.5047L16.0122 12.5137Z" fill="#8B8B8B"/>
</svg>
