<svg width="39" height="12" viewBox="0 0 39 12" fill="none" xmlns="http://www.w3.org/2000/svg">
<path fill-rule="evenodd" clip-rule="evenodd" d="M16.4999 11.8273H13.4158L15.3448 0.210938H18.4288L16.4999 11.8273Z" fill="#030303"/>
<path fill-rule="evenodd" clip-rule="evenodd" d="M27.6806 0.494552C27.0723 0.259513 26.1074 0 24.9143 0C21.8686 0 19.7239 1.58171 19.7107 3.84309C19.6854 5.51152 21.2463 6.43822 22.4137 6.99452C23.6069 7.56299 24.0126 7.93403 24.0126 8.44073C24.0004 9.21894 23.0484 9.57766 22.1604 9.57766C20.9291 9.57766 20.2693 9.39272 19.2667 8.95976L18.8605 8.77416L18.429 11.3818C19.1523 11.7027 20.485 11.9875 21.8686 12C25.1048 12 27.2116 10.4428 27.2365 8.0329C27.2488 6.71054 26.4246 5.69729 24.6477 4.86931C23.569 4.3378 22.9084 3.97941 22.9084 3.43559C22.921 2.9412 23.4671 2.43482 24.6848 2.43482C25.6874 2.41002 26.4241 2.64473 26.9822 2.87961L27.2612 3.00296L27.6806 0.494552Z" fill="#030303"/>
<path d="M35.583 0.210938L38.0713 11.8271H35.2158C35.2158 11.8271 34.9363 10.4932 34.8477 10.085H30.8877C30.7734 10.3932 30.2463 11.8135 30.2412 11.8271H27.0049L31.5859 1.1748C31.9033 0.42108 32.4618 0.211028 33.1973 0.210938H35.583ZM33.0078 4.45996C33.0078 4.45996 32.0305 7.04236 31.7764 7.70996H34.3398C34.2129 7.12866 33.6289 4.34863 33.6289 4.34863L33.4131 3.34766C33.2608 3.78012 32.995 4.48476 33.0078 4.45996Z" fill="#030303"/>
<path fill-rule="evenodd" clip-rule="evenodd" d="M10.8394 0.210938L7.81896 8.13215L7.48891 6.52564C6.9305 4.67193 5.17921 2.65791 3.22485 1.65649L5.99144 11.8149H9.25285L14.1006 0.210938H10.8394V0.210938Z" fill="#030303"/>
<path fill-rule="evenodd" clip-rule="evenodd" d="M5.01288 0.210938H0.0507646L0 0.445649C3.87076 1.40962 6.43428 3.73325 7.48752 6.52613L6.40882 1.1874C6.23123 0.445484 5.68546 0.235411 5.01288 0.210938Z" fill="#030303"/>
</svg>
